<svg width="715" height="595" viewBox="0 0 715 595" fill="none" xmlns="http://www.w3.org/2000/svg">
<path d="M220.868 471.763C220.79 471.763 220.713 471.748 220.641 471.718C220.569 471.688 220.504 471.645 220.449 471.59C220.394 471.535 220.35 471.47 220.32 471.398C220.29 471.326 220.275 471.249 220.275 471.171V415.097C220.277 414.942 220.341 414.793 220.452 414.684C220.563 414.575 220.712 414.514 220.868 414.514C221.023 414.514 221.173 414.575 221.283 414.684C221.394 414.793 221.458 414.942 221.46 415.097V471.171C221.46 471.249 221.445 471.326 221.415 471.398C221.385 471.47 221.342 471.535 221.287 471.59C221.232 471.645 221.166 471.688 221.094 471.718C221.022 471.748 220.945 471.763 220.868 471.763Z" fill="black"/>
<path d="M279.912 370.63C278.637 372.798 277.136 374.824 275.433 376.674C273.799 378.581 272.008 380.333 270.248 382.12C266.617 385.573 262.89 388.934 258.969 392.059C251.148 398.351 242.86 404.039 234.178 409.075C225.504 414.18 216.336 418.395 206.814 421.657C202.036 423.283 197.145 424.557 192.18 425.468C189.666 425.77 187.16 426.262 184.635 426.402C182.109 426.475 179.578 426.59 177.051 426.623C166.974 426.283 156.963 424.865 147.188 422.392C137.431 420.031 127.826 417.08 118.426 413.555C109.018 410.096 99.7801 406.209 90.5882 402.283C88.2894 401.314 85.9846 400.325 83.6692 399.479C82.5359 399.081 81.3147 398.667 80.1017 398.165C79.5401 397.837 78.9514 397.55 78.4161 397.185C77.8894 396.805 77.3862 396.394 76.9092 395.953C75.084 394.126 73.7135 391.896 72.9082 389.443C72.0892 387.026 71.6365 384.5 71.5648 381.949L71.5713 382.022C65.5484 349.007 57.8155 316.327 48.4037 284.113C43.8232 267.977 38.7069 251.999 33.4501 236.078C28.1836 220.158 22.5695 204.36 16.6077 188.684C13.5994 180.861 10.5857 173.039 7.42632 165.278C5.89733 161.385 4.10436 157.601 2.78129 153.481C1.46998 149.397 0.61315 145.181 0.226361 140.91C0.00978059 138.745 -0.0514904 136.568 0.0430105 134.395C0.282941 132.042 1.2542 129.824 2.82019 128.052C4.38618 126.28 6.46814 125.044 8.77334 124.517C10.8664 123.992 12.999 123.641 15.1496 123.466C19.4956 123.174 23.8554 123.772 27.963 125.221L39.9236 129.146L87.7674 144.846C89.8151 145.433 91.8132 146.181 93.7429 147.084C95.6732 148.056 97.4429 149.319 98.99 150.829C102.117 153.844 104.158 157.81 104.795 162.107L108.345 187.038C108.349 187.069 108.341 187.1 108.322 187.125C108.303 187.15 108.276 187.166 108.245 187.171C108.215 187.176 108.183 187.168 108.158 187.15C108.133 187.132 108.116 187.105 108.111 187.074L103.931 162.249C103.213 158.191 101.203 154.473 98.2013 151.649C96.7207 150.242 95.0328 149.072 93.1966 148.178C91.3116 147.33 89.3627 146.633 87.368 146.092L39.3159 131.042L27.3028 127.28C23.4538 125.972 19.3777 125.465 15.3256 125.792C13.295 125.991 11.282 126.339 9.30269 126.834C7.4872 127.254 5.84879 128.232 4.61753 129.631C3.38626 131.03 2.62395 132.779 2.43762 134.633C2.36717 136.653 2.43382 138.676 2.6371 140.687C3.01715 144.781 3.84772 148.82 5.11371 152.731C6.36124 156.607 8.17215 160.43 9.72142 164.341C12.9024 172.12 15.9667 179.944 18.9143 187.813C30.7022 219.284 41.0288 251.245 49.8941 283.694C54.3226 299.894 58.454 316.176 62.1169 332.564C65.9838 348.906 69.1588 365.397 72.3859 381.874L72.3909 381.917L72.3923 381.948C72.3764 386.881 74.2166 391.639 77.5473 395.277C77.9914 395.681 78.459 396.058 78.9478 396.406C79.4422 396.743 79.994 396.99 80.5122 397.288C81.6147 397.718 82.77 398.096 84.0028 398.501C86.3973 399.329 88.7077 400.276 91.0314 401.209C100.298 404.979 109.568 408.693 118.99 411.983C128.391 415.292 137.958 418.111 147.651 420.427C157.303 422.776 167.165 424.156 177.091 424.547C179.561 424.53 182.029 424.431 184.5 424.379C186.964 424.26 189.39 423.793 191.839 423.519C196.716 422.656 201.524 421.437 206.223 419.872C215.644 416.678 224.745 412.61 233.407 407.719C242.103 402.843 250.43 397.334 258.32 391.237C262.304 388.234 266.099 384.993 269.805 381.654C271.602 379.927 273.434 378.229 275.107 376.381C276.84 374.595 278.38 372.631 279.701 370.522L279.709 370.51C279.725 370.483 279.751 370.463 279.781 370.456C279.812 370.448 279.844 370.453 279.871 370.469C279.898 370.485 279.917 370.511 279.925 370.541C279.933 370.571 279.928 370.604 279.912 370.631L279.912 370.63Z" fill="black"/>
<path d="M9.75686 135.343L27.9044 141.713L46.0068 148.202L64.0875 154.751L82.136 161.385C82.2891 161.441 82.4261 161.534 82.5346 161.656C82.6431 161.778 82.7198 161.925 82.7579 162.083L82.7616 162.1C86.371 177.541 89.8395 193.013 93.167 208.517C96.5248 224.014 99.7445 239.543 103.234 255.011C110.104 285.97 117.609 316.786 124.86 347.659C126.591 355.279 129.751 362.501 134.173 368.943C138.587 375.352 144.361 380.709 151.084 384.629C157.827 388.465 165.43 390.535 173.187 390.645C177.104 390.619 181.016 390.39 184.909 389.959C188.828 389.538 192.746 389.099 196.627 388.454C204.4 387.267 212.045 385.36 219.465 382.756C226.867 380.045 234.055 376.786 240.972 373.004C247.948 369.294 254.759 365.246 261.507 361.097C268.289 356.998 275.007 352.786 281.732 348.585C281.758 348.568 281.79 348.563 281.821 348.569C281.851 348.576 281.878 348.594 281.895 348.621C281.912 348.647 281.918 348.678 281.912 348.709C281.905 348.739 281.887 348.766 281.862 348.784C268.714 357.647 255.63 366.633 241.772 374.464C234.852 378.438 227.629 381.86 220.172 384.698C212.667 387.479 204.91 389.524 197.01 390.804C193.07 391.471 189.109 391.928 185.147 392.367C181.161 392.821 177.154 393.067 173.142 393.103C164.962 393.037 156.938 390.856 149.851 386.771C142.933 382.537 136.967 376.914 132.33 370.258C127.693 363.603 124.486 356.059 122.91 348.101C116.129 317.122 109.601 286.084 102.438 255.191C98.9115 239.732 95.1151 224.334 91.4564 208.905C87.7838 193.479 84.2358 178.025 80.8124 162.543L81.438 163.258L63.4507 156.458L45.4953 149.574L27.5625 142.63L9.67382 135.565C9.64492 135.554 9.62164 135.532 9.60901 135.503C9.59637 135.475 9.59537 135.443 9.60624 135.414C9.61711 135.384 9.63897 135.361 9.66711 135.348C9.69525 135.335 9.72745 135.333 9.75674 135.343L9.75686 135.343Z" fill="black"/>
<path d="M219.367 43.9121C214.396 40.8937 213.142 31.7992 216.975 25.712C221.808 18.0357 227.21 31.9667 227.21 31.9667C236.024 45.0448 253.935 10.0751 253.935 10.0751C253.935 10.0751 239.72 -7.83621 207.309 4.10468C174.898 16.0456 197.074 56.7014 197.074 56.7014C197.074 56.7014 163.241 72.6226 174.613 114.984C174.613 114.984 204.846 107.949 203.044 57.4922C203.044 57.4922 215.696 52.5079 219.367 43.9121" fill="black"/>
<path d="M222.91 44.8136C221.102 45.2601 219.192 44.9864 217.583 44.0503C217.515 44.0095 217.457 43.956 217.411 43.8927C217.364 43.8294 217.331 43.7576 217.312 43.6814C217.294 43.6052 217.291 43.5261 217.303 43.4486C217.315 43.3711 217.342 43.2967 217.382 43.2297C217.423 43.1627 217.477 43.1043 217.54 43.058C217.603 43.0117 217.675 42.9783 217.751 42.9597C217.827 42.9411 217.907 42.9377 217.984 42.9497C218.062 42.9617 218.136 42.9889 218.203 43.0296C218.246 43.057 218.286 43.0889 218.322 43.1247C219.578 44.2552 221.221 44.8598 222.91 44.8136Z" fill="black"/>
<path d="M253.013 11.9041C254.944 14.9937 256.454 18.3269 257.504 21.8156C258.629 25.3506 259.053 29.0711 258.753 32.7685L258.526 32.0967C259.607 33.233 260.661 34.3948 261.703 35.5693L264.823 39.158C265.096 39.5205 265.292 39.9349 265.4 40.376C265.508 40.817 265.524 41.2753 265.449 41.723C265.373 42.1706 265.207 42.5981 264.96 42.9793C264.714 43.3606 264.392 43.6875 264.015 43.9401C263.374 44.4308 262.689 44.861 261.968 45.2251C261.597 45.4574 261.178 45.6037 260.743 45.6532C260.307 45.7026 259.866 45.654 259.452 45.5109L259.864 45.2624C259.817 50.3783 259.28 55.478 258.26 60.4913C257.726 63.1076 256.616 65.5722 255.01 67.706C254.07 68.8731 252.745 69.6659 251.272 69.9417C250.531 70.0273 249.781 69.9971 249.049 69.8521L247.225 69.5381C244.849 69.112 242.417 69.1128 240.042 69.5404C237.706 70.025 235.546 71.1319 233.788 72.744C230.362 76.3785 227.718 80.6774 226.02 85.3747C226.011 85.398 225.993 85.4168 225.97 85.427C225.947 85.4371 225.921 85.4378 225.898 85.4288C225.876 85.4198 225.859 85.4035 225.849 85.3827C225.838 85.362 225.836 85.3382 225.841 85.3157C226.454 82.8304 227.298 80.408 228.363 78.0803C229.407 75.6776 230.865 73.4772 232.671 71.5798C234.558 69.6236 236.969 68.2543 239.616 67.6368C242.227 67.0843 244.923 67.0582 247.544 67.5601L249.456 67.9488C249.966 68.0661 250.491 68.1072 251.013 68.0709C252.057 67.8909 253.004 67.3449 253.683 66.5306C255.175 64.6299 256.265 62.445 256.885 60.1092C258.342 55.2857 259.153 50.2904 259.297 45.2537C259.3 45.1774 259.333 45.1053 259.389 45.0534C259.445 45.0014 259.519 44.9738 259.595 44.9766C259.635 44.9787 259.674 44.9883 259.71 45.0049C260.045 45.0957 260.395 45.1136 260.738 45.0574C261.08 45.0013 261.407 44.8723 261.695 44.6792C262.365 44.313 262.993 43.8761 263.569 43.3759C263.838 43.1788 264.063 42.9281 264.23 42.6396C264.396 42.3511 264.502 42.0311 264.539 41.6998C264.575 41.3685 264.543 41.0332 264.444 40.715C264.345 40.3969 264.181 40.1027 263.962 39.8513L260.614 36.6042C259.493 35.5057 258.386 34.3947 257.305 33.258C257.224 33.1733 257.162 33.0726 257.122 32.9625C257.083 32.8523 257.067 32.7351 257.075 32.6184L257.077 32.5859C257.228 30.8522 257.223 29.1085 257.064 27.3756C256.882 25.6216 256.593 23.8804 256.198 22.1618C255.37 18.6845 254.25 15.2834 252.848 11.9951C252.842 11.9839 252.839 11.9717 252.839 11.9593C252.838 11.9469 252.84 11.9345 252.844 11.9227C252.848 11.911 252.855 11.9002 252.863 11.891C252.871 11.8818 252.881 11.8743 252.893 11.8689C252.914 11.86 252.937 11.8587 252.959 11.8651C252.981 11.8715 253 11.8853 253.013 11.9041Z" fill="black"/>
<path d="M247.893 25.8539C248.963 24.7753 250.395 24.1318 251.911 24.0478C253.409 23.903 254.913 24.2367 256.209 25.0009C254.714 25.1154 253.368 25.1055 252.013 25.2274C250.628 25.3492 249.252 25.5585 247.893 25.8539Z" fill="black"/>
<path d="M251.518 33.1751C251.979 33.1591 252.415 32.9649 252.736 32.6334C253.056 32.3019 253.235 31.859 253.235 31.3981C253.235 30.9372 253.056 30.4944 252.736 30.1629C252.415 29.8314 251.979 29.6372 251.518 29.6212C251.058 29.6372 250.621 29.8314 250.301 30.1629C249.981 30.4944 249.802 30.9372 249.802 31.3981C249.802 31.859 249.981 32.3019 250.301 32.6334C250.621 32.9649 251.058 33.1591 251.518 33.1751Z" fill="black"/>
<path d="M228.489 53.5738C230.146 55.5876 231.654 57.6243 233.266 59.578C234.849 61.5654 236.604 63.4092 238.511 65.088C236.076 64.0691 233.952 62.428 232.351 60.3291C230.683 58.3173 229.377 56.0317 228.489 53.5738Z" fill="black"/>
<path d="M106.854 179.348C108.03 173.882 109.46 168.576 111.003 163.247C112.565 157.937 114.197 152.639 116.086 147.429C119.757 136.945 124.146 126.725 129.221 116.844C131.808 111.901 134.667 107.106 137.786 102.481C140.881 97.7946 144.386 93.3919 148.259 89.3242C152.133 85.1544 156.605 81.5824 161.528 78.7249C166.551 75.8255 172.176 74.1266 177.963 73.7608L177.979 73.7601C178.077 73.7556 178.176 73.7602 178.273 73.7737C183.872 74.5901 189.419 75.5538 194.958 76.6461C200.495 77.7261 206.019 78.8946 211.508 80.2511C217.071 81.4881 222.505 83.2452 227.74 85.4992C230.333 86.7856 232.685 88.1462 235.24 89.364L242.854 93.0071C245.424 94.2228 247.911 95.6052 250.3 97.1456C252.756 98.6863 254.88 100.701 256.548 103.071C259.825 107.551 263.674 111.714 267.356 115.94C274.806 124.357 282.4 132.648 290.139 140.813C290.269 140.951 290.352 141.127 290.375 141.315C290.397 141.504 290.359 141.694 290.266 141.86L290.258 141.872C287.389 146.927 284.292 151.797 281.039 156.592C277.781 161.377 274.322 166.036 270.611 170.512C266.89 175.019 262.809 179.216 258.408 183.061C253.953 187.097 248.72 190.18 243.03 192.12L243.789 191.67C239.676 195.85 235.47 199.865 231.035 203.714C228.813 205.631 226.539 207.5 224.106 209.241C222.874 210.139 221.587 210.96 220.255 211.702C218.717 212.663 216.955 213.203 215.143 213.269L217.134 210.954C218.077 215.09 219.056 219.233 220.083 223.347L221.669 229.491C221.937 230.509 222.22 231.521 222.515 232.51C222.772 233.427 223.082 234.328 223.444 235.21L223.486 235.305C223.592 235.542 223.65 235.798 223.657 236.057C223.664 236.316 223.62 236.574 223.527 236.816C223.435 237.058 223.295 237.28 223.117 237.468C222.939 237.656 222.725 237.808 222.488 237.913C222.291 238 222.082 238.055 221.868 238.076C208.66 239.316 195.473 240.163 182.232 240.625C168.967 241.166 155.681 240.861 142.454 239.712C139.139 239.366 135.825 238.949 132.524 238.314C129.17 237.74 125.887 236.807 122.733 235.53C121.079 234.854 119.534 233.937 118.148 232.807C117.415 232.179 116.789 231.436 116.295 230.607C115.822 229.771 115.562 229.041 115.186 228.254C113.854 225.17 112.765 221.986 111.929 218.732C110.283 212.296 109.09 205.753 108.359 199.151C107.588 192.563 107.078 186.008 106.854 179.348ZM107.229 179.383C108.209 192.496 110.449 205.484 113.917 218.168C114.824 221.281 115.972 224.319 117.351 227.253C117.706 227.943 118.05 228.76 118.413 229.344C118.787 229.92 119.251 230.433 119.788 230.862C121.001 231.774 122.341 232.505 123.765 233.031C129.906 235.046 136.287 236.24 142.741 236.581C155.844 237.404 168.983 237.483 182.095 236.82C195.233 236.307 208.397 235.405 221.464 234.122L219.888 236.988C219.416 235.908 219.018 234.797 218.697 233.663C218.378 232.612 218.084 231.572 217.805 230.531C217.231 228.452 216.738 226.368 216.236 224.286C215.245 220.12 214.31 215.959 213.405 211.775C213.351 211.529 213.347 211.275 213.392 211.028C213.437 210.78 213.53 210.544 213.666 210.333C213.802 210.122 213.979 209.939 214.185 209.796C214.392 209.653 214.625 209.552 214.87 209.499C215.043 209.463 215.22 209.449 215.396 209.459C216.485 209.324 217.532 208.957 218.467 208.382C219.675 207.726 220.842 206.997 221.961 206.199C224.261 204.591 226.492 202.802 228.679 200.957C233.042 197.256 237.274 193.305 241.336 189.266L241.349 189.253C241.557 189.047 241.814 188.897 242.095 188.815C247.357 187.073 252.219 184.301 256.399 180.661C260.743 177.002 264.788 173.003 268.497 168.702C272.267 164.419 275.816 159.921 279.178 155.283C282.536 150.648 285.747 145.868 288.688 140.977L288.807 142.036C281.336 133.616 273.837 125.231 266.423 116.759C262.744 112.486 259.041 108.288 255.571 103.763C252.419 99.2426 247.227 96.6985 242.241 94.2765C237.192 91.9137 231.957 89.5934 226.967 87.1205C221.793 85.0946 216.442 83.5548 210.982 82.5211C200.042 80.156 188.903 78.5648 177.83 76.9305L178.14 76.9434C172.855 77.3343 167.732 78.9425 163.172 81.6424C158.554 84.3804 154.324 87.7263 150.597 91.5903C146.801 95.4842 143.357 99.7071 140.307 104.209C137.194 108.71 134.333 113.379 131.738 118.196C126.48 127.855 121.857 137.845 117.897 148.105C113.871 158.344 110.278 168.83 107.229 179.383L107.229 179.383Z" fill="black"/>
<path d="M242.562 190.468C241.216 187.401 239.95 184.31 238.67 181.226C237.385 178.144 236.176 175.035 234.843 171.978C233.606 168.882 232.278 165.825 230.898 162.798C230.231 161.273 229.504 159.779 228.717 158.317C228.35 157.573 227.937 156.853 227.481 156.16C227.265 155.807 227.029 155.466 226.777 155.137L225.93 154.218C228.377 156.539 230.344 159.318 231.718 162.398C233.28 165.371 234.607 168.45 235.936 171.523C237.182 174.631 238.412 177.744 239.518 180.902C240.623 184.06 241.676 187.237 242.562 190.468Z" fill="black"/>
<path d="M223.799 249.487C223.686 249.486 223.576 249.454 223.481 249.394C223.386 249.334 223.31 249.248 223.262 249.146L217.401 236.704C217.367 236.633 217.348 236.557 217.344 236.479C217.34 236.401 217.351 236.323 217.378 236.25C217.404 236.176 217.444 236.108 217.497 236.051C217.549 235.993 217.613 235.946 217.683 235.913C217.754 235.879 217.83 235.86 217.908 235.857C217.986 235.853 218.064 235.865 218.138 235.892C218.211 235.918 218.278 235.959 218.336 236.012C218.394 236.065 218.44 236.128 218.473 236.199L224.335 248.641C224.377 248.731 224.396 248.831 224.39 248.931C224.383 249.03 224.352 249.127 224.298 249.211C224.245 249.295 224.171 249.365 224.084 249.413C223.996 249.461 223.898 249.487 223.799 249.487Z" fill="black"/>
<path d="M117.408 230.555L124.563 256.889C120.82 243.68 118.166 233.481 117.408 230.555Z" fill="black"/>
<path d="M370.073 396.029C366.073 403.068 367.922 417.54 367.092 422.465C365.964 429.429 363.316 436.058 359.336 441.882C358.261 433.598 356.996 425.334 355.694 417.068C354.393 408.823 352.921 400.595 351.562 392.35C350.034 384.141 348.6 375.896 346.996 367.706L344.562 355.403C343.675 351.309 342.863 347.214 341.92 343.138C342.448 347.29 343.071 351.422 343.656 355.573L345.562 367.952C346.864 376.216 348.317 384.443 349.694 392.67C351.222 400.898 352.657 409.125 354.26 417.333C355.864 425.522 357.487 433.73 359.336 441.882C350.392 454.996 335.334 463.28 318.541 469.601C305.957 474.309 292.998 477.945 279.802 480.47C270.141 395.595 285.217 335.892 285.217 335.892C285.217 335.892 283.5 333.76 277.538 333.76C271.556 333.76 254.932 343.572 254.932 343.572C191.813 381.953 172.189 360.63 157.264 344.421C147.47 333.779 133.224 287.549 124.62 257.131C182.624 278.454 214.835 248.886 220.873 248.886C222.778 248.886 232.119 247.905 245.139 246.659C246.672 248.225 247.866 250.091 248.645 252.14C249.424 254.189 249.772 256.376 249.667 258.566C255.064 266.227 261.612 253.433 258.762 248.886C258.124 247.844 257.629 246.72 257.291 245.546C259.876 245.319 262.555 245.074 265.291 244.847C269.839 251.074 275.104 260.283 279.802 264.811C288.048 272.774 289.482 259.981 289.482 259.981C299.709 267.377 299.709 254.301 299.709 254.301C308.804 259.698 305.672 246.659 305.672 246.659C306.296 246.116 306.757 245.41 307.003 244.621C307.25 243.831 307.272 242.989 307.068 242.187C318.684 241.61 330.325 241.774 341.92 242.678C377.319 246.263 411.02 349.535 411.02 349.535C412.303 367.876 384.565 370.442 370.073 396.029Z" fill="black"/>
<path d="M167.585 424.966C168.905 433.198 169.718 441.469 170.576 449.736C171.374 458.008 171.754 466.313 172.269 474.607L173.844 499.487L175.3 524.377C175.302 524.408 175.292 524.438 175.271 524.462C175.251 524.485 175.222 524.499 175.191 524.502C175.16 524.504 175.13 524.494 175.106 524.474C175.082 524.455 175.067 524.426 175.064 524.395L172.663 499.579L170.379 474.754C169.609 466.479 168.703 458.216 168.215 449.919C167.787 441.618 167.315 433.321 167.349 424.984C167.348 424.954 167.36 424.925 167.38 424.903C167.4 424.881 167.428 424.868 167.458 424.866C167.488 424.863 167.518 424.872 167.541 424.891C167.565 424.909 167.58 424.936 167.585 424.966H167.585Z" fill="black"/>
<path d="M193.496 424.308C194.329 432.635 194.654 440.971 195.024 449.307C195.333 457.644 195.223 465.988 195.249 474.331L195.356 499.356L195.344 524.384C195.344 524.415 195.332 524.445 195.31 524.467C195.288 524.489 195.258 524.502 195.227 524.503C195.196 524.503 195.166 524.492 195.144 524.47C195.121 524.449 195.108 524.419 195.107 524.388L194.171 499.378L193.354 474.366C193.072 466.028 192.654 457.693 192.655 449.351C192.717 441.007 192.734 432.664 193.259 424.312C193.261 424.282 193.274 424.254 193.296 424.234C193.317 424.213 193.346 424.202 193.376 424.201C193.405 424.201 193.434 424.211 193.456 424.231C193.479 424.251 193.493 424.278 193.496 424.308Z" fill="black"/>
<path d="M184.907 544.348C217.174 544.348 243.332 533.751 243.332 520.679C243.332 507.608 217.174 497.011 184.907 497.011C152.64 497.011 126.482 507.608 126.482 520.679C126.482 533.751 152.64 544.348 184.907 544.348Z" fill="black"/>
<path d="M215.269 211.364C214.031 212.243 212.595 212.802 211.088 212.99C210.314 213.099 209.526 213.069 208.762 212.904C208.353 212.847 207.969 212.671 207.66 212.396C207.351 212.122 207.13 211.763 207.024 211.364C207.275 211.591 207.571 211.763 207.892 211.871C208.213 211.978 208.552 212.018 208.889 211.988C209.575 211.972 210.259 211.914 210.938 211.816C212.373 211.589 213.818 211.438 215.269 211.364Z" fill="black"/>
<path d="M241.281 191.722C247.518 195.764 253.735 199.838 260.026 203.754C261.603 204.722 263.186 205.688 264.791 206.578C265.587 207.045 266.404 207.44 267.199 207.86C267.578 208.017 268.025 208.25 268.345 208.35C268.488 208.384 268.629 208.425 268.767 208.476C269.082 208.535 269.402 208.609 269.715 208.696C271.487 209.443 273.201 210.319 274.844 211.318C276.464 212.264 278.059 213.242 279.63 214.252C285.97 218.23 291.972 222.724 297.574 227.688C300.449 230.172 302.985 233.022 305.117 236.167L305.838 237.45L306.416 238.707C306.848 239.57 307.218 240.463 307.523 241.378C307.826 242.37 307.869 243.424 307.647 244.437C307.395 245.457 306.828 246.371 306.026 247.049L306.182 246.545C306.421 247.75 306.571 248.972 306.631 250.199C306.724 251.457 306.574 252.721 306.187 253.921C306.087 254.242 305.929 254.542 305.722 254.807L305.413 255.22L304.98 255.534C304.695 255.743 304.362 255.876 304.012 255.922C303.684 256.002 303.343 256.012 303.01 255.952C302.374 255.879 301.751 255.715 301.161 255.467L299.519 254.614L300.079 254.295C300.037 255.684 299.822 257.062 299.439 258.397C299.095 259.805 298.282 261.054 297.134 261.938C296.502 262.318 295.791 262.548 295.057 262.611C294.323 262.674 293.583 262.568 292.896 262.301C292.238 262.055 291.595 261.771 290.97 261.451L289.212 260.342L289.916 260.03C289.733 262.265 288.989 264.418 287.751 266.288C287.39 266.792 286.92 267.208 286.377 267.505C285.833 267.803 285.23 267.975 284.611 268.007L283.675 267.935C283.383 267.863 283.108 267.749 282.824 267.655C282.278 267.456 281.759 267.188 281.281 266.858C279.484 265.571 277.874 264.041 276.496 262.313C275.107 260.647 273.807 258.925 272.567 257.17C270.083 253.666 267.753 250.076 265.275 246.644C264.083 244.933 262.78 243.301 261.375 241.76C260.736 241.05 259.998 240.435 259.183 239.936C258.894 239.746 258.559 239.636 258.213 239.617C257.969 239.621 257.736 239.719 257.563 239.89L257.923 239.219C257.679 241.493 257.942 243.792 258.695 245.951C258.888 246.479 259.117 246.994 259.38 247.491C259.512 247.738 259.652 247.98 259.8 248.214C259.973 248.548 260.149 248.934 260.308 249.299C260.727 250.691 260.81 252.162 260.549 253.592C260.108 256.35 258.771 258.885 256.745 260.806C256.145 261.367 255.418 261.772 254.626 261.989C253.834 262.205 253.001 262.225 252.199 262.047C250.738 261.551 249.487 260.574 248.652 259.276C248.493 259.086 248.412 258.845 248.423 258.598L248.429 258.454C248.549 255.629 247.89 252.826 246.524 250.351C246.174 249.744 245.779 249.165 245.343 248.617C244.891 248.045 244.46 247.639 243.862 246.98C242.744 245.774 241.818 244.404 241.113 242.918C239.815 240.005 239.044 236.884 238.836 233.702C238.594 230.602 238.621 227.486 238.915 224.391L238.968 224.734C238.023 222.932 236.617 221.414 234.894 220.333C233.119 219.163 231.175 218.273 229.129 217.694C227.067 217.066 224.952 216.629 222.81 216.388C221.731 216.305 220.651 216.194 219.567 216.135L216.305 216.055C216.273 216.056 216.243 216.045 216.22 216.023C216.196 216.002 216.183 215.972 216.182 215.941C216.182 215.91 216.194 215.881 216.215 215.858C216.236 215.836 216.264 215.821 216.294 215.818L219.575 215.662C220.67 215.653 221.767 215.705 222.866 215.724C225.073 215.844 227.265 216.166 229.413 216.686C231.599 217.2 233.692 218.052 235.615 219.212C236.593 219.804 237.501 220.503 238.325 221.296C239.208 222.108 239.935 223.076 240.47 224.15C240.51 224.232 240.529 224.322 240.527 224.413L240.524 224.494C240.375 227.502 240.448 230.516 240.742 233.513C241.006 236.444 241.786 239.305 243.046 241.964C243.686 243.231 244.516 244.393 245.507 245.409C245.941 245.877 246.638 246.514 247.144 247.132C247.681 247.764 248.163 248.442 248.584 249.157C250.237 252.045 251.043 255.339 250.911 258.664L250.689 257.843C251.358 258.631 252.084 259.483 252.84 259.595C253.249 259.668 253.669 259.641 254.064 259.515C254.459 259.389 254.818 259.169 255.109 258.873C256.676 257.334 257.712 255.336 258.066 253.168C258.251 252.157 258.217 251.117 257.965 250.12L257.702 249.517C257.524 249.225 257.358 248.929 257.203 248.627C256.895 248.026 256.629 247.404 256.408 246.766C255.551 244.222 255.285 241.516 255.632 238.854C255.662 238.608 255.779 238.38 255.962 238.211L255.993 238.183C256.608 237.62 257.414 237.312 258.248 237.321C258.975 237.351 259.681 237.569 260.297 237.954C261.304 238.577 262.214 239.345 262.996 240.234C264.449 241.87 265.793 243.601 267.018 245.414C269.453 248.975 271.684 252.616 274.054 256.145C275.241 257.905 276.431 259.66 277.722 261.322C278.945 262.988 280.39 264.478 282.017 265.753C282.405 266.048 282.83 266.289 283.282 266.471C283.501 266.55 283.719 266.656 283.939 266.721L284.6 266.792C285.046 266.778 285.484 266.664 285.881 266.456C286.277 266.249 286.621 265.955 286.887 265.595C288.058 263.913 288.794 261.967 289.03 259.932C289.049 259.811 289.116 259.704 289.214 259.632C289.313 259.561 289.436 259.532 289.556 259.551C289.62 259.562 289.68 259.585 289.734 259.619L291.391 260.698C291.965 260.998 292.554 261.268 293.157 261.504C293.725 261.741 294.339 261.844 294.953 261.805C295.567 261.767 296.164 261.588 296.697 261.282C297.707 260.507 298.424 259.413 298.734 258.179C299.125 256.921 299.328 255.612 299.337 254.295C299.338 254.232 299.354 254.17 299.386 254.115C299.417 254.06 299.461 254.014 299.515 253.981C299.569 253.948 299.63 253.929 299.693 253.926C299.756 253.923 299.819 253.936 299.875 253.964L299.898 253.975L301.458 254.754C301.975 254.961 302.519 255.095 303.073 255.152C303.58 255.229 304.097 255.114 304.523 254.83C304.95 254.547 305.256 254.114 305.381 253.617C305.704 252.525 305.815 251.38 305.71 250.246C305.638 249.079 305.459 247.921 305.176 246.787C305.154 246.696 305.157 246.602 305.184 246.513C305.211 246.424 305.262 246.344 305.331 246.282C305.932 245.713 306.347 244.975 306.521 244.166C306.696 243.357 306.622 242.514 306.309 241.747C305.988 240.914 305.61 240.104 305.176 239.323L304.537 238.075L303.842 236.958C301.671 234.039 299.13 231.414 296.283 229.15C290.624 224.411 284.7 219.997 278.539 215.931C275.548 213.863 272.405 212.024 269.137 210.428C269 210.395 268.867 210.349 268.739 210.29C268.477 210.232 268.113 210.16 267.81 210.072C267.252 209.882 266.878 209.661 266.405 209.454C265.561 209.001 264.732 208.533 263.94 208.034C262.333 207.059 260.782 206.027 259.231 204.99C253.042 200.838 247.043 196.445 241.144 191.915C241.119 191.896 241.103 191.869 241.098 191.838C241.094 191.808 241.101 191.777 241.119 191.752C241.137 191.727 241.164 191.71 241.194 191.704C241.224 191.698 241.255 191.705 241.281 191.722L241.281 191.722Z" fill="black"/>
<path d="M267.866 234.108C271.995 237.946 275.91 242.006 279.594 246.272C283.309 250.529 286.773 254.998 289.969 259.656C290.055 259.786 290.087 259.944 290.057 260.097C290.027 260.249 289.939 260.384 289.811 260.472C289.682 260.56 289.525 260.594 289.372 260.567C289.218 260.54 289.082 260.453 288.992 260.327L288.978 260.305C285.966 255.567 282.681 251.009 279.14 246.653C275.614 242.268 271.851 238.081 267.866 234.108Z" fill="black"/>
<path d="M277 197.116C284.162 204.23 290.96 211.7 297.37 219.498C297.467 219.62 297.512 219.776 297.496 219.931C297.479 220.086 297.401 220.229 297.28 220.327C297.159 220.426 297.004 220.473 296.848 220.457C296.693 220.442 296.55 220.366 296.45 220.246L296.433 220.224C290.348 212.2 283.862 204.487 277 197.116Z" fill="black"/>
<path d="M288.336 229.702C291.38 232.368 294.399 235.063 297.394 237.788L301.846 241.925C303.31 243.335 304.771 244.722 306.142 246.297C306.245 246.415 306.297 246.57 306.286 246.727C306.276 246.883 306.203 247.03 306.085 247.133C305.966 247.236 305.811 247.288 305.654 247.277C305.498 247.266 305.352 247.194 305.248 247.075L305.231 247.054L305.215 247.034C304.002 245.495 302.598 244.016 301.218 242.553L296.984 238.215C294.131 235.35 291.248 232.512 288.336 229.702Z" fill="black"/>
<path d="M253.177 185.143C254.704 187.04 256.402 188.794 258.25 190.38C260.067 192.028 261.908 193.649 263.774 195.244L275.068 204.709C282.612 211 290.325 217.105 297.948 223.292L298.054 223.388L298.079 223.412C301.403 226.883 305.177 229.893 309.301 232.362C313.427 234.769 317.906 236.512 322.574 237.527C331.968 239.576 341.761 238.752 350.68 235.161C355.048 233.376 359.461 230.825 363.961 228.788C368.431 226.626 373.01 224.692 377.609 222.822C382.236 221.015 386.921 219.358 391.676 217.916C396.438 216.399 401.335 215.343 406.299 214.763C406.358 214.758 406.419 214.764 406.476 214.782L406.498 214.79C410.84 216.232 415.378 217 419.954 217.065C424.494 217.157 428.992 216.168 433.075 214.179C435.096 213.093 437.038 211.868 438.887 210.511C441.148 209.417 443.69 209.046 446.169 209.447C448.529 209.698 450.861 210.16 453.138 210.829C453.633 210.999 454.142 211.125 454.659 211.206C455.104 211.26 455.556 211.232 455.991 211.122C456.82 210.888 457.544 210.375 458.039 209.67L458.514 209.227C458.424 209.271 458.342 209.328 458.27 209.396C458.09 209.56 457.969 209.779 457.928 210.019C457.896 210.198 457.908 210.382 457.961 210.556C458.014 210.729 458.107 210.888 458.233 211.018L458.065 209.63C458.359 209.047 458.475 208.39 458.397 207.741C458.36 207.378 458.291 207.018 458.19 206.668C458.092 206.323 457.965 205.987 457.81 205.665C457.735 205.518 457.691 205.357 457.681 205.193C457.67 205.028 457.693 204.864 457.747 204.708L457.774 204.632C458.096 203.156 457.998 201.62 457.491 200.198C457.022 198.584 456.408 197.015 455.656 195.512C455.571 195.339 455.521 195.151 455.511 194.959C455.5 194.766 455.528 194.574 455.592 194.393L455.625 194.303C455.85 193.712 455.953 193.082 455.927 192.45C455.859 191.772 455.683 191.11 455.406 190.488C455.099 189.814 454.716 189.177 454.267 188.589C453.821 187.992 453.322 187.438 452.776 186.932C452.539 186.72 452.373 186.439 452.301 186.13C452.228 185.82 452.253 185.495 452.371 185.2L452.408 185.11C452.894 183.948 452.92 182.644 452.479 181.464C451.873 180.329 450.856 179.469 449.637 179.059C446.675 178.129 443.532 177.927 440.475 178.47C433.9 179.386 427.423 180.909 421.127 183.019L421.113 183.024C420.902 183.09 420.681 183.12 420.46 183.111C414.587 182.865 408.647 185.462 402.519 187.376C399.422 188.34 396.497 189.424 393.086 190.141C389.815 190.824 386.604 191.171 383.377 191.544C370.496 192.743 357.664 193.158 344.819 193.309L340.003 193.355L337.596 193.369L336.392 193.374C335.972 193.376 335.484 193.361 335.035 193.32C332.269 193.061 329.671 191.877 327.662 189.959C326.987 189.291 326.527 188.771 325.949 188.169L312.817 174.122C304.069 164.751 295.386 155.317 286.767 145.82C286.734 145.784 286.716 145.736 286.718 145.687C286.719 145.638 286.74 145.592 286.775 145.558C286.81 145.524 286.858 145.505 286.907 145.505C286.956 145.505 287.003 145.524 287.038 145.558C296.259 154.472 305.404 163.459 314.475 172.518L328.086 186.102C328.631 186.643 329.258 187.301 329.735 187.747C331.27 189.141 333.23 189.979 335.298 190.125C335.936 190.173 336.721 190.122 337.541 190.105L339.94 190.033L344.735 189.871C357.511 189.343 370.321 188.842 382.956 187.522C386.094 187.166 389.265 186.823 392.271 186.197C395.142 185.615 398.262 184.501 401.278 183.56C404.322 182.584 407.356 181.567 410.535 180.685C413.8 179.692 417.206 179.239 420.617 179.344L419.95 179.436C423.263 178.405 426.543 177.526 429.897 176.758C433.261 175.964 436.67 175.375 440.105 174.993C441.872 174.804 443.649 174.739 445.424 174.799C447.321 174.862 449.191 175.267 450.944 175.995C452.93 176.769 454.54 178.281 455.438 180.214C455.844 181.224 456.016 182.312 455.942 183.397C455.883 184.449 455.63 185.482 455.197 186.443L454.83 184.621C455.527 185.285 456.158 186.015 456.714 186.801C457.282 187.584 457.76 188.43 458.138 189.32C458.533 190.269 458.768 191.277 458.833 192.303C458.861 193.381 458.658 194.453 458.235 195.445L458.204 194.237C459.003 195.935 459.631 197.707 460.08 199.529C460.32 200.47 460.468 201.432 460.523 202.402C460.611 203.485 460.455 204.573 460.066 205.587L460.03 204.555C460.459 205.51 460.713 206.534 460.779 207.579C460.859 208.703 460.6 209.825 460.036 210.8L459.868 209.412C459.997 209.546 460.093 209.708 460.147 209.885C460.202 210.063 460.214 210.251 460.182 210.434C460.138 210.682 460.013 210.909 459.826 211.078C459.741 211.157 459.644 211.223 459.54 211.274L460.013 210.832C459.624 211.473 459.08 212.007 458.431 212.385C457.831 212.763 457.176 213.048 456.49 213.23C455.795 213.379 455.078 213.4 454.376 213.29C453.753 213.175 453.142 213.006 452.547 212.786C450.405 212.083 448.204 211.574 445.97 211.264C443.868 210.846 441.69 211.065 439.714 211.895C437.788 213.21 435.777 214.395 433.693 215.441C429.401 217.474 424.687 218.458 419.94 218.311C415.253 218.163 410.609 217.351 406.149 215.9L406.347 215.926C401.49 216.518 396.708 217.625 392.085 219.228C387.405 220.735 382.835 222.573 378.327 224.54C373.843 226.567 369.391 228.661 365.042 230.967C360.614 233.171 356.545 235.767 351.841 237.913C342.41 242.071 331.894 243.091 321.84 240.823C316.844 239.687 312.057 237.771 307.657 235.147C303.317 232.486 299.371 229.23 295.936 225.472L296.066 225.592C288.498 219.285 281.114 212.778 273.75 206.24C270.06 202.98 266.441 199.639 262.891 196.218C261.107 194.518 259.352 192.787 257.623 191.025C256.778 190.121 255.906 189.253 255.107 188.302L253.906 186.882C253.531 186.38 253.195 185.836 252.844 185.321C252.817 185.28 252.807 185.23 252.816 185.182C252.825 185.133 252.853 185.091 252.894 185.063C252.934 185.035 252.984 185.024 253.032 185.032C253.081 185.04 253.124 185.068 253.153 185.107L253.177 185.143Z" fill="black"/>
<path d="M429.636 186.061C433.593 184.796 437.662 183.915 441.788 183.431C443.87 183.177 445.973 183.139 448.062 183.316C450.24 183.419 452.349 184.108 454.167 185.31C454.294 185.403 454.379 185.542 454.403 185.698C454.427 185.853 454.388 186.011 454.295 186.138C454.202 186.265 454.063 186.35 453.908 186.374C453.752 186.398 453.594 186.359 453.467 186.266L453.437 186.243C451.825 185.085 449.933 184.38 447.956 184.198C445.928 183.929 443.877 183.87 441.837 184.021C437.714 184.308 433.628 184.991 429.636 186.061Z" fill="black"/>
<path d="M435.038 193.015C438.748 192.21 442.522 191.729 446.315 191.58C448.233 191.516 450.153 191.633 452.049 191.93C454.074 192.151 455.961 193.061 457.395 194.507C457.499 194.625 457.552 194.779 457.543 194.936C457.533 195.093 457.462 195.24 457.344 195.344C457.286 195.396 457.218 195.436 457.145 195.461C457.071 195.487 456.993 195.497 456.915 195.492C456.758 195.483 456.612 195.412 456.507 195.294L456.485 195.267L456.465 195.242C455.251 193.935 453.632 193.075 451.869 192.8C450.042 192.417 448.183 192.207 446.316 192.172C442.54 192.125 438.766 192.407 435.038 193.015Z" fill="black"/>
<path d="M437.028 200.561C440.877 199.864 444.799 199.673 448.697 199.992C450.675 200.136 452.622 200.562 454.479 201.258C456.419 201.944 458.126 203.162 459.407 204.772C459.454 204.835 459.489 204.906 459.508 204.981C459.528 205.057 459.533 205.135 459.522 205.213C459.511 205.29 459.485 205.365 459.445 205.432C459.405 205.499 459.353 205.558 459.29 205.605C459.228 205.652 459.157 205.686 459.081 205.705C459.005 205.724 458.926 205.728 458.849 205.717C458.772 205.706 458.698 205.679 458.631 205.639C458.564 205.599 458.505 205.546 458.459 205.483L458.442 205.461L458.433 205.447C457.343 203.946 455.856 202.779 454.138 202.079C452.382 201.319 450.525 200.814 448.626 200.58C444.777 200.069 440.879 200.063 437.028 200.561Z" fill="black"/>
<path d="M375.811 10.8637V125.155L534.454 139.228V10.8637H375.811ZM516.969 122.17L392.016 111.935V26.2163L516.969 24.9368V122.17Z" fill="black"/>
<path d="M401.44 35.4592C401.606 38.9569 401.752 42.3145 401.828 45.6172C401.913 48.9244 401.965 52.1766 401.839 55.4607L401.399 55.0197C404.218 55.1143 407.037 55.2546 409.856 55.2675C412.676 55.2956 415.495 55.2304 418.314 55.1367L417.99 55.4607C417.867 52.1201 417.778 48.7795 417.747 45.4392C417.683 42.0986 417.679 38.758 417.712 35.4176L418.314 36.0204C415.571 36.0324 412.815 35.8961 410.027 35.8283L401.44 35.4592ZM401.356 35.3753L409.686 35.0061C412.537 34.9386 415.419 34.8024 418.314 34.8143C418.474 34.8158 418.626 34.8799 418.739 34.9927C418.852 35.1055 418.916 35.258 418.918 35.4175C418.95 38.7579 418.947 42.0985 418.882 45.4391C418.851 48.7794 418.762 52.1201 418.639 55.4606L418.638 55.4833C418.637 55.5243 418.627 55.5647 418.61 55.6022C418.593 55.6396 418.569 55.6733 418.539 55.7013C418.509 55.7294 418.474 55.7512 418.435 55.7655C418.396 55.7799 418.356 55.7865 418.314 55.785C415.495 55.6913 412.676 55.6261 409.856 55.6544C407.037 55.6671 404.218 55.8073 401.399 55.902C401.343 55.9039 401.287 55.8947 401.234 55.875C401.182 55.8553 401.134 55.8255 401.093 55.7873C401.052 55.749 401.019 55.7031 400.996 55.6521C400.973 55.6011 400.96 55.5461 400.958 55.4902L400.957 55.4607C400.831 52.0634 400.884 48.6346 400.968 45.2608C401.044 41.8822 401.191 38.5589 401.356 35.3753H401.356Z" fill="black"/>
<path d="M482.576 33.6914C482.868 40.4973 483.066 47.1239 483.24 53.6983C483.443 60.2888 483.532 66.7639 483.607 73.2348C483.682 79.7011 483.581 86.0953 483.369 92.5237C483.191 98.9531 482.927 105.432 482.908 111.94L482.479 111.511C486.332 111.565 490.184 111.464 494.037 111.449C497.889 111.421 501.741 111.273 505.594 111.191L504.845 111.94C504.632 105.411 504.475 98.8825 504.376 92.3538L504.155 72.7676C504.106 66.2386 504.123 59.7098 504.206 53.1811L504.568 33.5946L505.594 34.6208L494.288 34.2011L482.576 33.6914ZM482.382 33.4977L493.785 32.9883L505.594 32.5683C505.724 32.5637 505.853 32.5848 505.975 32.6302C506.097 32.6757 506.209 32.7448 506.304 32.8334C506.399 32.9221 506.476 33.0286 506.53 33.147C506.584 33.2653 506.614 33.3931 506.619 33.5231L506.619 33.5346L506.62 33.5948L506.982 53.1812C507.059 59.71 507.076 66.2388 507.033 72.7677L506.813 92.354C506.705 98.8827 506.549 105.411 506.344 111.94L506.342 111.981C506.336 112.174 506.254 112.356 506.114 112.489C505.973 112.622 505.787 112.694 505.594 112.69C501.741 112.608 497.889 112.46 494.037 112.432C490.184 112.417 486.332 112.316 482.479 112.37C482.424 112.37 482.368 112.36 482.317 112.34C482.265 112.319 482.218 112.289 482.178 112.25C482.138 112.211 482.106 112.165 482.085 112.114C482.063 112.063 482.051 112.008 482.05 111.952L482.05 111.94C482.031 105.391 481.767 98.8122 481.589 92.1841C481.377 85.5547 481.276 78.8912 481.351 72.3003C481.426 65.7135 481.516 59.1308 481.718 52.6638C481.892 46.1805 482.09 39.7496 482.382 33.4977Z" fill="black"/>
<path d="M465.767 144.319V133.135L448.283 131.584V142.564C437.665 142.851 429.755 145.764 429.338 150.06C428.815 155.452 440.282 160.977 454.952 162.401C469.622 163.824 481.939 160.607 482.462 155.215C482.873 150.982 475.888 146.667 465.767 144.319Z" fill="black"/>
<path d="M302.185 161.454C310.862 155.924 319.64 150.561 328.447 145.248C328.55 145.187 328.671 145.164 328.789 145.182C336.938 146.435 345.057 147.871 353.173 149.327C361.285 150.804 369.426 152.109 377.579 153.334L402.037 157.023C410.18 158.311 418.334 159.534 426.465 160.899C426.626 160.925 426.769 161.014 426.865 161.147C426.96 161.279 426.998 161.444 426.972 161.604C426.946 161.761 426.861 161.901 426.735 161.997C420.697 166.53 414.618 171.006 408.495 175.425L399.344 182.096L390.135 188.69C390.122 188.699 390.106 188.702 390.091 188.7C390.076 188.697 390.062 188.689 390.053 188.677C390.043 188.664 390.039 188.649 390.041 188.634C390.043 188.618 390.051 188.604 390.064 188.595L398.988 181.62L407.97 174.723C413.949 170.111 419.958 165.542 425.999 161.013L426.268 162.111C418.123 160.839 410 159.425 401.867 158.076L377.495 153.855C369.372 152.443 361.236 151.111 353.072 149.951C344.911 148.771 336.754 147.57 328.626 146.186L328.968 146.12C320.113 151.354 311.229 156.539 302.245 161.556C302.232 161.563 302.216 161.565 302.201 161.561C302.186 161.557 302.173 161.548 302.166 161.534C302.158 161.521 302.155 161.505 302.159 161.49C302.162 161.475 302.172 161.462 302.185 161.454V161.454Z" fill="black"/>
<path d="M312.703 172.343C317.693 173.62 322.645 175.021 327.591 176.44L342.387 180.84L357.102 185.501C361.993 187.102 366.878 188.722 371.724 190.467C366.733 189.192 361.781 187.791 356.835 186.372L342.04 181.971L327.325 177.307C322.434 175.707 317.549 174.087 312.703 172.343Z" fill="black"/>
<path d="M480.613 151.086C483.605 150.679 486.632 150.591 489.643 150.823C492.738 150.972 495.77 151.751 498.553 153.113C500.007 153.869 501.261 154.961 502.209 156.297C503.155 157.693 503.678 159.331 503.717 161.016C503.747 162.634 503.504 164.245 503 165.782C502.553 167.364 501.787 168.838 500.748 170.112C499.71 171.387 498.437 172.451 496.999 173.246C495.647 174.026 494.229 174.686 492.761 175.217C489.841 176.305 486.761 176.904 483.646 176.992C480.572 177.055 477.506 176.656 474.551 175.807C471.716 174.933 468.697 174.841 465.814 175.542C467.162 174.809 468.665 174.407 470.198 174.367C471.727 174.267 473.262 174.32 474.781 174.526C477.668 175.046 480.61 175.195 483.534 174.97C486.414 174.735 489.245 174.089 491.941 173.05C493.282 172.53 494.582 171.912 495.831 171.2C497.035 170.564 498.104 169.701 498.979 168.657C499.855 167.613 500.526 166.413 500.955 165.121C501.428 163.82 501.679 162.449 501.699 161.064C501.726 159.736 501.376 158.427 500.688 157.289C499.942 156.141 498.938 155.183 497.756 154.492C495.209 153.072 492.42 152.139 489.531 151.739C486.582 151.269 483.599 151.05 480.613 151.086Z" fill="black"/>
<path d="M468.408 183.573C468.408 183.573 467.899 200.217 459.05 210.215C459.405 209.407 459.577 208.53 459.555 207.648C459.532 206.765 459.315 205.898 458.92 205.109C460.341 201.698 456.929 194.874 456.929 194.874C458.92 190.325 453.802 185.776 453.802 185.776C453.802 185.776 456.929 179.237 448.685 176.963C448.685 176.963 471.216 166.444 468.408 183.573Z" fill="black"/>
<path d="M516.777 308.07C516.697 308.071 516.617 308.058 516.54 308.033L364.054 257.611C363.96 257.58 363.873 257.531 363.798 257.466C363.723 257.401 363.662 257.322 363.617 257.234C363.572 257.145 363.546 257.049 363.538 256.95C363.531 256.851 363.543 256.752 363.574 256.658C363.606 256.563 363.655 256.476 363.72 256.401C363.784 256.326 363.863 256.265 363.952 256.22C364.04 256.175 364.137 256.149 364.236 256.141C364.335 256.134 364.434 256.146 364.528 256.178L516.694 306.495L712.62 194.435V185.447L349.252 119.177L289.745 142.128C289.558 142.199 289.351 142.194 289.169 142.113C288.986 142.031 288.844 141.881 288.772 141.695C288.7 141.509 288.705 141.302 288.785 141.119C288.866 140.936 289.015 140.793 289.201 140.72L348.906 117.692C349.037 117.645 349.177 117.632 349.314 117.653L713.51 184.074C713.684 184.106 713.841 184.197 713.954 184.333C714.067 184.469 714.129 184.64 714.129 184.816V194.874C714.129 195.007 714.094 195.137 714.028 195.252C713.961 195.367 713.865 195.462 713.75 195.528L517.152 307.971C517.038 308.036 516.909 308.07 516.777 308.07Z" fill="black"/>
<path d="M516.35 298.527C516.289 298.527 516.229 298.518 516.171 298.5L354.116 247.23C354.042 247.206 353.974 247.168 353.914 247.118C353.855 247.068 353.806 247.007 353.77 246.938C353.698 246.799 353.684 246.637 353.731 246.487C353.779 246.337 353.883 246.213 354.023 246.141C354.162 246.068 354.324 246.054 354.474 246.102L516.281 297.293L713.079 184.303C713.147 184.264 713.221 184.239 713.299 184.229C713.376 184.219 713.454 184.225 713.529 184.245C713.605 184.265 713.675 184.3 713.736 184.348C713.798 184.395 713.85 184.455 713.888 184.522C713.927 184.59 713.952 184.664 713.962 184.741C713.972 184.818 713.967 184.897 713.946 184.972C713.926 185.047 713.891 185.117 713.843 185.179C713.796 185.241 713.737 185.292 713.669 185.331L516.645 298.45C516.555 298.501 516.453 298.527 516.35 298.527Z" fill="black"/>
<path d="M516.776 307.908C516.624 307.908 516.478 307.85 516.368 307.745C516.258 307.64 516.192 307.496 516.185 307.345L515.759 297.963C515.755 297.885 515.767 297.808 515.793 297.735C515.82 297.661 515.86 297.594 515.913 297.537C515.965 297.479 516.028 297.432 516.099 297.399C516.169 297.366 516.246 297.348 516.324 297.344C516.479 297.342 516.629 297.4 516.744 297.504C516.858 297.609 516.929 297.753 516.942 297.908L517.368 307.289C517.372 307.367 517.36 307.445 517.334 307.518C517.308 307.591 517.267 307.658 517.214 307.716C517.162 307.774 517.099 307.82 517.028 307.853C516.958 307.886 516.881 307.905 516.804 307.908H516.776Z" fill="black"/>
<path d="M516.831 304.56L518.016 377.001L518.904 449.443C519.224 473.59 519.884 497.737 519.496 521.884C519.283 533.957 519.069 546.031 518.599 558.104L517.886 576.215C517.53 582.251 517.286 588.288 516.831 594.325C516.826 594.4 516.792 594.469 516.737 594.52C516.682 594.571 516.61 594.6 516.535 594.6C516.46 594.6 516.388 594.571 516.333 594.52C516.278 594.469 516.244 594.4 516.239 594.325C515.784 588.288 515.539 582.251 515.183 576.215L514.47 558.104C514.001 546.031 513.787 533.957 513.573 521.884C513.185 497.737 513.846 473.59 514.166 449.443L515.054 377.001L516.239 304.56C516.24 304.482 516.272 304.408 516.327 304.354C516.383 304.299 516.457 304.269 516.535 304.269C516.613 304.269 516.687 304.299 516.743 304.354C516.798 304.408 516.83 304.482 516.831 304.56Z" fill="black"/>
<path d="M698.318 205.11L699.502 277.551L700.391 349.992C700.711 374.139 701.371 398.286 700.983 422.433C700.77 434.507 700.556 446.58 700.086 458.654L699.373 476.765C699.017 482.801 698.773 488.838 698.318 494.875C698.312 494.949 698.279 495.019 698.224 495.07C698.169 495.121 698.097 495.149 698.022 495.149C697.947 495.149 697.875 495.121 697.82 495.07C697.765 495.019 697.731 494.949 697.726 494.875C697.271 488.838 697.026 482.801 696.671 476.765L695.957 458.654C695.488 446.58 695.274 434.507 695.06 422.433C694.672 398.286 695.332 374.139 695.653 349.992L696.541 277.551L697.726 205.11C697.727 205.032 697.759 204.957 697.814 204.903C697.869 204.848 697.944 204.818 698.022 204.818C698.1 204.818 698.174 204.848 698.23 204.903C698.285 204.957 698.317 205.032 698.318 205.11H698.318Z" fill="black"/>
<path d="M396.515 404.124C396.515 404.124 410.063 405.253 456.604 437.208C464.219 442.536 473.536 444.856 482.759 443.721C485.217 443.448 487.624 442.83 489.909 441.886C489.909 441.886 525.305 451.035 493.747 457.005C493.747 457.005 448.543 458.284 414.852 433.55L415.279 447.196H398.22C398.22 447.196 390.544 411.8 396.515 404.124Z" fill="#EC602C"/>
<path d="M410.995 352.139C413.612 356.546 416.094 361.024 418.648 365.465L426.083 378.906C428.59 383.367 430.946 387.923 433.376 392.413C435.78 396.847 438.653 401.009 441.946 404.829C443.565 406.758 445.283 408.601 447.094 410.352C448.899 412.091 450.852 413.737 452.782 415.418C456.637 418.772 460.591 422.003 464.503 425.286C468.438 428.538 472.442 431.709 476.585 434.679C478.638 436.191 480.741 437.634 482.921 438.947L484.574 439.902L486.283 440.744C487.427 441.306 488.65 441.691 489.91 441.886C487.338 441.613 484.853 440.799 482.619 439.497C480.325 438.324 478.104 437.017 475.932 435.64C471.619 432.838 467.466 429.81 463.371 426.714C459.258 423.64 455.326 420.34 451.384 417.06C449.431 415.406 447.443 413.78 445.535 411.994C439.808 406.666 435.052 400.383 431.477 393.426C429.128 388.863 426.735 384.349 424.477 379.749L417.626 366.002C415.418 361.379 413.139 356.794 410.995 352.139Z" fill="black"/>
<path d="M379.686 383.464C383.108 386.34 386.235 389.55 389.019 393.046C391.884 396.477 394.395 400.188 396.514 404.124C393.089 401.253 389.962 398.042 387.182 394.542C384.321 391.108 381.81 387.397 379.686 383.464Z" fill="black"/>
<path d="M299.236 507.902C299.236 507.902 312.814 507.217 363.195 532.691C371.451 536.958 380.994 538.016 389.984 535.663C392.384 535.066 394.687 534.133 396.826 532.893C396.826 532.893 433.126 537.248 402.643 547.366C402.643 547.366 358.011 554.653 321.328 534.624L323.567 548.092L306.661 550.364C306.661 550.364 294.34 516.304 299.236 507.902Z" fill="#EC602C"/>
<path d="M327.82 465.798C328.939 469.968 329.91 474.168 330.959 478.351L332.41 484.652C332.812 486.712 333.454 488.718 334.322 490.629C335.196 492.501 336.311 494.252 337.638 495.836C339.002 497.423 340.491 498.97 342.013 500.437C345.056 503.392 348.354 506.074 351.868 508.451C359.005 513.181 366.284 517.814 373.619 522.267C377.293 524.49 381.015 526.637 384.835 528.582C386.721 529.598 388.659 530.515 390.64 531.33C392.587 532.232 394.685 532.763 396.827 532.893C394.65 533.02 392.471 532.689 390.43 531.921C388.361 531.264 386.328 530.5 384.338 529.631C380.373 527.878 376.524 525.894 372.714 523.848C365.097 519.727 357.793 515.154 350.535 510.408C346.922 507.93 343.544 505.126 340.443 502.03C338.903 500.466 337.44 498.868 336.038 497.15C334.629 495.396 333.49 493.441 332.657 491.35C331.842 489.29 331.269 487.142 330.949 484.949L329.827 478.581C329.161 474.32 328.416 470.074 327.82 465.798Z" fill="black"/>
<path d="M298.086 476.212C299.114 481.421 299.702 486.707 299.844 492.014C300.092 497.317 299.889 502.633 299.235 507.902C298.202 502.694 297.614 497.408 297.478 492.1C297.234 486.796 297.438 481.482 298.086 476.212Z" fill="black"/>
<path d="M258.853 54.5018C256.437 54.7382 254.003 54.3228 251.803 53.2988C250.655 52.7918 249.649 52.0114 248.872 51.0258C248.099 50.0355 247.747 48.7803 247.893 47.5324C248.219 48.6029 248.788 49.5838 249.555 50.3987C250.321 51.2137 251.266 51.8408 252.315 52.2314C254.432 53.1567 256.618 53.9158 258.853 54.5018Z" fill="black"/>
<path d="M487.932 43.2177C488.666 43.1923 489.361 42.8829 489.871 42.3549C490.381 41.8269 490.666 41.1214 490.666 40.3873C490.666 39.6532 490.381 38.9477 489.871 38.4197C489.361 37.8917 488.666 37.5823 487.932 37.5569C487.198 37.5823 486.503 37.8917 485.993 38.4197C485.483 38.9477 485.198 39.6532 485.198 40.3873C485.198 41.1214 485.483 41.8269 485.993 42.3549C486.503 42.8829 487.198 43.1923 487.932 43.2177Z" fill="#EC602C"/>
<path d="M488.385 58.8416C489.119 58.8162 489.814 58.5069 490.324 57.9789C490.834 57.4508 491.119 56.7454 491.119 56.0112C491.119 55.2771 490.834 54.5716 490.324 54.0436C489.814 53.5156 489.119 53.2062 488.385 53.1808C487.651 53.2062 486.956 53.5156 486.446 54.0436C485.936 54.5716 485.651 55.2771 485.651 56.0112C485.651 56.7454 485.936 57.4508 486.446 57.9789C486.956 58.5069 487.651 58.8162 488.385 58.8416Z" fill="#EC602C"/>
<path d="M488.612 75.5979C489.345 75.5725 490.04 75.2632 490.55 74.7351C491.061 74.2071 491.346 73.5017 491.346 72.7675C491.346 72.0334 491.061 71.3279 490.55 70.7999C490.04 70.2719 489.345 69.9625 488.612 69.9371C487.878 69.9625 487.183 70.2719 486.673 70.7999C486.163 71.3279 485.878 72.0334 485.878 72.7675C485.878 73.5017 486.163 74.2071 486.673 74.7351C487.183 75.2632 487.878 75.5725 488.612 75.5979Z" fill="#EC602C"/>
<path d="M488.612 94.1651C489.345 94.1397 490.04 93.8304 490.55 93.3024C491.061 92.7743 491.346 92.0689 491.346 91.3347C491.346 90.6006 491.061 89.8951 490.55 89.3671C490.04 88.8391 489.345 88.5297 488.612 88.5043C487.878 88.5297 487.183 88.8391 486.673 89.3671C486.163 89.8951 485.878 90.6006 485.878 91.3347C485.878 92.0689 486.163 92.7743 486.673 93.3024C487.183 93.8304 487.878 94.1397 488.612 94.1651Z" fill="#EC602C"/>
<path d="M489.064 109.11C489.798 109.085 490.493 108.775 491.003 108.247C491.513 107.719 491.798 107.014 491.798 106.28C491.798 105.545 491.513 104.84 491.003 104.312C490.493 103.784 489.798 103.475 489.064 103.449C488.331 103.475 487.636 103.784 487.125 104.312C486.615 104.84 486.33 105.545 486.33 106.28C486.33 107.014 486.615 107.719 487.125 108.247C487.636 108.775 488.331 109.085 489.064 109.11Z" fill="#EC602C"/>
<path d="M409.786 46.5943C410.196 46.5921 410.597 46.4743 410.944 46.2546C411.29 46.0349 411.567 45.7221 411.744 45.3521C412.033 44.7065 412.229 44.0236 412.328 43.3235C412.417 42.9491 412.428 42.5603 412.36 42.1815C412.292 41.8027 412.146 41.4421 411.931 41.1226C411.669 40.8245 411.332 40.6027 410.954 40.4807C410.576 40.3588 410.173 40.3413 409.786 40.43C409.096 40.5695 408.474 40.938 408.02 41.4757C407.64 42.0173 407.437 42.6638 407.441 43.3256C407.424 44.0174 407.563 44.7042 407.846 45.3357C408.018 45.7068 408.292 46.0218 408.635 46.2444C408.978 46.4671 409.377 46.5884 409.786 46.5943ZM409.786 46.762C408.823 46.8216 407.865 46.5864 407.038 46.0878C406.605 45.7704 406.253 45.3543 406.012 44.8738C405.771 44.3933 405.647 43.8624 405.652 43.3249C405.644 42.7806 405.748 42.2403 405.956 41.7375C406.165 41.2347 406.474 40.78 406.865 40.4014C407.247 40.033 407.711 39.7604 408.219 39.6057C408.727 39.4511 409.264 39.4189 409.786 39.5118C410.739 39.6596 411.626 40.0918 412.329 40.752C413.084 41.4172 413.578 42.3287 413.723 43.3242C413.784 43.8478 413.703 44.3779 413.491 44.8602C413.279 45.3426 412.942 45.7597 412.515 46.0689C411.696 46.5695 410.745 46.8111 409.786 46.762Z" fill="black"/>
<path d="M415.21 55.5194C413.459 55.813 411.693 56.0099 409.921 56.1091C408.97 56.1508 408.01 56.2001 407.038 56.1749C406.067 56.1526 405.095 56.0252 404.152 55.937L404.056 55.9278C404.001 55.9227 403.947 55.9067 403.898 55.8808C403.849 55.8549 403.806 55.8196 403.77 55.7769C403.735 55.7343 403.708 55.685 403.692 55.6321C403.676 55.5791 403.67 55.5235 403.675 55.4683L403.676 55.4607C403.811 54.4391 403.885 53.4105 403.9 52.3802C403.834 51.3045 403.986 50.2266 404.349 49.2116C404.776 48.1182 405.519 47.1768 406.483 46.5077C407.448 45.8386 408.59 45.4721 409.763 45.4549C410.937 45.4378 412.089 45.7708 413.073 46.4115C414.056 47.0522 414.827 47.9715 415.285 49.052C415.729 50.1239 415.859 51.2994 415.661 52.4423C415.547 53.5705 415.357 54.6209 415.21 55.5194ZM415.093 55.4022L414.643 52.3184C414.594 51.4079 414.345 50.5195 413.912 49.7167C413.47 48.9651 412.851 48.3331 412.108 47.876C411.366 47.4189 410.522 47.1505 409.652 47.0943C408.739 47.0712 407.836 47.286 407.031 47.7178C406.226 48.1495 405.547 48.7832 405.061 49.5566C404.552 50.4058 404.323 51.3934 404.404 52.3801C404.419 53.4105 404.494 54.4391 404.628 55.4607L404.152 54.9848C405.043 54.8963 405.904 54.769 406.766 54.7466C407.627 54.7215 408.501 54.7708 409.384 54.8125C411.156 54.9196 413.006 55.1339 415.093 55.4022Z" fill="black"/>
<path d="M425.69 35.4592C425.856 38.9569 426.003 42.3145 426.079 45.6172C426.163 48.9244 426.215 52.1766 426.09 55.4607L425.649 55.0197C428.468 55.1143 431.287 55.2546 434.107 55.2675C436.926 55.2956 439.745 55.2304 442.565 55.1367L442.241 55.4607C442.117 52.1201 442.028 48.7795 441.998 45.4392C441.933 42.0986 441.929 38.758 441.962 35.4176L442.565 36.0204C439.821 36.0324 437.065 35.8961 434.277 35.8283L425.69 35.4592ZM425.607 35.3753L433.936 35.0061C436.787 34.9386 439.67 34.8024 442.565 34.8143C442.724 34.8158 442.877 34.8799 442.989 34.9927C443.102 35.1055 443.166 35.258 443.168 35.4175C443.201 38.7579 443.197 42.0985 443.132 45.4391C443.101 48.7794 443.012 52.1201 442.889 55.4606L442.888 55.4833C442.887 55.5243 442.877 55.5647 442.86 55.6022C442.843 55.6396 442.819 55.6733 442.789 55.7013C442.759 55.7294 442.724 55.7512 442.685 55.7655C442.647 55.7799 442.606 55.7865 442.565 55.785C439.745 55.6913 436.926 55.6261 434.107 55.6544C431.287 55.6671 428.468 55.8073 425.649 55.902C425.593 55.9039 425.537 55.8947 425.485 55.875C425.432 55.8553 425.384 55.8255 425.343 55.7872C425.302 55.749 425.27 55.7031 425.246 55.6521C425.223 55.6011 425.21 55.5461 425.209 55.4902L425.207 55.4607C425.082 52.0634 425.134 48.6346 425.219 45.2608C425.295 41.8822 425.441 38.5589 425.607 35.3753Z" fill="black"/>
<path d="M434.036 46.5943C434.446 46.5921 434.848 46.4743 435.194 46.2546C435.54 46.0349 435.818 45.7221 435.994 45.3521C436.283 44.7065 436.479 44.0236 436.578 43.3235C436.667 42.9491 436.678 42.5603 436.61 42.1815C436.542 41.8027 436.396 41.4421 436.181 41.1226C435.919 40.8244 435.582 40.6027 435.204 40.4807C434.827 40.3588 434.423 40.3413 434.036 40.43C433.347 40.5695 432.724 40.938 432.27 41.4757C431.89 42.0173 431.688 42.6638 431.691 43.3256C431.675 44.0174 431.813 44.7042 432.096 45.3357C432.268 45.7068 432.542 46.0218 432.885 46.2444C433.228 46.4671 433.627 46.5884 434.036 46.5943ZM434.036 46.762C433.073 46.8216 432.115 46.5864 431.289 46.0878C430.855 45.7704 430.503 45.3543 430.262 44.8738C430.021 44.3933 429.898 43.8624 429.903 43.3249C429.894 42.7806 429.998 42.2403 430.206 41.7375C430.415 41.2347 430.724 40.78 431.116 40.4014C431.498 40.033 431.961 39.7604 432.469 39.6057C432.977 39.4511 433.514 39.4189 434.036 39.5118C434.99 39.6596 435.876 40.0918 436.579 40.752C437.334 41.4172 437.828 42.3287 437.974 43.3242C438.034 43.8478 437.953 44.3779 437.741 44.8602C437.529 45.3426 437.192 45.7597 436.765 46.0689C435.946 46.5695 434.995 46.8111 434.036 46.762Z" fill="black"/>
<path d="M439.461 55.5194C437.709 55.8131 435.944 56.0099 434.171 56.1091C433.22 56.1508 432.26 56.2001 431.289 56.175C430.317 56.1526 429.345 56.0253 428.402 55.9371L428.306 55.9278C428.251 55.9227 428.197 55.9067 428.148 55.8808C428.099 55.8549 428.056 55.8196 428.021 55.777C427.985 55.7343 427.959 55.6851 427.942 55.6321C427.926 55.5791 427.92 55.5235 427.925 55.4683L427.926 55.4607C428.061 54.4391 428.135 53.4105 428.15 52.3802C428.084 51.3045 428.237 50.2266 428.599 49.2117C429.026 48.1182 429.769 47.1769 430.733 46.5077C431.698 45.8386 432.84 45.4721 434.014 45.4549C435.187 45.4378 436.339 45.7708 437.323 46.4115C438.307 47.0522 439.077 47.9715 439.536 49.052C439.979 50.1239 440.109 51.2995 439.911 52.4424C439.797 53.5705 439.608 54.6209 439.461 55.5194ZM439.344 55.4022L438.893 52.3184C438.844 51.4079 438.595 50.5195 438.163 49.7167C437.72 48.9651 437.101 48.3331 436.358 47.876C435.616 47.4189 434.772 47.1505 433.902 47.0943C432.989 47.0712 432.086 47.2861 431.281 47.7178C430.476 48.1495 429.797 48.7832 429.311 49.5566C428.802 50.4059 428.573 51.3935 428.655 52.3801C428.669 53.4105 428.744 54.4391 428.878 55.4607L428.402 54.9848C429.293 54.8964 430.155 54.769 431.016 54.7467C431.878 54.7215 432.751 54.7708 433.634 54.8125C435.406 54.9196 437.256 55.1339 439.344 55.4022Z" fill="black"/>
<path d="M450.392 35.4592C450.557 38.9569 450.704 42.3145 450.78 45.6172C450.864 48.9244 450.917 52.1766 450.791 55.4607L450.35 55.0197C453.169 55.1143 455.989 55.2546 458.808 55.2675C461.627 55.2956 464.446 55.2304 467.266 55.1367L466.942 55.4607C466.819 52.1201 466.73 48.7795 466.699 45.4392C466.634 42.0986 466.63 38.758 466.663 35.4176L467.266 36.0204C464.522 36.0324 461.766 35.8961 458.978 35.8283L450.392 35.4592ZM450.308 35.3753L458.637 35.0061C461.488 34.9386 464.371 34.8024 467.266 34.8143C467.425 34.8158 467.578 34.8799 467.691 34.9927C467.803 35.1055 467.867 35.258 467.869 35.4175C467.902 38.7579 467.898 42.0985 467.833 45.4391C467.802 48.7794 467.713 52.1201 467.59 55.4606L467.589 55.4833C467.588 55.5243 467.579 55.5647 467.562 55.6022C467.545 55.6396 467.52 55.6733 467.49 55.7013C467.46 55.7294 467.425 55.7512 467.386 55.7655C467.348 55.7799 467.307 55.7865 467.266 55.785C464.446 55.6913 461.627 55.6261 458.808 55.6544C455.989 55.6671 453.169 55.8073 450.35 55.902C450.294 55.9039 450.238 55.8947 450.186 55.875C450.133 55.8553 450.085 55.8255 450.044 55.7873C450.004 55.749 449.971 55.7031 449.948 55.6521C449.924 55.6011 449.912 55.5461 449.91 55.4902L449.909 55.4607C449.783 52.0634 449.835 48.6346 449.92 45.2608C449.996 41.8822 450.142 38.5589 450.308 35.3753Z" fill="black"/>
<path d="M458.737 46.5943C459.148 46.5921 459.549 46.4744 459.895 46.2547C460.241 46.035 460.519 45.7222 460.696 45.3521C460.984 44.7066 461.181 44.0237 461.279 43.3235C461.369 42.9491 461.38 42.5603 461.311 42.1815C461.243 41.8027 461.097 41.4422 460.883 41.1226C460.621 40.8245 460.283 40.6027 459.905 40.4807C459.528 40.3588 459.124 40.3413 458.737 40.43C458.048 40.5695 457.425 40.938 456.971 41.4757C456.591 42.0172 456.389 42.6638 456.392 43.3256C456.376 44.0174 456.514 44.7042 456.797 45.3357C456.97 45.7068 457.243 46.0218 457.586 46.2444C457.929 46.4671 458.328 46.5883 458.737 46.5943ZM458.737 46.762C457.774 46.8216 456.816 46.5864 455.99 46.0878C455.556 45.7704 455.204 45.3542 454.963 44.8738C454.722 44.3933 454.599 43.8624 454.604 43.3249C454.596 42.7806 454.699 42.2403 454.908 41.7375C455.116 41.2347 455.426 40.78 455.817 40.4014C456.199 40.033 456.663 39.7604 457.17 39.6057C457.678 39.4511 458.215 39.4189 458.737 39.5118C459.691 39.6595 460.577 40.0918 461.28 40.752C462.035 41.4172 462.529 42.3287 462.675 43.3242C462.735 43.8478 462.655 44.3779 462.442 44.8603C462.23 45.3426 461.893 45.7598 461.466 46.0689C460.647 46.5695 459.696 46.8111 458.737 46.762Z" fill="black"/>
<path d="M464.162 55.5195C462.411 55.8131 460.645 56.01 458.872 56.1092C457.921 56.1509 456.962 56.2001 455.99 56.175C455.018 56.1527 454.046 56.0253 453.104 55.9371L453.007 55.9279C452.952 55.9227 452.899 55.9067 452.85 55.8808C452.801 55.8549 452.757 55.8197 452.722 55.777C452.686 55.7343 452.66 55.6851 452.643 55.6321C452.627 55.5792 452.621 55.5235 452.627 55.4684L452.628 55.4608C452.762 54.4392 452.837 53.4106 452.851 52.3803C452.785 51.3046 452.938 50.2266 453.3 49.2117C453.727 48.1183 454.47 47.1769 455.435 46.5078C456.399 45.8386 457.541 45.4721 458.715 45.4549C459.889 45.4378 461.041 45.7708 462.024 46.4116C463.008 47.0523 463.778 47.9716 464.237 49.0521C464.68 50.124 464.81 51.2995 464.612 52.4424C464.498 53.5706 464.309 54.621 464.162 55.5195ZM464.045 55.4023L463.594 52.3185C463.545 51.408 463.296 50.5196 462.864 49.7168C462.422 48.9652 461.802 48.3332 461.06 47.8761C460.317 47.419 459.474 47.1506 458.603 47.0944C457.69 47.0713 456.787 47.2861 455.982 47.7178C455.177 48.1496 454.499 48.7833 454.013 49.5567C453.504 50.406 453.274 51.3935 453.356 52.3802C453.37 53.4105 453.445 54.4391 453.579 55.4607L453.104 54.9849C453.995 54.8964 454.856 54.7691 455.717 54.7467C456.579 54.7216 457.452 54.7709 458.335 54.8126C460.108 54.9197 461.958 55.134 464.045 55.4023Z" fill="black"/>
<path d="M439.444 60.3493C439.61 63.847 439.756 67.2047 439.832 70.5073C439.917 73.8145 439.969 77.0666 439.843 80.3508L439.402 79.9097C442.222 80.0044 445.041 80.1447 447.86 80.1576C450.68 80.1857 453.499 80.1205 456.318 80.0267L455.994 80.3508C455.871 77.0102 455.782 73.6696 455.751 70.3293C455.686 66.9887 455.683 63.648 455.715 60.3077L456.318 60.9105C453.574 60.9225 450.818 60.7861 448.03 60.7186L439.444 60.3493ZM439.36 60.2654L447.69 59.8962C450.54 59.8287 453.423 59.6924 456.318 59.7043C456.478 59.7059 456.63 59.77 456.743 59.8828C456.856 59.9956 456.92 60.1481 456.921 60.3076C456.954 63.648 456.95 66.9886 456.886 70.3291C456.855 73.6695 456.766 77.0101 456.642 80.3507L456.642 80.3735C456.64 80.4145 456.631 80.4549 456.614 80.4923C456.597 80.5297 456.573 80.5634 456.543 80.5914C456.513 80.6194 456.477 80.6412 456.439 80.6556C456.4 80.6699 456.359 80.6765 456.318 80.675C453.499 80.5813 450.68 80.5161 447.86 80.5444C445.041 80.5571 442.222 80.6973 439.402 80.792C439.289 80.7958 439.179 80.7545 439.097 80.6774C439.014 80.6002 438.966 80.4934 438.962 80.3804L438.961 80.3507C438.835 76.9536 438.888 73.5246 438.972 70.1508C439.048 66.7723 439.194 63.449 439.36 60.2654Z" fill="black"/>
<path d="M447.789 71.4843C448.2 71.4821 448.601 71.3644 448.947 71.1447C449.293 70.925 449.571 70.6122 449.748 70.2421C450.036 69.5966 450.233 68.9137 450.331 68.2135C450.421 67.8392 450.431 67.4503 450.363 67.0715C450.295 66.6927 450.149 66.3322 449.934 66.0126C449.673 65.7145 449.335 65.4928 448.957 65.3708C448.58 65.2489 448.176 65.2313 447.789 65.32C447.1 65.4594 446.477 65.828 446.023 66.3657C445.643 66.9073 445.441 67.5538 445.444 68.2156C445.428 68.9075 445.566 69.5943 445.849 70.2257C446.021 70.5968 446.295 70.9118 446.638 71.1345C446.981 71.3571 447.38 71.4784 447.789 71.4843ZM447.789 71.652C446.826 71.7116 445.868 71.4764 445.042 70.9778C444.608 70.6604 444.256 70.2443 444.015 69.7638C443.774 69.2834 443.651 68.7524 443.656 68.2149C443.648 67.6706 443.751 67.1303 443.959 66.6275C444.168 66.1247 444.478 65.67 444.869 65.2914C445.251 64.923 445.715 64.6504 446.222 64.4958C446.73 64.3412 447.267 64.309 447.789 64.4018C448.743 64.5496 449.629 64.9818 450.332 65.642C451.087 66.3072 451.581 67.2187 451.727 68.2142C451.787 68.7378 451.707 69.2679 451.494 69.7503C451.282 70.2326 450.945 70.6497 450.518 70.9589C449.699 71.4595 448.748 71.7011 447.789 71.652V71.652Z" fill="black"/>
<path d="M453.214 80.4095C451.463 80.7031 449.697 80.9 447.924 80.9992C446.973 81.0411 446.013 81.0901 445.042 81.065C444.07 81.0427 443.098 80.9153 442.156 80.8271L442.059 80.8179C442.004 80.8128 441.95 80.7968 441.901 80.7709C441.852 80.745 441.809 80.7097 441.774 80.667C441.738 80.6244 441.712 80.5751 441.695 80.5222C441.679 80.4692 441.673 80.4135 441.679 80.3584L441.679 80.3508C441.814 79.3292 441.889 78.3006 441.903 77.2702C441.837 76.1946 441.99 75.1168 442.352 74.1019C442.779 73.0084 443.522 72.067 444.486 71.3979C445.451 70.7287 446.593 70.3621 447.767 70.345C448.94 70.3278 450.093 70.6608 451.076 71.3015C452.06 71.9422 452.83 72.8616 453.289 73.9421C453.732 75.014 453.862 76.1895 453.664 77.3324C453.55 78.4605 453.361 79.5109 453.214 80.4095ZM453.097 80.2922L452.646 77.2084C452.597 76.298 452.348 75.4095 451.916 74.6067C451.474 73.8551 450.854 73.2232 450.111 72.7661C449.369 72.309 448.525 72.0405 447.655 71.9843C446.742 71.9611 445.839 72.176 445.034 72.6077C444.229 73.0394 443.55 73.6732 443.064 74.4466C442.555 75.2959 442.326 76.2834 442.408 77.2701C442.422 78.3004 442.497 79.3291 442.631 80.3507L442.155 79.8748C443.046 79.7863 443.908 79.659 444.769 79.6366C445.631 79.6115 446.504 79.6608 447.387 79.7027C449.159 79.8096 451.01 80.0239 453.097 80.2922Z" fill="black"/>
<path d="M413.067 60.3493C413.233 63.847 413.379 67.2047 413.455 70.5073C413.54 73.8145 413.592 77.0666 413.467 80.3508L413.026 79.9097C415.845 80.0044 418.664 80.1447 421.484 80.1576C424.303 80.1857 427.122 80.1205 429.942 80.0267L429.617 80.3508C429.494 77.0102 429.405 73.6696 429.374 70.3293C429.31 66.9887 429.306 63.648 429.339 60.3077L429.942 60.9105C427.198 60.9225 424.442 60.7861 421.654 60.7186L413.067 60.3493ZM412.984 60.2654L421.313 59.8962C424.164 59.8287 427.046 59.6924 429.942 59.7043C430.101 59.7059 430.254 59.77 430.366 59.8828C430.479 59.9956 430.543 60.1481 430.545 60.3076C430.578 63.648 430.574 66.9886 430.509 70.3291C430.478 73.6695 430.389 77.0101 430.266 80.3507L430.265 80.3735C430.264 80.4145 430.254 80.4549 430.237 80.4923C430.22 80.5297 430.196 80.5634 430.166 80.5914C430.136 80.6194 430.101 80.6412 430.062 80.6556C430.024 80.6699 429.983 80.6765 429.942 80.675C427.122 80.5813 424.303 80.5161 421.484 80.5444C418.664 80.5571 415.845 80.6973 413.026 80.792C412.97 80.7939 412.914 80.7848 412.862 80.7651C412.809 80.7454 412.761 80.7156 412.72 80.6774C412.679 80.6392 412.646 80.5933 412.623 80.5423C412.6 80.4913 412.587 80.4363 412.585 80.3804L412.584 80.3507C412.459 76.9536 412.511 73.5246 412.595 70.1508C412.671 66.7723 412.818 63.449 412.984 60.2654Z" fill="black"/>
<path d="M401.44 86.2777C401.606 89.7754 401.752 93.1331 401.828 96.4357C401.913 99.7429 401.965 102.995 401.839 106.279L401.399 105.838C404.218 105.933 407.037 106.073 409.856 106.086C412.676 106.114 415.495 106.049 418.314 105.955L417.99 106.279C417.867 102.939 417.778 99.598 417.747 96.2577C417.683 92.9171 417.679 89.5765 417.712 86.2362L418.314 86.8389C415.571 86.8509 412.815 86.7145 410.027 86.6468L401.44 86.2777ZM401.356 86.1939L409.686 85.8246C412.537 85.7569 415.419 85.6208 418.314 85.6327C418.474 85.6343 418.626 85.6984 418.739 85.8112C418.852 85.924 418.916 86.0765 418.918 86.236C418.95 89.5764 418.947 92.917 418.882 96.2576C418.851 99.5979 418.762 102.939 418.639 106.279L418.638 106.302C418.637 106.343 418.627 106.383 418.61 106.421C418.593 106.458 418.569 106.492 418.539 106.52C418.509 106.548 418.474 106.57 418.435 106.584C418.396 106.598 418.356 106.605 418.314 106.604C415.495 106.51 412.676 106.445 409.856 106.473C407.037 106.486 404.218 106.626 401.399 106.721C401.343 106.722 401.287 106.713 401.234 106.694C401.182 106.674 401.134 106.644 401.093 106.606C401.052 106.568 401.019 106.522 400.996 106.471C400.973 106.42 400.96 106.365 400.958 106.309L400.957 106.279C400.831 102.882 400.884 99.4531 400.968 96.0793C401.044 92.7007 401.191 89.3771 401.356 86.1938L401.356 86.1939Z" fill="black"/>
<path d="M409.786 97.4132C410.196 97.411 410.597 97.2932 410.944 97.0735C411.29 96.8537 411.568 96.5409 411.744 96.1708C412.033 95.5253 412.229 94.8424 412.328 94.1423C412.417 93.7679 412.428 93.3791 412.36 93.0003C412.292 92.6215 412.146 92.261 411.931 91.9414C411.669 91.6433 411.332 91.4215 410.954 91.2996C410.576 91.1776 410.173 91.1601 409.786 91.2487C409.096 91.3882 408.474 91.7568 408.02 92.2945C407.64 92.8361 407.437 93.4826 407.441 94.1444C407.424 94.8363 407.563 95.523 407.846 96.1545C408.018 96.5256 408.292 96.8407 408.635 97.0633C408.978 97.286 409.377 97.4073 409.786 97.4132ZM409.786 97.5809C408.823 97.6405 407.865 97.4053 407.038 96.9067C406.605 96.5893 406.253 96.1732 406.012 95.6927C405.771 95.2122 405.647 94.6813 405.652 94.1438C405.644 93.5995 405.748 93.0592 405.956 92.5564C406.165 92.0536 406.474 91.5989 406.865 91.2203C407.247 90.8519 407.711 90.5793 408.219 90.4246C408.727 90.27 409.264 90.2378 409.786 90.3307C410.739 90.4784 411.626 90.9106 412.329 91.5708C413.084 92.236 413.578 93.1474 413.723 94.1428C413.784 94.6664 413.703 95.1966 413.491 95.679C413.279 96.1613 412.942 96.5785 412.515 96.8877C411.696 97.3884 410.745 97.63 409.786 97.5809Z" fill="black"/>
<path d="M415.21 106.338C413.459 106.631 411.693 106.828 409.921 106.928C408.97 106.969 408.01 107.019 407.038 106.993C406.067 106.971 405.095 106.844 404.152 106.755L404.056 106.746C404.001 106.741 403.947 106.725 403.898 106.699C403.849 106.673 403.806 106.638 403.77 106.595C403.735 106.553 403.708 106.503 403.692 106.451C403.676 106.398 403.67 106.342 403.675 106.287L403.676 106.279C403.811 105.258 403.885 104.229 403.9 103.199C403.834 102.123 403.986 101.045 404.349 100.03C404.776 98.9367 405.519 97.9953 406.483 97.3261C407.448 96.657 408.59 96.2905 409.763 96.2734C410.937 96.2562 412.089 96.5893 413.073 97.23C414.056 97.8707 414.827 98.79 415.285 99.8704C415.729 100.942 415.859 102.118 415.661 103.261C415.547 104.389 415.357 105.439 415.21 106.338ZM415.093 106.221L414.643 103.137C414.594 102.226 414.345 101.338 413.912 100.535C413.47 99.7836 412.851 99.1516 412.108 98.6945C411.366 98.2374 410.522 97.969 409.652 97.9128C408.739 97.8897 407.836 98.1045 407.031 98.5362C406.226 98.968 405.547 99.6017 405.061 100.375C404.552 101.224 404.323 102.212 404.404 103.199C404.419 104.229 404.494 105.258 404.628 106.279L404.152 105.803C405.043 105.715 405.904 105.587 406.766 105.565C407.627 105.54 408.501 105.589 409.384 105.631C411.156 105.738 413.006 105.952 415.093 106.221Z" fill="black"/>
<path d="M425.69 86.2777C425.856 89.7754 426.003 93.1331 426.079 96.4357C426.163 99.7429 426.215 102.995 426.09 106.279L425.649 105.838C428.468 105.933 431.287 106.073 434.107 106.086C436.926 106.114 439.745 106.049 442.565 105.955L442.241 106.279C442.117 102.939 442.028 99.598 441.998 96.2577C441.933 92.9171 441.929 89.5765 441.962 86.2362L442.565 86.8389C439.821 86.8509 437.065 86.7145 434.277 86.6468L425.69 86.2777ZM425.607 86.1939L433.936 85.8246C436.787 85.7569 439.67 85.6208 442.565 85.6327C442.724 85.6343 442.877 85.6984 442.989 85.8112C443.102 85.924 443.166 86.0765 443.168 86.236C443.201 89.5764 443.197 92.917 443.132 96.2576C443.101 99.5979 443.012 102.939 442.889 106.279L442.888 106.302C442.887 106.343 442.877 106.383 442.86 106.421C442.843 106.458 442.819 106.492 442.789 106.52C442.759 106.548 442.724 106.57 442.685 106.584C442.647 106.598 442.606 106.605 442.565 106.604C439.745 106.51 436.926 106.445 434.107 106.473C431.287 106.486 428.468 106.626 425.649 106.721C425.593 106.722 425.537 106.713 425.485 106.694C425.432 106.674 425.384 106.644 425.343 106.606C425.302 106.568 425.27 106.522 425.246 106.471C425.223 106.42 425.21 106.365 425.209 106.309L425.207 106.279C425.082 102.882 425.134 99.4531 425.219 96.0793C425.295 92.7007 425.441 89.3771 425.607 86.1938V86.1939Z" fill="black"/>
<path d="M450.187 86.2777C450.353 89.7754 450.499 93.1331 450.575 96.4357C450.66 99.7429 450.712 102.995 450.586 106.279L450.145 105.838C452.965 105.933 455.784 106.073 458.603 106.086C461.423 106.114 464.242 106.049 467.061 105.955L466.737 106.279C466.614 102.939 466.525 99.598 466.494 96.2577C466.429 92.9171 466.425 89.5765 466.458 86.2362L467.061 86.8389C464.317 86.8509 461.561 86.7145 458.773 86.6468L450.187 86.2777ZM450.103 86.1939L458.433 85.8246C461.283 85.7569 464.166 85.6208 467.061 85.6327C467.221 85.6342 467.373 85.6983 467.486 85.8111C467.599 85.9239 467.663 86.0765 467.664 86.236C467.697 89.5764 467.693 92.917 467.629 96.2576C467.598 99.5979 467.509 102.939 467.386 106.279L467.385 106.302C467.383 106.343 467.374 106.383 467.357 106.421C467.34 106.458 467.316 106.492 467.285 106.52C467.255 106.548 467.22 106.57 467.182 106.584C467.143 106.598 467.102 106.605 467.061 106.604C464.242 106.51 461.423 106.445 458.603 106.473C455.784 106.486 452.965 106.626 450.145 106.721C450.089 106.722 450.033 106.713 449.981 106.694C449.929 106.674 449.881 106.644 449.84 106.606C449.799 106.568 449.766 106.522 449.743 106.471C449.72 106.42 449.707 106.365 449.705 106.309L449.704 106.279C449.578 102.882 449.631 99.4531 449.715 96.0793C449.791 92.7007 449.937 89.3771 450.103 86.1938V86.1939Z" fill="black"/>
<path d="M458.533 97.4132C458.943 97.411 459.344 97.2933 459.69 97.0735C460.037 96.8538 460.314 96.5409 460.491 96.1708C460.78 95.5253 460.976 94.8425 461.075 94.1423C461.164 93.7679 461.175 93.3791 461.107 93.0003C461.038 92.6215 460.892 92.261 460.678 91.9414C460.416 91.6433 460.078 91.4215 459.701 91.2995C459.323 91.1776 458.92 91.16 458.533 91.2487C457.843 91.3882 457.221 91.7568 456.767 92.2945C456.386 92.836 456.184 93.4825 456.188 94.1444C456.171 94.8362 456.31 95.523 456.593 96.1545C456.765 96.5256 457.038 96.8406 457.381 97.0633C457.725 97.2859 458.124 97.4072 458.533 97.4132ZM458.533 97.5809C457.57 97.6405 456.611 97.4053 455.785 96.9067C455.351 96.5893 454.999 96.1732 454.758 95.6927C454.517 95.2122 454.394 94.6813 454.399 94.1438C454.391 93.5995 454.494 93.0593 454.703 92.5565C454.912 92.0537 455.221 91.5989 455.612 91.2203C455.994 90.8519 456.458 90.5793 456.966 90.4246C457.473 90.27 458.01 90.2378 458.533 90.3307C459.486 90.4783 460.372 90.9105 461.076 91.5708C461.83 92.236 462.324 93.1474 462.47 94.1428C462.53 94.6664 462.45 95.1965 462.238 95.6789C462.025 96.1613 461.688 96.5785 461.262 96.8877C460.443 97.3884 459.491 97.63 458.533 97.5809Z" fill="black"/>
<path d="M463.957 106.338C462.206 106.631 460.44 106.828 458.667 106.928C457.716 106.969 456.757 107.019 455.785 106.993C454.813 106.971 453.841 106.844 452.899 106.755L452.803 106.746C452.747 106.741 452.694 106.725 452.645 106.699C452.596 106.673 452.552 106.638 452.517 106.595C452.481 106.553 452.455 106.504 452.439 106.451C452.422 106.398 452.416 106.342 452.422 106.287L452.423 106.279C452.557 105.258 452.632 104.229 452.646 103.199C452.58 102.123 452.733 101.045 453.095 100.03C453.522 98.9367 454.265 97.9953 455.23 97.3261C456.194 96.657 457.336 96.2905 458.51 96.2734C459.684 96.2562 460.836 96.5893 461.819 97.23C462.803 97.8707 463.573 98.79 464.032 99.8704C464.475 100.942 464.605 102.118 464.407 103.261C464.293 104.389 464.104 105.439 463.957 106.338ZM463.84 106.221L463.389 103.137C463.341 102.226 463.091 101.338 462.659 100.535C462.217 99.7835 461.597 99.1516 460.854 98.6945C460.112 98.2373 459.269 97.969 458.398 97.9128C457.485 97.8897 456.582 98.1045 455.777 98.5362C454.972 98.968 454.293 99.6017 453.808 100.375C453.299 101.224 453.069 102.212 453.151 103.199C453.165 104.229 453.24 105.258 453.374 106.279L452.899 105.803C453.789 105.715 454.651 105.587 455.512 105.565C456.374 105.54 457.247 105.589 458.13 105.631C459.903 105.738 461.753 105.952 463.84 106.221Z" fill="black"/>
<path d="M329.484 153.288L329.158 155.146L331.016 155.472L331.342 153.614L329.484 153.288Z" fill="black"/>
<path d="M397.617 167.119L393.917 166.472L394.241 164.615L397.942 165.262L397.617 167.119ZM390.216 165.826L386.516 165.179L386.84 163.321L390.54 163.968L390.216 165.826ZM382.816 164.532L379.116 163.885L379.44 162.028L383.14 162.675L382.816 164.532ZM375.414 163.239L371.714 162.59L372.04 160.732L375.741 161.381L375.414 163.239ZM368.015 161.943L364.315 161.296L364.639 159.439L368.339 160.086L368.015 161.943ZM360.615 160.649L356.914 160.003L357.239 158.145L360.939 158.792L360.615 160.649ZM353.213 159.356L349.513 158.709L349.838 156.852L353.538 157.498L353.213 159.356ZM345.813 158.06L342.113 157.414L342.437 155.556L346.137 156.203L345.813 158.06ZM338.413 156.767L334.712 156.12L335.037 154.263L338.737 154.909L338.413 156.767Z" fill="black"/>
<path d="M401.647 165.907L401.321 167.764L403.18 168.09L403.506 166.233L401.647 165.907Z" fill="black"/>
<path d="M323.399 159.767L323.005 161.613L324.85 162.008L325.245 160.161L323.399 159.767Z" fill="black"/>
<path d="M389.569 175.795L385.974 175.028L386.368 173.182L389.963 173.948L389.569 175.795ZM382.38 174.263L378.784 173.497L379.176 171.651L382.772 172.417L382.38 174.263ZM375.189 172.73L371.593 171.966L371.986 170.119L375.581 170.884L375.189 172.73ZM367.996 171.199L364.401 170.432L364.796 168.586L368.391 169.353L367.996 171.199ZM360.806 169.666L357.211 168.901L357.604 167.055L361.199 167.819L360.806 169.666ZM353.616 168.135L350.02 167.368L350.412 165.522L354.008 166.288L353.616 168.135ZM346.424 166.603L342.829 165.837L343.223 163.99L346.818 164.757L346.424 166.603ZM339.233 165.07L335.637 164.304L336.032 162.457L339.627 163.224L339.233 165.07ZM332.041 163.539L328.446 162.772L328.841 160.926L332.436 161.692L332.041 163.539Z" fill="black"/>
<path d="M393.56 174.713L393.165 176.559L395.011 176.954L395.405 175.107L393.56 174.713Z" fill="black"/>
<path d="M329.211 170.643C332.434 170.826 335.628 171.364 338.733 172.247C341.86 173.05 344.889 174.199 347.761 175.672C344.538 175.492 341.344 174.954 338.239 174.067C335.113 173.261 332.086 172.112 329.211 170.643Z" fill="black"/>
</svg>
