<svg width="1041" height="895" viewBox="0 0 1041 895" fill="none" xmlns="http://www.w3.org/2000/svg">
<path d="M498.097 338.031C498.097 338.031 523.8 314.102 533.617 320.871C533.617 320.871 546.469 349.926 552.384 352.172C554.831 359.296 558.361 366.08 563.27 365.848C563.81 368.24 563.757 370.729 563.115 373.096C562.062 377.433 572.096 396.42 578.785 394.562C585.474 392.703 595.028 375.744 592.241 366.188C592.066 365.541 591.926 364.884 591.823 364.221C592.179 363.524 603.962 341.206 605.155 329.559C606.378 317.727 611.488 322.853 611.488 322.853C611.488 322.853 604.706 328.831 615.281 333.54C625.873 338.264 652.149 341.95 641.682 332.161C641.682 332.161 643.215 327.577 648.34 331.758C648.34 331.758 652.041 336.637 643.122 353.225C643.122 353.225 629.31 424.299 631.772 442.095C631.772 442.095 635.659 487.335 631.277 491.641C629.186 493.7 602.275 501.367 575.657 500.593C558.737 500.19 541.949 497.496 525.751 492.585L527.346 430.277C527.691 417.013 525.254 403.823 520.193 391.557L498.097 338.031ZM584.174 472.373C589.584 471.258 594.636 468.828 598.884 465.296C603.1 461.728 606.403 457.204 608.515 452.1C610.636 447.127 611.651 441.753 611.488 436.349C610.463 441.474 608.727 446.432 606.332 451.078C604.003 455.612 600.798 459.64 596.902 462.926C594.987 464.579 592.875 465.989 590.615 467.123C589.516 467.774 588.323 468.223 587.177 468.765C585.97 469.168 584.793 469.71 583.554 470.035C578.527 471.495 573.356 472.403 568.132 472.746C573.455 473.635 578.898 473.509 584.174 472.373Z" fill="#403632"/>
<path d="M548.451 337.133L548.529 337.164C548.002 327.437 552.942 306.451 552.942 306.451C552.942 306.451 579.28 307.737 582.857 306.807C582.857 306.807 590.708 306.652 589.949 330.349C589.949 330.349 598.187 322.466 596.313 332.363C595.972 334.159 595.616 335.723 595.245 337.071C610.961 327.004 592.008 285.434 591.931 289.058C591.805 290.184 591.291 291.23 590.476 292.016C587.224 295.672 582.16 291.676 577.624 290.096C576.71 289.771 575.827 289.492 574.96 289.244C571.556 288.285 567.978 288.114 564.498 288.744C561.018 289.375 557.727 290.79 554.876 292.884C552.025 294.977 549.689 297.693 548.044 300.825C546.399 303.956 545.49 307.422 545.385 310.958C545.062 319.789 546.096 328.616 548.451 337.133Z" fill="#403632"/>
<path d="M579.529 360.949C581.981 359.608 584.149 357.803 585.912 355.635C586.799 354.543 587.553 353.349 588.157 352.077C588.747 350.8 589.08 349.418 589.136 348.011C588.709 349.302 588.15 350.544 587.466 351.718C586.765 352.865 585.987 353.964 585.137 355.006C583.383 357.092 581.511 359.077 579.529 360.949Z" fill="#403632"/>
<path d="M571.864 364.005C571.181 364.246 570.465 364.383 569.742 364.41C569.03 364.479 568.319 364.578 567.6 364.669C566.886 364.79 566.165 364.905 565.444 365.09C564.693 365.26 563.964 365.514 563.27 365.847C564.74 366.328 566.304 366.449 567.831 366.199C568.599 366.088 569.35 365.876 570.064 365.57C570.454 365.445 570.815 365.242 571.125 364.972C571.434 364.703 571.685 364.374 571.864 364.005Z" fill="#403632"/>
<path d="M548.429 337.17C548.44 337.886 548.495 338.601 548.595 339.311C548.714 340.035 548.886 340.706 549.035 341.406L549.988 345.563C550.638 348.342 551.43 351.085 552.363 353.783C553.266 356.53 554.474 359.167 555.965 361.644C556.742 362.929 557.728 364.076 558.881 365.038C560.116 366.087 561.687 366.657 563.307 366.643L562.508 366.079C562.868 367.822 562.898 369.618 562.596 371.373C562.521 371.82 562.437 372.264 562.331 372.704C562.268 372.981 562.222 373.261 562.195 373.543C562.181 373.82 562.186 374.097 562.209 374.373C562.311 375.381 562.52 376.376 562.832 377.341C564.066 381.022 565.823 384.508 568.048 387.691C569.131 389.311 570.377 390.818 571.765 392.187C573.16 393.692 574.958 394.765 576.945 395.276C577.492 395.382 578.054 395.377 578.598 395.263C579.112 395.135 579.61 394.951 580.083 394.715C580.972 394.254 581.795 393.678 582.533 393.002C583.976 391.706 585.253 390.234 586.333 388.622C588.521 385.471 590.254 382.028 591.483 378.394C592.1 376.579 592.547 374.71 592.816 372.812C593.137 370.903 593.118 368.952 592.76 367.05C591.978 363.347 591.394 359.606 591.011 355.841C590.569 352.079 590.158 348.313 589.78 344.543L589.057 345.23C589.721 345.357 590.407 345.317 591.052 345.115C591.687 344.895 592.264 344.532 592.736 344.054C593.577 343.158 594.244 342.114 594.703 340.975C595.583 338.825 596.257 336.597 596.715 334.319C597.028 333.189 597.261 332.037 597.412 330.874C597.489 330.242 597.496 329.604 597.431 328.971C597.408 328.56 597.297 328.158 597.108 327.793C596.918 327.428 596.652 327.107 596.329 326.852C595.966 326.635 595.558 326.504 595.136 326.467C594.714 326.431 594.29 326.491 593.894 326.643C593.284 326.849 592.699 327.125 592.153 327.467C591.13 328.103 590.17 328.837 589.288 329.657L590.906 330.38C590.941 328.181 591.018 325.983 590.909 323.774C590.848 321.553 590.641 319.339 590.291 317.146C589.966 314.893 589.325 312.696 588.387 310.621C588.13 310.098 587.828 309.585 587.53 309.075C587.193 308.567 586.812 308.089 586.394 307.645C585.962 307.172 585.462 306.767 584.91 306.442C584.623 306.265 584.317 306.118 583.998 306.005C583.626 305.866 583.234 305.788 582.837 305.775L582.785 305.778L582.598 305.808L581.824 305.932L580.929 306C580.341 306.057 579.71 306.054 579.103 306.084C577.872 306.117 576.635 306.131 575.391 306.126L567.929 306.037C562.949 305.965 557.961 305.829 552.981 305.657L552.957 305.656C552.775 305.65 552.596 305.708 552.452 305.82C552.308 305.932 552.207 306.091 552.168 306.269C551.051 311.358 550.172 316.475 549.422 321.62C549.041 324.191 548.753 326.774 548.556 329.371C548.319 331.964 548.277 334.57 548.429 337.169C548.43 337.182 548.434 337.195 548.44 337.207C548.445 337.218 548.454 337.229 548.464 337.237C548.474 337.246 548.485 337.252 548.498 337.256C548.51 337.261 548.523 337.262 548.536 337.261C548.562 337.259 548.586 337.247 548.603 337.228C548.62 337.209 548.629 337.184 548.629 337.159C548.626 334.574 548.816 331.994 549.198 329.438C549.542 326.878 549.98 324.33 550.441 321.786C551.363 316.702 552.525 311.65 553.715 306.634L552.903 307.245C557.894 307.539 562.885 307.787 567.877 307.99C570.376 308.099 572.877 308.131 575.385 308.153C576.638 308.165 577.896 308.157 579.159 308.13C579.797 308.102 580.417 308.109 581.071 308.051L582.043 307.981L583.117 307.808L582.878 307.84C583.227 307.905 583.56 308.037 583.858 308.23C584.244 308.461 584.592 308.749 584.889 309.086C585.215 309.437 585.512 309.813 585.775 310.213C586.019 310.644 586.272 311.073 586.492 311.526C587.322 313.436 587.907 315.445 588.231 317.503C588.595 319.606 588.821 321.731 588.908 323.864C589.044 326.005 588.997 328.163 588.992 330.318V330.338C588.992 330.526 589.047 330.71 589.149 330.867C589.252 331.024 589.399 331.147 589.571 331.222C589.743 331.297 589.933 331.319 590.118 331.287C590.303 331.255 590.474 331.169 590.611 331.041C591.386 330.302 592.23 329.639 593.13 329.059C593.544 328.791 593.987 328.57 594.452 328.402C594.877 328.264 595.231 328.273 595.303 328.358C595.422 328.393 595.591 328.759 595.648 329.21C595.709 329.708 595.716 330.211 595.669 330.711C595.557 331.807 595.368 332.894 595.104 333.964C594.731 336.162 594.15 338.319 593.369 340.406C592.593 342.399 591.263 344.399 589.262 343.998C589.167 343.979 589.069 343.983 588.976 344.009C588.883 344.035 588.798 344.083 588.727 344.149C588.656 344.215 588.602 344.297 588.569 344.388C588.536 344.479 588.525 344.576 588.537 344.672L588.539 344.685C589.032 348.45 589.557 352.209 590.116 355.962C590.708 359.707 591.221 363.482 592.1 367.186C592.677 370.895 592.243 374.692 590.845 378.176C589.614 381.729 587.838 385.069 585.581 388.076C584.491 389.577 583.218 390.936 581.792 392.123C581.11 392.702 580.355 393.191 579.546 393.575C579.166 393.747 578.768 393.88 578.361 393.971C577.973 394.039 577.575 394.026 577.193 393.933C575.515 393.401 574.02 392.408 572.879 391.068C571.614 389.725 570.466 388.278 569.447 386.741C567.381 383.658 565.722 380.321 564.511 376.813C564.226 375.977 564.029 375.114 563.922 374.237C563.902 374.041 563.895 373.844 563.9 373.647C563.917 373.457 563.945 373.269 563.986 373.083C564.095 372.599 564.18 372.111 564.254 371.622C564.569 369.624 564.494 367.585 564.032 365.617C563.99 365.448 563.891 365.3 563.752 365.197C563.612 365.094 563.442 365.042 563.269 365.05L563.232 365.052C561.988 365.068 560.779 364.636 559.826 363.835C558.794 362.98 557.894 361.976 557.157 360.856C555.636 358.516 554.381 356.014 553.415 353.395C552.401 350.767 551.528 348.078 550.7 345.37L549.516 341.285C549.333 340.605 549.112 339.911 548.947 339.244C548.798 338.556 548.691 337.859 548.628 337.158C548.626 337.132 548.614 337.108 548.594 337.091C548.574 337.074 548.549 337.066 548.523 337.067C548.497 337.069 548.473 337.081 548.455 337.1C548.438 337.119 548.428 337.144 548.429 337.17L548.429 337.17Z" fill="#403632"/>
<path d="M549.32 323.066C550.24 322.605 551.095 322.158 551.948 321.769C552.752 321.378 553.604 321.097 554.483 320.935C555.295 320.788 556.133 320.872 556.9 321.178C557.752 321.578 558.539 322.104 559.234 322.738C558.984 321.689 558.367 320.763 557.496 320.127C556.545 319.468 555.372 319.209 554.231 319.408C553.167 319.606 552.168 320.063 551.323 320.74C550.493 321.359 549.809 322.153 549.32 323.066Z" fill="#403632"/>
<path d="M572.79 321.202C574.744 320.203 576.932 319.753 579.121 319.901C580.166 320.016 581.181 320.321 582.116 320.801C582.625 320.996 583.061 321.344 583.57 321.6C584.05 321.901 584.502 322.251 585.038 322.547C584.757 322.017 584.435 321.51 584.075 321.032C583.682 320.564 583.238 320.142 582.752 319.773C581.751 318.993 580.553 318.505 579.292 318.362C578.031 318.224 576.757 318.429 575.603 318.955C574.483 319.442 573.512 320.217 572.79 321.202Z" fill="#403632"/>
<path d="M558.914 337.247C559.036 338.025 559.371 338.753 559.88 339.353C560.389 339.953 561.053 340.401 561.8 340.648C562.546 340.914 563.346 340.99 564.129 340.872C564.891 340.77 565.611 340.467 566.216 339.993C565.45 339.839 564.776 339.789 564.133 339.664C563.517 339.562 562.912 339.404 562.325 339.192C561.739 338.989 561.174 338.726 560.641 338.407C560.046 338.05 559.47 337.663 558.914 337.247Z" fill="#403632"/>
<path d="M556.008 331.313C555.406 331.292 554.836 331.038 554.418 330.604C553.999 330.171 553.765 329.592 553.765 328.989C553.765 328.387 553.999 327.808 554.418 327.375C554.836 326.941 555.406 326.687 556.008 326.666C556.61 326.687 557.181 326.941 557.599 327.375C558.017 327.808 558.251 328.387 558.251 328.989C558.251 329.592 558.017 330.171 557.599 330.604C557.181 331.038 556.61 331.292 556.008 331.313Z" fill="#403632"/>
<path d="M576.44 331.066C575.838 331.045 575.268 330.791 574.849 330.357C574.431 329.924 574.197 329.345 574.197 328.742C574.197 328.14 574.431 327.561 574.849 327.128C575.268 326.694 575.838 326.44 576.44 326.419C577.042 326.44 577.612 326.694 578.031 327.128C578.449 327.561 578.683 328.14 578.683 328.742C578.683 329.345 578.449 329.924 578.031 330.357C577.612 330.791 577.042 331.045 576.44 331.066Z" fill="#403632"/>
<path d="M569.027 345.462C569.327 346.344 569.282 347.307 568.901 348.157C568.557 348.943 568.026 349.633 567.353 350.166C566.697 350.712 565.914 351.084 565.077 351.247C564.626 351.337 564.163 351.336 563.712 351.245C563.262 351.154 562.835 350.975 562.454 350.718C562.683 351.236 563.058 351.676 563.533 351.985C564.007 352.293 564.562 352.457 565.128 352.455C566.292 352.495 567.43 352.108 568.329 351.368C569.233 350.641 569.847 349.615 570.062 348.475C570.188 347.926 570.158 347.353 569.976 346.82C569.793 346.288 569.464 345.817 569.027 345.462Z" fill="#403632"/>
<path d="M611.576 322.896L620.485 305.353L629.494 287.874C632.521 282.064 635.605 276.282 638.84 270.597C640.439 267.746 642.06 264.907 643.783 262.144C644.646 260.765 645.533 259.403 646.473 258.094C647.319 256.811 648.342 255.654 649.512 254.658L649.539 254.639C649.623 254.579 649.695 254.502 649.75 254.413C649.805 254.325 649.841 254.227 649.858 254.124C649.875 254.022 649.871 253.917 649.848 253.815C649.824 253.714 649.781 253.619 649.72 253.534C649.653 253.442 649.568 253.366 649.47 253.309C649.054 253.008 648.728 252.599 648.527 252.126C648.299 251.576 648.169 250.989 648.146 250.394C648.128 249.108 648.332 247.829 648.748 246.612C649.176 245.349 649.705 244.122 650.329 242.943C650.933 241.742 651.659 240.599 652.366 239.446L652.384 239.417C652.415 239.366 652.436 239.309 652.446 239.25L653.645 232.164L653.936 230.389L654.078 229.497L654.143 229.05C654.165 228.932 654.198 228.817 654.242 228.706C654.426 228.204 654.724 227.752 655.112 227.385C655.5 227.018 655.968 226.746 656.479 226.59C657.458 226.422 658.349 227.432 658.413 228.49C658.441 229.614 658.409 230.862 658.401 232.041C658.383 233.236 658.374 234.434 658.306 235.621C658.237 235.961 658.256 236.314 658.361 236.645C658.465 236.977 658.652 237.276 658.903 237.516C659.444 237.935 660.12 238.138 660.802 238.088C662.063 237.995 663.276 237.569 664.316 236.852C664.837 236.524 665.322 236.105 665.775 235.778C666.248 235.442 666.75 235.133 667.262 234.838C669.344 233.686 671.494 232.661 673.699 231.768L677.019 230.43C678.084 229.968 679.183 229.591 680.308 229.302C680.784 229.172 681.288 229.182 681.759 229.33C682.23 229.478 682.649 229.759 682.965 230.138C683.313 231.128 683.271 232.212 682.846 233.171C682.812 233.279 682.809 233.394 682.839 233.503C682.868 233.612 682.928 233.711 683.011 233.787C683.095 233.863 683.198 233.914 683.309 233.933C683.421 233.952 683.535 233.939 683.639 233.895L683.648 233.891L686.523 232.67C687.376 232.217 688.311 231.94 689.272 231.853C690.128 231.784 690.978 232.042 691.653 232.574C692.138 233.022 692.056 233.851 691.686 234.712C691.632 234.839 691.614 234.979 691.636 235.115C691.657 235.252 691.716 235.38 691.807 235.484C691.897 235.588 692.015 235.665 692.147 235.705C692.279 235.745 692.42 235.748 692.553 235.712L692.58 235.705C693.662 235.41 694.76 235.18 695.869 235.014C696.893 234.819 697.943 234.81 698.971 234.988C699.38 235.114 699.754 235.337 700.061 235.637C700.367 235.937 700.598 236.305 700.733 236.712C700.922 237.413 700.44 238.189 699.687 238.858C699.522 239.004 699.417 239.206 699.391 239.425C699.365 239.644 699.42 239.865 699.546 240.046L699.559 240.064C699.826 240.395 700.022 240.777 700.134 241.187C700.246 241.597 700.272 242.026 700.21 242.446C700.056 242.977 699.144 243.379 698.124 243.496C697.524 243.546 696.928 243.631 696.338 243.751C695.739 243.893 695.15 244.074 694.574 244.292C693.46 244.716 692.376 245.215 691.329 245.785C689.281 246.909 687.301 248.153 685.4 249.51C683.498 250.853 681.664 252.245 679.856 253.74L679.967 253.657C676.791 255.679 673.617 257.721 670.412 259.689C668.813 260.667 667.196 261.66 665.589 262.528L665.002 262.826L664.122 263.215C663.951 263.368 663.807 263.55 663.696 263.751L663.494 264.103L663.152 264.768C662.722 265.641 662.333 266.508 661.947 267.379C658.894 274.333 656.232 281.404 653.624 288.505C651.021 295.605 648.564 302.761 646.374 310.003C645.279 313.624 644.222 317.259 643.352 320.945C642.37 324.61 641.776 328.369 641.582 332.158C641.582 332.171 641.584 332.184 641.589 332.197C641.594 332.209 641.601 332.22 641.61 332.229C641.619 332.239 641.63 332.246 641.642 332.251C641.654 332.256 641.667 332.259 641.68 332.259C641.707 332.258 641.731 332.248 641.75 332.229C641.769 332.211 641.78 332.186 641.782 332.16C642.149 328.414 642.911 324.717 644.052 321.13C645.109 317.514 646.245 313.922 647.461 310.353C649.902 303.221 652.529 296.15 655.236 289.112C657.974 282.09 660.802 275.085 663.806 268.204C664.188 267.351 664.577 266.496 664.983 265.679L665.292 265.085L665.442 264.824C665.457 264.774 665.612 264.612 665.434 264.792C665.347 264.844 665.444 264.825 665.118 264.96C665.026 264.987 664.931 265 664.835 264.999L664.904 264.994C664.998 264.986 665.091 264.972 665.182 264.951C665.28 264.926 665.377 264.895 665.471 264.858C665.643 264.797 665.736 264.745 665.872 264.687L666.549 264.348C668.267 263.428 669.872 262.448 671.498 261.465C674.729 259.486 677.933 257.486 681.108 255.425L681.208 255.352L681.219 255.343C684.653 252.398 688.349 249.774 692.261 247.503C693.224 246.963 694.222 246.49 695.249 246.085C695.745 245.89 696.252 245.728 696.768 245.598C697.302 245.486 697.842 245.405 698.386 245.356C699.055 245.274 699.706 245.084 700.315 244.796C701.061 244.457 701.644 243.839 701.939 243.075C702.177 242.336 702.168 241.54 701.915 240.806C701.71 240.16 701.406 239.55 701.013 238.999L700.885 240.204C701.403 239.743 701.833 239.192 702.154 238.577C702.506 237.871 702.596 237.062 702.408 236.296C702.204 235.58 701.801 234.936 701.246 234.44C700.728 233.946 700.095 233.589 699.404 233.402C698.152 233.182 696.87 233.205 695.627 233.471C694.457 233.674 693.299 233.946 692.16 234.285L693.054 235.277C693.293 234.707 693.422 234.097 693.435 233.479C693.438 233.124 693.368 232.773 693.232 232.445C693.095 232.118 692.894 231.822 692.64 231.574C692.165 231.18 691.616 230.884 691.026 230.704C690.435 230.523 689.815 230.462 689.2 230.523C688.084 230.642 687.003 230.98 686.018 231.519L683.173 232.807L683.975 233.527C684.227 232.897 684.352 232.224 684.34 231.546C684.329 230.867 684.183 230.198 683.909 229.578C683.711 229.264 683.452 228.994 683.147 228.783C682.842 228.572 682.498 228.424 682.135 228.349C681.481 228.199 680.802 228.185 680.142 228.309C678.953 228.635 677.794 229.06 676.676 229.58L673.371 231.01C671.185 232.005 669.003 233.015 666.905 234.225C666.383 234.533 665.867 234.855 665.368 235.218C664.856 235.597 664.437 235.97 663.947 236.286C663.013 236.944 661.922 237.344 660.783 237.446C660.26 237.495 659.737 237.351 659.312 237.042C659.129 236.866 658.996 236.645 658.926 236.401C658.856 236.157 658.852 235.898 658.914 235.652L659.031 232.053C659.052 230.84 659.103 229.693 659.084 228.425C659.032 227.746 658.757 227.104 658.3 226.599C658.061 226.335 657.762 226.132 657.429 226.006C657.096 225.88 656.737 225.836 656.384 225.877C655.711 225.993 655.095 226.326 654.629 226.825C654.164 227.281 653.791 227.822 653.532 228.42C653.464 228.587 653.414 228.76 653.381 228.937L653.311 229.377L653.16 230.256L652.831 232.018L651.414 239.054L651.494 238.859C650.734 240.015 649.956 241.16 649.29 242.385C648.596 243.604 648.001 244.878 647.512 246.193C647.003 247.556 646.734 248.996 646.719 250.451C646.684 251.268 646.851 252.082 647.205 252.82C647.558 253.557 648.088 254.197 648.746 254.682L648.704 253.333C647.309 254.384 646.1 255.663 645.13 257.115C644.144 258.461 643.228 259.84 642.338 261.232C640.568 264.02 638.893 266.854 637.279 269.72C634.094 275.474 631.073 281.306 628.109 287.164C625.124 293.011 622.329 298.951 619.517 304.879C616.715 310.813 614.007 316.79 611.395 322.811C611.384 322.835 611.383 322.862 611.392 322.886C611.402 322.911 611.42 322.931 611.444 322.942C611.467 322.953 611.494 322.954 611.519 322.946C611.544 322.937 611.564 322.919 611.575 322.896L611.576 322.896Z" fill="#403632"/>
<path d="M658.692 261.523C660.403 263.087 662.513 264.148 664.789 264.588C664.899 264.609 665.013 264.608 665.122 264.585C665.232 264.562 665.336 264.518 665.429 264.455C665.522 264.392 665.601 264.311 665.662 264.217C665.724 264.123 665.766 264.018 665.787 263.908C665.807 263.798 665.806 263.685 665.783 263.575C665.76 263.465 665.716 263.361 665.653 263.269C665.589 263.176 665.509 263.097 665.415 263.035C665.321 262.974 665.216 262.932 665.106 262.911C665.032 262.898 664.958 262.894 664.884 262.899C662.733 263.017 660.59 262.541 658.692 261.523Z" fill="#403632"/>
<path d="M660.252 241.426C659.716 243.058 659.329 244.653 658.782 246.187C658.531 246.953 658.225 247.699 657.867 248.421C657.503 249.158 657.04 249.842 656.49 250.453C657.309 250.119 658.016 249.558 658.527 248.836C659.045 248.129 659.45 247.345 659.725 246.513C660.296 244.881 660.477 243.139 660.252 241.426Z" fill="#403632"/>
<path d="M671.132 238.831L684.009 233.812C684.133 233.764 684.232 233.669 684.285 233.547C684.338 233.426 684.341 233.289 684.293 233.165C684.245 233.042 684.15 232.942 684.029 232.889C683.907 232.836 683.77 232.833 683.646 232.881L683.613 232.895L671.132 238.831Z" fill="#403632"/>
<path d="M677.356 241.302L692.557 235.588C692.619 235.565 692.675 235.53 692.724 235.485C692.772 235.441 692.811 235.387 692.838 235.327C692.865 235.267 692.881 235.202 692.883 235.137C692.885 235.071 692.874 235.005 692.851 234.944C692.828 234.882 692.793 234.826 692.748 234.778C692.703 234.73 692.649 234.691 692.589 234.664C692.529 234.637 692.464 234.622 692.398 234.62C692.333 234.618 692.267 234.629 692.206 234.653L692.177 234.664L677.356 241.302Z" fill="#403632"/>
<path d="M684.073 243.697C686.73 242.799 689.415 241.98 692.12 241.261C693.474 240.911 694.833 240.581 696.198 240.324C697.513 240.029 698.863 239.928 700.207 240.024L700.263 240.032C700.328 240.041 700.394 240.037 700.457 240.02C700.521 240.003 700.58 239.974 700.632 239.934C700.684 239.895 700.728 239.845 700.761 239.788C700.794 239.732 700.816 239.669 700.825 239.604C700.834 239.539 700.83 239.473 700.813 239.409C700.796 239.346 700.767 239.286 700.727 239.234C700.688 239.182 700.638 239.138 700.581 239.105C700.525 239.072 700.462 239.05 700.397 239.042L700.365 239.038C698.904 239 697.444 239.187 696.039 239.592C694.665 239.936 693.318 240.35 691.978 240.782C689.307 241.665 686.672 242.637 684.073 243.697Z" fill="#403632"/>
<path d="M505.162 332.094L499.442 310.827L496.627 300.189C496.178 298.414 495.725 296.635 495.336 294.861C494.97 293.085 494.698 291.292 494.521 289.487C493.703 282.214 493.029 274.897 492.266 267.593C491.891 263.939 491.48 260.285 491.031 256.631C490.805 254.805 490.549 252.977 490.263 251.149C490.089 250.232 489.937 249.322 489.734 248.4L489.393 247.012C489.234 246.504 489.047 246.006 488.832 245.52C488.781 245.391 488.685 245.285 488.561 245.223L488.445 245.165C486.806 244.321 485.248 243.329 483.79 242.2C482.303 241.076 480.906 239.839 479.609 238.5C477.007 235.823 474.804 232.784 473.07 229.478L473.059 229.457C473.025 229.393 472.982 229.335 472.931 229.284L463.44 219.92C463.148 219.574 462.959 219.153 462.895 218.704C462.809 218.211 462.796 217.708 462.857 217.211C462.887 216.794 463.08 216.407 463.393 216.131C463.744 215.901 464.169 215.813 464.582 215.883C465.037 215.959 465.46 216.164 465.803 216.473L466.981 217.626C467.787 218.407 468.604 219.176 469.443 219.924C471.086 221.506 472.938 222.857 474.946 223.939C475.24 224.068 475.553 224.151 475.873 224.185C476.078 224.212 476.287 224.182 476.477 224.099C476.667 224.017 476.832 223.884 476.952 223.715C477.1 223.413 477.183 223.083 477.196 222.748C477.209 222.412 477.152 222.077 477.029 221.764C476.629 220.676 476.061 219.657 475.346 218.745C473.982 216.954 472.485 215.267 470.869 213.699C469.205 212.271 467.893 210.479 467.035 208.461C466.654 207.467 466.783 206.338 467.76 205.963C468.234 205.776 468.749 205.716 469.254 205.79C469.758 205.864 470.234 206.069 470.634 206.384C472.48 207.583 474.138 209.048 475.556 210.732C476.287 211.563 477.001 212.411 477.679 213.291C478.383 214.148 478.963 215.089 479.774 215.946C480.176 216.369 480.62 216.748 481.1 217.08C481.343 217.255 481.601 217.409 481.87 217.541C482.041 217.649 482.237 217.713 482.439 217.728C482.641 217.743 482.843 217.709 483.029 217.627C483.147 217.55 483.243 217.444 483.307 217.319C483.347 217.217 483.377 217.111 483.398 217.004C483.416 216.833 483.413 216.66 483.389 216.49C483.352 216.19 483.286 215.894 483.193 215.606C483.024 215.057 482.823 214.518 482.591 213.992C482.134 212.946 481.586 211.943 480.956 210.992L479.057 208.232C477.814 206.413 476.725 204.493 475.8 202.494C475.345 201.563 475.078 200.552 475.013 199.519C475.016 199.313 475.063 199.111 475.149 198.925C475.236 198.739 475.361 198.574 475.516 198.44C475.651 198.303 475.818 198.202 476.002 198.146C476.186 198.09 476.381 198.08 476.57 198.119C477.514 198.409 478.351 198.974 478.972 199.743C479.692 200.54 480.328 201.41 480.868 202.339C481.441 203.274 481.901 204.223 482.401 205.254C482.911 206.276 483.467 207.26 484.047 208.23C485.196 210.195 486.499 212.067 487.943 213.828C488.134 214.049 488.336 214.269 488.559 214.485C488.674 214.6 488.795 214.708 488.921 214.809C489.004 214.888 489.098 214.955 489.2 215.008C489.28 215.051 489.362 215.089 489.446 215.121C489.591 215.156 489.742 215.165 489.891 215.146C490.154 215.101 490.39 214.957 490.55 214.743C490.639 214.625 490.709 214.494 490.757 214.355C490.822 214.171 490.869 213.981 490.897 213.788C490.938 213.478 490.96 213.166 490.964 212.854C490.966 211.703 490.9 210.552 490.767 209.409C490.419 207.173 489.95 204.957 489.362 202.772C489.128 201.752 489.017 200.708 489.032 199.662C489.022 198.667 489.195 197.678 489.543 196.746C489.712 196.351 489.984 196.08 490.025 196.111C490.049 196.138 490.043 196.102 490.084 196.112C490.127 196.141 490.177 196.159 490.229 196.165C490.388 196.264 490.536 196.379 490.672 196.508C491.359 197.263 491.941 198.107 492.402 199.018C493.439 200.909 494.241 202.92 494.789 205.007C495.067 206.054 495.296 207.117 495.491 208.196C495.704 209.295 495.807 210.326 496.11 211.576C496.692 213.825 497.546 215.995 498.654 218.037C499.262 219.245 500.24 220.228 501.445 220.841C501.841 221 502.268 221.066 502.693 221.037C502.909 221.026 503.123 220.999 503.335 220.954L503.886 220.717C504.512 220.405 505.067 219.967 505.515 219.43C507.234 217.4 507.608 214.979 508.697 213.451C508.922 213.103 509.222 212.809 509.575 212.591C509.927 212.373 510.324 212.236 510.736 212.19C511.194 212.133 511.657 212.138 512.114 212.206L512.821 212.331C512.998 212.408 513.229 212.46 513.368 212.536C513.666 212.732 513.597 212.68 513.622 212.891C513.555 213.285 513.408 213.66 513.189 213.994C512.687 214.86 512.006 215.744 511.357 216.689C511.011 217.175 510.694 217.683 510.41 218.208C510.102 218.775 509.87 219.381 509.721 220.009C509.45 221.185 509.312 222.301 509.162 223.426L508.384 230.07C508.235 231.16 508.077 232.249 507.855 233.295C507.752 233.801 507.619 234.301 507.455 234.791C507.352 235.149 507.19 235.486 506.975 235.79L506.745 236.149C506.678 236.253 506.634 236.371 506.617 236.494C506.599 236.617 506.608 236.742 506.643 236.862C508.725 243.844 510.927 250.791 513.063 257.757L519.517 278.642L525.971 299.527L532.582 320.365C532.59 320.39 532.607 320.411 532.63 320.423C532.653 320.435 532.68 320.438 532.705 320.43C532.731 320.423 532.752 320.406 532.764 320.383C532.777 320.36 532.78 320.333 532.773 320.308L526.849 299.264L520.768 278.268L514.686 257.271C512.644 250.277 510.667 243.263 508.571 236.285L508.239 237.356C508.542 237.073 508.792 236.737 508.978 236.366C509.137 236.076 509.265 235.771 509.36 235.454C509.553 234.887 509.71 234.307 509.831 233.72C510.076 232.583 510.241 231.461 510.398 230.34L511.198 223.684C511.344 222.597 511.49 221.495 511.725 220.495C511.996 219.54 512.45 218.647 513.063 217.866C513.677 216.971 514.373 216.09 514.998 215.027C515.384 214.419 515.627 213.732 515.706 213.016C515.741 212.781 515.724 212.541 515.655 212.313C515.616 212.059 515.518 211.819 515.37 211.61C515.12 211.221 514.772 210.905 514.361 210.693C514.034 210.538 513.695 210.408 513.348 210.303L512.409 210.128C511.762 210.031 511.104 210.024 510.454 210.105C509.757 210.192 509.085 210.427 508.485 210.793C507.885 211.159 507.369 211.649 506.973 212.23C505.53 214.395 505.184 216.658 503.938 218.055C503.676 218.381 503.35 218.65 502.98 218.845C502.908 218.878 502.838 218.915 502.771 218.957C502.703 218.972 502.645 218.954 502.584 218.968C502.466 219.028 502.335 218.924 502.199 218.918C501.429 218.464 500.807 217.797 500.408 216.998C499.377 215.115 498.576 213.116 498.023 211.042C497.789 210.124 497.636 208.931 497.419 207.84C497.208 206.724 496.958 205.605 496.654 204.497C496.049 202.265 495.171 200.115 494.043 198.097C493.483 197.019 492.774 196.026 491.935 195.149C491.665 194.896 491.364 194.679 491.039 194.503C490.826 194.42 490.61 194.35 490.389 194.292C490.133 194.262 489.873 194.269 489.618 194.314C489.216 194.441 488.85 194.66 488.547 194.953C488.244 195.247 488.013 195.606 487.873 196.004C487.429 197.164 487.211 198.398 487.23 199.64C487.227 200.829 487.37 202.013 487.656 203.166C488.265 205.282 488.761 207.429 489.142 209.598C489.285 210.67 489.366 211.75 489.385 212.831C489.387 213.077 489.374 213.323 489.347 213.567C489.336 213.65 489.319 213.732 489.296 213.813C489.286 213.864 489.29 213.817 489.317 213.797C489.403 213.702 489.518 213.638 489.644 213.614C489.723 213.598 489.805 213.604 489.881 213.634C489.902 213.633 489.923 213.638 489.941 213.649C490.007 213.703 489.917 213.632 489.884 213.603C489.792 213.531 489.703 213.454 489.619 213.372C489.438 213.203 489.259 213.015 489.082 212.817C487.668 211.146 486.386 209.367 485.249 207.496C484.667 206.56 484.108 205.608 483.606 204.641C483.115 203.671 482.582 202.618 481.97 201.66C481.368 200.668 480.666 199.741 479.873 198.894C479.059 197.934 477.964 197.255 476.743 196.952C476.379 196.894 476.007 196.923 475.657 197.036C475.306 197.149 474.987 197.343 474.726 197.602C474.472 197.84 474.266 198.126 474.122 198.443C473.973 198.769 473.895 199.123 473.892 199.482C473.963 200.682 474.282 201.854 474.828 202.924C475.813 204.962 476.967 206.915 478.277 208.76C479.646 210.493 480.84 212.358 481.842 214.326C482.07 214.818 482.269 215.322 482.438 215.837C482.521 216.079 482.582 216.328 482.62 216.581C482.647 216.714 482.648 216.851 482.622 216.985C482.47 216.981 482.32 216.939 482.187 216.865C481.955 216.752 481.732 216.62 481.521 216.47C481.08 216.17 480.67 215.825 480.3 215.441C479.565 214.681 478.951 213.717 478.235 212.853C477.544 211.969 476.814 211.113 476.065 210.274C474.591 208.548 472.868 207.05 470.954 205.829C470.447 205.516 469.892 205.289 469.312 205.158C468.694 205.04 468.056 205.127 467.492 205.406C467.193 205.533 466.927 205.73 466.718 205.98C466.509 206.23 466.363 206.526 466.29 206.844C466.187 207.451 466.246 208.075 466.463 208.651C467.331 210.77 468.679 212.659 470.401 214.169C471.977 215.725 473.434 217.397 474.761 219.17C475.418 220.023 475.94 220.972 476.308 221.983C476.472 222.399 476.476 222.861 476.319 223.279C476.237 223.5 475.711 223.423 475.248 223.215C473.342 222.143 471.595 220.808 470.06 219.249C469.249 218.493 468.458 217.714 467.678 216.924L466.49 215.709C466.007 215.256 465.404 214.952 464.753 214.832C464.056 214.701 463.335 214.847 462.744 215.239C462.184 215.678 461.82 216.321 461.732 217.028C461.639 217.639 461.638 218.26 461.729 218.87C461.812 219.536 462.078 220.165 462.497 220.688L471.861 230.347L471.722 230.153C472.587 231.897 473.579 233.574 474.69 235.172C475.806 236.768 477.048 238.272 478.403 239.669C479.749 241.078 481.201 242.38 482.745 243.566C484.294 244.782 485.952 245.85 487.699 246.758L487.312 246.404C487.426 246.778 487.584 247.076 487.692 247.495L487.998 248.782C488.184 249.654 488.328 250.556 488.491 251.443C488.783 253.24 489.056 255.044 489.296 256.858C489.778 260.485 490.22 264.123 490.62 267.771C491.461 275.06 492.143 282.364 493.102 289.666C493.323 291.51 493.641 293.342 494.054 295.153C494.49 296.957 494.981 298.725 495.468 300.498L498.511 311.09C500.617 318.125 502.788 325.14 504.97 332.15C504.978 332.175 504.995 332.196 505.019 332.208C505.042 332.221 505.069 332.224 505.094 332.216C505.119 332.209 505.14 332.192 505.153 332.169C505.166 332.146 505.169 332.119 505.162 332.094L505.162 332.094Z" fill="#403632"/>
<path d="M481.012 226.832C482.332 225.307 483.741 223.862 485.232 222.506C485.96 221.851 486.758 221.279 487.613 220.801C488.488 220.324 489.442 220.007 490.429 219.865C489.385 219.622 488.292 219.701 487.293 220.09C486.296 220.476 485.376 221.038 484.579 221.751C482.995 223.13 481.771 224.873 481.012 226.832Z" fill="#403632"/>
<path d="M493.93 222.668C493.669 224.279 493.667 225.921 493.922 227.533C494.042 228.342 494.229 229.14 494.484 229.917C494.717 230.718 495.126 231.458 495.682 232.081C495.482 231.309 495.335 230.525 495.242 229.734L494.909 227.386C494.698 225.791 494.371 224.214 493.93 222.668Z" fill="#403632"/>
<path d="M501.541 238.862C502.717 238.999 503.907 238.957 505.071 238.738C506.384 238.522 507.591 237.882 508.507 236.916L508.546 236.873C508.636 236.774 508.705 236.659 508.75 236.533C508.795 236.407 508.815 236.274 508.808 236.141C508.802 236.007 508.769 235.876 508.711 235.756C508.654 235.635 508.574 235.527 508.475 235.437C508.376 235.348 508.26 235.279 508.134 235.234C508.008 235.189 507.875 235.17 507.742 235.176C507.608 235.183 507.478 235.216 507.357 235.274C507.237 235.331 507.129 235.412 507.039 235.511C506.967 235.592 506.907 235.683 506.863 235.783C506.395 236.667 505.65 237.373 504.743 237.795C503.735 238.309 502.656 238.669 501.541 238.862Z" fill="#403632"/>
<path d="M632.907 493.302C632.874 502.889 632.87 512.475 632.99 522.058C633.093 531.641 633.159 541.226 633.376 550.806L633.946 579.55C634.177 589.13 634.499 598.708 634.911 608.283L635.288 607.477C631.127 610.693 626.64 613.465 621.901 615.748C617.168 618.094 612.138 619.787 606.949 620.781C601.76 621.782 596.422 621.707 591.264 620.562C586.13 619.36 581.345 616.985 577.283 613.624C577.227 613.577 577.162 613.543 577.092 613.522C577.022 613.502 576.949 613.495 576.876 613.504L576.848 613.507C571.191 614.178 565.497 614.5 559.8 614.473C554.119 614.464 548.444 614.07 542.817 613.293C537.234 612.559 531.764 611.135 526.533 609.052C521.37 607.094 516.821 603.798 513.351 599.503L513.629 600.495L516.766 573.535L519.744 546.555L522.743 519.577C523.77 510.587 524.775 501.595 525.886 492.61C525.89 492.575 525.881 492.538 525.859 492.509C525.837 492.48 525.805 492.461 525.77 492.455C525.734 492.45 525.698 492.458 525.668 492.479C525.638 492.499 525.618 492.531 525.611 492.566C523.875 501.458 522.42 510.401 521.051 519.352C519.638 528.3 518.436 537.275 517.22 546.247C515.982 555.217 514.891 564.205 513.805 573.193C512.761 582.187 511.784 591.188 510.873 600.197L510.871 600.219C510.837 600.567 510.937 600.914 511.151 601.19C514.966 605.817 519.943 609.345 525.572 611.412C531.027 613.486 536.727 614.848 542.53 615.464C548.27 616.118 554.05 616.339 559.822 616.126C565.578 615.962 571.32 615.458 577.017 614.615L576.583 614.498C580.832 617.863 585.78 620.233 591.065 621.433C596.347 622.541 601.791 622.63 607.106 621.697C612.406 620.779 617.573 619.211 622.489 617.027C627.438 614.87 632.144 612.193 636.526 609.04C636.644 608.955 636.739 608.843 636.805 608.714C636.871 608.584 636.905 608.441 636.905 608.296L636.904 608.234C636.825 598.65 636.67 589.068 636.438 579.488L635.577 550.751C635.317 541.172 634.906 531.596 634.532 522.02C634.175 512.443 633.695 502.869 633.185 493.296C633.183 493.259 633.167 493.226 633.14 493.201C633.114 493.176 633.079 493.163 633.043 493.164C633.006 493.165 632.972 493.18 632.947 493.206C632.921 493.231 632.907 493.266 632.907 493.302L632.907 493.302Z" fill="#403632"/>
<path d="M565.518 522.805C563.298 522.059 561.118 521.256 558.947 520.461C556.783 519.645 554.633 518.808 552.556 517.83C550.461 516.905 548.439 515.823 546.507 514.593C544.553 513.372 542.787 511.874 541.263 510.145C542.389 512.242 543.965 514.063 545.878 515.479C547.762 516.919 549.81 518.133 551.977 519.095C554.121 520.071 556.34 520.873 558.613 521.491C560.871 522.133 563.182 522.573 565.518 522.805Z" fill="#403632"/>
<path d="M576.933 614.061C576.486 606.167 575.706 598.297 574.808 590.441C573.913 582.584 572.754 574.759 571.489 566.95C570.128 559.158 568.652 551.377 566.717 543.698C564.928 535.982 562.458 528.439 559.336 521.16L561.246 526.766L562.874 532.454C563.886 536.264 564.879 540.08 565.675 543.943C566.533 547.791 567.302 551.659 568.078 555.525C568.775 559.408 569.507 563.283 570.119 567.181C571.495 574.951 572.632 582.763 573.752 590.578C574.325 594.484 574.865 598.395 575.372 602.312L576.933 614.061Z" fill="#403632"/>
<path d="M563.144 615.217L562.037 594.374C561.695 587.429 561.312 580.487 561.136 573.541C560.849 566.599 560.744 559.655 560.823 552.711C560.861 549.242 560.971 545.771 561.261 542.317C561.418 538.849 562.052 535.42 563.144 532.125C561.79 535.351 560.927 538.763 560.583 542.245C560.152 545.712 559.922 549.197 559.754 552.68C559.445 559.651 559.568 566.625 559.747 573.588C560.04 580.549 560.403 587.504 560.974 594.444C561.545 601.383 562.214 608.315 563.144 615.217Z" fill="#403632"/>
<path d="M634.669 542.204C630.187 541.656 625.679 541.342 621.164 541.264C621.027 541.26 620.892 541.284 620.764 541.333C620.637 541.382 620.521 541.456 620.422 541.55C620.323 541.645 620.244 541.757 620.188 541.882C620.133 542.007 620.103 542.142 620.1 542.278L620.1 542.283L620.099 542.329C620.055 544.615 620.001 546.9 620.103 549.186C620.198 551.471 620.388 553.757 620.535 556.042C620.866 560.607 620.869 565.19 620.543 569.755C620.423 572.041 620.235 574.326 620.138 576.612C620.041 578.897 619.997 581.183 619.941 583.468C619.784 588.039 619.807 592.61 619.958 597.181L619.961 597.283C619.97 597.554 620.076 597.813 620.259 598.012C620.443 598.212 620.692 598.339 620.961 598.37C622.309 598.538 623.667 598.617 625.026 598.608C626.382 598.609 627.737 598.5 629.076 598.281C630.44 598.075 631.766 597.664 633.008 597.062C633.645 596.773 634.217 596.358 634.689 595.842C635.161 595.326 635.524 594.719 635.755 594.059C635.759 594.043 635.761 594.026 635.758 594.01C635.756 593.994 635.751 593.978 635.743 593.964C635.734 593.949 635.724 593.937 635.71 593.927C635.697 593.917 635.682 593.909 635.666 593.905C635.64 593.898 635.611 593.9 635.586 593.911C635.56 593.922 635.539 593.94 635.525 593.964C634.858 595.025 633.808 595.787 632.593 596.092C631.398 596.451 630.159 596.643 628.911 596.662C627.644 596.678 626.377 596.629 625.115 596.517C623.859 596.391 622.566 596.23 621.367 595.992L622.37 597.181C622.52 592.61 622.543 588.039 622.387 583.468C622.331 581.183 622.287 578.897 622.189 576.612C622.093 574.326 621.904 572.041 621.785 569.755C621.459 565.19 621.461 560.607 621.792 556.042C621.94 553.757 622.13 551.471 622.225 549.186C622.326 546.9 622.273 544.615 622.229 542.329L621.164 543.394C625.679 543.316 630.187 543.002 634.669 542.454C634.699 542.45 634.727 542.435 634.747 542.412C634.767 542.389 634.779 542.36 634.779 542.329C634.779 542.298 634.767 542.269 634.747 542.246C634.727 542.223 634.699 542.208 634.669 542.204L634.669 542.204Z" fill="#403632"/>
<path d="M634.854 552.18C632.525 552.069 630.19 552.22 627.895 552.631C625.589 552.982 623.331 553.593 621.164 554.454C623.493 554.568 625.828 554.417 628.123 554.003C630.428 553.649 632.686 553.038 634.854 552.18Z" fill="#403632"/>
<path d="M630.267 611.13C631.906 612.929 633.457 614.8 634.933 616.717C636.321 618.739 637.844 620.667 639.491 622.486C640.362 623.372 641.286 624.19 642.235 624.983C643.223 625.774 644.244 626.457 645.257 627.143L651.323 631.178C659.353 636.53 666.914 642.556 673.924 649.191C677.42 652.503 680.743 655.993 683.943 659.594C687.113 663.245 690.09 666.964 693.082 670.849C696.111 674.7 699.351 678.381 702.787 681.875C706.196 685.413 710.055 688.378 713.683 691.639C712.233 689.674 710.593 687.845 709.002 686.007C707.424 684.149 705.754 682.388 704.147 680.593C700.908 677.012 697.894 673.238 695.003 669.377C689.372 661.352 682.938 653.922 675.8 647.202C672.236 643.831 668.48 640.669 664.549 637.733C660.642 634.782 656.583 632.038 652.389 629.511C650.311 628.233 648.182 627.033 646.095 625.808C645.053 625.196 644.025 624.57 643.059 623.915C642.091 623.215 641.141 622.48 640.251 621.691C638.518 620.015 636.898 618.225 635.402 616.334C633.791 614.503 632.076 612.766 630.267 611.13Z" fill="#403632"/>
<path d="M700.507 720.321C698.141 717.953 695.705 715.657 693.241 713.392C690.774 711.131 688.32 708.85 685.779 706.669C680.708 702.296 675.562 698.002 670.267 693.878C664.957 689.74 659.418 685.903 653.678 682.386C650.769 680.606 647.74 679.033 644.612 677.676C643.828 677.325 642.988 677.063 642.171 676.765C641.378 676.479 640.635 676.245 639.871 675.949C638.36 675.359 636.859 674.715 635.388 673.989C623.621 667.887 612.822 660.076 603.341 650.811C598.547 646.22 594.207 641.178 590.381 635.754C586.406 630.394 583.669 624.221 582.365 617.676C582.92 624.395 585.869 630.705 589.367 636.418C593.003 642.101 597.222 647.387 601.957 652.192C606.633 657.051 611.682 661.537 617.057 665.609C622.412 669.756 628.151 673.382 634.196 676.435C635.718 677.197 637.287 677.882 638.884 678.516C639.677 678.829 640.527 679.105 641.304 679.39C642.054 679.672 642.811 679.912 643.552 680.249C646.567 681.533 649.489 683.025 652.297 684.715C657.974 688.095 663.484 691.837 668.862 695.762C674.288 699.625 679.596 703.673 684.836 707.81C690.109 711.91 695.311 716.103 700.507 720.321Z" fill="#403632"/>
<path d="M626.205 638.113C627.577 640.387 629.013 642.509 630.162 644.754C630.756 645.843 631.218 646.999 631.536 648.198C631.876 649.41 631.863 650.695 631.499 651.901C631.944 651.368 632.272 650.748 632.463 650.081C632.655 649.414 632.704 648.714 632.608 648.027C632.465 646.658 632.054 645.33 631.398 644.119C630.161 641.738 628.382 639.68 626.205 638.113Z" fill="#403632"/>
<path d="M699.222 721.714C700.518 720.678 702.147 720.15 703.805 720.227C707.304 720.32 714.969 719.514 717.694 711.321C718.278 709.356 718.457 707.292 718.22 705.256C717.983 703.219 717.335 701.252 716.316 699.473C714.319 695.803 712.197 690.335 715.062 687.145C719.676 682.065 729.184 691.667 729.184 691.667C729.184 691.667 735.672 696.236 741.091 695.772C743.308 695.556 745.545 695.865 747.621 696.672C749.697 697.479 751.555 698.762 753.045 700.418C757.024 704.863 759.13 711.848 749.994 721.342C749.994 721.342 743.088 727.553 739.372 750.645C735.656 773.738 726.366 802.189 710.215 793.779C709.591 793.311 709.079 792.709 708.718 792.018C708.356 791.327 708.153 790.563 708.125 789.783C708.25 789.044 708.557 788.348 709.02 787.758C709.482 787.169 710.085 786.704 710.773 786.407C711.443 786.085 712.168 785.891 712.91 785.834C713.68 785.79 714.453 785.821 715.217 785.927C716.907 785.995 718.594 785.716 720.172 785.106C723.27 783.747 725.888 781.485 727.682 778.616C729.445 775.841 730.81 772.833 731.738 769.68L731.769 769.618V769.571C732.993 763.826 734.293 758.08 735.78 752.411C736.523 749.576 737.313 746.742 738.211 743.97C738.992 741.222 740.138 738.592 741.617 736.148C743.176 733.547 744.424 730.771 745.334 727.878C746.294 725.059 747.099 722.194 747.78 719.298C748.454 716.397 748.92 713.452 749.174 710.485C749.57 707.526 749.306 704.516 748.399 701.672C748.988 704.554 748.988 707.526 748.399 710.408C747.905 713.293 747.264 716.152 746.479 718.973C745.674 721.791 744.761 724.563 743.692 727.274C742.685 729.969 741.415 732.557 739.899 735.002C739.543 735.529 739.063 736.319 738.675 736.969C738.335 737.666 737.979 738.348 737.684 739.045C737.08 740.439 736.57 741.848 736.089 743.273C735.145 746.107 734.324 748.957 733.55 751.822C732.079 757.568 730.763 763.314 729.679 769.153C728.85 772.115 727.653 774.961 726.118 777.625C724.629 780.293 722.367 782.448 719.63 783.805C718.251 784.421 716.758 784.743 715.248 784.75C714.421 784.692 713.591 784.718 712.77 784.827C711.923 784.962 711.108 785.256 710.37 785.694C709.613 786.092 708.969 786.673 708.495 787.385C708.022 788.097 707.735 788.916 707.66 789.768C707.748 790.588 708.024 791.378 708.467 792.074C708.91 792.77 709.509 793.353 710.215 793.779C710.215 793.779 704.022 793.655 704.037 778.431C704.053 769.447 703.851 755.849 703.696 746.231C705.106 745.627 706.391 744.93 707.66 744.249L711.408 742.22C712.609 741.578 713.85 741.014 715.124 740.532C716.402 739.991 717.82 739.883 719.165 740.222C718.622 739.617 717.931 739.164 717.161 738.906C716.39 738.648 715.565 738.595 714.768 738.751C713.21 738.932 711.701 739.41 710.324 740.16C708.985 740.872 707.741 741.752 706.623 742.777C705.466 743.762 704.478 744.928 703.697 746.231C703.573 739.556 703.48 734.786 703.48 734.786C704.657 733.748 705.632 732.71 706.716 731.796C707.751 730.881 708.859 730.052 710.03 729.318C712.441 727.821 715.068 726.703 717.818 726.004C716.331 725.489 714.735 725.371 713.188 725.663C711.623 725.92 710.127 726.495 708.791 727.351C707.448 728.187 706.285 729.282 705.369 730.573C704.449 731.828 703.805 733.264 703.48 734.786C703.48 734.786 693.214 726.748 699.222 721.714ZM730.252 725.911C732.993 726.546 738.118 722.535 736.57 717.006C734.773 710.578 735.718 706.458 732.977 705.823C730.237 705.188 727.403 709.184 726.66 714.729C725.901 720.273 727.511 725.276 730.252 725.911ZM714.938 750.428C713.332 750.517 711.763 750.95 710.339 751.698C708.939 752.413 707.663 753.349 706.561 754.471C705.438 755.539 704.529 756.811 703.882 758.219C706.546 756.655 708.884 755.028 711.392 753.774C712.62 753.144 713.9 752.621 715.217 752.21C716.616 751.863 718.049 751.676 719.49 751.652C718.144 750.764 716.548 750.335 714.938 750.428Z" fill="#EC602C"/>
<path d="M559.462 614.439C560.824 616.457 562.087 618.533 563.269 620.643C564.35 622.846 565.577 624.974 566.943 627.012C567.677 628.016 568.472 628.959 569.296 629.881C570.159 630.808 571.07 631.632 571.973 632.457L577.39 637.328C584.56 643.789 591.168 650.848 597.142 658.429C600.121 662.213 602.902 666.149 605.547 670.174C608.154 674.247 610.56 678.359 612.958 682.636C615.397 686.886 618.069 690.998 620.962 694.953C623.823 698.948 627.211 702.442 630.328 706.194C629.178 704.039 627.82 701.992 626.512 699.943C625.22 697.876 623.824 695.891 622.494 693.882C619.808 689.869 617.373 685.698 615.072 681.459C610.664 672.702 605.374 664.417 599.286 656.733C596.248 652.881 592.99 649.208 589.527 645.733C586.088 642.247 582.47 638.943 578.687 635.834C576.815 634.268 574.883 632.772 572.996 631.258C572.054 630.501 571.127 629.733 570.266 628.944C569.41 628.112 568.577 627.246 567.811 626.336C566.338 624.427 564.995 622.421 563.789 620.333C562.46 618.287 561.016 616.32 559.462 614.439Z" fill="#403632"/>
<path d="M613.133 732.663C604.53 721.324 595.234 710.528 585.297 700.337C580.321 695.188 574.988 690.396 569.336 685.998C567.894 684.915 566.418 683.864 564.873 682.89C563.368 681.909 561.586 681.053 560.15 680.281C557.136 678.559 554.273 676.585 551.592 674.379C546.153 669.932 541.095 665.038 536.471 659.748C531.808 654.475 527.582 648.83 523.834 642.87C520.065 636.925 517.11 630.501 515.048 623.77C512.853 617.022 512.675 609.78 514.535 602.932C511.944 609.614 512.26 617.137 513.925 624.067C515.724 631.022 518.514 637.681 522.21 643.841C529.48 656.241 538.847 667.285 549.894 676.479C552.687 678.799 555.672 680.877 558.817 682.691C560.507 683.599 561.917 684.305 563.402 685.243C564.867 686.151 566.293 687.149 567.696 688.187C573.267 692.493 578.581 697.122 583.61 702.051C588.713 706.943 593.707 711.963 598.59 717.111C603.487 722.239 608.335 727.423 613.133 732.663Z" fill="#403632"/>
<path d="M551.532 640.548C552.56 642.997 553.674 645.305 554.484 647.693C554.915 648.856 555.204 650.067 555.345 651.299C555.506 652.549 555.307 653.818 554.772 654.958C555.289 654.496 555.704 653.93 555.99 653.298C556.276 652.665 556.426 651.98 556.431 651.286C556.487 649.91 556.273 648.537 555.8 647.244C554.922 644.708 553.46 642.415 551.532 640.548Z" fill="#403632"/>
<path d="M608.205 790.666C609.026 785.106 610.032 777.734 610.977 770.656C613.841 769.479 616.396 768.209 619.044 767.342C620.351 766.899 621.692 766.567 623.054 766.35C624.492 766.201 625.942 766.222 627.375 766.412C626.169 765.347 624.656 764.691 623.054 764.538C621.452 764.412 619.84 764.612 618.316 765.126C616.827 765.628 615.43 766.371 614.182 767.326C612.914 768.225 611.827 769.354 610.977 770.656C611.534 766.443 612.076 762.323 612.525 758.761C613.953 758.373 615.359 757.908 616.737 757.367L620.732 755.911C622.018 755.453 623.332 755.075 624.665 754.781C626.011 754.427 627.436 754.525 628.722 755.059C628.264 754.388 627.643 753.844 626.917 753.478C626.191 753.112 625.384 752.937 624.572 752.969C623.005 752.927 621.444 753.184 619.973 753.728C618.539 754.233 617.176 754.92 615.916 755.772C614.639 756.588 613.495 757.596 612.525 758.761C613.392 752.148 613.981 747.408 613.981 747.408C615.281 746.556 616.412 745.658 617.62 744.915C618.776 744.164 619.987 743.502 621.243 742.932C623.85 741.811 626.612 741.091 629.434 740.795C628.044 740.06 626.483 739.713 624.913 739.788C623.327 739.823 621.764 740.17 620.313 740.811C618.862 741.451 617.552 742.372 616.458 743.521C615.366 744.626 614.522 745.951 613.981 747.408C613.981 747.408 604.984 737.96 611.658 733.856C613.091 733.015 614.782 732.728 616.412 733.051C619.865 733.64 627.545 733.965 631.447 726.252C632.307 724.39 632.781 722.374 632.84 720.324C632.898 718.274 632.54 716.234 631.788 714.326C630.348 710.408 629.047 704.677 632.345 701.951C637.641 697.584 645.662 708.472 645.662 708.472C645.662 708.472 651.422 713.939 656.857 714.264C659.079 714.373 661.246 715.001 663.182 716.098C665.118 717.195 666.77 718.732 668.005 720.583C671.288 725.57 672.356 732.772 661.951 740.857C661.951 740.857 654.224 745.999 647.194 768.302C640.165 790.62 626.848 817.414 612.092 806.743C611.541 806.193 611.121 805.525 610.864 804.791C610.606 804.056 610.518 803.273 610.605 802.499C610.833 801.786 611.236 801.142 611.777 800.625C612.318 800.108 612.98 799.736 613.702 799.541C614.412 799.315 615.158 799.225 615.901 799.277C616.672 799.348 617.434 799.493 618.177 799.711C619.843 800.021 621.556 799.989 623.209 799.618C626.468 798.721 629.381 796.865 631.571 794.29C633.719 791.796 635.507 789.012 636.882 786.02L636.913 785.973L636.928 785.927C638.972 780.429 641.094 774.93 643.385 769.525C644.531 766.83 645.723 764.151 647.009 761.534C648.187 758.931 649.702 756.494 651.515 754.285C653.434 751.94 655.072 749.377 656.392 746.649C657.746 743.997 658.965 741.278 660.046 738.503C661.141 735.738 662.031 732.896 662.71 730C663.527 727.125 663.701 724.106 663.221 721.156C663.387 724.092 662.96 727.031 661.966 729.798C661.051 732.581 659.997 735.315 658.808 737.992C657.615 740.656 656.299 743.273 654.844 745.813C653.46 748.327 651.831 750.697 649.982 752.891C649.548 753.371 648.96 754.084 648.48 754.672C648.062 755.307 647.597 755.942 647.194 756.593C646.405 757.878 645.693 759.195 645.011 760.527C643.664 763.191 642.441 765.901 641.264 768.627C638.972 774.094 636.836 779.608 634.915 785.215C633.669 788.024 632.077 790.667 630.177 793.082C628.308 795.501 625.757 797.303 622.853 798.255C621.397 798.655 619.874 798.755 618.378 798.55C617.569 798.372 616.744 798.278 615.916 798.271C615.062 798.28 614.216 798.448 613.423 798.767C612.615 799.051 611.892 799.535 611.32 800.174C610.749 800.813 610.349 801.586 610.156 802.422C610.118 803.243 610.274 804.062 610.61 804.813C610.946 805.563 611.454 806.224 612.092 806.743C612.092 806.743 605.991 805.72 608.205 790.666ZM641.759 742.514C644.376 743.521 650.028 740.315 649.3 734.615C648.449 727.986 649.982 724.052 647.365 723.03C644.748 722.008 641.357 725.539 639.808 730.914C638.276 736.304 639.143 741.492 641.759 742.514Z" fill="#EC602C"/>
<path d="M734.784 283.556C733.932 290.903 732.665 298.196 730.991 305.4C729.368 312.545 727.115 319.533 724.258 326.28C722.86 329.638 721.208 332.884 719.318 335.992C717.473 339.113 715.348 342.061 712.969 344.797C710.564 347.523 707.882 349.992 704.968 352.164C701.957 354.29 698.739 356.103 695.361 357.576C699.012 356.681 702.524 355.289 705.797 353.439C709.054 351.488 712.057 349.139 714.735 346.447C719.997 340.956 724.19 334.533 727.1 327.506C730.026 320.568 732.124 313.308 733.35 305.878C734.66 298.514 735.141 291.027 734.784 283.556Z" fill="#403632"/>
<path d="M743.428 333.258C741.077 339.966 738.286 346.511 735.073 352.851C733.438 355.982 731.753 359.078 729.861 362.038C728.028 365.024 725.998 367.885 723.785 370.601C719.496 376.099 714.281 380.808 708.375 384.515C705.375 386.301 702.195 387.765 698.887 388.881C695.509 389.956 692.036 390.706 688.514 391.121C692.123 391.339 695.744 391.08 699.285 390.35C702.853 389.547 706.305 388.295 709.558 386.623C712.791 384.892 715.829 382.819 718.619 380.439C721.367 378.029 723.903 375.387 726.197 372.541C730.695 366.839 734.412 360.563 737.25 353.877C740.152 347.286 742.228 340.36 743.428 333.258Z" fill="#403632"/>
<path d="M804.638 643.179C806.874 650.229 808.711 657.399 810.139 664.656C811.591 671.838 812.403 679.135 812.565 686.461C812.668 690.097 812.494 693.735 812.044 697.345C811.642 700.949 810.913 704.509 809.867 707.981C808.792 711.454 807.36 714.806 805.593 717.983C803.719 721.157 801.528 724.131 799.051 726.861C802.014 724.546 804.646 721.836 806.872 718.805C809.042 715.689 810.816 712.314 812.154 708.76C814.7 701.594 815.889 694.015 815.66 686.413C815.482 678.884 814.417 671.403 812.487 664.125C810.661 656.871 808.028 649.846 804.638 643.179Z" fill="#403632"/>
<path d="M832.91 684.956C833.518 692.039 833.657 699.153 833.328 706.254C833.122 709.78 832.855 713.294 832.344 716.771C831.897 720.246 831.22 723.688 830.316 727.073C828.66 733.848 825.836 740.282 821.97 746.087C819.967 748.946 817.668 751.586 815.11 753.962C812.47 756.329 809.61 758.439 806.569 760.262C809.949 758.98 813.145 757.257 816.074 755.138C818.999 752.942 821.633 750.383 823.914 747.523C826.152 744.618 828.072 741.481 829.64 738.165C831.158 734.84 832.386 731.389 833.311 727.852C835.074 720.807 835.889 713.557 835.735 706.296C835.677 699.093 834.728 691.926 832.91 684.956Z" fill="#403632"/>
<path d="M438.833 450.449C438.52 457.922 439.045 465.407 440.398 472.763C441.667 480.185 443.808 487.432 446.774 494.353C449.725 501.363 453.956 507.762 459.25 513.221C461.944 515.897 464.96 518.229 468.229 520.161C471.513 521.992 475.032 523.363 478.689 524.236C475.303 522.783 472.073 520.989 469.051 518.881C466.123 516.726 463.427 514.273 461.007 511.561C458.612 508.839 456.469 505.904 454.606 502.793C452.697 499.697 451.027 496.46 449.609 493.11C446.712 486.38 444.418 479.406 442.754 472.27C441.037 465.076 439.728 457.791 438.833 450.449Z" fill="#403632"/>
<path d="M430.48 500.201C431.722 507.295 433.838 514.209 436.779 520.784C439.656 527.452 443.41 533.707 447.942 539.382C450.252 542.214 452.803 544.842 455.566 547.235C458.37 549.599 461.42 551.654 464.663 553.366C467.925 555.019 471.385 556.251 474.957 557.032C478.502 557.742 482.125 557.98 485.732 557.74C482.209 557.347 478.731 556.617 475.346 555.562C472.032 554.464 468.844 553.02 465.833 551.252C459.906 547.579 454.663 542.901 450.342 537.427C448.113 534.725 446.066 531.876 444.216 528.901C442.306 525.951 440.603 522.866 438.951 519.745C435.7 513.424 432.87 506.895 430.48 500.201Z" fill="#403632"/>
<path d="M789.983 540.696C790.008 541.336 789.81 541.964 789.422 542.473L783.44 549.281L789.422 556.089C789.707 556.517 789.885 557.007 789.939 557.519C789.994 558.03 789.925 558.547 789.737 559.025C789.364 559.978 788.606 560.266 788.026 559.644L780.471 551.058C780.105 550.538 779.909 549.917 779.909 549.281C779.909 548.645 780.105 548.025 780.471 547.504L786.452 540.696L780.471 533.888C780.105 533.368 779.909 532.747 779.909 532.111C779.909 531.475 780.105 530.855 780.471 530.334L786.452 523.526L780.471 516.718C780.186 516.291 780.008 515.8 779.953 515.289C779.898 514.778 779.968 514.261 780.156 513.782C780.529 512.829 781.287 512.541 781.866 513.164L789.422 521.749C789.787 522.27 789.983 522.89 789.983 523.526C789.983 524.162 789.787 524.783 789.422 525.303L783.44 532.111L789.422 538.919C789.814 539.426 790.013 540.056 789.983 540.696Z" fill="#403632"/>
<path d="M825.598 283.477C825.623 284.117 825.425 284.745 825.037 285.254L819.055 292.062L825.037 298.87C825.322 299.298 825.5 299.788 825.555 300.299C825.609 300.811 825.54 301.328 825.352 301.806C824.979 302.759 824.221 303.047 823.642 302.424L816.086 293.839C815.721 293.319 815.524 292.698 815.524 292.062C815.524 291.426 815.721 290.805 816.086 290.285L822.067 283.477L816.086 276.669C815.721 276.149 815.524 275.528 815.524 274.892C815.524 274.256 815.721 273.635 816.086 273.115L822.067 266.307L816.086 259.499C815.801 259.071 815.623 258.581 815.568 258.069C815.513 257.558 815.583 257.041 815.771 256.563C816.144 255.61 816.902 255.322 817.481 255.944L825.037 264.53C825.402 265.05 825.598 265.671 825.598 266.307C825.598 266.943 825.402 267.563 825.037 268.084L819.055 274.892L825.037 281.7C825.429 282.207 825.628 282.837 825.598 283.477Z" fill="#403632"/>
<path d="M395.66 622.097C395.684 622.77 395.445 623.427 394.994 623.927L387.892 630.938L394.994 637.949C395.328 638.37 395.54 638.875 395.606 639.409C395.672 639.942 395.59 640.484 395.367 640.973C394.925 641.954 394.025 642.251 393.337 641.61L384.367 632.768C383.936 632.256 383.7 631.608 383.7 630.938C383.7 630.269 383.936 629.621 384.367 629.108L391.468 622.097L384.367 615.086C383.936 614.573 383.7 613.925 383.7 613.256C383.7 612.586 383.936 611.938 384.367 611.426L391.468 604.414L384.367 597.403C384.032 596.983 383.82 596.478 383.754 595.944C383.688 595.411 383.771 594.869 383.993 594.38C384.436 593.398 385.336 593.102 386.023 593.743L394.994 602.584C395.424 603.097 395.66 603.745 395.66 604.414C395.66 605.084 395.424 605.732 394.994 606.245L387.892 613.256L394.994 620.267C395.219 620.513 395.395 620.802 395.509 621.116C395.623 621.43 395.675 621.763 395.66 622.097Z" fill="#403632"/>
<path d="M371.002 345.834L376.581 350.874C377.957 352.326 378.723 354.251 378.723 356.251C378.723 358.252 377.957 360.176 376.581 361.628L374.974 363.096C374.52 363.579 374.266 364.218 374.266 364.882C374.266 365.546 374.52 366.185 374.974 366.669L376.581 368.136C377.957 369.589 378.723 371.513 378.723 373.513C378.723 375.514 377.957 377.438 376.581 378.891L374.974 380.358C374.52 380.842 374.266 381.481 374.266 382.144C374.266 382.808 374.52 383.447 374.974 383.931L376.581 385.398C377.957 386.851 378.723 388.775 378.723 390.776C378.723 392.776 377.957 394.701 376.581 396.153L374.974 397.62C374.52 398.104 374.266 398.743 374.266 399.407C374.266 400.071 374.52 400.71 374.974 401.193L380.566 406.251C380.92 406.647 381.147 407.14 381.218 407.666C381.289 408.192 381.201 408.728 380.964 409.203C380.896 409.415 380.777 409.606 380.617 409.761C380.457 409.916 380.261 410.029 380.048 410.09C379.834 410.152 379.608 410.159 379.391 410.113C379.173 410.067 378.97 409.968 378.8 409.825L373.221 404.784C371.845 403.332 371.079 401.407 371.079 399.407C371.079 397.406 371.845 395.482 373.221 394.03L374.828 392.562C375.062 392.329 375.244 392.05 375.364 391.742C375.483 391.435 375.538 391.105 375.523 390.776C375.538 390.445 375.483 390.114 375.361 389.806C375.239 389.498 375.053 389.219 374.815 388.989L373.208 387.522C371.84 386.066 371.079 384.143 371.079 382.145C371.079 380.146 371.84 378.223 373.208 376.767L374.815 375.3C375.27 374.816 375.523 374.177 375.523 373.514C375.523 372.85 375.27 372.211 374.815 371.727L373.208 370.26C371.84 368.803 371.079 366.88 371.079 364.882C371.079 362.884 371.84 360.961 373.208 359.505L374.815 358.038C375.27 357.554 375.523 356.915 375.523 356.251C375.523 355.587 375.27 354.948 374.815 354.465L369.236 349.407C368.866 349.015 368.625 348.519 368.544 347.986C368.464 347.453 368.548 346.908 368.786 346.425C368.855 346.207 368.978 346.009 369.143 345.851C369.308 345.693 369.511 345.579 369.732 345.52C369.953 345.461 370.185 345.459 370.407 345.514C370.629 345.569 370.834 345.679 371.002 345.834V345.834Z" fill="#403632"/>
<path d="M444.533 681.623C444.413 683.4 444.83 685.171 445.73 686.708C446.63 688.244 447.972 689.474 449.58 690.238C451.189 691.002 452.99 691.264 454.749 690.99C456.508 690.717 458.145 689.92 459.445 688.704C460.746 687.488 461.651 685.909 462.042 684.171C462.433 682.434 462.293 680.619 461.64 678.963C460.986 677.306 459.849 675.884 458.377 674.883C456.905 673.881 455.166 673.345 453.386 673.345C451.116 673.273 448.909 674.104 447.25 675.655C445.591 677.207 444.614 679.352 444.533 681.623Z" fill="#403632"/>
<path d="M344.05 261.523C343.954 262.946 344.288 264.366 345.009 265.596C345.73 266.827 346.805 267.812 348.093 268.424C349.382 269.036 350.824 269.246 352.233 269.027C353.643 268.808 354.954 268.17 355.995 267.195C357.037 266.221 357.762 264.956 358.076 263.564C358.389 262.173 358.277 260.719 357.753 259.392C357.23 258.065 356.319 256.926 355.14 256.124C353.961 255.321 352.568 254.892 351.142 254.892C349.323 254.833 347.555 255.498 346.226 256.741C344.896 257.984 344.114 259.704 344.05 261.523Z" fill="#403632"/>
<path d="M665.622 557.249C665.526 558.672 665.86 560.091 666.581 561.322C667.302 562.553 668.377 563.538 669.665 564.15C670.954 564.762 672.396 564.972 673.806 564.753C675.215 564.534 676.526 563.896 677.568 562.921C678.61 561.947 679.334 560.682 679.648 559.29C679.961 557.899 679.849 556.445 679.326 555.118C678.802 553.791 677.892 552.652 676.712 551.85C675.533 551.047 674.14 550.618 672.714 550.618C670.895 550.559 669.127 551.224 667.798 552.467C666.468 553.71 665.686 555.43 665.622 557.249Z" fill="#403632"/>
<path d="M589.136 255.099C583.158 255.099 583.148 245.806 589.136 245.806C595.114 245.806 595.124 255.099 589.136 255.099Z" fill="#403632"/>
<path d="M756.444 414.802C750.466 414.802 750.456 405.51 756.444 405.51C762.422 405.51 762.432 414.802 756.444 414.802Z" fill="#403632"/>
<path d="M395.66 533.617C389.682 533.617 389.673 524.324 395.66 524.324C401.639 524.324 401.648 533.617 395.66 533.617Z" fill="#403632"/>
<path d="M468.94 382.482C462.962 382.482 462.952 373.189 468.94 373.189C474.918 373.189 474.928 382.482 468.94 382.482Z" fill="#403632"/>
</svg>
