<svg width="1037" height="190" viewBox="0 0 1037 190" fill="none" xmlns="http://www.w3.org/2000/svg">
<path d="M102.773 187.409C159.453 187.409 205.545 145.965 205.545 95C205.545 44.035 159.453 2.59088 102.773 2.59088C46.092 2.59088 0 44.035 0 95C0 145.965 46.092 187.409 102.773 187.409ZM102.773 8.19143C155.997 8.19143 199.317 47.1433 199.317 95C199.317 142.857 155.997 181.809 102.773 181.809C49.5489 181.809 6.22865 142.857 6.22865 95C6.22865 47.1433 49.5489 8.19143 102.773 8.19143Z" fill="black"/>
<path d="M102.773 173.406C150.858 173.406 189.974 138.235 189.974 94.9986C189.974 51.7623 150.858 16.5909 102.773 16.5909C54.6875 16.5909 15.5716 51.7623 15.5716 94.9986C15.5716 138.235 54.6875 173.406 102.773 173.406ZM102.773 22.1914C147.432 22.1914 183.745 54.8426 183.745 94.9986C183.745 135.155 147.432 167.806 102.773 167.806C58.1133 167.806 21.8003 135.155 21.8003 94.9986C21.8003 54.8426 58.1133 22.1914 102.773 22.1914Z" fill="black"/>
<path d="M102.773 41.7929C104.486 41.7929 105.887 40.5328 105.887 38.9927V30.5918C105.887 29.0517 104.486 27.7915 102.773 27.7915C101.06 27.7915 99.6583 29.0517 99.6583 30.5918V38.9927C99.6583 40.5328 101.06 41.7929 102.773 41.7929Z" fill="black"/>
<path d="M102.773 148.207C101.06 148.207 99.6583 149.467 99.6583 151.007V159.408C99.6583 160.948 101.06 162.208 102.773 162.208C104.486 162.208 105.887 160.948 105.887 159.408V151.007C105.887 149.467 104.486 148.207 102.773 148.207Z" fill="black"/>
<path d="M40.4865 92.1998H31.1435C29.4306 92.1998 28.0292 93.46 28.0292 95.0001C28.0292 96.5403 29.4306 97.8004 31.1435 97.8004H40.4865C42.1994 97.8004 43.6008 96.5403 43.6008 95.0001C43.6008 93.46 42.1994 92.1998 40.4865 92.1998Z" fill="black"/>
<path d="M165.059 97.8004H174.402C176.115 97.8004 177.516 96.5403 177.516 95.0001C177.516 93.46 176.115 92.1998 174.402 92.1998H165.059C163.346 92.1998 161.945 93.46 161.945 95.0001C161.945 96.5403 163.346 97.8004 165.059 97.8004Z" fill="black"/>
<path d="M146.809 58.2147C147.619 58.2147 148.397 57.9347 149.02 57.4026L155.623 51.466C156.837 50.3739 156.837 48.6098 155.623 47.5177C154.408 46.4255 152.446 46.4255 151.232 47.5177L144.629 53.4543C143.415 54.5464 143.415 56.3105 144.629 57.4026C145.221 57.9347 146.031 58.2147 146.809 58.2147Z" fill="black"/>
<path d="M52.1339 143.334C52.9436 143.334 53.7222 143.054 54.3451 142.522L60.9474 136.585C62.162 135.493 62.162 133.729 60.9474 132.637C59.7328 131.545 57.7708 131.545 56.5562 132.637L49.9539 138.574C48.7393 139.666 48.7393 141.43 49.9539 142.522C50.5144 143.082 51.3242 143.334 52.1339 143.334Z" fill="black"/>
<path d="M56.5251 57.3684C57.1479 57.9285 57.9265 58.1805 58.7362 58.1805C59.546 58.1805 60.3245 57.9005 60.9474 57.3684C62.162 56.2763 62.162 54.5121 60.9474 53.42L54.3451 47.4834C53.1305 46.3913 51.1684 46.3913 49.9539 47.4834C48.7393 48.5756 48.7393 50.3397 49.9539 51.4318L56.5251 57.3684Z" fill="black"/>
<path d="M151.232 142.522C151.855 143.082 152.633 143.334 153.443 143.334C154.253 143.334 155.031 143.054 155.654 142.522C156.869 141.43 156.869 139.666 155.654 138.574L149.052 132.637C147.837 131.545 145.875 131.545 144.661 132.637C143.446 133.729 143.446 135.493 144.661 136.585L151.232 142.522Z" fill="black"/>
<path d="M102.773 103.4C105.513 103.4 107.974 102.308 109.655 100.627L138.93 111.604C139.335 111.745 139.74 111.801 140.145 111.801C141.359 111.801 142.511 111.156 143.01 110.064C143.664 108.636 142.916 106.984 141.328 106.396L112.053 95.4189C112.053 95.2789 112.116 95.1109 112.116 94.9709C112.116 91.3305 109.5 88.2502 105.887 87.0741V58.5953C105.887 57.0551 104.486 55.795 102.773 55.795C101.06 55.795 99.6584 57.0551 99.6584 58.5953V87.1021C96.0458 88.2502 93.4298 91.3305 93.4298 94.9989C93.4298 99.6193 97.6341 103.4 102.773 103.4Z" fill="black"/>
<path d="M476.292 120.646L476.296 120.653C480.219 127.878 486.541 133.94 494.453 138.181L494.454 138.182C502.175 142.308 511.358 144.705 521.205 144.705C531.087 144.705 540.272 142.309 547.958 138.181L547.959 138.18C555.829 133.94 562.189 127.88 566.113 120.653L566.117 120.646C566.495 119.94 567.352 119.681 568.071 120.069C568.769 120.447 569.037 121.313 568.646 122.047C564.515 129.701 557.761 136.217 549.311 140.732L549.305 140.735C541.217 145.104 531.563 147.643 521.205 147.643C510.846 147.643 501.192 145.104 493.104 140.735L493.102 140.734C484.651 136.182 477.931 129.702 473.763 122.046C473.372 121.313 473.64 120.447 474.339 120.069C475.057 119.681 475.914 119.94 476.292 120.646ZM498.921 70.9217L499.007 70.5026C499.316 69.965 499.954 69.655 500.579 69.7863C501.348 69.9481 501.874 70.7425 501.709 71.537C501.045 74.706 499.282 77.4552 496.87 79.442C494.511 81.3776 491.484 82.5156 488.217 82.5156C484.959 82.5156 481.927 81.3472 479.555 79.4353C477.119 77.4567 475.39 74.7138 474.724 71.537C474.555 70.7245 475.065 69.9485 475.848 69.7877L475.854 69.7863C476.647 69.6197 477.423 70.119 477.585 70.9184L477.586 70.9217C478.101 73.4211 479.473 75.6182 481.403 77.1692L481.407 77.1718C483.284 78.672 485.642 79.5781 488.253 79.5781C490.855 79.5781 493.259 78.6776 495.113 77.1612L495.116 77.1588C496.987 75.6211 498.403 73.4342 498.921 70.9217ZM565.008 70.9217L565.094 70.5026C565.403 69.9651 566.041 69.655 566.665 69.7863C567.435 69.948 567.961 70.7419 567.796 71.5361C567.132 74.7054 565.369 77.455 562.956 79.442C560.598 81.3776 557.571 82.5156 554.303 82.5156C551.046 82.5156 548.013 81.347 545.642 79.4349C543.206 77.4563 541.477 74.7136 540.811 71.537C540.642 70.7245 541.152 69.9485 541.935 69.7877L541.941 69.7863C542.734 69.6197 543.51 70.119 543.672 70.9184L543.673 70.9217C544.188 73.4211 545.56 75.6182 547.49 77.1692L547.493 77.1718C549.371 78.672 551.729 79.5781 554.34 79.5781C556.942 79.5781 559.346 78.6776 561.2 77.1612L561.203 77.1588C563.074 75.6211 564.49 73.4342 565.008 70.9217ZM521.205 1.5C546.905 1.5 570.169 11.9787 587.004 28.8903C603.839 45.802 614.273 69.1758 614.273 95C614.273 120.824 603.839 144.198 587.004 161.11C570.169 178.021 546.905 188.5 521.205 188.5C495.504 188.5 472.24 178.021 455.405 161.11C438.57 144.198 428.136 120.824 428.136 95C428.136 69.1758 438.57 45.802 455.405 28.8903C472.24 11.9787 495.504 1.5 521.205 1.5ZM584.956 30.9671C568.655 14.5915 546.113 4.4375 521.205 4.4375C496.296 4.4375 473.754 14.5915 457.453 30.9671C441.152 47.3427 431.047 69.9846 431.047 95C431.047 120.015 441.152 142.657 457.453 159.033C473.754 175.409 496.296 185.562 521.205 185.562C546.113 185.562 568.655 175.409 584.956 159.033C601.257 142.657 611.362 120.015 611.362 95C611.362 69.9846 601.257 47.3427 584.956 30.9671Z" stroke="black" stroke-width="3"/>
<path d="M936.614 52.1073C945.781 52.1073 953.239 45.1658 953.239 36.6337C953.239 28.1015 945.781 21.16 936.614 21.16C927.447 21.16 919.989 28.1015 919.989 36.6337C919.989 45.1658 927.447 52.1073 936.614 52.1073ZM936.614 27.3495C942.113 27.3495 946.589 31.515 946.589 36.6337C946.589 41.7523 942.113 45.9178 936.614 45.9178C931.114 45.9178 926.639 41.7523 926.639 36.6337C926.639 31.515 931.114 27.3495 936.614 27.3495Z" fill="black"/>
<path d="M903.364 45.917L908.478 46.0532C908.8 46.8826 909.163 47.6934 909.632 48.6156L906.051 51.9486C905.426 52.5305 905.076 53.3134 905.076 54.1366C905.076 54.9598 905.426 55.7459 906.051 56.3246L915.457 65.0765C916.757 66.2865 918.858 66.2865 920.159 65.0765L923.886 61.8115C924.734 62.1829 925.605 62.5202 926.642 62.8606V67.577C926.642 69.2884 928.132 70.6717 929.967 70.6717H943.267C945.103 70.6717 946.592 69.2884 946.592 67.577L946.739 62.8142C947.63 62.5171 948.501 62.1829 949.492 61.7435L953.073 65.0734C954.373 66.2834 956.474 66.2834 957.774 65.0734L967.181 56.3215C967.806 55.7397 968.155 54.9567 968.155 54.1335C968.155 53.3103 967.806 52.5243 967.181 51.9455L963.669 48.4826C964.068 47.6903 964.431 46.8764 964.75 46.0501C964.75 46.0501 964.793 45.917 964.797 45.9139H969.864C971.699 45.9139 973.189 44.5306 973.189 42.8192V30.4403C973.189 28.7289 971.699 27.3456 969.864 27.3456L964.75 27.2063C964.427 26.3769 964.065 25.5661 963.596 24.6439L967.177 21.3109C967.802 20.7291 968.151 19.9461 968.151 19.1229C968.151 18.2997 967.802 17.5136 967.177 16.9349L957.774 8.18305C956.474 6.97301 954.373 6.97301 953.073 8.18305L949.359 11.4542C948.507 11.0797 947.63 10.7455 946.589 10.3989V5.68561C946.589 3.97422 945.099 2.59088 943.264 2.59088H929.964C928.129 2.59088 926.639 3.97422 926.639 5.68561L926.493 10.4453C925.598 10.7455 924.724 11.0797 923.74 11.5192L920.155 8.18305C918.855 6.97301 916.754 6.97301 915.454 8.18305L906.047 16.9349C905.422 17.5167 905.073 18.2997 905.073 19.1229C905.073 19.9461 905.422 20.7322 906.047 21.3109L909.558 24.7739C909.159 25.5661 908.797 26.38 908.431 27.3456H903.364C901.529 27.3456 900.039 28.7289 900.039 30.4403V42.8192C900.039 44.5337 901.529 45.917 903.364 45.917ZM906.689 33.5381H908.431C911.228 33.5381 913.761 31.836 914.735 29.3076C914.985 28.6608 915.267 28.0295 915.577 27.4137C916.827 24.941 916.338 22.1403 914.33 20.271L913.1 19.126L917.804 14.7501L919.038 15.8982C921.043 17.7612 924.055 18.2069 926.715 17.0525C927.374 16.7616 928.052 16.4986 928.744 16.2696C931.503 15.3442 933.289 13.0418 933.289 10.3989V8.78033H939.939V10.3989C939.939 13.0418 941.724 15.3442 944.484 16.2665C945.176 16.4986 945.854 16.7616 946.522 17.0556C949.176 18.2131 952.185 17.7581 954.193 15.8951L955.423 14.7501L960.128 19.126L958.898 20.271C956.89 22.1403 956.404 24.941 957.651 27.4137C957.964 28.0295 958.246 28.6608 958.492 29.3014C959.467 31.836 962 33.5381 964.797 33.5381H966.539V39.7276H964.797C961.957 39.7276 959.487 41.3863 958.492 43.955C958.243 44.6018 957.96 45.2331 957.651 45.8489C956.401 48.3216 956.89 51.1224 958.898 52.9916L960.128 54.1366L955.423 58.5126L954.196 57.3706C952.188 55.5014 949.172 55.0403 946.526 56.2101C945.864 56.4979 945.182 56.7609 944.487 56.993C941.724 57.9184 939.939 60.2208 939.939 62.8606V64.4823H933.289V62.8606C933.289 60.2178 931.503 57.9153 928.744 56.993C928.049 56.7578 927.364 56.4948 926.712 56.2101C924.052 55.0434 921.04 55.5014 919.035 57.3675L917.804 58.5095L913.1 54.1335L914.33 52.9885C916.338 51.1193 916.824 48.3185 915.577 45.8458C915.264 45.23 914.982 44.5987 914.735 43.9581C913.748 41.3863 911.271 39.7245 908.431 39.7245H906.689V33.5381Z" fill="black"/>
<path d="M933.289 117.093H926.639C926.639 118.802 925.146 120.188 923.314 120.188C921.482 120.188 919.989 118.802 919.989 117.093H913.339C913.339 122.212 917.814 126.377 923.314 126.377C928.813 126.377 933.289 122.212 933.289 117.093Z" fill="black"/>
<path d="M949.914 126.377C955.413 126.377 959.889 122.212 959.889 117.093H953.239C953.239 118.802 951.746 120.188 949.914 120.188C948.082 120.188 946.589 118.802 946.589 117.093H939.939C939.939 122.212 944.414 126.377 949.914 126.377Z" fill="black"/>
<path d="M1016.41 154.231H1006.44C1006.44 152.519 1004.95 151.136 1003.11 151.136H992.471C984.517 151.136 976.74 149.74 969.349 146.989C965.708 145.634 961.871 144.947 957.94 144.947H956.481C964.587 139.299 969.867 130.318 969.867 120.189C969.867 103.124 954.951 89.2415 936.617 89.2415C921.811 89.2415 909.243 98.3029 904.953 110.775C904.887 110.821 904.814 110.858 904.747 110.902L904.854 111.041C903.886 113.931 903.364 117.004 903.364 120.189C903.364 130.361 908.687 139.373 916.854 145.018C914.792 145.101 912.767 145.451 910.845 146.166C901.991 149.462 892.668 151.133 883.138 151.133H870.114C868.279 151.133 866.789 152.516 866.789 154.228H857.359C854.902 154.228 852.655 155.478 851.494 157.499C850.337 159.517 850.463 161.949 851.827 163.849L852.073 164.19C854.547 167.64 858.683 169.701 863.138 169.701H866.789C866.789 171.413 868.279 172.796 870.114 172.796H886.2C892.009 172.796 897.765 172.109 903.364 170.75V188.27H910.014V166.607C910.014 165.613 909.502 164.679 908.634 164.094C907.763 163.512 906.646 163.351 905.638 163.67C899.357 165.616 892.817 166.603 886.2 166.603H873.439V157.319H883.138C893.522 157.319 903.673 155.5 913.319 151.91C914.706 151.393 916.169 151.13 917.671 151.13H930.745L923.793 161.915C923.208 162.822 923.161 163.945 923.67 164.892L933.645 183.46C934.207 184.51 935.36 185.172 936.621 185.172C937.881 185.172 939.031 184.51 939.596 183.46L949.571 164.892C950.08 163.945 950.034 162.822 949.448 161.915L942.496 151.13H957.947C961.026 151.13 964.035 151.668 966.885 152.733C975.064 155.775 983.673 157.319 992.477 157.319H999.789V166.603H990.352C983.746 166.603 973.804 165.595 967.59 163.67C966.579 163.348 965.462 163.509 964.594 164.094C963.726 164.682 963.214 165.616 963.214 166.61V188.273H969.864V170.673C976.584 172.128 984.727 172.799 990.352 172.799H1003.11C1004.95 172.799 1006.44 171.416 1006.44 169.704H1010.63C1015.09 169.704 1019.22 167.643 1021.69 164.199L1021.94 163.855C1023.31 161.952 1023.43 159.517 1022.27 157.499C1021.11 155.481 1018.86 154.231 1016.41 154.231ZM863.135 163.515C860.907 163.515 858.839 162.484 857.602 160.761L857.359 160.42H866.789V163.515H863.135ZM936.614 95.431C945.857 95.431 954.01 99.8502 958.778 106.529C951.653 103.316 943.826 101.62 935.716 101.62C928.617 101.62 921.731 102.908 915.347 105.384C920.202 99.3551 927.916 95.431 936.614 95.431ZM910.014 120.189C910.014 118.276 910.27 116.422 910.716 114.634C918.15 110.18 926.732 107.81 935.716 107.81C945.542 107.81 954.901 110.614 962.788 115.915C963.051 117.308 963.214 118.731 963.214 120.189C963.214 133.84 951.281 144.947 936.614 144.947C921.947 144.947 910.014 133.84 910.014 120.189ZM936.614 175.163L930.429 163.651L936.614 154.054L942.798 163.651L936.614 175.163ZM1016.16 160.758C1014.93 162.484 1012.86 163.515 1010.63 163.515H1006.44V160.417L1016.41 160.414L1016.16 160.758Z" fill="black"/>
<path d="M1019.74 141.853H1013.09V148.043H1019.74V141.853Z" fill="black"/>
<path d="M1019.74 129.475H1013.09V135.665H1019.74V129.475Z" fill="black"/>
<path d="M1019.74 117.093H1013.09V123.283H1019.74V117.093Z" fill="black"/>
<path d="M863.464 141.853H856.814V148.043H863.464V141.853Z" fill="black"/>
<path d="M863.464 129.475H856.814V135.665H863.464V129.475Z" fill="black"/>
<path d="M863.464 117.093H856.814V123.283H863.464V117.093Z" fill="black"/>
<path d="M1006.44 52.1073C989.94 52.1073 976.514 64.6007 976.514 79.9598C976.514 95.3189 989.94 107.812 1006.44 107.812C1022.94 107.812 1036.36 95.3189 1036.36 79.9598C1036.36 64.6007 1022.94 52.1073 1006.44 52.1073ZM993.222 97.77C993.644 93.0103 997.894 89.244 1003.11 89.244H1009.76C1014.98 89.244 1019.23 93.0103 1019.66 97.77C1015.9 100.193 1011.35 101.623 1006.44 101.623C1001.53 101.623 996.979 100.193 993.222 97.77ZM1006.44 83.0545C1002.77 83.0545 999.789 80.2786 999.789 76.8651C999.789 73.4516 1002.77 70.6756 1006.44 70.6756C1010.11 70.6756 1013.09 73.4516 1013.09 76.8651C1013.09 80.2786 1010.11 83.0545 1006.44 83.0545ZM1025.17 92.7689C1023.59 89.1357 1020.57 86.2112 1016.78 84.5524C1018.6 82.4325 1019.74 79.7834 1019.74 76.8651C1019.74 70.0381 1013.77 64.4862 1006.44 64.4862C999.104 64.4862 993.139 70.0381 993.139 76.8651C993.139 79.7834 994.276 82.4325 996.095 84.5524C992.301 86.2112 989.285 89.1357 987.709 92.7689C984.866 89.1759 983.164 84.7535 983.164 79.9598C983.164 68.0173 993.604 58.2967 1006.44 58.2967C1019.27 58.2967 1029.71 68.0173 1029.71 79.9598C1029.71 84.7535 1028.01 89.1759 1025.17 92.7689Z" fill="black"/>
<path d="M860.139 110.911C865.638 110.911 870.114 106.746 870.114 101.627V98.5324C871.949 98.5324 873.439 97.1491 873.439 95.4377V92.7236C873.439 90.2571 874.516 87.868 876.391 86.1628C880.92 82.0561 883.414 76.5568 883.414 70.6799C883.414 64.4997 880.568 58.5981 875.6 54.4883C870.639 50.3847 863.979 48.4474 857.336 49.1684C847.205 50.2733 838.716 57.8708 837.153 67.2262C835.993 74.1707 838.354 80.9884 843.63 85.9307C845.698 87.868 846.839 90.285 846.839 92.7391V95.4377C846.839 97.1491 848.329 98.5324 850.164 98.5324V101.627C850.164 106.746 854.639 110.911 860.139 110.911ZM848.348 81.5641C844.578 78.033 842.892 73.1526 843.727 68.1763C844.837 61.5133 850.889 56.1037 858.114 55.3146C862.945 54.7854 867.59 56.1347 871.185 59.1118C874.729 62.0487 876.764 66.2637 876.764 70.6799C876.764 74.8733 874.982 78.7974 871.75 81.7312C868.694 84.504 866.902 88.3539 866.796 92.343H853.486C853.369 88.3817 851.554 84.5659 848.348 81.5641ZM863.464 98.5324V101.627C863.464 103.335 861.971 104.722 860.139 104.722C858.307 104.722 856.814 103.335 856.814 101.627V98.5324H863.464Z" fill="black"/>
<path d="M860.139 66.0336V59.8441C853.722 59.8441 848.502 64.7028 848.502 70.6756H855.152C855.152 68.1163 857.389 66.0336 860.139 66.0336Z" fill="black"/>
</svg>
