<svg width="729" height="731" viewBox="0 0 729 731" fill="none" xmlns="http://www.w3.org/2000/svg">
<path d="M386.33 340.361C383.225 335.827 379.824 331.502 376.151 327.414C363.611 334.677 342.667 333.374 342.667 333.374L341.495 336.159C336.073 349.326 329.963 362.199 323.189 374.725C323.357 374.854 323.497 375.015 323.601 375.2C323.705 375.385 323.77 375.589 323.792 375.799V375.832C325.323 390.115 326.251 404.349 326.821 418.648C327.375 432.931 327.5 447.219 327.196 461.512C326.968 475.795 326.17 490.078 324.932 504.296L323.922 514.963L322.603 525.582L321.935 530.907L321.105 536.184L319.411 546.753L320.893 536.151L321.626 530.858L322.196 525.533L323.303 514.898L324.118 504.231C325.079 490.013 325.616 475.746 325.567 461.496C325.584 447.246 325.187 433.001 324.378 418.762C323.58 405.44 322.489 392.085 320.877 378.861C317.203 385.38 313.191 391.702 308.858 397.802C309.078 397.981 309.247 398.216 309.348 398.482C309.448 398.748 309.475 399.036 309.428 399.316C309.422 399.323 309.417 399.33 309.414 399.339C309.411 399.347 309.41 399.356 309.412 399.365V399.381C306.268 414.853 303.516 430.471 301.301 446.122C300.177 453.956 299.282 461.817 298.614 469.704C297.805 477.578 297.713 485.51 298.337 493.4C297.441 485.518 297.262 477.57 297.8 469.655C298.19 461.724 298.82 453.815 299.689 445.927C301.252 431.269 303.272 416.694 305.649 402.134C301.131 408.16 295.953 413.661 290.21 418.534C290.446 418.753 290.612 419.037 290.687 419.349C290.762 419.662 290.744 419.99 290.634 420.293V420.309L290.617 420.358C285.256 433.811 280.901 447.643 277.589 461.74C275.888 468.728 274.971 475.884 274.853 483.075C274.797 486.597 275.439 490.095 276.742 493.368C277.437 495.098 278.019 496.871 278.484 498.677C278.957 500.452 279.413 502.227 279.755 504.035C281.286 511.185 282.361 518.383 283.37 525.598C284.396 532.812 285.227 540.043 286.074 547.274C287.67 561.736 289.059 576.22 290.243 590.725C288.793 576.247 287.132 561.796 285.259 547.372C284.298 540.157 283.321 532.959 282.165 525.777C281.025 518.611 279.82 511.429 278.159 504.377C277.8 502.602 277.312 500.876 276.807 499.149C276.344 497.435 275.768 495.754 275.081 494.117C273.602 490.645 272.832 486.913 272.817 483.14C272.796 475.768 273.594 468.416 275.195 461.219C278.12 447.579 282.028 434.167 286.888 421.09C266.27 435.992 253.583 424.918 253.583 424.918L243.551 447.083C237.235 461.05 236.415 476.885 241.255 491.43C251.303 521.705 258.713 575.775 259.56 610.659C266.856 611.979 274.087 613.298 281.351 614.519C288.614 615.692 295.862 616.832 303.158 617.63C310.409 618.519 317.708 618.954 325.013 618.933C328.652 618.925 332.284 618.631 335.876 618.053C339.502 617.54 343.016 616.417 346.267 614.731C343.291 617.026 339.877 618.689 336.234 619.617C332.608 620.599 328.893 621.22 325.144 621.473C317.687 621.977 310.2 621.769 302.783 620.854C295.402 619.994 288.077 618.705 280.846 616.995C273.62 615.349 266.51 613.233 259.56 610.659C259.898 618.74 259.56 626.836 258.55 634.86C271.909 641.445 286.437 645.326 301.299 646.282C316.162 647.238 331.067 645.249 345.159 640.43C345.159 640.43 348.53 568.397 348.889 527.975C349.042 509.023 354.694 490.522 365.158 474.72L374.278 460.975L387.552 440.927C397.471 425.98 402.659 408.393 402.441 390.456C402.223 372.519 396.609 355.063 386.33 340.361ZM267.263 631.864C266.63 631.841 266.031 631.574 265.591 631.118C265.152 630.663 264.906 630.054 264.906 629.421C264.906 628.788 265.152 628.179 265.591 627.724C266.031 627.268 266.63 627.001 267.263 626.978C267.896 627.001 268.495 627.268 268.935 627.724C269.375 628.179 269.621 628.788 269.621 629.421C269.621 630.054 269.375 630.663 268.935 631.118C268.495 631.574 267.896 631.841 267.263 631.864ZM278.989 634.795C278.356 634.773 277.757 634.506 277.317 634.05C276.878 633.594 276.632 632.986 276.632 632.353C276.632 631.719 276.878 631.111 277.317 630.655C277.757 630.2 278.356 629.932 278.989 629.91C279.622 629.932 280.221 630.2 280.661 630.655C281.1 631.111 281.346 631.719 281.346 632.353C281.346 632.986 281.1 633.594 280.661 634.05C280.221 634.505 279.622 634.773 278.989 634.795ZM294.233 637.141C293.6 637.118 293.001 636.851 292.561 636.395C292.121 635.939 291.876 635.331 291.876 634.698C291.876 634.065 292.121 633.456 292.561 633C293.001 632.545 293.6 632.277 294.233 632.255C294.866 632.278 295.465 632.545 295.904 633.001C296.344 633.456 296.59 634.065 296.59 634.698C296.59 635.331 296.344 635.939 295.904 636.395C295.465 636.851 294.866 637.118 294.233 637.141V637.141ZM309.477 637.727C308.844 637.704 308.244 637.437 307.805 636.981C307.365 636.526 307.119 635.917 307.119 635.284C307.119 634.651 307.365 634.042 307.805 633.587C308.244 633.131 308.844 632.864 309.477 632.841C310.109 632.864 310.709 633.131 311.148 633.587C311.588 634.042 311.834 634.651 311.834 635.284C311.834 635.917 311.588 636.526 311.148 636.981C310.709 637.437 310.109 637.704 309.477 637.727V637.727ZM325.307 637.141C324.674 637.118 324.074 636.851 323.634 636.395C323.195 635.94 322.949 635.331 322.949 634.698C322.949 634.064 323.195 633.456 323.634 633C324.074 632.545 324.674 632.277 325.307 632.255C325.939 632.277 326.539 632.545 326.978 633C327.418 633.456 327.664 634.065 327.664 634.698C327.664 635.331 327.418 635.939 326.978 636.395C326.539 636.851 325.939 637.118 325.307 637.141V637.141ZM338.205 635.382C337.572 635.359 336.973 635.092 336.533 634.636C336.094 634.181 335.848 633.572 335.848 632.939C335.848 632.306 336.094 631.697 336.533 631.241C336.973 630.786 337.572 630.519 338.205 630.496C338.838 630.518 339.438 630.786 339.877 631.241C340.317 631.697 340.563 632.306 340.563 632.939C340.563 633.572 340.317 634.181 339.877 634.637C339.438 635.092 338.838 635.359 338.205 635.382V635.382ZM378.334 392.786C377.188 400.069 375.255 407.206 372.568 414.071C371.852 415.782 371.184 417.508 370.403 419.169L367.894 424.12C367.484 424.946 367.022 425.746 366.51 426.514L365.044 428.875L363.562 431.221C363.09 432.002 362.455 432.686 361.901 433.436L358.497 437.8L354.67 441.774L352.732 443.728L350.582 445.471C349.165 446.611 347.716 447.735 346.267 448.842C347.504 447.474 348.726 446.139 349.964 444.819L351.82 442.849L353.481 440.699L356.836 436.465L359.817 431.986C363.698 425.965 366.956 419.564 369.539 412.883C372.162 406.195 374.274 399.319 375.858 392.313C377.441 385.243 378.572 378.079 379.246 370.865C379.846 378.181 379.54 385.544 378.334 392.786V392.786Z" fill="#B3B3B3"/>
<path d="M451.289 643.32C488.815 640.903 526.371 639.471 563.934 638.281C582.717 637.74 601.501 637.241 620.291 636.931C639.08 636.575 657.875 636.429 676.677 636.495C657.914 637.696 639.144 638.689 620.368 639.472C601.594 640.299 582.814 640.937 564.032 641.534C526.466 642.619 488.893 643.463 451.289 643.32Z" fill="#B3B3B3"/>
<path d="M556.11 672.132C571.574 670.463 587.064 669.781 602.559 669.34C610.308 669.175 618.058 669.05 625.813 669.115C633.567 669.133 641.326 669.363 649.09 669.803C641.357 670.63 633.62 671.248 625.877 671.656C618.135 672.109 610.388 672.372 602.64 672.594C587.142 672.93 571.638 673.024 556.11 672.132Z" fill="#B3B3B3"/>
<path d="M503.042 390.953C540.568 388.535 578.123 387.103 615.686 385.913C634.47 385.373 653.254 384.873 672.044 384.564C690.833 384.207 709.628 384.062 728.429 384.127C709.666 385.329 690.897 386.321 672.121 387.104C653.347 387.932 634.566 388.57 615.785 389.167C578.219 390.252 540.645 391.095 503.042 390.953Z" fill="#B3B3B3"/>
<path d="M607.862 419.764C623.327 418.096 638.816 417.413 654.312 416.973C662.061 416.807 669.811 416.683 677.566 416.747C685.319 416.766 693.078 416.996 700.843 417.436C693.11 418.263 685.373 418.88 677.629 419.288C669.887 419.741 662.141 420.005 654.393 420.227C638.895 420.563 623.391 420.656 607.862 419.764Z" fill="#B3B3B3"/>
<path d="M90.1837 731.391L160.148 727.519L230.125 723.986L370.106 717.45L510.12 711.665L580.137 709.039L650.172 706.758L580.208 710.635L510.229 714.167L370.249 720.7L230.236 726.479L160.217 729.106L90.1837 731.391Z" fill="#B3B3B3"/>
<path d="M363.234 279L362.129 278.998C361.964 278.998 361.831 278.997 362.039 278.996L362.872 278.994C362.988 278.993 362.811 278.993 362.506 278.992L361.658 278.988L363.234 278.984H363.56L365.137 278.988L364.289 278.992C363.983 278.993 363.806 278.993 363.923 278.994L364.756 278.996C364.963 278.997 364.831 278.998 364.666 278.998L363.56 279H363.234Z" fill="#B3B3B3"/>
<path d="M372.615 329.845L372.613 330.951C372.612 331.116 372.612 331.248 372.611 331.041L372.609 330.208C372.608 330.091 372.608 330.268 372.607 330.574L372.603 331.422L372.599 329.845V329.519L372.603 327.943L372.607 328.791C372.608 329.096 372.608 329.273 372.609 329.157L372.611 328.324C372.612 328.116 372.612 328.249 372.613 328.414L372.615 329.519V329.845Z" fill="#B3B3B3"/>
<path d="M374.439 460.98C374.35 469.12 374.189 477.258 373.958 485.394C373.689 493.531 373.525 501.678 373.169 509.815L372.328 508.554C379.268 510.825 386.506 512.051 393.806 512.192C397.349 512.247 400.874 511.673 404.216 510.496C405.798 509.891 407.264 509.019 408.55 507.917C409.176 507.37 409.749 506.765 410.262 506.11L411.792 503.833C414.161 500.678 417.266 498.15 420.836 496.469C424.251 494.786 427.845 493.495 431.55 492.621C438.866 490.911 446.351 490.032 453.864 490.001L453.465 491.017C449.954 487.197 447.083 482.835 444.964 478.1C442.691 473.499 440.656 468.784 438.868 463.974C435.232 454.388 432.031 444.648 429.091 434.834C423.197 415.203 418.493 395.251 414.134 375.249C409.788 355.24 405.981 335.13 402.711 314.918C401.024 304.826 399.419 294.721 397.971 284.592C396.475 274.47 395.108 264.331 393.87 254.173C393.865 254.131 393.876 254.088 393.902 254.055C393.927 254.021 393.965 253.998 394.007 253.992C394.049 253.985 394.092 253.995 394.126 254.02C394.161 254.044 394.184 254.081 394.192 254.123L405.545 314.413C409.452 334.478 413.308 354.544 417.417 374.556C419.457 384.565 421.586 394.555 423.884 404.505C426.119 414.469 428.517 424.393 431.079 434.276C433.669 444.148 436.454 453.984 439.951 463.568C441.671 468.365 443.636 473.07 445.839 477.665L447.597 481.048L449.554 484.308C450.235 485.372 451.013 486.365 451.746 487.391C452.518 488.381 453.435 489.231 454.267 490.159L454.29 490.185C454.365 490.269 454.415 490.373 454.434 490.484C454.452 490.596 454.439 490.711 454.394 490.815C454.35 490.919 454.277 491.008 454.183 491.072C454.09 491.135 453.98 491.171 453.867 491.175C446.49 491.408 439.169 492.534 432.063 494.529C428.555 495.498 425.167 496.861 421.965 498.59C418.84 500.221 416.135 502.553 414.063 505.405L412.528 507.789C411.913 508.613 411.221 509.377 410.461 510.07C408.931 511.407 407.18 512.466 405.285 513.2C401.612 514.553 397.711 515.178 393.799 515.04C386.203 514.79 378.687 513.403 371.502 510.926C371.246 510.842 371.025 510.676 370.872 510.454C370.72 510.232 370.645 509.966 370.659 509.697L370.661 509.664C371.092 501.549 371.716 493.442 372.234 485.325C372.783 477.212 373.41 469.097 374.114 460.98L374.115 460.964C374.118 460.922 374.138 460.883 374.17 460.856C374.201 460.828 374.242 460.813 374.285 460.816C374.327 460.818 374.366 460.836 374.395 460.867C374.424 460.897 374.44 460.938 374.439 460.98V460.98Z" fill="#B3B3B3"/>
<path d="M342.665 333.379C347.693 332.479 352.703 331.948 357.654 331.212C360.133 330.895 362.589 330.473 365.015 330.047C367.389 329.625 369.725 329.014 372 328.219L372.07 328.193C372.24 328.131 372.419 328.1 372.599 328.101L372.615 328.101L372.018 328.219C373.124 327.833 374.144 327.237 375.023 326.463L374.711 327.753C374.127 324.85 373.614 321.931 373.171 318.995C372.713 316.063 372.35 313.11 372.126 310.123C373.244 312.901 374.221 315.713 375.104 318.546C376.001 321.376 376.828 324.222 377.587 327.084C377.644 327.298 377.649 327.522 377.602 327.738C377.554 327.955 377.456 328.156 377.315 328.327L377.275 328.375C376.168 329.617 374.773 330.569 373.213 331.146C373.041 331.22 372.857 331.26 372.67 331.263L372.615 331.263L372.599 331.263L373.197 331.146C370.743 332.122 368.181 332.803 365.566 333.174C363.031 333.576 360.477 333.839 357.914 333.963C352.824 334.213 347.721 334.018 342.665 333.379Z" fill="#B3B3B3"/>
<path d="M273.922 308.82L272.293 308.811L273.922 308.804L275.55 308.811L273.922 308.82Z" fill="#B3B3B3"/>
<path d="M276.086 641.322C276.411 641.354 276.176 641.344 276.248 641.358L276.247 641.381L276.245 641.427L276.24 641.52L276.231 641.707C276.229 641.832 276.218 641.957 276.2 642.081C276.176 642.331 276.136 642.579 276.08 642.824C275.979 643.322 275.822 643.806 275.613 644.27C275.186 645.211 274.57 646.056 273.804 646.75C273.024 647.46 272.109 648.006 271.114 648.355L268.347 649.279C264.651 650.489 260.94 651.653 257.225 652.807C249.818 655.07 242.249 657.302 234.902 659.353C233.255 659.842 231.757 660.737 230.546 661.956C229.335 663.174 228.45 664.678 227.972 666.329C227.513 668.054 227.53 669.871 228.021 671.587C228.512 673.304 229.458 674.856 230.759 676.078C231.987 677.481 233.568 678.531 235.338 679.119C237.108 679.707 239.002 679.813 240.826 679.424C244.689 679.024 248.545 678.57 252.396 678.06L252.411 678.058C252.511 678.045 252.612 678.059 252.704 678.099C252.797 678.139 252.876 678.203 252.935 678.285C252.994 678.366 253.03 678.462 253.039 678.562C253.047 678.662 253.029 678.763 252.985 678.853C251.936 680.927 251.704 683.32 252.337 685.557C252.956 687.722 254.378 689.569 256.313 690.721C257.334 691.264 258.402 691.713 259.504 692.064C260.633 692.473 261.778 692.836 262.926 693.178C265.21 693.882 267.536 694.446 269.889 694.868C274.557 695.731 279.322 695.949 284.049 695.515C285.186 695.41 286.316 695.24 287.434 695.007C288.472 694.741 289.47 694.337 290.401 693.804C291.36 693.243 292.256 692.579 293.071 691.824L295.84 689.436C303.205 683.047 310.729 676.844 318.284 670.66C319.185 669.895 320.264 669.091 321.018 668.357C321.792 667.587 322.445 666.705 322.956 665.74C324.002 663.769 324.328 661.495 323.878 659.31C323.642 658.211 323.2 657.167 322.575 656.234C321.856 655.208 321.225 654.125 320.686 652.994C320.157 651.861 319.728 650.685 319.401 649.478C319.018 648.274 318.866 647.008 318.954 645.748C318.959 645.707 318.979 645.67 319.011 645.644C319.042 645.618 319.082 645.605 319.123 645.607C319.164 645.61 319.202 645.628 319.23 645.658C319.258 645.688 319.274 645.727 319.273 645.768L319.273 645.813C319.362 646.996 319.649 648.156 320.122 649.244C320.549 650.362 321.071 651.441 321.683 652.469C322.303 653.489 323.006 654.457 323.782 655.363C324.598 656.408 325.208 657.599 325.581 658.871C326.115 660.823 326.142 662.879 325.661 664.845C325.179 666.81 324.205 668.621 322.83 670.105C321.871 671.114 320.999 671.793 320.079 672.654C312.821 679.208 305.531 685.741 298.083 692.089L295.297 694.478C294.304 695.368 293.21 696.139 292.037 696.773C290.828 697.424 289.536 697.91 288.197 698.215C286.919 698.457 285.628 698.622 284.331 698.708C279.306 699.077 274.255 698.697 269.342 697.58C266.907 697.032 264.508 696.337 262.157 695.498C260.987 695.074 259.832 694.613 258.693 694.114L256.995 693.351C256.388 693.074 255.807 692.746 255.255 692.371C253.039 690.85 251.475 688.551 250.873 685.931C250.325 683.376 250.701 680.709 251.934 678.404L252.523 679.197C248.657 679.561 244.795 679.967 240.94 680.434C238.951 680.805 236.905 680.736 234.945 680.232C232.974 679.645 231.173 678.59 229.696 677.157C228.135 675.772 226.921 674.04 226.153 672.099C225.386 670.082 225.227 667.884 225.695 665.777C226.135 663.635 227.144 661.652 228.615 660.034C230.086 658.416 231.966 657.225 234.056 656.583C241.644 654.367 249.043 652.449 256.586 650.498C260.348 649.553 264.114 648.617 267.895 647.727L270.736 647.076C271.617 646.865 272.446 646.479 273.174 645.939C273.902 645.4 274.514 644.719 274.972 643.938C275.214 643.54 275.416 643.119 275.573 642.681C275.656 642.46 275.726 642.235 275.781 642.006C275.814 641.893 275.84 641.777 275.858 641.66L275.891 641.485L275.908 641.398L275.916 641.354L275.92 641.332C275.994 641.33 275.761 641.304 276.086 641.322Z" fill="#B3B3B3"/>
<path d="M252.46 678.628C255.472 675.604 258.635 672.733 261.938 670.029C265.194 667.292 268.563 664.709 271.954 662.156C275.382 659.651 278.834 657.179 282.399 654.86L285.078 653.128C285.92 652.624 286.687 652.005 287.357 651.288C288.771 649.78 289.766 647.927 290.242 645.915C290.407 648.151 289.839 650.38 288.624 652.265C287.993 653.229 287.227 654.097 286.349 654.843L283.912 656.902C280.655 659.638 277.286 662.221 273.892 664.771C270.462 667.273 267.01 669.744 263.445 672.063C259.897 674.436 256.23 676.627 252.46 678.628Z" fill="#B3B3B3"/>
<path d="M241.253 215.755C223.22 219.603 205.169 223.313 187.127 227.033C178.105 228.884 169.1 230.805 160.114 232.795L146.645 235.781L139.939 237.356C138.653 237.666 137.319 237.726 136.011 237.531L132.592 237.001C114.376 234.203 96.1828 231.198 77.9101 228.8L71.0584 227.9C70.6099 227.764 70.1265 227.803 69.7053 228.008C69.5245 228.103 69.3688 228.24 69.2509 228.407C69.1331 228.573 69.0565 228.766 69.0274 228.968C68.9248 229.995 69.1515 231.027 69.6747 231.917C70.9086 233.759 72.5269 235.312 74.4183 236.469C76.3369 237.681 78.3461 238.744 80.428 239.648C88.9009 243.133 97.6848 245.807 106.662 247.636L106.678 247.639C106.77 247.661 106.86 247.695 106.942 247.742C107.919 248.291 108.784 249.018 109.492 249.886C110.214 250.774 110.735 251.807 111.021 252.915C111.422 255.127 110.992 257.41 109.814 259.325C108.758 261.066 107.469 262.655 105.983 264.047C104.55 265.4 103.039 266.668 101.458 267.844L101.439 267.857L101.369 267.903C100.027 268.743 98.7784 269.723 97.6435 270.827C97.2309 271.203 96.9072 271.666 96.6957 272.183C96.7172 272.259 96.6583 271.989 96.641 272.013C96.7933 272.116 96.9608 272.194 97.1375 272.245C98.6247 272.579 100.153 272.691 101.673 272.578C103.31 272.515 104.942 272.362 106.562 272.12C113.011 270.885 119.034 268.011 124.051 263.774C125.345 262.752 126.591 261.663 127.791 260.522C128.395 259.957 128.978 259.368 129.559 258.778C130.138 258.178 130.658 257.598 131.371 256.891C134.146 254.215 137.782 252.612 141.629 252.371C142.558 252.325 143.489 252.346 144.414 252.434L146.948 252.62L152.02 252.93C155.405 253.098 158.792 253.215 162.181 253.282C168.958 253.437 175.735 253.358 182.511 253.045C189.285 252.744 196.023 252.017 202.744 251.167C209.454 250.225 216.097 248.858 222.634 247.074C229.166 245.225 235.498 242.729 241.534 239.623C241.553 239.612 241.574 239.606 241.595 239.603C241.616 239.601 241.638 239.603 241.658 239.608C241.679 239.614 241.698 239.624 241.715 239.637C241.732 239.651 241.746 239.667 241.756 239.686C241.775 239.723 241.78 239.766 241.77 239.806C241.759 239.846 241.734 239.881 241.699 239.904C235.809 243.413 229.561 246.282 223.06 248.46C216.517 250.524 209.847 252.164 203.093 253.371C189.556 255.585 175.856 256.646 162.14 256.542C158.713 256.509 155.288 256.427 151.864 256.295L146.729 256.037L144.163 255.875C143.392 255.807 142.616 255.795 141.843 255.842C138.82 256.043 135.965 257.303 133.778 259.399L132.049 261.198C131.434 261.821 130.817 262.442 130.176 263.04C128.903 264.244 127.583 265.403 126.196 266.484C120.676 271.008 114.084 274.035 107.055 275.272C105.301 275.513 103.535 275.656 101.765 275.7C99.8802 275.814 97.9888 275.626 96.1629 275.143C95.5222 274.944 94.9377 274.597 94.4573 274.129C94.1414 273.801 93.9098 273.402 93.7821 272.965C93.6545 272.528 93.6348 272.066 93.7245 271.62C93.8597 270.993 94.1314 270.404 94.5204 269.894C94.8177 269.482 95.1475 269.094 95.5066 268.734C96.8253 267.469 98.2811 266.354 99.8468 265.411L99.7585 265.47C101.257 264.405 102.694 263.255 104.06 262.025C105.385 260.844 106.545 259.489 107.509 257.998C108.395 256.666 108.766 255.057 108.553 253.472C108.371 252.728 108.035 252.031 107.566 251.424C107.076 250.808 106.488 250.275 105.826 249.847L106.106 249.953L99.4074 248.121C97.1939 247.431 94.9591 246.833 92.7675 246.068C88.3378 244.663 84.0066 242.965 79.8027 240.984C77.685 239.988 75.6473 238.83 73.7078 237.52C71.692 236.21 69.9725 234.493 68.6595 232.48C68.0217 231.36 67.7623 230.064 67.9198 228.785C67.9802 228.416 68.1256 228.066 68.3444 227.762C68.5633 227.459 68.8496 227.211 69.1809 227.037C69.8052 226.731 70.5177 226.655 71.1924 226.824L78.0361 227.799C96.2851 230.401 114.613 232.397 132.919 234.6L136.348 235.006C137.33 235.116 138.324 235.035 139.276 234.768L145.995 233.045C150.478 231.928 154.987 230.933 159.492 229.936C168.52 228.021 177.574 226.258 186.63 224.522C204.753 221.105 222.942 218.076 241.197 215.435C241.239 215.429 241.281 215.439 241.316 215.464C241.35 215.489 241.373 215.526 241.38 215.568C241.388 215.609 241.379 215.652 241.355 215.687C241.331 215.722 241.295 215.747 241.253 215.755L241.253 215.755Z" fill="#B3B3B3"/>
<path d="M423.351 218.777L437.368 220.168C442.04 220.635 446.708 221.135 451.372 221.666C460.7 222.73 470.039 223.705 479.351 224.886L507.305 228.304C516.613 229.518 525.919 230.747 535.204 232.137L534.532 232.239L556.882 222.542C564.34 219.328 571.742 215.989 579.135 212.631L590.177 207.494L592.938 206.209C593.415 205.993 593.819 205.785 594.357 205.562C594.958 205.317 595.626 205.291 596.244 205.488C596.863 205.69 597.395 206.094 597.756 206.635C598.116 207.176 598.284 207.823 598.233 208.472C598.15 209.064 597.936 209.631 597.607 210.131C597.363 210.587 597.092 211.027 596.829 211.472C592.352 218.51 585.975 224.137 578.435 227.704L578.174 225.61C578.776 225.734 579.35 225.967 579.868 226.298C580.429 226.649 580.892 227.136 581.213 227.715C581.488 228.287 581.638 228.911 581.651 229.545C581.664 230.18 581.542 230.809 581.291 231.392C580.472 233.258 579.304 234.95 577.85 236.378C575.167 239.087 572.259 241.564 569.156 243.78C566.12 246.022 562.968 248.074 559.798 250.083C556.63 252.097 553.402 253.998 550.17 255.894L550.414 255.724C548.661 257.149 546.721 258.327 544.649 259.226C542.528 260.175 540.237 260.687 537.914 260.73C535.48 260.75 533.093 260.058 531.048 258.739C529.114 257.419 527.472 255.716 526.223 253.736L527.574 254.526C507.965 253.368 488.371 251.961 468.779 250.519C458.981 249.834 449.191 249.031 439.399 248.248C429.606 247.483 419.819 246.617 410.034 245.722C409.992 245.718 409.953 245.697 409.925 245.665C409.897 245.633 409.883 245.591 409.886 245.549C409.889 245.507 409.908 245.467 409.939 245.439C409.97 245.41 410.012 245.395 410.054 245.396C419.875 245.707 429.694 246.046 439.507 246.486C449.321 246.909 459.137 247.311 468.945 247.833C488.565 248.801 508.184 249.806 527.787 251.059C528.057 251.077 528.32 251.158 528.555 251.295C528.789 251.432 528.989 251.621 529.138 251.848C530.12 253.421 531.411 254.777 532.934 255.835C534.418 256.811 536.153 257.335 537.929 257.345C539.8 257.329 541.65 256.936 543.366 256.19C545.145 255.445 546.818 254.466 548.339 253.28L548.401 253.231C548.459 253.186 548.519 253.145 548.583 253.109C555.051 249.466 561.436 245.664 567.495 241.461C570.518 239.415 573.362 237.118 575.997 234.593C577.243 233.436 578.266 232.06 579.015 230.534C579.158 230.271 579.244 229.98 579.268 229.681C579.292 229.382 579.254 229.081 579.155 228.798C579 228.545 578.796 228.326 578.555 228.153C578.314 227.98 578.041 227.856 577.752 227.789L577.656 227.764C577.436 227.706 577.239 227.581 577.093 227.406C576.947 227.231 576.859 227.015 576.84 226.788C576.822 226.561 576.875 226.334 576.992 226.138C577.108 225.942 577.283 225.787 577.491 225.695C584.861 222.556 591.174 217.367 595.68 210.745C595.947 210.325 596.223 209.91 596.472 209.479C596.722 209.142 596.896 208.756 596.981 208.345C597.02 207.975 596.932 207.602 596.73 207.289C596.529 206.976 596.226 206.742 595.872 206.625C595.517 206.507 595.131 206.52 594.784 206.66C594.383 206.818 593.876 207.063 593.427 207.26L590.65 208.512L579.546 213.519C572.174 216.924 564.811 220.347 557.505 223.896L535.561 234.487C535.369 234.58 535.154 234.618 534.942 234.595L534.888 234.589C525.554 233.576 516.24 232.401 506.929 231.21L479.025 227.416C469.718 226.193 460.437 224.764 451.145 223.424C446.499 222.76 441.857 222.057 437.22 221.316L423.309 219.1C423.267 219.094 423.229 219.071 423.204 219.037C423.179 219.003 423.167 218.961 423.173 218.918C423.178 218.876 423.2 218.838 423.233 218.812C423.266 218.785 423.308 218.773 423.351 218.777L423.351 218.777Z" fill="#B3B3B3"/>
<path d="M554.002 239.387L577.201 225.26C577.384 225.148 577.587 225.074 577.799 225.04C578.011 225.007 578.227 225.016 578.436 225.066C578.644 225.117 578.841 225.208 579.014 225.335C579.187 225.461 579.334 225.62 579.446 225.804C579.557 225.987 579.632 226.19 579.664 226.402C579.697 226.614 579.688 226.831 579.637 227.039C579.586 227.247 579.495 227.444 579.368 227.617C579.241 227.79 579.081 227.936 578.898 228.047C578.842 228.081 578.784 228.112 578.725 228.139L554.002 239.387Z" fill="#B3B3B3"/>
<path d="M305.129 191.415C305.431 188.88 305.964 186.515 306.43 184.13L307.118 180.561L307.718 176.897C308.504 179.34 308.61 181.951 308.026 184.45C307.768 185.687 307.404 186.901 306.936 188.076C306.482 189.263 305.874 190.385 305.129 191.415Z" fill="#B3B3B3"/>
<path d="M330.713 174.884C327.8 177.686 324.11 179.546 320.125 180.22C316.14 180.895 312.044 180.353 308.371 178.666C306.508 177.757 304.811 176.542 303.351 175.072C301.872 173.618 300.637 171.935 299.694 170.088C299.215 169.158 298.818 168.188 298.508 167.189C298.371 166.72 298.203 166.083 298.113 165.822C297.938 165.331 297.79 164.831 297.669 164.324C297.269 162.279 297.193 160.184 297.446 158.116C297.932 154.203 298.809 150.349 300.066 146.612C301.281 142.894 302.823 139.292 304.674 135.846C305.664 134.153 306.747 132.516 307.918 130.944C309.037 129.361 310.217 127.825 311.402 126.295C313.751 123.192 316.352 120.289 319.18 117.616C319.264 117.538 319.366 117.483 319.477 117.457C319.588 117.431 319.704 117.434 319.813 117.467C319.923 117.5 320.021 117.562 320.099 117.645C320.177 117.728 320.232 117.831 320.258 117.942L320.27 117.995C321.714 124.476 324.125 130.704 327.421 136.468C329.004 139.256 331.05 141.756 333.471 143.859C335.763 145.852 338.681 146.98 341.718 147.047L341.509 147.057C342.995 146.904 344.496 147.01 345.946 147.368C347.594 147.734 349.061 148.668 350.089 150.006C351.035 151.415 351.458 153.11 351.284 154.797C351.207 155.538 351.088 156.274 350.928 157.001L350.278 159.018C349.275 161.674 347.666 164.059 345.579 165.984C344.525 166.948 343.35 167.772 342.083 168.433C340.748 169.171 339.269 169.608 337.747 169.715L339.181 168.557C338.42 171.436 337.821 174.356 337.388 177.303C336.954 180.255 336.693 183.231 336.605 186.214C336.507 189.179 336.81 192.143 337.507 195.027C338.135 197.939 339.734 200.551 342.041 202.436C342.074 202.461 342.097 202.497 342.104 202.538C342.112 202.579 342.103 202.621 342.081 202.655C342.058 202.69 342.023 202.715 341.983 202.725C341.943 202.735 341.901 202.73 341.864 202.71C339.182 201.027 337.182 198.45 336.216 195.434C335.213 192.473 334.641 189.383 334.517 186.259C334.337 183.164 334.415 180.06 334.751 176.978C335.056 173.89 335.537 170.821 336.19 167.787C336.258 167.479 336.423 167.2 336.661 166.993C336.899 166.786 337.198 166.661 337.513 166.637L337.625 166.629C338.662 166.469 339.657 166.103 340.551 165.552C341.549 165.002 342.472 164.324 343.296 163.537C344.953 161.922 346.225 159.954 347.017 157.781C347.901 155.615 348.178 153.246 347.276 152.025C346.483 150.737 343.97 150.16 341.875 150.307L341.76 150.315L341.665 150.317C337.904 150.15 334.32 148.677 331.529 146.15C328.912 143.757 326.754 140.904 325.162 137.735C323.571 134.682 322.282 131.481 321.312 128.178C320.313 124.915 319.53 121.59 318.969 118.224L320.059 118.603C317.138 121.074 314.496 123.858 312.181 126.903C309.792 129.879 307.671 133.06 305.843 136.41C304.298 139.892 303.062 143.503 302.151 147.202C301.252 150.869 300.633 154.6 300.298 158.361C300.109 160.13 300.185 161.916 300.522 163.662C300.622 164.075 300.731 164.447 300.888 164.939L301.271 166.357C301.517 167.204 301.836 168.028 302.225 168.82C303.807 172.055 306.339 174.73 309.483 176.486C312.813 178.159 316.543 178.872 320.256 178.545C323.968 178.218 327.516 176.865 330.503 174.636C330.537 174.61 330.581 174.599 330.624 174.606C330.667 174.612 330.705 174.635 330.731 174.67C330.754 174.702 330.765 174.741 330.762 174.78C330.759 174.82 330.741 174.857 330.713 174.884Z" fill="#B3B3B3"/>
<path d="M302.885 141.564C302.742 138.782 302.912 135.993 303.39 133.249C303.83 130.463 304.648 127.751 305.822 125.186C306.961 122.486 308.948 120.23 311.483 118.759C312.795 118.088 314.26 117.771 315.732 117.839C317.141 117.967 318.515 118.349 319.788 118.966C318.463 118.663 317.102 118.552 315.746 118.637C314.453 118.76 313.206 119.181 312.104 119.868C309.965 121.381 308.296 123.468 307.29 125.888C306.164 128.34 305.272 130.894 304.628 133.515C303.956 136.153 303.367 138.835 302.885 141.564Z" fill="#B3B3B3"/>
<path d="M310.02 145.506C310.724 145.482 311.391 145.185 311.88 144.679C312.369 144.172 312.643 143.495 312.643 142.791C312.643 142.087 312.369 141.41 311.88 140.904C311.391 140.397 310.724 140.101 310.02 140.076C309.317 140.101 308.65 140.397 308.161 140.904C307.671 141.41 307.398 142.087 307.398 142.791C307.398 143.495 307.671 144.172 308.161 144.679C308.65 145.185 309.317 145.482 310.02 145.506Z" fill="#B3B3B3"/>
<path d="M324.295 149.516C324.998 149.491 325.665 149.195 326.154 148.688C326.644 148.182 326.917 147.505 326.917 146.801C326.917 146.097 326.644 145.42 326.154 144.913C325.665 144.407 324.998 144.11 324.295 144.086C323.591 144.11 322.924 144.407 322.435 144.913C321.945 145.42 321.672 146.097 321.672 146.801C321.672 147.505 321.945 148.182 322.435 148.688C322.924 149.195 323.591 149.491 324.295 149.516Z" fill="#B3B3B3"/>
<path d="M305.645 135.61C306.334 134.996 307.194 134.607 308.11 134.495C308.998 134.352 309.906 134.398 310.776 134.629C311.659 134.833 312.483 135.241 313.181 135.82C313.878 136.399 314.431 137.134 314.794 137.965C313.958 137.876 313.128 137.728 312.312 137.522C311.572 137.333 310.856 137.189 310.159 136.992C308.745 136.595 307.388 136.259 305.645 135.61Z" fill="#B3B3B3"/>
<path d="M323.786 140.278C324.36 139.722 325.094 139.361 325.884 139.244C326.636 139.105 327.409 139.132 328.149 139.323C328.913 139.489 329.623 139.846 330.212 140.361C330.801 140.876 331.25 141.532 331.516 142.268C330.792 142.262 330.07 142.194 329.357 142.064C328.727 141.948 328.131 141.846 327.549 141.69C326.246 141.361 324.984 140.888 323.786 140.278Z" fill="#B3B3B3"/>
<path d="M309.74 149.111C310.673 150.09 311.783 150.886 313.01 151.455C313.547 151.746 314.15 151.995 314.779 152.323C315.508 152.636 316.205 153.018 316.861 153.466C316.13 153.927 315.287 154.179 314.423 154.196C313.547 154.218 312.679 154.024 311.897 153.629C311.07 153.216 310.389 152.558 309.948 151.745C309.715 151.351 309.575 150.909 309.539 150.452C309.503 149.995 309.571 149.537 309.74 149.111Z" fill="#B3B3B3"/>
<path d="M313.113 168.032C313.784 168.216 314.49 168.243 315.174 168.112C315.858 167.98 316.502 167.693 317.058 167.273C317.989 166.464 318.587 165.339 318.737 164.116C318.888 162.892 318.58 161.656 317.873 160.645C317.238 159.882 316.378 159.338 315.416 159.092C314.453 158.846 313.438 158.909 312.514 159.274C311.409 159.817 310.543 160.749 310.084 161.892C309.624 163.034 309.603 164.306 310.024 165.463C310.308 166.1 310.734 166.662 311.269 167.107C311.805 167.553 312.435 167.869 313.113 168.032ZM313.113 168.032C311.705 167.694 310.468 166.857 309.63 165.678C308.769 164.377 308.401 162.811 308.593 161.263C308.68 160.412 308.937 159.586 309.349 158.837C309.762 158.087 310.321 157.428 310.994 156.9C311.743 156.369 312.599 156.008 313.502 155.842C314.405 155.676 315.333 155.709 316.223 155.938C317.112 156.167 317.94 156.587 318.65 157.169C319.361 157.75 319.936 158.48 320.336 159.306C320.669 160.093 320.84 160.94 320.839 161.794C320.838 162.649 320.665 163.495 320.33 164.281C319.752 165.728 318.676 166.921 317.297 167.646C315.995 168.278 314.508 168.414 313.113 168.032Z" fill="#B3B3B3"/>
<path d="M319.713 137.62C320.346 137.598 320.946 137.332 321.387 136.876C321.827 136.42 322.073 135.811 322.073 135.177C322.073 134.544 321.827 133.935 321.387 133.479C320.946 133.023 320.346 132.756 319.713 132.735C319.08 132.756 318.48 133.023 318.039 133.479C317.599 133.935 317.353 134.544 317.353 135.177C317.353 135.811 317.599 136.42 318.039 136.876C318.48 137.332 319.08 137.598 319.713 137.62Z" fill="#E5E5E5"/>
<path d="M268.057 279.464C269.147 280.342 270.362 281.053 271.662 281.574C272.925 282.078 274.239 282.447 275.58 282.673C276.938 282.91 278.31 283.06 279.688 283.121L281.804 283.19C282.516 283.191 283.232 283.186 283.973 283.251C283.3 283.541 282.603 283.76 281.901 283.984C281.188 284.137 280.466 284.299 279.735 284.391C278.256 284.567 276.758 284.528 275.29 284.274C273.801 284.015 272.374 283.481 271.081 282.699C269.775 281.944 268.722 280.818 268.057 279.464Z" fill="#B3B3B3"/>
<path d="M317.653 281.123C319.789 282.185 322.024 283.034 324.326 283.66C326.581 284.281 328.904 284.626 331.243 284.685C333.576 284.778 335.909 284.549 338.18 284.007C340.498 283.454 342.763 282.696 344.948 281.741C343.976 282.477 342.961 283.154 341.908 283.768C340.828 284.361 339.694 284.85 338.523 285.23C336.167 286.04 333.682 286.406 331.193 286.312C326.217 286.191 321.435 284.359 317.653 281.123Z" fill="#B3B3B3"/>
<path d="M263.805 204.032C270.476 192.483 277.179 181.093 283.454 169.457C286.635 163.664 289.59 157.763 292.534 151.846C295.417 145.896 298.081 139.858 300.739 133.726C299.338 140.267 297.371 146.673 294.859 152.873C292.346 159.069 289.495 165.122 286.317 171.005C283.098 176.858 279.678 182.598 275.932 188.121C272.24 193.683 268.189 198.998 263.805 204.032Z" fill="#B3B3B3"/>
<path d="M319.842 116.179C319.278 114.734 318.476 113.394 317.47 112.215C317.06 111.716 316.544 111.315 315.959 111.042C315.374 110.77 314.735 110.632 314.089 110.639C312.735 110.797 311.44 111.286 310.318 112.062C309.055 112.903 307.84 113.812 306.678 114.786C304.162 116.745 301.844 118.945 299.756 121.355C297.74 123.858 296.031 126.593 294.665 129.501C294.32 130.225 293.951 130.932 293.63 131.663C293.334 132.407 293.027 133.143 292.709 133.87C292.044 135.313 291.46 136.781 290.895 138.255C289.792 141.197 288.844 144.194 288.054 147.235C286.346 153.332 285.546 159.646 285.679 165.976L285.68 165.997C285.682 166.035 285.669 166.073 285.646 166.104C285.622 166.134 285.588 166.155 285.55 166.163C285.512 166.17 285.473 166.164 285.439 166.146C285.405 166.127 285.379 166.097 285.365 166.061C283.265 159.706 283.028 152.884 284.683 146.399C285.496 143.178 286.633 140.048 288.076 137.057C288.742 135.546 289.513 134.083 290.382 132.679C291.212 131.258 292.131 129.89 293.134 128.586C294.071 127.241 295.053 125.938 296.057 124.656C297.067 123.379 297.934 122.002 298.919 120.711C300.712 117.944 302.688 115.3 304.835 112.797C306.006 111.541 307.353 110.461 308.833 109.589C310.426 108.576 312.285 108.063 314.171 108.116C315.148 108.203 316.089 108.53 316.909 109.067C317.73 109.605 318.405 110.337 318.874 111.199C319.724 112.701 320.168 114.399 320.164 116.126C320.164 116.164 320.151 116.201 320.127 116.231C320.103 116.26 320.069 116.281 320.032 116.288C319.995 116.296 319.956 116.29 319.922 116.273C319.888 116.255 319.862 116.226 319.847 116.191L319.842 116.179Z" fill="#B3B3B3"/>
<path d="M318.189 111.957C318.146 110.428 318.322 108.901 318.713 107.422C319.079 105.885 319.728 104.43 320.626 103.13C321.571 101.761 322.859 100.664 324.361 99.9483C325.878 99.2554 327.532 98.9127 329.199 98.9457C332.369 99.087 335.473 99.8972 338.307 101.323C341.094 102.612 343.714 104.236 346.109 106.157C350.795 110.026 354.812 114.64 357.999 119.814C361.269 124.865 364.005 130.241 366.164 135.857C368.372 141.516 369.757 147.463 370.277 153.515C370.564 156.584 370.569 159.671 370.292 162.74L369.947 165.087L369.603 167.226L369.259 169.344C369.179 170.054 369.173 170.769 369.104 171.48C368.326 183.181 372.152 194.722 379.766 203.642L379.777 203.655C379.803 203.686 379.816 203.726 379.814 203.767C379.813 203.807 379.796 203.846 379.767 203.874C379.738 203.903 379.7 203.92 379.659 203.922C379.619 203.923 379.579 203.91 379.548 203.884C374.875 199.882 371.189 194.857 368.777 189.198C366.364 183.539 365.289 177.4 365.637 171.258C365.677 170.484 365.718 169.709 365.8 168.94L366.178 166.652L366.923 162.323C367.283 159.469 367.383 156.588 367.22 153.716C366.921 147.867 365.999 142.067 364.47 136.413C362.959 130.694 360.474 125.278 357.123 120.403C353.692 115.646 349.417 111.56 344.511 108.347C342.143 106.694 339.656 105.217 337.072 103.929C334.594 102.624 331.897 101.79 329.115 101.469C327.798 101.367 326.473 101.534 325.222 101.959C323.979 102.438 322.869 103.208 321.986 104.205C320.157 106.438 318.959 109.119 318.514 111.971L318.513 111.981C318.505 112.021 318.483 112.056 318.452 112.08C318.42 112.105 318.38 112.117 318.34 112.114C318.3 112.111 318.262 112.093 318.235 112.064C318.207 112.035 318.191 111.997 318.189 111.957L318.189 111.957Z" fill="#B3B3B3"/>
<path d="M323.897 108.452C326.163 108.816 328.311 109.707 330.168 111.055C332.056 112.391 333.702 114.04 335.034 115.931C336.318 117.839 337.314 119.927 337.989 122.125C338.313 123.215 338.573 124.322 338.768 125.442C338.886 126.573 339.002 127.697 339.042 128.819C338.638 127.755 338.368 126.678 337.993 125.635C337.569 124.609 337.259 123.554 336.796 122.562C335.946 120.567 334.909 118.657 333.697 116.859C332.459 115.092 331.014 113.48 329.393 112.056C327.743 110.599 325.892 109.385 323.897 108.452Z" fill="#B3B3B3"/>
<path d="M353.65 167.96C353.8 170.492 354 172.995 354.206 175.485C354.445 177.972 354.703 180.448 355.149 182.88C355.531 185.306 356.172 187.685 357.06 189.975C357.886 192.304 359.424 194.315 361.455 195.723C358.992 194.786 356.999 192.914 355.91 190.515C354.751 188.199 353.954 185.72 353.546 183.163C352.695 178.128 352.73 172.983 353.65 167.96Z" fill="#B3B3B3"/>
<path d="M287.366 190.605C288.665 187.457 290.236 184.531 291.748 181.581C292.526 180.119 293.257 178.642 293.99 177.167C294.753 175.696 295.36 174.149 295.802 172.552C295.989 174.272 295.773 176.011 295.172 177.633C294.643 179.251 293.981 180.822 293.192 182.331C291.648 185.349 289.687 188.135 287.366 190.605Z" fill="#B3B3B3"/>
<path d="M306.953 185.549C307.194 186.031 307.469 186.496 307.776 186.939C307.789 186.958 307.798 186.979 307.802 187.002C307.806 187.024 307.806 187.047 307.802 187.07C307.797 187.092 307.788 187.114 307.775 187.133C307.763 187.152 307.746 187.168 307.727 187.18C307.708 187.193 307.687 187.202 307.664 187.206C307.642 187.211 307.619 187.211 307.596 187.206C307.574 187.201 307.552 187.193 307.533 187.18C307.514 187.167 307.498 187.151 307.485 187.131L307.472 187.108C307.243 186.609 307.069 186.086 306.953 185.549Z" fill="#B3B3B3"/>
<path d="M309.943 189.418C310.742 190.153 311.606 190.813 312.525 191.39C312.596 191.435 312.657 191.492 312.705 191.56C312.753 191.628 312.788 191.705 312.806 191.786C312.825 191.867 312.827 191.951 312.813 192.033C312.799 192.115 312.769 192.193 312.724 192.264C312.68 192.334 312.622 192.395 312.554 192.443C312.486 192.491 312.409 192.525 312.328 192.543C312.247 192.561 312.163 192.563 312.081 192.549C311.999 192.535 311.92 192.504 311.85 192.46L311.808 192.431C310.875 191.736 310.028 190.931 309.287 190.034C309.215 189.945 309.178 189.832 309.186 189.718C309.193 189.604 309.243 189.497 309.327 189.418C309.41 189.34 309.521 189.296 309.635 189.296C309.749 189.296 309.86 189.34 309.943 189.418V189.418Z" fill="#B3B3B3"/>
<path d="M315.405 192.864C316.444 193.183 317.463 193.536 318.484 193.886L318.598 193.925C318.697 193.959 318.788 194.012 318.867 194.081C318.945 194.15 319.01 194.234 319.056 194.328C319.102 194.422 319.129 194.525 319.135 194.629C319.142 194.733 319.128 194.838 319.094 194.937C319.06 195.036 319.007 195.128 318.938 195.206C318.868 195.285 318.784 195.349 318.69 195.395C318.596 195.441 318.494 195.468 318.39 195.474C318.285 195.481 318.18 195.467 318.081 195.433L318.072 195.429C316.976 195.038 315.879 194.65 314.801 194.227C314.622 194.157 314.478 194.021 314.398 193.847C314.318 193.673 314.308 193.475 314.371 193.294C314.434 193.113 314.564 192.964 314.735 192.877C314.905 192.79 315.103 192.772 315.286 192.828L315.405 192.864Z" fill="#B3B3B3"/>
<path d="M321.682 194.517C322.772 194.614 323.863 194.701 324.954 194.829L325.029 194.838C325.221 194.861 325.397 194.957 325.519 195.106C325.642 195.255 325.701 195.446 325.686 195.639C325.67 195.831 325.581 196.01 325.436 196.138C325.291 196.266 325.103 196.332 324.91 196.324C323.764 196.274 322.617 196.183 321.47 196.102C321.365 196.094 321.263 196.066 321.169 196.02C321.075 195.973 320.992 195.908 320.923 195.829C320.784 195.669 320.714 195.46 320.729 195.249C320.744 195.037 320.842 194.841 321.002 194.702C321.162 194.563 321.371 194.493 321.582 194.508L321.593 194.509L321.682 194.517Z" fill="#B3B3B3"/>
<path d="M328.261 194.895C329.364 194.838 330.473 194.797 331.587 194.772L331.618 194.772C331.732 194.769 331.843 194.81 331.928 194.886C332.013 194.962 332.067 195.068 332.077 195.182C332.088 195.296 332.054 195.41 331.984 195.5C331.914 195.59 331.812 195.651 331.7 195.669C330.583 195.85 329.461 196.014 328.332 196.161C328.249 196.172 328.165 196.167 328.084 196.145C328.003 196.124 327.928 196.087 327.861 196.036C327.795 195.985 327.739 195.922 327.697 195.849C327.656 195.777 327.628 195.697 327.618 195.614C327.607 195.531 327.612 195.447 327.634 195.366C327.656 195.286 327.693 195.21 327.744 195.144C327.795 195.078 327.859 195.022 327.931 194.981C328.004 194.939 328.084 194.912 328.167 194.901L328.215 194.897L328.261 194.895Z" fill="#B3B3B3"/>
<path d="M334.981 194.519C335.519 194.453 336.065 194.418 336.611 194.372C336.091 194.539 335.572 194.717 335.045 194.863C335.023 194.869 334.999 194.871 334.976 194.869C334.953 194.866 334.931 194.859 334.911 194.847C334.891 194.836 334.873 194.821 334.858 194.803C334.844 194.784 334.834 194.764 334.827 194.741C334.821 194.719 334.82 194.696 334.822 194.673C334.825 194.65 334.833 194.627 334.844 194.607C334.856 194.587 334.871 194.57 334.889 194.555C334.908 194.541 334.929 194.531 334.951 194.525L334.981 194.519Z" fill="#B3B3B3"/>
<path d="M284.233 6.10756L283.044 6.15649C283.386 6.14018 283.794 6.10756 284.233 6.10756Z" fill="#B3B3B3"/>
<path d="M385.255 48.4674C382.615 47.2767 379.88 46.307 377.08 45.5685C374.231 44.804 371.278 44.507 368.334 44.689C365.403 44.8683 362.618 45.0961 359.784 45.3405L351.348 46.0734L350.973 46.1058C349.1 46.4317 347.26 46.8715 345.501 47.1155C344.785 47.315 344.036 47.3702 343.298 47.278C342.559 47.1857 341.847 46.9479 341.202 46.5782C340.096 45.5086 339.356 44.1183 339.084 42.6043C338.543 40.9285 338.193 39.1965 338.042 37.4418C337.977 36.5623 338.026 35.7316 337.928 34.5754C337.866 33.8691 337.649 33.1852 337.293 32.5723C337.095 32.2482 336.854 31.9524 336.576 31.6928C336.276 31.4081 335.929 31.1768 335.55 31.0089C334.439 30.5933 333.248 30.4319 332.065 30.5365C331.06 30.5771 330.059 30.6859 329.069 30.8622C325.28 31.5325 321.566 32.5688 317.978 33.9565C314.593 35.4409 311.123 36.7242 307.587 37.8C303.93 38.7397 300.325 39.876 296.79 41.2039C289.966 43.6792 283.126 46.4154 275.797 46.7573C276.335 45.7476 276.888 44.7541 277.426 43.7444C280.406 38.256 284.331 32.1651 289.347 21.1394C291.806 15.7324 293.435 11.5307 291.481 8.76193C289.885 6.51466 286.611 6.1075 284.347 6.1075L371.51 2.71995C367.087 3.37846 363.102 5.75433 360.419 9.33216C359.37 10.638 358.71 12.2126 358.514 13.876C358.172 18.7944 363.709 22.5727 367.78 25.9601C367.78 25.9601 379.295 35.5852 385.255 48.4674Z" fill="#B2B2B2"/>
<path d="M385.255 48.4674C382.503 47.6536 379.709 46.9904 376.884 46.4806C374.103 46.0302 371.27 46.0028 368.481 46.3991L359.849 47.6205L351.136 48.7768L351.494 48.7605C349.703 49.1513 347.912 49.6237 345.957 49.9819C344.922 50.1771 343.867 50.2536 342.814 50.2099C341.602 50.1471 340.43 49.7528 339.427 49.0698C338.458 48.3743 337.675 47.4516 337.146 46.3828C336.709 45.4516 336.344 44.4878 336.055 43.5001C335.437 41.6077 335.033 39.652 334.85 37.6696C334.769 36.6927 334.785 35.6338 334.704 34.9336C334.701 34.6995 334.64 34.4698 334.524 34.2661C334.475 34.197 334.421 34.1316 334.362 34.0705C334.317 34.0321 334.268 33.9993 334.215 33.9728C333.556 33.7738 332.866 33.6965 332.179 33.7448C331.311 33.7816 330.446 33.874 329.59 34.0216C325.996 34.6489 322.46 35.5751 319.02 36.7903C315.512 38.2275 311.91 39.4246 308.239 40.3733C304.542 41.1387 301.04 42.0833 297.441 43.1745C293.845 44.3096 290.192 45.2555 286.497 46.0082C282.976 46.7873 279.363 47.067 275.765 46.8388C272.182 53.5973 268.892 60.6493 267.996 69.6881C267.442 75.2252 266.563 84.2151 271.758 92.3092C277.703 101.576 288.093 104.182 294.64 105.827C304.982 108.416 314.655 106.885 333.612 103.709C348.465 101.218 356.055 99.8985 363.579 96.2015C371.836 92.1464 384.132 86.1041 388.056 73.3688C391.558 62.0662 386.623 51.3988 385.255 48.4674ZM332.619 63.7924L313.939 66.0238C312.392 66.219 310.828 66.3821 309.232 66.5287C307.636 66.6589 306.057 66.8706 304.444 66.8545C302.832 66.8706 301.236 66.9358 299.624 66.8219C298.809 66.773 298.011 66.7567 297.213 66.6915L294.803 66.3496C291.569 65.9254 288.43 64.9563 285.52 63.4832C284.074 62.7116 282.751 61.7291 281.595 60.568C280.443 59.4266 279.617 57.9986 279.201 56.4313C280.76 59.0961 283.248 61.0913 286.188 62.0337C289.055 63.0606 292.055 63.6694 295.096 63.8415C301.266 64.101 307.447 63.7519 313.548 62.7991C319.818 62.0663 326.105 61.4801 332.424 61.2521C338.745 60.9097 345.084 61.1386 351.364 61.9361C345.062 62.3594 338.84 63.1085 332.619 63.7924Z" fill="#B2B2B2"/>
<path d="M274.445 5.88442L382.544 2" stroke="#E5E5E5" stroke-width="2.90331" stroke-linecap="round" stroke-linejoin="round"/>
<path d="M275.797 46.7573C275.797 46.7876 275.785 46.8165 275.765 46.8388C275.585 46.8225 275.423 46.8062 275.243 46.7899C275.423 46.7899 275.618 46.7737 275.797 46.7573Z" fill="white"/>
<path d="M273.067 23.9092C273.067 23.9092 244.949 42.5356 257.735 48.8202C262.694 51.2575 266.562 42.0502 267.173 38.9827C267.892 35.1286 269.138 31.3918 270.875 27.8773C271.491 26.6685 272.216 25.344 273.067 23.9092Z" fill="#EC602C" fill-opacity="0.7"/>
<path d="M389.273 11.2694C389.273 11.2694 414.655 23.8082 404.672 30.3926C400.801 32.9462 396.607 25.688 395.774 23.1983C394.768 20.065 393.336 17.085 391.517 14.3421C390.877 13.4007 390.133 12.3742 389.273 11.2694Z" fill="#EC602C" fill-opacity="0.7"/>
<path d="M379.243 505.815C379.877 505.793 380.477 505.526 380.917 505.071C381.357 504.615 381.603 504.006 381.603 503.372C381.603 502.739 381.357 502.13 380.917 501.674C380.477 501.218 379.877 500.951 379.243 500.929C378.61 500.951 378.01 501.218 377.57 501.674C377.13 502.13 376.884 502.739 376.884 503.372C376.884 504.006 377.13 504.615 377.57 505.071C378.01 505.526 378.61 505.793 379.243 505.815Z" fill="#B3B3B3"/>
<path d="M390.383 506.988C391.016 506.966 391.617 506.699 392.057 506.243C392.497 505.788 392.743 505.179 392.743 504.545C392.743 503.911 392.497 503.302 392.057 502.847C391.617 502.391 391.016 502.124 390.383 502.102C389.75 502.124 389.15 502.391 388.71 502.847C388.269 503.302 388.023 503.911 388.023 504.545C388.023 505.179 388.269 505.788 388.71 506.243C389.15 506.699 389.75 506.966 390.383 506.988Z" fill="#B3B3B3"/>
<path d="M402.695 504.643C403.329 504.621 403.929 504.354 404.369 503.898C404.809 503.442 405.055 502.833 405.055 502.2C405.055 501.566 404.809 500.957 404.369 500.501C403.929 500.046 403.329 499.779 402.695 499.757C402.062 499.779 401.462 500.046 401.022 500.501C400.581 500.957 400.335 501.566 400.335 502.2C400.335 502.833 400.581 503.442 401.022 503.898C401.462 504.354 402.062 504.621 402.695 504.643Z" fill="#B3B3B3"/>
<path d="M414.421 495.848C415.055 495.826 415.655 495.559 416.095 495.104C416.535 494.648 416.781 494.039 416.781 493.405C416.781 492.772 416.535 492.163 416.095 491.707C415.655 491.251 415.055 490.984 414.421 490.962C413.788 490.984 413.188 491.251 412.748 491.707C412.307 492.163 412.061 492.772 412.061 493.405C412.061 494.039 412.307 494.648 412.748 495.104C413.188 495.559 413.788 495.826 414.421 495.848Z" fill="#B3B3B3"/>
<path d="M426.147 489.985C426.78 489.963 427.38 489.696 427.821 489.241C428.261 488.785 428.507 488.176 428.507 487.542C428.507 486.909 428.261 486.3 427.821 485.844C427.38 485.388 426.78 485.121 426.147 485.099C425.514 485.121 424.914 485.388 424.474 485.844C424.033 486.3 423.787 486.909 423.787 487.542C423.787 488.176 424.033 488.785 424.474 489.241C424.914 489.696 425.514 489.963 426.147 489.985Z" fill="#B3B3B3"/>
<path d="M439.046 487.64C439.679 487.618 440.279 487.351 440.719 486.895C441.159 486.44 441.405 485.831 441.405 485.197C441.405 484.564 441.159 483.955 440.719 483.499C440.279 483.043 439.679 482.776 439.046 482.754C438.412 482.776 437.812 483.043 437.372 483.499C436.932 483.955 436.686 484.564 436.686 485.197C436.686 485.831 436.932 486.44 437.372 486.895C437.812 487.351 438.412 487.618 439.046 487.64Z" fill="#B3B3B3"/>
<path d="M373.099 487.542C379.013 487.032 384.827 485.697 390.372 483.575C391.747 483.073 393.054 482.423 394.387 481.847C395.664 481.155 396.993 480.559 398.194 479.748C400.672 478.27 402.994 476.547 405.127 474.605C409.75 470.461 415.175 467.309 421.064 465.345C426.832 463.324 432.945 462.474 439.046 462.846C433.172 463.744 427.436 465.381 421.974 467.719C420.617 468.276 419.327 468.966 418.007 469.585C416.745 470.311 415.431 470.949 414.239 471.781C411.78 473.308 409.466 475.056 407.326 477.005C402.685 481.163 397.17 484.227 391.188 485.972C385.337 487.769 379.171 488.305 373.099 487.542Z" fill="#B3B3B3"/>
<path d="M352.814 204.894H352.732C349.086 204.381 345.483 203.603 341.951 202.565C341.951 202.565 304.395 227.776 304.493 191.914C304.493 191.914 275.113 201.002 255.668 206.295C255.67 206.295 255.672 206.295 255.674 206.296C255.676 206.297 255.678 206.298 255.679 206.3C255.681 206.301 255.682 206.303 255.683 206.305C255.684 206.307 255.684 206.309 255.684 206.311C256.499 209.726 257.119 213.184 257.541 216.669C257.948 220.154 258.225 223.656 258.371 227.174C258.648 230.687 258.615 234.219 258.273 237.727C257.852 241.219 256.993 244.644 255.716 247.922C258.143 247.075 260.977 245.984 264.299 244.6L263.045 260.967C263.045 260.967 338.091 207.191 352.814 204.894ZM255.033 242.694C254.951 240.935 255.033 239.225 255.016 237.483C255.065 234.046 255.586 230.626 255.765 227.157C255.945 223.705 255.993 220.247 255.912 216.783C255.896 213.314 255.711 209.851 255.358 206.393C249.495 207.972 244.577 209.226 241.678 209.748C237.79 222.588 237.761 236.287 241.597 249.143C241.511 249.384 241.514 249.647 241.606 249.885C241.997 250.838 244.271 251.944 255.391 248.052C255.391 248.052 255.375 248.052 255.391 248.036C255.358 248.02 255.358 248.003 255.358 247.971C255.154 246.219 255.045 244.458 255.033 242.694ZM248.502 213.054C249.135 213.076 249.734 213.343 250.174 213.799C250.614 214.255 250.859 214.863 250.859 215.496C250.859 216.13 250.614 216.738 250.174 217.194C249.734 217.65 249.135 217.917 248.502 217.939C247.869 217.917 247.27 217.65 246.83 217.194C246.39 216.738 246.144 216.13 246.144 215.496C246.144 214.863 246.39 214.255 246.83 213.799C247.27 213.343 247.869 213.076 248.502 213.054H248.502ZM248.795 245.788C248.162 245.766 247.563 245.499 247.123 245.043C246.683 244.587 246.437 243.979 246.437 243.346C246.437 242.712 246.683 242.104 247.123 241.648C247.563 241.192 248.162 240.925 248.795 240.903C249.428 240.925 250.027 241.192 250.467 241.648C250.907 242.104 251.152 242.712 251.152 243.345C251.152 243.979 250.907 244.587 250.467 245.043C250.027 245.499 249.428 245.766 248.795 245.788H248.795ZM248.795 236.994C248.162 236.971 247.563 236.704 247.123 236.248C246.683 235.793 246.437 235.184 246.437 234.551C246.437 233.918 246.683 233.309 247.123 232.854C247.563 232.398 248.162 232.131 248.795 232.108C249.428 232.131 250.027 232.398 250.467 232.853C250.907 233.309 251.153 233.918 251.153 234.551C251.153 235.184 250.907 235.793 250.467 236.249C250.027 236.704 249.428 236.971 248.795 236.994H248.795ZM248.795 227.32C248.162 227.297 247.563 227.03 247.123 226.575C246.683 226.119 246.438 225.51 246.438 224.877C246.438 224.244 246.683 223.635 247.123 223.18C247.563 222.724 248.162 222.457 248.795 222.434C249.428 222.457 250.027 222.724 250.467 223.18C250.907 223.635 251.152 224.244 251.152 224.877C251.152 225.51 250.907 226.119 250.467 226.575C250.027 227.03 249.428 227.298 248.795 227.32L248.795 227.32Z" fill="#B3B3B3"/>
<path d="M375.581 250.267C367.324 273.751 376.738 308.278 376.738 308.278C375.277 309.065 373.73 309.683 372.129 310.118C370.245 310.656 368.331 311.08 366.396 311.388C361.305 312.178 356.171 312.656 351.022 312.821C351.022 312.821 384.897 220.122 385.288 207.842L384.75 207.402C395.483 207.76 405.597 207.76 412.323 207.695C411.634 208.297 410.976 208.933 410.352 209.601C409.652 210.448 408.903 211.278 408.251 212.158C407.583 213.037 406.981 213.949 406.346 214.845L404.619 217.646C402.518 221.461 400.684 225.417 399.131 229.486C397.454 233.492 395.836 237.515 394.278 241.554C392.779 245.609 391.265 249.664 389.913 253.785L390.06 253.85C385.116 253.193 380.261 251.992 375.581 250.267Z" fill="#B3B3B3"/>
<path d="M420.596 207.549C420.596 207.549 417.697 207.63 412.942 207.695C411.02 211.539 409.277 215.334 407.486 219.161C405.71 223.069 403.447 226.734 401.492 230.577C399.538 234.421 397.633 238.297 395.776 242.189C393.887 246.049 392.079 249.974 390.223 253.866C391.477 254.013 392.763 254.111 394.033 254.143C400.971 254.322 407.73 252.498 410.043 245.56C415.384 229.502 429.781 218.249 420.596 207.549ZM399.473 248.134C398.84 248.111 398.241 247.844 397.801 247.388C397.361 246.932 397.116 246.324 397.116 245.691C397.116 245.057 397.361 244.449 397.801 243.993C398.241 243.538 398.84 243.27 399.473 243.248C400.106 243.27 400.705 243.538 401.145 243.993C401.584 244.449 401.83 245.057 401.83 245.691C401.83 246.324 401.584 246.932 401.145 247.388C400.705 247.844 400.106 248.111 399.473 248.134H399.473ZM405.922 238.167C405.289 238.144 404.69 237.877 404.25 237.421C403.81 236.966 403.565 236.357 403.565 235.724C403.565 235.09 403.81 234.482 404.25 234.026C404.69 233.57 405.289 233.303 405.922 233.281C406.555 233.303 407.155 233.57 407.594 234.026C408.034 234.482 408.28 235.09 408.28 235.724C408.28 236.357 408.034 236.966 407.594 237.421C407.155 237.877 406.555 238.144 405.922 238.167H405.922ZM412.078 227.32C411.445 227.297 410.846 227.03 410.406 226.575C409.967 226.119 409.721 225.51 409.721 224.877C409.721 224.244 409.967 223.635 410.406 223.18C410.846 222.724 411.445 222.457 412.078 222.434C412.711 222.457 413.31 222.724 413.75 223.18C414.19 223.635 414.435 224.244 414.436 224.877C414.436 225.51 414.19 226.119 413.75 226.575C413.31 227.03 412.711 227.297 412.078 227.32H412.078ZM416.769 216.181C416.136 216.158 415.536 215.891 415.097 215.435C414.657 214.979 414.411 214.371 414.411 213.738C414.411 213.104 414.657 212.496 415.097 212.04C415.536 211.584 416.136 211.317 416.769 211.295C417.401 211.317 418.001 211.584 418.441 212.04C418.88 212.496 419.126 213.104 419.126 213.738C419.126 214.371 418.88 214.979 418.441 215.435C418.001 215.891 417.402 216.158 416.769 216.181H416.769Z" fill="#B3B3B3"/>
<path d="M255.668 206.295C255.567 206.33 255.463 206.357 255.358 206.376C255.353 206.335 255.364 206.294 255.388 206.261C255.412 206.228 255.448 206.205 255.489 206.197C255.525 206.191 255.563 206.197 255.595 206.215C255.628 206.233 255.653 206.261 255.668 206.295Z" fill="white"/>
<path d="M255.717 247.922C255.713 247.956 255.702 247.99 255.684 248.02C255.666 248.062 255.632 248.096 255.59 248.114C255.547 248.132 255.499 248.134 255.456 248.117C255.427 248.104 255.404 248.081 255.391 248.052C255.391 248.052 255.375 248.052 255.391 248.036C255.489 248.003 255.603 247.971 255.717 247.922Z" fill="white"/>
<path d="M390.06 253.85C390.115 253.847 390.169 253.853 390.223 253.866C390.223 253.882 390.206 253.882 390.206 253.899L390.06 253.85Z" fill="white"/>
<path d="M413.023 207.516C412.989 207.573 412.962 207.633 412.942 207.695H412.323L412.762 207.305L413.023 207.516Z" fill="white"/>
<path d="M266.975 638.749C252.476 639.646 237.969 640.36 223.46 641.076L179.918 642.855C165.399 643.358 150.872 643.705 136.337 643.897C132.703 643.955 129.067 643.979 125.428 643.969C121.793 643.998 118.148 643.936 114.5 643.86C112.683 643.855 110.843 643.74 109.007 643.64L106.252 643.488C105.438 643.416 104.618 643.414 103.803 643.484C102.23 643.566 100.708 644.077 99.4037 644.96C98.0989 645.844 97.0602 647.067 96.3996 648.498C95.1426 651.598 94.9571 655.029 95.8727 658.247C96.7515 661.615 98.1939 664.811 100.139 667.699C104.153 673.587 109.243 678.664 115.141 682.662C126.918 690.878 140.671 696.105 154.689 699.543C168.809 702.842 183.222 704.726 197.715 705.168C204.964 705.427 212.226 705.61 219.481 705.774C226.74 705.884 233.998 705.951 241.256 705.976C255.772 706.02 270.286 705.786 284.785 705.353C299.286 704.946 313.764 704.19 328.218 703.083C342.664 701.969 357.072 700.373 371.332 698.003C385.591 695.829 399.625 692.372 413.262 687.674C420.002 685.29 426.471 682.202 432.562 678.461C435.565 676.576 438.414 674.455 441.081 672.119C443.752 669.855 446.127 667.263 448.149 664.403C450.144 661.673 451.356 658.45 451.655 655.082C451.776 651.731 450.777 648.435 448.816 645.714C446.86 642.878 444.307 640.503 441.336 638.756C438.332 637.02 435.004 635.915 431.558 635.511C429.833 635.289 428.089 635.246 426.355 635.385C425.482 635.424 424.632 635.574 423.755 635.691L421.056 636.131C417.457 636.7 413.856 637.213 410.251 637.695C403.041 638.658 395.819 639.502 388.585 640.227C381.349 640.942 374.096 641.503 366.828 641.828C363.194 641.98 359.555 642.084 355.914 642.008C354.093 641.971 352.272 641.887 350.455 641.72C348.62 641.596 346.812 641.215 345.083 640.59C345.044 640.574 345.013 640.543 344.996 640.504C344.979 640.466 344.978 640.422 344.993 640.383C345.008 640.343 345.037 640.311 345.075 640.293C345.113 640.275 345.157 640.272 345.197 640.286L345.215 640.292C348.704 641.209 352.316 641.573 355.917 641.371C359.538 641.344 363.159 641.137 366.774 640.883C374.005 640.366 381.216 639.559 388.417 638.697C395.617 637.833 402.802 636.85 409.971 635.748C413.554 635.197 417.132 634.616 420.693 633.98L423.361 633.491C424.28 633.346 425.218 633.161 426.159 633.095C428.043 632.901 429.943 632.902 431.827 633.099C435.623 633.484 439.3 634.645 442.628 636.511C445.969 638.411 448.852 641.019 451.077 644.153C453.431 647.353 454.655 651.245 454.557 655.217C454.286 659.131 452.951 662.897 450.694 666.107C448.568 669.219 446.056 672.048 443.218 674.528C440.45 677.012 437.474 679.255 434.324 681.232C428.045 685.119 421.373 688.333 414.418 690.82C407.528 693.317 400.499 695.413 393.366 697.097C386.257 698.807 379.091 700.249 371.879 701.353C357.467 703.628 342.962 705.114 328.443 706.116C299.396 708.156 270.288 708.225 241.237 707.608C233.973 707.451 226.711 707.248 219.451 706.999C212.189 706.776 204.933 706.55 197.671 706.239C183.113 705.702 168.633 703.869 154.401 700.761C140.244 697.472 126.189 692.658 113.904 684.458C107.657 680.418 102.232 675.232 97.914 669.173C95.7658 666.043 94.1701 662.568 93.1962 658.899C92.1011 655.072 92.3246 650.989 93.8308 647.305C94.6826 645.401 96.0452 643.771 97.7675 642.595C99.4865 641.448 101.468 640.758 103.527 640.587C104.521 640.494 105.521 640.489 106.516 640.571L109.199 640.731C110.987 640.841 112.771 640.967 114.586 640.986C118.198 641.087 121.813 641.174 125.439 641.172C129.062 641.209 132.687 641.211 136.315 641.178C150.822 641.107 165.338 640.806 179.853 640.494L223.403 639.484L266.961 638.423C267.003 638.422 267.045 638.438 267.076 638.467C267.107 638.496 267.126 638.536 267.127 638.579C267.129 638.622 267.114 638.663 267.086 638.695C267.057 638.727 267.017 638.746 266.975 638.749H266.975Z" fill="#B3B3B3"/>
<path d="M153.848 697.024C151.042 696.338 148.096 696.499 145.382 697.488C142.668 698.476 140.308 700.247 138.601 702.576C136.894 704.906 135.915 707.689 135.79 710.574C135.664 713.46 136.397 716.318 137.896 718.787C139.394 721.256 141.591 723.225 144.209 724.445C146.827 725.665 149.748 726.082 152.602 725.642C155.457 725.202 158.117 723.926 160.246 721.974C162.375 720.023 163.878 717.484 164.564 714.678C165.481 710.916 164.867 706.944 162.858 703.634C160.849 700.324 157.608 697.947 153.848 697.024ZM152.301 719.564C151.454 719.632 150.602 719.61 149.76 719.499C148.011 719.287 146.358 718.587 144.988 717.48C143.623 716.367 142.577 714.911 141.959 713.261C141.339 711.678 141.105 709.97 141.275 708.278C142.012 711.342 143.665 714.108 146.014 716.209C146.284 716.467 146.585 716.692 146.91 716.877C147.221 717.087 147.547 717.272 147.887 717.431L148.913 717.919C149.288 718.017 149.646 718.131 150.021 718.261C150.391 718.388 150.773 718.48 151.161 718.538L152.333 718.766C153.115 718.896 153.929 718.929 154.76 719.075C153.953 719.298 153.131 719.461 152.3 719.564H152.301Z" fill="#EC602C" fill-opacity="0.7"/>
<path d="M106.863 677.497C106.797 677.693 106.732 677.888 106.683 678.1C105.94 681.136 106.191 684.331 107.399 687.214C108.607 690.097 110.708 692.516 113.394 694.116C116.08 695.715 119.209 696.41 122.319 696.098C125.43 695.786 128.358 694.484 130.673 692.383C121.966 688.775 113.92 683.744 106.863 677.497ZM120.804 692.676C119.956 692.738 119.105 692.711 118.263 692.594C116.51 692.38 114.852 691.68 113.475 690.575C112.119 689.457 111.08 688.002 110.462 686.357C109.841 684.774 109.607 683.065 109.778 681.373C110.516 684.433 112.162 687.198 114.501 689.305C114.78 689.559 115.086 689.783 115.413 689.972C115.724 690.182 116.05 690.367 116.39 690.526L117.416 691.015C117.791 691.112 118.149 691.226 118.523 691.357C118.89 691.498 119.273 691.591 119.663 691.633L120.82 691.861C121.618 691.992 122.432 692.024 123.263 692.171C122.454 692.389 121.633 692.558 120.804 692.676Z" fill="#EC602C" fill-opacity="0.7"/>
<path d="M431.507 683.751C428.702 683.065 425.756 683.226 423.042 684.215C420.328 685.203 417.968 686.974 416.261 689.303C414.553 691.632 413.575 694.416 413.449 697.301C413.324 700.187 414.057 703.045 415.555 705.514C417.054 707.983 419.251 709.952 421.869 711.172C424.487 712.392 427.408 712.809 430.262 712.369C433.117 711.929 435.777 710.653 437.906 708.701C440.035 706.75 441.538 704.211 442.224 701.405C442.68 699.542 442.765 697.608 442.474 695.712C442.182 693.816 441.52 691.996 440.525 690.357C439.53 688.717 438.221 687.29 436.674 686.156C435.126 685.023 433.371 684.206 431.507 683.751ZM429.83 708.587C428.983 708.655 428.132 708.633 427.289 708.522C425.539 708.304 423.886 707.599 422.518 706.486C421.152 705.373 420.107 703.918 419.488 702.268C418.868 700.691 418.633 698.988 418.804 697.301C419.545 700.363 421.198 703.129 423.544 705.232C423.814 705.485 424.115 705.704 424.439 705.884C424.746 706.099 425.074 706.285 425.416 706.437L426.459 706.926C426.817 707.04 427.192 707.154 427.55 707.268C427.919 707.406 428.301 707.504 428.69 707.561L429.863 707.789C430.661 707.903 431.459 707.936 432.289 708.099C431.481 708.313 430.659 708.476 429.83 708.587Z" fill="#EC602C" fill-opacity="0.7"/>
<path d="M0 667.068C16.3078 665.709 32.6203 665.336 48.9341 665.204C57.091 665.193 65.2484 665.223 73.4066 665.443C81.5646 665.616 89.7237 666 97.8837 666.595C89.7298 667.268 81.5749 667.731 73.419 667.984C65.2632 668.283 57.1064 668.392 48.9497 668.459C32.6355 668.486 16.3201 668.27 0 667.068Z" fill="#B3B3B3"/>
<path d="M549.874 348.829C566.182 347.469 582.494 347.096 598.808 346.965C606.965 346.954 615.122 346.983 623.28 347.203C631.439 347.376 639.598 347.761 647.757 348.356C639.604 349.028 631.449 349.491 623.293 349.745C615.137 350.043 606.98 350.152 598.824 350.22C582.509 350.246 566.194 350.031 549.874 348.829Z" fill="#B3B3B3"/>
<path d="M290.21 418.534C289.086 419.462 287.979 420.309 286.904 421.091C287.116 420.456 287.36 419.804 287.588 419.169C287.661 418.968 287.773 418.784 287.918 418.627C288.062 418.47 288.237 418.344 288.43 418.254C288.624 418.165 288.834 418.115 289.047 418.107C289.26 418.099 289.473 418.133 289.673 418.208C289.87 418.283 290.052 418.394 290.21 418.534Z" fill="white"/>
<path d="M308.858 397.802C307.783 399.3 306.708 400.733 305.666 402.101C305.829 400.994 306.024 399.886 306.203 398.779C306.273 398.352 306.509 397.969 306.86 397.716C307.211 397.462 307.649 397.358 308.076 397.427C308.367 397.474 308.639 397.604 308.858 397.802Z" fill="white"/>
<path d="M323.189 374.725C322.424 376.142 321.642 377.51 320.877 378.861C320.779 377.998 320.681 377.119 320.567 376.255V376.207C320.525 375.885 320.579 375.559 320.723 375.269C320.867 374.979 321.095 374.739 321.377 374.579C321.659 374.42 321.983 374.348 322.306 374.374C322.629 374.4 322.936 374.522 323.189 374.725Z" fill="white"/>
<path d="M262.899 260.882C270.023 255.393 277.118 250.245 284.3 245.004C291.482 239.812 298.748 234.736 306.055 229.715C313.359 224.688 320.753 219.785 328.328 215.138C332.116 212.815 335.935 210.536 339.867 208.409C341.836 207.348 343.831 206.326 345.907 205.402C346.957 204.925 348.031 204.502 349.124 204.134C350.352 203.669 351.66 203.45 352.973 203.49L352.193 203.62C354.928 202.396 357.79 201.478 360.727 200.882C363.662 200.277 366.661 200.04 369.654 200.177C372.686 200.301 375.677 200.927 378.505 202.03C381.342 203.15 383.951 204.778 386.205 206.832L386.214 206.84C386.398 207.006 386.533 207.219 386.602 207.456C386.672 207.694 386.674 207.946 386.608 208.185C380.501 230.221 373.336 251.889 365.927 273.475C362.214 284.265 358.306 294.985 354.351 305.688C350.338 316.37 346.138 326.982 341.752 337.526C332.856 358.534 323.102 379.342 310.117 398.346C306.853 403.099 303.3 407.647 299.477 411.964C295.636 416.35 291.303 420.281 286.565 423.679C281.726 427.235 276.084 429.54 270.139 430.387C267.104 430.74 264.031 430.557 261.059 429.845C258.123 429.107 255.311 427.941 252.715 426.384C252.462 426.236 252.253 426.026 252.106 425.773C251.959 425.52 251.88 425.234 251.875 424.941C251.743 411.192 251.971 397.499 252.368 383.788C252.765 370.083 253.514 356.391 254.407 342.713C255.272 329.032 256.421 315.375 257.853 301.74L258.922 291.518L260.161 281.315C260.961 274.52 262.005 267.615 262.899 260.882ZM263.18 261.047C262.539 267.921 261.823 274.599 261.273 281.432C260.709 288.254 260.114 295.071 259.621 301.897C258.576 315.542 257.805 329.205 257.106 342.867C256.397 356.53 256.004 370.206 255.649 383.878C255.301 397.545 255.122 411.242 255.301 424.88L254.462 423.437C259.041 426.261 264.415 427.516 269.771 427.012C275.175 426.273 280.314 424.212 284.73 421.011C293.856 414.687 301.172 405.829 307.724 396.669C314.22 387.363 320.12 377.654 325.387 367.601C330.754 357.578 335.696 347.314 340.327 336.909C344.986 326.515 349.287 315.957 353.344 305.307C357.457 294.678 361.196 283.906 364.792 273.091C371.951 251.454 378.22 229.506 383.976 207.497L384.379 208.848C382.358 207.037 380.024 205.608 377.491 204.632C374.942 203.664 372.249 203.125 369.524 203.039C366.765 202.943 364.006 203.181 361.305 203.749C358.596 204.27 355.952 205.083 353.419 206.175C353.174 206.282 352.905 206.327 352.638 206.304C351.733 206.318 350.836 206.486 349.987 206.799C348.978 207.128 347.987 207.508 347.017 207.938C345.038 208.795 343.078 209.773 341.139 210.793C337.26 212.842 333.447 215.064 329.664 217.334C322.114 221.908 314.663 226.678 307.232 231.478C299.808 236.293 292.465 241.236 285.117 246.175L263.18 261.047Z" fill="#B3B3B3"/>
<path d="M339.737 163.687C340.212 163.671 340.662 163.471 340.993 163.129C341.323 162.787 341.507 162.33 341.507 161.855C341.507 161.38 341.323 160.923 340.993 160.581C340.662 160.24 340.212 160.039 339.737 160.023C339.262 160.039 338.812 160.24 338.482 160.581C338.152 160.923 337.968 161.38 337.968 161.855C337.968 162.33 338.152 162.787 338.482 163.129C338.812 163.471 339.262 163.671 339.737 163.687Z" fill="#B3B3B3"/>
</svg>
