<svg width="1044" height="976" viewBox="0 0 1044 976" fill="none" xmlns="http://www.w3.org/2000/svg">
<path d="M748.797 808.143C748.867 806.04 749.368 803.975 750.269 802.074C750.62 801.297 751.265 800.691 752.062 800.388C752.424 800.275 752.8 800.215 753.179 800.211C753.605 800.282 754.031 800.317 754.457 800.424C756.345 801.134 758.143 802.063 759.815 803.192C761.678 804.274 763.559 805.392 765.617 806.404C767.77 807.452 770.11 808.062 772.501 808.196C774.895 808.226 777.263 807.704 779.421 806.67C779.528 806.617 779.652 806.563 779.758 806.51C770.124 812.366 758.36 815.969 748.797 808.143Z" fill="black"/>
<path d="M824.257 737.605C822.394 736.948 819.981 735.191 817.16 731.145C810.116 721.048 805.485 731.766 805.485 731.766C795.691 746.903 785.258 738.581 783.182 737.534C782.766 737.364 782.31 737.321 781.869 737.41C781.287 737.475 780.715 737.612 780.166 737.818C776.653 739.024 771.649 742.662 771.365 747.773C771.096 750.155 770.387 752.465 769.272 754.587C770.874 753.664 772.619 753.017 774.435 752.671C776.22 752.3 778.043 752.151 779.864 752.227C781.735 752.294 783.582 752.672 785.329 753.345C786.26 753.649 787.119 754.137 787.857 754.78C788.595 755.424 789.195 756.209 789.623 757.089C788.039 756.46 786.358 756.111 784.655 756.06C783.023 755.936 781.373 755.847 779.687 755.776C778.019 755.705 776.316 755.599 774.595 755.439C772.801 755.296 771.021 755.011 769.272 754.587C767.656 757.918 765.8 761.126 763.718 764.187C765.155 763.124 766.809 762.391 768.562 762.04C770.314 761.65 772.12 761.56 773.903 761.774C775.719 761.97 777.479 762.518 779.084 763.389C780.712 764.239 782.08 765.514 783.041 767.08C781.213 766.725 779.705 766.246 778.126 766.015C776.564 765.731 775.039 765.465 773.495 765.288C770.372 764.897 767.267 764.755 763.683 764.223C762.104 766.601 760.879 768.198 760.879 768.198C759.389 769.795 758.059 771.321 756.817 772.812C758.503 772.074 760.303 771.63 762.14 771.498C763.973 771.347 765.819 771.455 767.622 771.818C769.485 772.163 771.267 772.856 772.874 773.858C774.562 774.829 775.855 776.362 776.529 778.188C774.996 777.418 773.384 776.817 771.721 776.396C770.159 775.953 768.545 775.633 766.93 775.296C763.5 774.71 760.114 773.886 756.799 772.829H756.781C756.728 772.9 756.675 772.954 756.621 773.025C756.089 783.849 755.823 792.58 755.823 792.58C752.768 796.402 748.844 799.438 744.379 801.435C744.622 803.103 745.336 804.666 746.437 805.942C747.17 806.731 747.958 807.467 748.797 808.143C748.133 805.95 748.09 803.616 748.672 801.4C749.027 800.097 749.881 798.987 751.05 798.312C751.662 797.962 752.337 797.739 753.037 797.656C753.688 797.626 754.341 797.649 754.989 797.726C755.592 797.85 756.213 797.975 756.799 798.134L758.449 798.809C759.513 799.27 760.471 799.767 761.447 800.246C763.399 801.258 765.244 802.358 767.107 803.192C768.831 804.122 770.73 804.681 772.682 804.834C774.635 804.987 776.598 804.73 778.445 804.079C782.453 802.614 786.334 800.821 790.049 798.72C794.697 794.144 798.505 788.786 801.298 782.891C808.554 767.932 822.323 760.372 828.604 750.541C828.746 750.328 828.87 750.133 828.994 749.92C829.667 748.834 830.08 747.606 830.199 746.334C830.319 745.061 830.142 743.779 829.683 742.586C829.225 741.393 828.496 740.323 827.555 739.459C826.613 738.594 825.485 737.96 824.257 737.605ZM808.413 749.264C807.652 751.196 806.763 753.075 805.751 754.889C804.761 756.716 803.653 758.476 802.433 760.159C801.197 761.899 799.781 763.505 798.21 764.951C798.592 762.855 799.186 760.803 799.985 758.828C800.764 756.898 801.652 755.014 802.646 753.185C803.641 751.361 804.749 749.6 805.964 747.915C807.2 746.174 808.615 744.568 810.187 743.123C809.808 745.226 809.213 747.283 808.413 749.264Z" fill="#EC602C"/>
<path d="M760.454 378.242C759.212 376.582 757.536 375.298 755.61 374.533L755.592 374.515C755.434 374.437 755.285 374.342 755.148 374.231C756.521 377.975 758.599 381.421 761.27 384.381C761.323 384.186 761.358 384.009 761.394 383.814C761.619 382.869 761.651 381.889 761.49 380.932C761.328 379.975 760.976 379.06 760.454 378.242ZM760.454 378.242C759.212 376.582 757.536 375.298 755.61 374.533L755.592 374.515C755.434 374.437 755.285 374.342 755.148 374.231C756.521 377.975 758.599 381.421 761.27 384.381C761.323 384.186 761.358 384.009 761.394 383.814C761.619 382.869 761.651 381.889 761.49 380.932C761.328 379.975 760.976 379.06 760.454 378.242ZM760.454 378.242C759.212 376.582 757.536 375.298 755.61 374.533L755.592 374.515C755.434 374.437 755.285 374.342 755.148 374.231C756.521 377.975 758.599 381.421 761.27 384.381C761.323 384.186 761.358 384.009 761.394 383.814C761.619 382.869 761.651 381.889 761.49 380.932C761.328 379.975 760.976 379.06 760.454 378.242ZM760.454 378.242C759.212 376.582 757.536 375.298 755.61 374.533L755.592 374.515C755.434 374.437 755.285 374.342 755.148 374.231C756.521 377.975 758.599 381.421 761.27 384.381C761.323 384.186 761.358 384.009 761.394 383.814C761.619 382.869 761.651 381.889 761.49 380.932C761.328 379.975 760.976 379.06 760.454 378.242ZM760.454 378.242C759.212 376.582 757.536 375.298 755.61 374.533L755.592 374.515C755.434 374.437 755.285 374.342 755.148 374.231C756.521 377.975 758.599 381.421 761.27 384.381C761.323 384.186 761.358 384.009 761.394 383.814C761.619 382.869 761.651 381.889 761.49 380.932C761.328 379.975 760.976 379.06 760.454 378.242ZM760.454 378.242C759.212 376.582 757.536 375.298 755.61 374.533L755.592 374.515C755.434 374.437 755.285 374.342 755.148 374.231C756.521 377.975 758.599 381.421 761.27 384.381C761.323 384.186 761.358 384.009 761.394 383.814C761.619 382.869 761.651 381.889 761.49 380.932C761.328 379.975 760.976 379.06 760.454 378.242ZM760.454 378.242C759.212 376.582 757.536 375.298 755.61 374.533L755.592 374.515C755.434 374.437 755.285 374.342 755.148 374.231C756.521 377.975 758.599 381.421 761.27 384.381C761.323 384.186 761.358 384.009 761.394 383.814C761.619 382.869 761.651 381.889 761.49 380.932C761.328 379.975 760.976 379.06 760.454 378.242ZM760.454 378.242C759.212 376.582 757.536 375.298 755.61 374.533L755.592 374.515C755.434 374.437 755.285 374.342 755.148 374.231C756.521 377.975 758.599 381.421 761.27 384.381C761.323 384.186 761.358 384.009 761.394 383.814C761.619 382.869 761.651 381.889 761.49 380.932C761.328 379.975 760.976 379.06 760.454 378.242ZM836.411 375.296C833.767 337.232 832.188 320.32 817.905 297.606C803.64 274.874 754.439 282.203 754.439 282.203C731.249 314.908 716.558 292.425 716.558 292.425C709.124 296.329 705.575 289.976 705.575 289.976C663.525 307.721 664.66 329.832 664.66 337.764C664.66 345.696 662.017 374.231 662.017 374.231C655.15 411.23 662.017 457.227 662.017 460.385C662.017 463.562 670.48 504.252 670.48 504.252C675.749 510.072 686.857 503.737 686.857 503.737C684.798 490.694 683.314 477.581 682.403 464.396C681.924 457.812 681.676 451.211 681.516 444.592C681.409 437.991 681.587 431.301 681.977 424.717C682.332 418.204 682.35 411.677 682.03 405.162C681.835 398.613 681.303 392.065 680.824 385.517C680.292 378.969 679.653 372.421 678.979 365.873C678.358 359.307 677.542 352.777 676.814 346.229C679.727 359.106 681.977 372.125 683.557 385.233C685.344 398.385 685.997 411.666 685.508 424.93C684.603 437.991 684.834 451.105 685.171 464.254C685.614 477.403 686.176 490.564 686.857 503.737C756.604 521.164 816.326 495.273 816.326 495.273L811.571 443.474C809.593 444.118 807.502 444.342 805.432 444.131C803.371 443.949 801.321 443.653 799.293 443.243C795.276 442.356 791.314 441.242 787.423 439.907C779.673 437.25 772.063 434.2 764.623 430.768C757.207 427.343 749.885 423.735 742.658 419.944L739.943 418.559L738.595 417.868L737.193 417.051C735.282 415.947 733.664 414.402 732.474 412.544C731.334 410.669 730.807 408.486 730.965 406.297C731.115 404.215 731.754 402.196 732.828 400.406C732.048 402.206 731.737 404.174 731.927 406.127C732.116 408.079 732.799 409.952 733.911 411.568C736.182 414.655 740.103 415.72 743.847 417.459C751.334 420.742 758.68 424.202 766.096 427.539C773.477 430.928 780.894 434.229 788.381 437.316C792.142 438.825 795.904 440.315 799.736 441.557C801.654 442.187 803.603 442.72 805.574 443.155C807.536 443.633 809.569 443.741 811.571 443.474C837.458 440.83 839.054 413.342 836.411 375.296ZM735.348 332.707C736.853 331.179 738.59 329.898 740.493 328.909C739.471 330.793 738.153 332.5 736.589 333.967C735.08 335.49 733.345 336.771 731.444 337.764C732.471 335.883 733.789 334.177 735.348 332.707H735.348ZM716.753 328.785C717.031 326.673 717.641 324.619 718.562 322.698C718.883 324.805 718.865 326.95 718.51 329.051C718.23 331.155 717.626 333.202 716.718 335.12C716.401 333.019 716.413 330.882 716.754 328.785H716.753ZM700.181 329.938C701.33 331.882 702.179 333.988 702.7 336.185C699.521 332.955 697.245 328.947 696.101 324.562C697.719 326.142 699.094 327.954 700.181 329.938L700.181 329.938ZM796.063 389.616C791.645 387.806 787.174 386.103 782.703 384.417C776.493 382.092 770.266 379.803 764.02 377.549C765.006 379.731 765.237 382.178 764.676 384.506C764.032 387.018 762.938 389.393 761.447 391.515C760.045 393.568 758.42 395.461 756.603 397.158C753.284 400.722 749.507 403.83 745.372 406.404C744.251 407.038 743.035 407.487 741.771 407.734C741.084 407.851 740.38 407.809 739.712 407.61C739.025 407.389 738.44 406.93 738.062 406.315C737.424 405.205 737.11 403.939 737.157 402.659C737.174 401.453 737.317 400.252 737.583 399.075C737.494 400.258 737.529 401.448 737.69 402.624C737.791 403.749 738.189 404.826 738.843 405.747C739.172 406.112 739.605 406.368 740.083 406.482C740.562 406.596 741.063 406.563 741.522 406.386C742.58 406.065 743.576 405.567 744.467 404.913C745.415 404.259 746.327 403.554 747.2 402.801C732.526 394.177 732.012 401.754 721.206 400.406C710.171 399.004 708.254 375.828 708.254 375.828C705.195 375.613 702.177 374.999 699.276 374C696.699 373.238 694.411 371.717 692.711 369.635C690.688 367.079 690.174 364.187 700.323 365.784L701.601 365.997L694.823 346.229H726.831L733.733 366.671C734.102 365.789 734.283 364.839 734.265 363.883C734.246 362.927 734.029 361.985 733.626 361.117L731.906 356.006C731.906 356.006 746.561 350.186 752.381 367.097C753.126 369.28 753.871 371.214 754.563 372.9C754.563 372.643 754.618 372.389 754.723 372.155C754.913 371.759 755.243 371.447 755.649 371.28C756.055 371.112 756.509 371.102 756.923 371.25C765.989 374.497 774.95 377.958 783.75 381.844C786.696 383.139 789.617 384.5 792.515 385.925C792.338 381.507 791.645 377.248 791.06 372.936L789.073 359.555C788.452 355.084 787.813 350.612 787.334 346.104C786.82 341.597 786.376 337.072 786.198 332.476C787.767 336.77 789.053 341.163 790.049 345.625C791.096 350.062 791.894 354.551 792.586 359.059C793.232 363.577 793.646 368.126 793.828 372.687C794.095 377.157 793.7 381.642 792.657 385.996C794.041 386.671 795.425 387.327 796.791 388.037C801.105 390.183 805.25 392.651 809.193 395.419C804.899 393.254 800.499 391.391 796.064 389.616L796.063 389.616ZM755.61 374.533L755.592 374.515C755.434 374.437 755.285 374.342 755.148 374.231C756.521 377.975 758.599 381.421 761.27 384.381C761.323 384.186 761.358 384.009 761.394 383.814C761.619 382.869 761.651 381.889 761.49 380.932C761.328 379.975 760.976 379.06 760.454 378.242C759.212 376.582 757.536 375.298 755.61 374.533L755.61 374.533ZM760.454 378.242C759.212 376.582 757.536 375.298 755.61 374.533L755.592 374.515C755.434 374.437 755.285 374.342 755.148 374.231C756.521 377.975 758.599 381.421 761.27 384.381C761.323 384.186 761.358 384.009 761.394 383.814C761.619 382.869 761.651 381.889 761.49 380.932C761.328 379.975 760.976 379.06 760.454 378.242H760.454ZM760.454 378.242C759.212 376.582 757.536 375.298 755.61 374.533L755.592 374.515C755.434 374.437 755.285 374.342 755.148 374.231C756.521 377.975 758.599 381.421 761.27 384.381C761.323 384.186 761.358 384.009 761.394 383.814C761.619 382.869 761.651 381.889 761.49 380.932C761.328 379.975 760.976 379.06 760.454 378.242H760.454ZM760.454 378.242C759.212 376.582 757.536 375.298 755.61 374.533L755.592 374.515C755.434 374.437 755.285 374.342 755.148 374.231C756.521 377.975 758.599 381.421 761.27 384.381C761.323 384.186 761.358 384.009 761.394 383.814C761.619 382.869 761.651 381.889 761.49 380.932C761.328 379.975 760.976 379.06 760.454 378.242H760.454ZM760.454 378.242C759.212 376.582 757.536 375.298 755.61 374.533L755.592 374.515C755.434 374.437 755.285 374.342 755.148 374.231C756.521 377.975 758.599 381.421 761.27 384.381C761.323 384.186 761.358 384.009 761.394 383.814C761.619 382.869 761.651 381.889 761.49 380.932C761.328 379.975 760.976 379.06 760.454 378.242H760.454ZM760.454 378.242C759.212 376.582 757.536 375.298 755.61 374.533L755.592 374.515C755.434 374.437 755.285 374.342 755.148 374.231C756.521 377.975 758.599 381.421 761.27 384.381C761.323 384.186 761.358 384.009 761.394 383.814C761.619 382.869 761.651 381.889 761.49 380.932C761.328 379.975 760.976 379.06 760.454 378.242H760.454ZM760.454 378.242C759.212 376.582 757.536 375.298 755.61 374.533L755.592 374.515C755.434 374.437 755.285 374.342 755.148 374.231C756.521 377.975 758.599 381.421 761.27 384.381C761.323 384.186 761.358 384.009 761.394 383.814C761.619 382.869 761.651 381.889 761.49 380.932C761.328 379.975 760.976 379.06 760.454 378.242H760.454Z" fill="black"/>
<path d="M693.988 245.537C694.71 253.503 695.946 261.414 697.687 269.22C698.561 273.041 699.765 276.78 701.285 280.392C702.607 283.88 704.797 286.972 707.647 289.376C708.991 290.43 710.606 291.082 712.305 291.256C714.005 291.429 715.718 291.118 717.247 290.357C720.785 288.677 724.185 286.722 727.417 284.511C729.026 283.403 730.565 282.197 732.027 280.9C733.464 279.677 734.641 278.176 735.485 276.487C736.361 274.767 736.904 272.897 737.084 270.976C737.241 268.992 737.394 266.965 737.586 264.961C737.769 266.976 737.95 268.967 738.068 271.001C738.163 273.128 737.819 275.252 737.06 277.241C736.3 279.23 735.14 281.041 733.652 282.564C732.227 284.063 730.695 285.456 729.069 286.734C725.823 289.284 722.341 291.516 718.669 293.402C716.588 294.419 714.275 294.871 711.964 294.711C709.617 294.528 707.376 293.659 705.518 292.213C702.192 289.412 699.666 285.781 698.195 281.688C696.715 277.838 695.639 273.845 694.984 269.772C693.656 261.766 693.321 253.626 693.988 245.537Z" fill="black"/>
<path d="M713.994 359.57C714.85 359.541 715.661 359.18 716.257 358.563C716.852 357.947 717.184 357.124 717.184 356.267C717.184 355.41 716.852 354.587 716.257 353.97C715.661 353.354 714.85 352.993 713.994 352.963C713.138 352.993 712.326 353.354 711.731 353.97C711.136 354.587 710.803 355.41 710.803 356.267C710.803 357.124 711.136 357.947 711.731 358.563C712.326 359.18 713.138 359.541 713.994 359.57Z" fill="black"/>
<path d="M737.586 253.083C737.586 253.083 740.151 241.055 745.429 244.384C746.302 244.974 747.019 245.766 747.522 246.692C748.025 247.618 748.298 248.651 748.317 249.705C748.507 253.758 748.497 261.215 745.909 261.79C745.909 261.79 751.668 275.996 752.228 239.036C752.252 237.617 752.166 236.199 751.97 234.793C751.052 228.317 747.452 211.247 735.208 213.825C735.208 213.825 716.315 199.951 699.404 218.978C697.518 221.027 695.519 222.968 693.415 224.792C692.198 225.799 691.216 227.06 690.539 228.488C689.862 229.915 689.506 231.473 689.496 233.053V233.177C689.496 237.65 688.408 242.056 686.327 246.016L684.079 250.294C684.079 250.294 690.949 254.834 699.404 236.708C699.404 236.708 702.972 226.906 712.352 231.663C712.352 231.663 724.506 222.546 729.263 231.267C729.263 231.267 730.618 233.226 732.173 235.587C734.161 238.616 735.356 242.095 735.651 245.706L737.586 253.083Z" fill="black"/>
<path d="M748.145 264.462C747.948 266.032 748.098 267.626 748.584 269.132C749.017 270.634 749.561 272.101 750.211 273.523C750.84 274.967 751.565 276.378 752.281 277.814C753.009 279.247 753.776 280.668 754.431 282.205C753.19 281.109 752.073 279.88 751.101 278.54C750.589 277.887 750.19 277.158 749.73 276.466C749.33 275.737 748.942 274.999 748.59 274.24C747.894 272.699 747.434 271.06 747.228 269.381C746.932 267.685 747.258 265.938 748.145 264.462Z" fill="black"/>
<path d="M693.983 255.129C694.918 254.037 696.146 253.235 697.521 252.816C698.887 252.368 700.321 252.165 701.758 252.217C703.177 252.276 704.579 252.542 705.92 253.006C706.578 253.247 707.223 253.522 707.853 253.829C708.464 254.171 709.055 254.549 709.622 254.96C708.911 254.903 708.242 254.772 707.576 254.655L705.591 254.351C704.301 254.161 703.001 254.041 701.698 253.989C699.076 253.842 696.451 254.23 693.983 255.129Z" fill="black"/>
<path d="M712.352 254.52C713.625 253.595 715.045 252.889 716.551 252.432C718.068 251.931 719.656 251.676 721.254 251.679C722.898 251.676 724.52 252.05 725.996 252.773C727.436 253.539 728.584 254.757 729.263 256.24C728.129 255.292 726.839 254.55 725.45 254.045C724.083 253.644 722.665 253.444 721.241 253.452C719.774 253.444 718.309 253.552 716.86 253.776C715.383 253.988 713.895 254.249 712.352 254.52Z" fill="black"/>
<path d="M701.915 262.677C702.604 262.653 703.258 262.362 703.738 261.866C704.217 261.369 704.485 260.706 704.485 260.015C704.485 259.325 704.217 258.662 703.738 258.165C703.258 257.668 702.604 257.378 701.915 257.354C701.225 257.378 700.571 257.668 700.091 258.165C699.612 258.662 699.344 259.325 699.344 260.015C699.344 260.706 699.612 261.369 700.091 261.866C700.571 262.362 701.225 262.653 701.915 262.677Z" fill="black"/>
<path d="M716.183 262.677C716.873 262.653 717.527 262.362 718.006 261.866C718.486 261.369 718.754 260.706 718.754 260.015C718.754 259.325 718.486 258.662 718.006 258.165C717.527 257.668 716.873 257.378 716.183 257.354C715.493 257.378 714.84 257.668 714.36 258.165C713.88 258.662 713.612 259.325 713.612 260.015C713.612 260.706 713.88 261.369 714.36 261.866C714.84 262.362 715.493 262.653 716.183 262.677Z" fill="black"/>
<path d="M702.707 266.943C702.808 267.666 703.076 268.355 703.489 268.955C703.671 269.144 703.891 269.291 704.135 269.387C704.379 269.483 704.641 269.525 704.902 269.51C705.609 269.52 706.315 269.482 707.016 269.397C707.821 269.296 708.634 269.256 709.445 269.278C708.849 269.914 708.128 270.42 707.327 270.765C706.527 271.109 705.664 271.285 704.792 271.281C704.275 271.234 703.772 271.087 703.311 270.848C702.829 270.561 702.46 270.117 702.265 269.59C702.11 269.147 702.069 268.672 702.146 268.21C702.224 267.747 702.417 267.311 702.707 266.943Z" fill="black"/>
<path d="M702.587 274.673C703.321 275.808 704.231 276.821 705.281 277.672C706.223 278.399 707.4 278.752 708.587 278.663C709.842 278.52 711.057 278.132 712.163 277.522C712.731 277.17 713.361 276.896 713.946 276.527C714.535 276.163 715.128 275.791 715.786 275.466C715.39 276.067 714.96 276.646 714.5 277.2C714.002 277.732 713.47 278.23 712.906 278.691C711.703 279.665 710.243 280.27 708.703 280.433C707.893 280.488 707.081 280.36 706.327 280.058C705.573 279.756 704.896 279.288 704.348 278.689C703.341 277.577 702.723 276.167 702.587 274.673Z" fill="black"/>
<path d="M716.381 377.342C717.287 379.855 717.838 382.33 718.496 384.76C718.8 385.98 719.166 387.165 719.559 388.334C719.92 389.537 720.525 390.654 721.336 391.613C720.025 391.138 718.943 390.181 718.313 388.937C717.634 387.772 717.119 386.52 716.782 385.214C716.088 382.649 715.951 379.965 716.381 377.342Z" fill="black"/>
<path d="M708.256 375.823C709.867 375.943 711.435 376.394 712.864 377.147C714.323 377.841 715.621 378.832 716.676 380.056C715.065 379.939 713.495 379.488 712.068 378.731C710.611 378.034 709.313 377.044 708.256 375.823Z" fill="black"/>
<path d="M709.734 384.478C711.175 384.181 712.664 384.213 714.091 384.572C715.532 384.87 716.885 385.493 718.049 386.394C716.609 386.695 715.119 386.663 713.692 386.3C712.253 385.998 710.9 385.376 709.734 384.478Z" fill="black"/>
<path d="M712.08 391.613C713.543 391.468 715.021 391.656 716.402 392.162C717.803 392.609 719.084 393.37 720.147 394.388C718.683 394.537 717.205 394.349 715.825 393.839C714.425 393.389 713.145 392.628 712.08 391.613Z" fill="black"/>
<path d="M688.63 504.112L692.923 541.714C694.339 554.248 695.84 566.769 697.424 579.278C699.001 591.786 700.578 604.294 702.479 616.743C703.431 622.965 704.439 629.178 705.625 635.339C706.221 638.417 706.869 641.485 707.593 644.506C708.184 647.443 709.119 650.299 710.379 653.017L710.434 653.121C710.574 653.387 710.632 653.689 710.599 653.988C709.34 665.543 708.202 677.111 706.837 688.655L702.869 723.302C701.537 734.85 700.203 746.397 698.993 757.958C697.761 769.516 696.463 781.068 695.357 792.638L695.103 792.103C699.809 795.008 704.792 797.441 709.977 799.367C715.123 801.36 720.516 802.648 726.007 803.198C731.442 803.784 736.938 803.138 742.09 801.309C747.203 799.474 751.683 796.211 754.999 791.906L754.759 792.547C755.093 782.587 755.247 772.614 755.827 762.657C756.1 757.677 756.407 752.697 756.831 747.712C757.039 745.219 757.285 742.725 757.594 740.223C757.846 737.614 758.352 735.037 759.106 732.527C759.217 732.192 759.446 731.907 759.749 731.726C760.053 731.544 760.411 731.478 760.76 731.538L760.902 731.563C765.305 732.3 769.776 732.552 774.234 732.316C778.686 732.112 783.093 731.336 787.347 730.009C791.545 728.691 795.473 726.63 798.942 723.922C802.361 721.193 805.215 717.822 807.344 713.998L807.283 715.665C796.316 692.736 785.639 669.669 774.803 646.677C774.625 646.296 774.586 645.865 774.691 645.458C777.807 633.414 780.935 621.344 783.877 609.241C786.854 597.143 789.636 584.999 792.346 572.841C795.084 560.688 797.614 548.489 799.834 536.235C802.257 524.016 803.996 511.67 805.042 499.257C805.045 499.211 805.066 499.168 805.101 499.138C805.136 499.107 805.181 499.091 805.227 499.093C805.273 499.095 805.316 499.115 805.348 499.149C805.38 499.183 805.397 499.227 805.396 499.274C804.791 511.75 803.475 524.181 801.455 536.508C799.526 548.843 797.287 561.128 794.837 573.367C792.389 585.606 789.719 597.799 786.936 609.965C784.125 622.126 781.314 634.278 778.154 646.369L778.041 645.151C788.876 668.143 799.869 691.061 810.572 714.115L810.585 714.143C810.703 714.403 810.759 714.687 810.746 714.972C810.733 715.257 810.653 715.535 810.511 715.783C808.12 719.997 804.928 723.703 801.116 726.693C797.298 729.627 792.983 731.85 788.378 733.257C783.835 734.638 779.133 735.427 774.388 735.607C769.657 735.825 764.916 735.51 760.255 734.667L762.05 733.703C761.369 735.963 760.894 738.28 760.63 740.626C760.293 743.059 760.014 745.518 759.773 747.983C759.281 752.913 758.905 757.868 758.561 762.825C758.232 767.784 757.894 772.746 757.659 777.712L756.887 792.612L756.885 792.647C756.874 792.87 756.79 793.083 756.647 793.254C753.01 797.751 748.174 801.126 742.699 802.988C737.284 804.802 731.529 805.373 725.863 804.658C720.268 803.978 714.781 802.597 709.531 800.547C704.276 798.555 699.232 796.046 694.472 793.058C694.384 793.001 694.314 792.92 694.269 792.826C694.224 792.731 694.207 792.626 694.218 792.521C695.49 780.967 696.569 769.393 697.715 757.826C698.882 746.261 699.926 734.684 700.971 723.107L704.136 688.377C705.148 676.797 706.388 665.239 707.506 653.669L707.727 654.64C706.263 651.661 705.182 648.511 704.507 645.262C703.718 642.159 703.142 639.037 702.55 635.92C701.408 629.682 700.452 623.431 699.552 617.174C697.779 604.659 696.22 592.127 694.874 579.576C693.551 567.021 692.325 554.459 691.198 541.89C690.139 529.313 689.088 516.738 688.276 504.143C688.273 504.097 688.289 504.051 688.319 504.016C688.349 503.981 688.392 503.959 688.438 503.955C688.484 503.951 688.53 503.965 688.566 503.994C688.602 504.024 688.625 504.066 688.63 504.112L688.63 504.112Z" fill="black"/>
<path d="M725.662 509.471C724.569 524.966 723.252 540.434 721.71 555.877C720.217 571.326 718.518 586.75 716.779 602.171C714.974 617.583 713.126 632.991 711.071 648.375C709.067 663.764 706.834 679.128 704.374 694.465C705.462 678.97 706.778 663.501 708.32 648.058C709.814 632.61 711.513 617.185 713.256 601.765C715.065 586.353 716.915 570.945 718.97 555.562C720.975 540.172 723.206 524.809 725.662 509.471Z" fill="black"/>
<path d="M756.793 769.725C757.087 757.586 757.895 745.466 759.087 733.385C760.225 721.298 761.816 709.254 763.712 697.253C764.666 691.254 765.79 685.279 766.923 679.308C768.233 673.369 769.378 667.397 770.988 661.522C773.763 649.661 777.806 638.133 783.048 627.138C782.113 630.034 781.15 632.906 780.16 635.753L777.763 644.499C776.304 650.363 774.87 656.224 773.685 662.15C771.215 673.971 769.058 685.86 767.213 697.817C765.257 709.749 763.522 721.724 761.826 733.712L756.793 769.725Z" fill="black"/>
<path d="M709.049 525.4C711.559 525.568 714.047 525.973 716.481 526.609C718.883 527.2 721.252 527.923 723.575 528.774C725.901 529.623 728.176 530.605 730.39 531.716C732.665 532.806 734.813 534.144 736.793 535.707C734.302 535.43 731.835 534.962 729.415 534.308C727.025 533.692 724.669 532.957 722.353 532.104C720.035 531.254 717.761 530.286 715.542 529.203C713.267 528.135 711.094 526.862 709.049 525.4Z" fill="black"/>
<path d="M768.501 674.344C771.441 678.509 774.032 682.909 776.247 687.5C778.507 692.06 780.518 696.739 782.27 701.517C783.143 703.907 783.927 706.33 784.715 708.748C785.391 711.204 786.184 713.622 786.722 716.116C787.97 721.058 788.817 726.094 789.255 731.173C787.377 726.416 785.795 721.64 784.069 716.909C782.374 712.173 780.704 707.44 778.94 702.74C777.254 698.011 775.459 693.321 773.716 688.598C771.952 683.88 770.19 679.16 768.501 674.344Z" fill="black"/>
<path d="M748.145 799.431C745.39 774.297 746.707 748.888 748.884 723.738C751.172 698.54 755.032 673.51 760.442 648.794C763.242 636.457 766.402 624.212 769.922 612.06C773.449 599.955 776.755 587.797 780.127 575.652C783.446 563.495 786.602 551.293 789.445 539.019C792.504 526.791 794.798 514.384 796.313 501.87C796.023 508.182 795.379 514.472 794.383 520.711C793.477 526.966 792.312 533.176 791.145 539.386C788.64 551.769 785.774 564.073 782.769 576.339C779.808 588.617 776.397 600.78 773.029 612.943C769.635 625.063 766.593 637.27 763.902 649.565C761.11 661.831 758.702 674.176 756.678 686.6C755.654 692.804 754.822 699.046 753.929 705.277C753.16 711.524 752.282 717.759 751.587 724.015C750.133 736.521 749.036 749.071 748.397 761.648C747.58 774.227 747.496 786.842 748.145 799.431Z" fill="black"/>
<path d="M670.471 504.259C671.588 510.385 672.543 516.503 673.577 522.594C674.6 528.68 675.664 534.762 677.06 540.673C677.432 542.138 677.815 543.604 678.296 544.995C678.69 546.324 679.242 547.601 679.939 548.798C680.072 549.017 680.229 549.219 680.408 549.402C680.601 549.611 680.983 549.921 681.249 550.177L682.963 551.79C683.999 552.836 685.088 553.828 686.226 554.763C686.443 554.932 686.675 555.082 686.919 555.209C686.981 555.24 687.086 555.279 687.004 555.259C686.848 555.273 686.697 555.322 686.562 555.403C686.204 555.699 686.39 555.724 686.398 555.453C686.444 555.167 686.462 554.877 686.451 554.588C686.403 553.126 686.23 551.671 685.935 550.238C685.349 547.257 684.681 544.239 683.949 541.236L683.929 541.153C683.885 540.969 683.905 540.774 683.988 540.603C684.071 540.432 684.21 540.295 684.383 540.216C684.555 540.136 684.75 540.119 684.934 540.168C685.118 540.216 685.279 540.327 685.39 540.481C686.193 541.761 687.372 542.761 688.765 543.343C689.106 543.437 689.467 543.432 689.805 543.328C690.144 543.224 690.445 543.025 690.674 542.756C690.956 542.477 691.203 542.164 691.41 541.826L691.954 540.72L691.638 541.931C691.492 542.337 691.297 542.723 691.058 543.082C690.803 543.486 690.439 543.811 690.009 544.02C689.579 544.228 689.099 544.312 688.623 544.262C687.707 544.142 686.837 543.791 686.095 543.24C685.365 542.736 684.693 542.154 684.09 541.503L685.53 540.749C686.615 543.668 687.672 546.604 688.491 549.657C688.945 551.232 689.262 552.843 689.437 554.472C689.477 554.956 689.467 555.443 689.407 555.924C689.377 556.332 689.259 556.728 689.061 557.086C688.864 557.443 688.591 557.754 688.262 557.996C687.808 558.301 687.261 558.435 686.717 558.375C686.523 558.365 686.332 558.33 686.146 558.271C685.991 558.231 685.838 558.18 685.69 558.117C685.23 557.921 684.792 557.678 684.382 557.392C683.064 556.439 681.812 555.399 680.634 554.278L678.939 552.734C678.642 552.458 678.411 552.291 678.06 551.949C677.682 551.593 677.347 551.194 677.062 550.76C675.422 547.877 674.281 544.738 673.686 541.475C672.97 538.394 672.451 535.304 672.037 532.207C671.591 529.115 671.291 526.012 671.032 522.91C670.51 516.708 670.322 510.481 670.471 504.259Z" fill="black"/>
<path d="M683.973 541.439C683.228 539.94 682.577 538.395 682.023 536.815C681.469 535.252 681.005 533.659 680.633 532.044C679.854 528.834 679.634 525.513 679.983 522.229C679.93 525.485 680.439 528.726 681.488 531.809C681.992 533.343 682.582 534.847 683.256 536.315C683.919 537.769 684.67 539.182 685.506 540.545L685.521 540.57C685.646 540.77 685.686 541.011 685.632 541.241C685.579 541.471 685.437 541.67 685.237 541.794C685.037 541.919 684.795 541.959 684.566 541.905C684.336 541.852 684.137 541.71 684.013 541.509C683.999 541.487 683.985 541.463 683.973 541.439Z" fill="black"/>
<path d="M771.771 507.045C773.724 512.627 776.176 518.022 779.098 523.163C780.581 525.609 782.305 527.901 784.242 530.005C786.319 532.121 788.595 534.03 791.04 535.707C787.905 535.243 784.937 533.996 782.411 532.082C779.869 530.143 777.716 527.741 776.065 525.002C774.458 522.292 773.263 519.358 772.517 516.296C771.725 513.281 771.473 510.149 771.771 507.045Z" fill="black"/>
<path d="M647.414 868.797C648.298 866.721 649.548 864.822 651.105 863.189C651.738 862.521 652.599 862.115 653.518 862.054C654.373 862.096 655.191 862.421 655.842 862.976C657.386 864.483 658.744 866.169 659.887 867.998C661.201 869.88 662.549 871.796 664.057 873.677C665.636 875.662 667.581 877.325 669.788 878.575C672.073 879.744 674.622 880.3 677.187 880.19C678.029 880.191 678.87 880.137 679.706 880.03C667.606 882.408 653.819 881.627 647.414 868.797Z" fill="black"/>
<path d="M748.193 828.071C746.65 826.598 745.035 823.741 743.935 818.347C741.15 804.86 732.438 813.981 732.438 813.981C718.718 826.306 715.969 815.128 708.645 810.414C706.511 809.041 696.367 808.835 693.19 815.969C691.991 818.277 690.393 820.356 688.471 822.109C690.415 821.945 692.373 822.089 694.272 822.534C696.165 822.966 698 823.622 699.737 824.486C701.523 825.37 703.148 826.545 704.546 827.965C706.067 829.38 706.972 831.336 707.066 833.413C705.834 832.079 704.382 830.968 702.771 830.13C701.263 829.26 699.72 828.444 698.124 827.645C696.526 826.847 694.929 826.013 693.297 825.143C691.622 824.241 690.01 823.227 688.471 822.109H688.453C685.583 824.872 682.504 827.412 679.245 829.704C681.11 829.292 683.042 829.298 684.905 829.721C686.779 830.124 688.572 830.837 690.21 831.833C691.876 832.829 693.334 834.136 694.504 835.684C695.689 837.215 696.465 839.023 696.757 840.937C695.178 839.783 693.936 838.612 692.516 837.654C691.181 836.654 689.796 835.725 688.365 834.868C685.526 833.093 682.545 831.62 679.245 829.704H679.227C676.761 831.478 674.969 832.614 674.969 832.614C672.893 833.643 670.976 834.655 669.185 835.666C671.159 835.701 673.111 836.085 674.951 836.802C676.809 837.468 678.56 838.4 680.149 839.57C681.807 840.726 683.234 842.183 684.355 843.865C685.546 845.558 686.145 847.598 686.058 849.667C684.929 848.213 683.65 846.881 682.243 845.692C680.93 844.521 679.494 843.492 678.056 842.427C675.199 840.298 672.165 838.346 669.185 835.666H669.167C640.424 851.814 646.03 865.514 646.03 865.514C646.417 866.638 646.88 867.735 647.414 868.797C647.644 866.386 648.467 864.069 649.809 862.054C650.619 860.88 651.842 860.056 653.234 859.747C653.608 859.673 653.989 859.643 654.37 859.658L655.47 859.853C656.149 860.074 656.803 860.365 657.421 860.723L658.983 861.912C659.444 862.355 659.852 862.817 660.295 863.278C661.165 864.201 661.822 865.088 662.584 866.011C664.021 867.856 665.352 869.72 666.789 871.405C667.986 873.127 669.551 874.561 671.371 875.601C673.191 876.642 675.22 877.264 677.31 877.421C681.854 877.649 686.409 877.405 690.902 876.694H690.92C697.278 873.892 703.083 869.973 708.059 865.124C720.993 852.737 737.264 850.785 747.235 843.315C747.448 843.155 747.643 842.995 747.856 842.835C748.946 841.95 749.83 840.838 750.448 839.577C751.066 838.315 751.403 836.935 751.435 835.531C751.467 834.127 751.193 832.733 750.634 831.445C750.074 830.157 749.242 829.006 748.193 828.071ZM728.286 833.182C725.267 836.477 721.873 839.407 718.173 841.913C716.304 843.219 714.306 844.331 712.211 845.231C713.411 843.293 714.802 841.479 716.363 839.819C717.877 838.174 719.482 836.616 721.171 835.152C722.855 833.69 724.627 832.332 726.477 831.088C728.341 829.775 730.339 828.662 732.438 827.77C731.238 829.708 729.847 831.521 728.286 833.182Z" fill="#EC602C"/>
<path d="M707.067 798.909C707.319 801.422 707.237 803.957 706.823 806.448C706.485 808.951 705.813 811.397 704.826 813.721C704.571 811.209 704.653 808.673 705.07 806.183C705.412 803.681 706.084 801.235 707.067 798.909Z" fill="black"/>
<path d="M738.141 817.827C738.027 815.216 738.248 812.601 738.798 810.047C739.272 807.477 740.077 804.979 741.193 802.616C741.31 805.227 741.089 807.842 740.536 810.396C740.058 812.965 739.253 815.462 738.141 817.827Z" fill="black"/>
<path d="M783.945 745.2C782.449 742.868 781.183 740.395 780.166 737.818C780.007 737.392 779.829 736.948 779.651 736.505C779.297 735.546 778.942 734.588 778.622 733.612C779.172 733.541 779.723 733.47 780.273 733.381C780.628 734.198 780.964 735.032 781.302 735.866C781.497 736.38 781.692 736.895 781.869 737.41C782.816 739.932 783.511 742.541 783.945 745.2Z" fill="black"/>
<path d="M805.383 720.053C806.945 721.741 808.253 723.647 809.266 725.711C810.347 727.741 811.123 729.919 811.571 732.175C810.006 730.489 808.698 728.583 807.687 726.517C806.61 724.486 805.834 722.308 805.383 720.053Z" fill="black"/>
<path d="M700.329 365.781C706.231 366.41 712.034 367.315 717.854 367.931C720.743 368.281 723.649 368.475 726.559 368.513C727.992 368.536 729.423 368.412 730.83 368.142C731.524 368.021 732.192 367.78 732.803 367.431C733.407 367.046 733.858 366.462 734.078 365.781C734.054 366.166 733.955 366.543 733.785 366.891C733.616 367.238 733.379 367.548 733.09 367.804C732.494 368.307 731.815 368.703 731.084 368.974C729.646 369.478 728.146 369.788 726.625 369.897C723.639 370.117 720.638 370.05 717.664 369.694C711.756 369.05 705.941 367.737 700.329 365.781Z" fill="black"/>
<path d="M476.223 126.079L525.091 125.534L549.658 125.304L574.315 125.168C590.768 125.11 607.216 124.941 623.717 125.021L648.441 125.094L673.143 125.314H673.158C673.383 125.316 673.599 125.408 673.757 125.569C673.914 125.73 674.002 125.948 674 126.174L673.698 158.524L673.567 190.873L673.62 223.222L673.819 255.571C673.819 255.659 673.803 255.747 673.769 255.829C673.736 255.911 673.687 255.986 673.625 256.049C673.563 256.112 673.489 256.162 673.408 256.197C673.326 256.231 673.239 256.249 673.151 256.249H673.143L645.398 256.54L646.363 255.571L646.527 276.863C646.528 277.056 646.481 277.245 646.389 277.413C646.297 277.582 646.164 277.724 646.002 277.827C645.84 277.929 645.655 277.988 645.464 277.998C645.272 278.009 645.082 277.97 644.91 277.885L644.895 277.878L602.255 256.692L602.81 256.823L571.187 256.927L539.564 256.995L476.318 256.894L476.307 256.893C475.96 256.893 475.627 256.754 475.382 256.507C475.137 256.26 475 255.926 475 255.577L475 255.571C475.143 233.856 475.243 212.132 475.489 190.528L476.223 126.079ZM476.413 126.27L477.147 191.217L477.635 255.571L476.318 254.248L539.564 254.147L571.188 254.214L602.811 254.318H602.818C603.008 254.319 603.196 254.364 603.367 254.449L645.901 275.849L644.27 276.863L644.433 255.571L644.433 255.553C644.434 255.427 644.46 255.303 644.509 255.187C644.558 255.071 644.629 254.966 644.718 254.877C644.808 254.789 644.913 254.719 645.03 254.672C645.146 254.625 645.27 254.601 645.396 254.602H645.398L673.143 254.892L672.467 255.57L672.666 223.222L672.718 190.872L672.587 158.524L672.286 126.175L673.143 127.035L648.638 127.255L624.155 127.327C607.852 127.408 591.497 127.239 575.145 127.181L550.596 127.045L525.957 126.814L476.413 126.27Z" fill="black"/>
<path d="M512.733 227.147H510.973L510.943 225.389L512.717 225.357L512.733 227.147Z" fill="black"/>
<path d="M607.498 225.372H606.611V227.147H607.498V225.372Z" fill="black"/>
<path d="M505.545 172.932L506.037 176.307L506.758 173.266L511.82 155.406H514.668L519.607 173.266L520.311 176.359L520.855 172.914L524.828 155.406H528.221L522.016 181H518.939L513.666 162.35L513.262 160.398L512.857 162.35L507.391 181H504.314L498.127 155.406H501.502L505.545 172.932ZM530.049 171.314C530.049 169.451 530.412 167.775 531.139 166.287C531.877 164.799 532.896 163.65 534.197 162.842C535.51 162.033 537.004 161.629 538.68 161.629C541.27 161.629 543.361 162.525 544.955 164.318C546.561 166.111 547.363 168.496 547.363 171.473V171.701C547.363 173.553 547.006 175.217 546.291 176.693C545.588 178.158 544.574 179.301 543.25 180.121C541.938 180.941 540.426 181.352 538.715 181.352C536.137 181.352 534.045 180.455 532.439 178.662C530.846 176.869 530.049 174.496 530.049 171.543V171.314ZM533.318 171.701C533.318 173.811 533.805 175.504 534.777 176.781C535.762 178.059 537.074 178.697 538.715 178.697C540.367 178.697 541.68 178.053 542.652 176.764C543.625 175.463 544.111 173.646 544.111 171.314C544.111 169.229 543.613 167.541 542.617 166.252C541.633 164.951 540.32 164.301 538.68 164.301C537.074 164.301 535.779 164.939 534.795 166.217C533.811 167.494 533.318 169.322 533.318 171.701ZM568.281 176.518L571.938 161.98H575.189L569.652 181H567.016L562.393 166.586L557.893 181H555.256L549.736 161.98H552.971L556.715 176.219L561.145 161.98H563.764L568.281 176.518ZM591.854 157.375V161.98H595.404V164.494H591.854V176.289C591.854 177.051 592.012 177.625 592.328 178.012C592.645 178.387 593.184 178.574 593.945 178.574C594.32 178.574 594.836 178.504 595.492 178.363V181C594.637 181.234 593.805 181.352 592.996 181.352C591.543 181.352 590.447 180.912 589.709 180.033C588.971 179.154 588.602 177.906 588.602 176.289V164.494H585.139V161.98H588.602V157.375H591.854ZM602.471 164.283C603.912 162.514 605.787 161.629 608.096 161.629C612.115 161.629 614.143 163.896 614.178 168.432V181H610.926V168.414C610.914 167.043 610.598 166.029 609.977 165.373C609.367 164.717 608.412 164.389 607.111 164.389C606.057 164.389 605.131 164.67 604.334 165.232C603.537 165.795 602.916 166.533 602.471 167.447V181H599.219V154H602.471V164.283ZM630.789 181C630.602 180.625 630.449 179.957 630.332 178.996C628.82 180.566 627.016 181.352 624.918 181.352C623.043 181.352 621.502 180.824 620.295 179.77C619.1 178.703 618.502 177.355 618.502 175.727C618.502 173.746 619.252 172.211 620.752 171.121C622.264 170.02 624.385 169.469 627.115 169.469H630.279V167.975C630.279 166.838 629.939 165.936 629.26 165.268C628.58 164.588 627.578 164.248 626.254 164.248C625.094 164.248 624.121 164.541 623.336 165.127C622.551 165.713 622.158 166.422 622.158 167.254H618.889C618.889 166.305 619.223 165.391 619.891 164.512C620.57 163.621 621.484 162.918 622.633 162.402C623.793 161.887 625.064 161.629 626.447 161.629C628.639 161.629 630.355 162.18 631.598 163.281C632.84 164.371 633.484 165.877 633.531 167.799V176.553C633.531 178.299 633.754 179.688 634.199 180.719V181H630.789ZM625.393 178.521C626.412 178.521 627.379 178.258 628.293 177.73C629.207 177.203 629.869 176.518 630.279 175.674V171.771H627.73C623.746 171.771 621.754 172.938 621.754 175.27C621.754 176.289 622.094 177.086 622.773 177.66C623.453 178.234 624.326 178.521 625.393 178.521ZM643.041 157.375V161.98H646.592V164.494H643.041V176.289C643.041 177.051 643.199 177.625 643.516 178.012C643.832 178.387 644.371 178.574 645.133 178.574C645.508 178.574 646.023 178.504 646.68 178.363V181C645.824 181.234 644.992 181.352 644.184 181.352C642.73 181.352 641.635 180.912 640.896 180.033C640.158 179.154 639.789 177.906 639.789 176.289V164.494H636.326V161.98H639.789V157.375H643.041ZM523.896 218.518L527.553 203.98H530.805L525.268 223H522.631L518.008 208.586L513.508 223H510.871L505.352 203.98H508.586L512.33 218.219L516.76 203.98H519.379L523.896 218.518ZM545.869 223C545.682 222.625 545.529 221.957 545.412 220.996C543.9 222.566 542.096 223.352 539.998 223.352C538.123 223.352 536.582 222.824 535.375 221.77C534.18 220.703 533.582 219.355 533.582 217.727C533.582 215.746 534.332 214.211 535.832 213.121C537.344 212.02 539.465 211.469 542.195 211.469H545.359V209.975C545.359 208.838 545.02 207.936 544.34 207.268C543.66 206.588 542.658 206.248 541.334 206.248C540.174 206.248 539.201 206.541 538.416 207.127C537.631 207.713 537.238 208.422 537.238 209.254H533.969C533.969 208.305 534.303 207.391 534.971 206.512C535.65 205.621 536.564 204.918 537.713 204.402C538.873 203.887 540.145 203.629 541.527 203.629C543.719 203.629 545.436 204.18 546.678 205.281C547.92 206.371 548.564 207.877 548.611 209.799V218.553C548.611 220.299 548.834 221.688 549.279 222.719V223H545.869ZM540.473 220.521C541.492 220.521 542.459 220.258 543.373 219.73C544.287 219.203 544.949 218.518 545.359 217.674V213.771H542.811C538.826 213.771 536.834 214.938 536.834 217.27C536.834 218.289 537.174 219.086 537.854 219.66C538.533 220.234 539.406 220.521 540.473 220.521ZM564.783 217.955C564.783 217.076 564.449 216.396 563.781 215.916C563.125 215.424 561.971 215.002 560.318 214.65C558.678 214.299 557.371 213.877 556.398 213.385C555.438 212.893 554.723 212.307 554.254 211.627C553.797 210.947 553.568 210.139 553.568 209.201C553.568 207.643 554.225 206.324 555.537 205.246C556.861 204.168 558.549 203.629 560.6 203.629C562.756 203.629 564.502 204.186 565.838 205.299C567.186 206.412 567.859 207.836 567.859 209.57H564.59C564.59 208.68 564.209 207.912 563.447 207.268C562.697 206.623 561.748 206.301 560.6 206.301C559.416 206.301 558.49 206.559 557.822 207.074C557.154 207.59 556.82 208.264 556.82 209.096C556.82 209.881 557.131 210.473 557.752 210.871C558.373 211.27 559.492 211.65 561.109 212.014C562.738 212.377 564.057 212.811 565.064 213.314C566.072 213.818 566.816 214.428 567.297 215.143C567.789 215.846 568.035 216.707 568.035 217.727C568.035 219.426 567.355 220.791 565.996 221.822C564.637 222.842 562.873 223.352 560.705 223.352C559.182 223.352 557.834 223.082 556.662 222.543C555.49 222.004 554.57 221.254 553.902 220.293C553.246 219.32 552.918 218.271 552.918 217.146H556.17C556.229 218.236 556.662 219.104 557.471 219.748C558.291 220.381 559.369 220.697 560.705 220.697C561.936 220.697 562.92 220.451 563.658 219.959C564.408 219.455 564.783 218.787 564.783 217.955ZM580.48 223L583.24 207.145H580.41L580.973 203.98H583.785L584.066 201.941C584.371 199.973 585.162 198.414 586.439 197.266C587.729 196.117 589.387 195.555 591.414 195.578C592.129 195.602 592.955 195.719 593.893 195.93L593.436 199.27C592.92 199.152 592.398 199.094 591.871 199.094C590.875 199.082 590.061 199.352 589.428 199.902C588.795 200.453 588.391 201.215 588.215 202.188L587.951 203.98H591.713L591.15 207.145H587.406L584.646 223H580.48ZM602.875 223C602.734 222.531 602.676 221.939 602.699 221.225C601.129 222.689 599.436 223.398 597.619 223.352C595.967 223.328 594.596 222.801 593.506 221.77C592.428 220.727 591.924 219.408 591.994 217.814C592.088 215.811 592.955 214.234 594.596 213.086C596.236 211.938 598.439 211.363 601.205 211.363L603.912 211.398L604.158 210.098C604.229 209.641 604.229 209.213 604.158 208.814C603.924 207.549 603.086 206.898 601.645 206.863C600.754 206.84 599.969 207.068 599.289 207.549C598.621 208.018 598.211 208.65 598.059 209.447L593.893 209.482C593.975 208.311 594.391 207.285 595.141 206.406C595.891 205.516 596.887 204.824 598.129 204.332C599.371 203.84 600.684 203.605 602.066 203.629C604.141 203.676 605.758 204.303 606.918 205.51C608.078 206.705 608.559 208.258 608.359 210.168L606.9 219.08L606.76 220.662C606.725 221.354 606.812 222.027 607.023 222.684L607.006 223H602.875ZM598.586 219.941C599.465 219.965 600.279 219.766 601.029 219.344C601.779 218.91 602.418 218.354 602.945 217.674L603.596 214.07L601.609 214.053C600.039 214.053 598.785 214.352 597.848 214.949C596.91 215.535 596.377 216.344 596.248 217.375C596.154 218.16 596.324 218.781 596.758 219.238C597.203 219.684 597.812 219.918 598.586 219.941ZM622.035 217.727C622.234 216.566 621.479 215.764 619.768 215.318C618.068 214.861 616.908 214.498 616.287 214.229C613.873 213.197 612.707 211.627 612.789 209.518C612.848 207.807 613.621 206.395 615.109 205.281C616.609 204.156 618.402 203.605 620.488 203.629C622.504 203.652 624.145 204.221 625.41 205.334C626.688 206.447 627.314 207.906 627.291 209.711L623.16 209.693C623.184 208.814 622.943 208.129 622.439 207.637C621.936 207.133 621.244 206.869 620.365 206.846C619.439 206.846 618.643 207.074 617.975 207.531C617.318 207.988 616.938 208.586 616.832 209.324C616.668 210.391 617.418 211.135 619.082 211.557C620.746 211.967 621.977 212.348 622.773 212.699C625.094 213.719 626.213 215.312 626.131 217.48C626.072 218.688 625.674 219.742 624.936 220.645C624.209 221.535 623.23 222.221 622 222.701C620.77 223.17 619.463 223.387 618.08 223.352C616.006 223.328 614.283 222.725 612.912 221.541C611.553 220.357 610.885 218.84 610.908 216.988L614.934 217.006C614.957 218.025 615.262 218.799 615.848 219.326C616.434 219.854 617.236 220.123 618.256 220.135C619.287 220.135 620.143 219.924 620.822 219.502C621.514 219.068 621.918 218.477 622.035 217.727ZM638.207 199.357L637.398 203.98H640.65L640.105 207.145H636.836L635.043 217.797C635.008 218.09 635.002 218.354 635.025 218.588C635.096 219.35 635.564 219.748 636.432 219.783C636.865 219.783 637.357 219.73 637.908 219.625L637.627 222.965C636.76 223.211 635.887 223.334 635.008 223.334C633.555 223.311 632.465 222.818 631.738 221.857C631.023 220.885 630.742 219.602 630.895 218.008L632.67 207.145H629.629L630.191 203.98H633.215L634.023 199.357H638.207Z" fill="#554A4A"/>
</svg>
