<svg width="509" height="655" viewBox="0 0 509 655" fill="none" xmlns="http://www.w3.org/2000/svg">
<path d="M382.188 627.643C363.128 629.911 336.15 631.292 298.031 630.849L298.899 614.571C298.899 614.571 353.917 612.534 359.142 618.432C359.142 618.432 359.975 598.717 352.482 594.962C352.482 594.962 363.447 594.661 377.157 595.511L377.635 621.178C377.659 622.588 378.105 623.958 378.917 625.111C379.729 626.264 380.868 627.146 382.188 627.643V627.643Z" fill="#EC602C"/>
<path d="M421.423 617.812V604.403C423.656 605.508 425.691 606.975 427.446 608.743C427.446 608.743 429.66 613.012 421.423 617.812Z" fill="#EC602C"/>
<path d="M349.576 439.739C348.283 448.737 346.636 457.647 344.864 466.521C343.129 475.396 341.18 484.235 339.196 493.074C337.141 501.877 335.033 510.681 332.748 519.449C332.341 521.044 331.916 522.655 331.473 524.25C337.265 524.002 343.111 523.647 348.885 523.098C352.074 522.779 355.262 522.443 358.38 521.858C359.945 521.574 361.494 521.207 363.021 520.76C364.532 520.393 365.911 519.614 367.006 518.511L367.024 518.493C367.049 518.464 367.079 518.44 367.113 518.422L349.576 439.739ZM318.472 536.897C313.438 538.481 308.177 539.224 302.901 539.093C297.752 538.97 292.622 538.425 287.561 537.464C282.513 536.56 277.536 535.515 272.541 534.453C262.478 532.647 252.562 530.107 242.87 526.853C233.227 523.476 223.883 519.299 214.936 514.365L214.918 514.348C209.604 524.427 205.53 530.928 203.865 530.928C203.865 530.928 309.402 584.493 320.881 562.812L325.344 545.594C326.018 540.936 326.797 536.295 327.629 531.671C324.976 534.035 321.856 535.816 318.472 536.897ZM215.007 531.034C214.319 531.009 213.667 530.719 213.189 530.223C212.71 529.727 212.443 529.066 212.443 528.377C212.443 527.688 212.71 527.026 213.189 526.531C213.667 526.035 214.319 525.744 215.007 525.72C215.695 525.744 216.347 526.035 216.826 526.531C217.304 527.026 217.571 527.688 217.571 528.377C217.571 529.066 217.304 529.728 216.826 530.223C216.347 530.719 215.695 531.009 215.007 531.034V531.034ZM224.254 535.498C223.565 535.473 222.913 535.182 222.435 534.687C221.957 534.191 221.69 533.529 221.69 532.841C221.69 532.152 221.957 531.49 222.435 530.995C222.913 530.499 223.565 530.208 224.254 530.184C224.942 530.208 225.594 530.499 226.072 530.995C226.55 531.49 226.817 532.152 226.817 532.841C226.817 533.529 226.55 534.191 226.072 534.687C225.594 535.182 224.942 535.473 224.253 535.498H224.254ZM234.457 539.643C233.768 539.618 233.116 539.327 232.638 538.832C232.16 538.336 231.892 537.674 231.892 536.986C231.892 536.297 232.16 535.635 232.638 535.139C233.116 534.644 233.768 534.353 234.457 534.329C235.145 534.353 235.797 534.644 236.275 535.139C236.753 535.635 237.021 536.297 237.021 536.986C237.021 537.674 236.753 538.336 236.275 538.832C235.797 539.327 235.145 539.618 234.456 539.643H234.457ZM245.297 544.106C244.609 544.082 243.957 543.791 243.479 543.296C243 542.8 242.733 542.138 242.733 541.449C242.733 540.761 243 540.099 243.479 539.603C243.957 539.108 244.609 538.817 245.297 538.792C245.985 538.817 246.637 539.108 247.116 539.603C247.594 540.099 247.861 540.761 247.861 541.449C247.861 542.138 247.594 542.8 247.116 543.296C246.637 543.791 245.985 544.082 245.297 544.106H245.297ZM256.457 548.889C255.768 548.865 255.116 548.574 254.638 548.078C254.16 547.583 253.893 546.921 253.893 546.232C253.893 545.543 254.16 544.882 254.638 544.386C255.116 543.89 255.768 543.6 256.457 543.575C257.145 543.6 257.797 543.89 258.275 544.386C258.753 544.882 259.02 545.543 259.02 546.232C259.02 546.921 258.753 547.583 258.275 548.078C257.797 548.574 257.145 548.864 256.457 548.889L256.457 548.889ZM269.529 553.672C268.841 553.647 268.189 553.356 267.711 552.861C267.233 552.365 266.965 551.703 266.965 551.015C266.965 550.326 267.233 549.664 267.711 549.169C268.189 548.673 268.841 548.382 269.529 548.358C270.217 548.382 270.869 548.673 271.347 549.169C271.826 549.664 272.093 550.326 272.093 551.015C272.093 551.703 271.826 552.365 271.347 552.861C270.869 553.356 270.217 553.647 269.529 553.672L269.529 553.672ZM282.921 558.136C282.232 558.111 281.58 557.82 281.102 557.325C280.624 556.829 280.357 556.167 280.357 555.478C280.357 554.79 280.624 554.128 281.102 553.632C281.58 553.137 282.232 552.846 282.921 552.821C283.609 552.846 284.261 553.137 284.739 553.632C285.217 554.128 285.484 554.79 285.484 555.479C285.484 556.167 285.217 556.829 284.739 557.325C284.261 557.82 283.609 558.111 282.921 558.136H282.921ZM296.631 561.324C295.943 561.299 295.291 561.009 294.812 560.513C294.334 560.017 294.067 559.356 294.067 558.667C294.067 557.978 294.334 557.316 294.812 556.821C295.291 556.325 295.943 556.034 296.631 556.01C297.319 556.035 297.971 556.325 298.449 556.821C298.927 557.317 299.194 557.978 299.194 558.667C299.194 559.356 298.927 560.017 298.449 560.513C297.971 561.008 297.319 561.299 296.631 561.324L296.631 561.324ZM310.341 562.599C309.653 562.575 309.001 562.284 308.522 561.789C308.044 561.293 307.777 560.631 307.777 559.942C307.777 559.254 308.044 558.592 308.522 558.096C309.001 557.601 309.653 557.31 310.341 557.285C311.029 557.31 311.68 557.601 312.158 558.097C312.636 558.592 312.903 559.254 312.903 559.942C312.903 560.631 312.636 561.292 312.158 561.788C311.68 562.283 311.029 562.574 310.341 562.599V562.599ZM367.201 518.847C366.254 520.171 364.944 521.192 363.428 521.787C361.936 522.497 360.39 523.089 358.805 523.559C355.652 524.48 352.464 525.206 349.258 525.808C343.167 526.872 337.023 527.6 330.853 527.987C330.663 528.288 330.456 528.577 330.233 528.855C329.613 531.158 328.976 533.461 328.302 535.746C328.732 535.429 329.257 535.266 329.79 535.285C330.479 535.31 331.131 535.6 331.609 536.096C332.087 536.592 332.355 537.253 332.355 537.942C332.355 538.631 332.087 539.293 331.609 539.789C331.131 540.284 330.479 540.575 329.79 540.599C329.26 540.621 328.737 540.468 328.302 540.164C327.867 539.86 327.543 539.422 327.381 538.916C326.726 541.148 326.053 543.38 325.344 545.594C325.344 545.594 369.345 546.232 371.895 539.855L367.201 518.847ZM341.269 539.005C340.581 538.98 339.929 538.69 339.45 538.194C338.972 537.698 338.705 537.037 338.705 536.348C338.705 535.659 338.972 534.997 339.45 534.502C339.929 534.006 340.581 533.716 341.269 533.691C341.957 533.716 342.609 534.006 343.087 534.502C343.565 534.997 343.833 535.659 343.833 536.348C343.833 537.037 343.565 537.699 343.087 538.194C342.609 538.69 341.957 538.98 341.269 539.005H341.269ZM352.428 537.411C351.74 537.386 351.088 537.095 350.61 536.6C350.132 536.104 349.864 535.442 349.864 534.754C349.864 534.065 350.132 533.403 350.61 532.908C351.088 532.412 351.74 532.121 352.428 532.097C353.116 532.121 353.768 532.412 354.246 532.908C354.724 533.403 354.992 534.065 354.992 534.754C354.992 535.442 354.724 536.104 354.246 536.6C353.768 537.095 353.116 537.386 352.428 537.411H352.428ZM363.907 535.179C363.218 535.154 362.566 534.864 362.088 534.368C361.61 533.872 361.343 533.211 361.343 532.522C361.343 531.833 361.61 531.171 362.088 530.676C362.566 530.18 363.218 529.889 363.907 529.865C364.595 529.889 365.247 530.18 365.725 530.676C366.204 531.171 366.471 531.833 366.471 532.522C366.471 533.211 366.204 533.873 365.725 534.368C365.247 534.864 364.595 535.155 363.906 535.179L363.907 535.179ZM350.214 346.637C332.943 334.556 263.666 321.306 220.711 313.991C210.574 312.272 201.261 307.332 194.152 299.905C187.044 292.477 182.518 282.956 181.245 272.754L173.061 273.48C130.283 436.958 69.7742 354.023 69.7742 354.023L70.6421 358.133C75.1768 377.175 85.9466 392.904 107.894 397.651C107.894 397.651 156.995 414.869 255.837 404.028L266.04 403.391C266.04 403.391 233.376 479.346 215.096 514.029L243.915 523.878C253.534 526.978 262.922 530.945 272.788 533.354C277.709 534.589 282.72 535.43 287.774 535.87C292.784 536.344 297.822 536.457 302.848 536.206C307.759 536.035 312.618 535.139 317.267 533.549C321.711 532.013 325.543 529.088 328.196 525.206L328.214 525.171C328.403 524.909 328.652 524.697 328.94 524.551C329.312 522.638 329.684 520.742 330.056 518.829C331.81 509.955 333.758 501.116 335.742 492.277C337.779 483.473 339.887 474.652 342.172 465.901C344.439 457.133 346.848 448.4 349.576 439.739C349.576 439.739 375.721 364.492 350.214 346.637L350.214 346.637Z" fill="#020202"/>
<path d="M215.096 514.029C215.043 514.139 214.984 514.246 214.918 514.348C214.881 514.324 214.855 514.287 214.845 514.244C214.835 514.201 214.842 514.155 214.865 514.118C214.888 514.083 214.92 514.056 214.958 514.04C214.996 514.025 215.038 514.021 215.078 514.029H215.096Z" fill="white"/>
<path d="M367.307 518.688C367.278 518.745 367.243 518.798 367.201 518.847L367.113 518.422C367.168 518.417 367.224 518.429 367.272 518.458C367.3 518.488 367.318 518.526 367.324 518.567C367.331 518.608 367.325 518.65 367.307 518.688V518.688Z" fill="white"/>
<path d="M200.961 226.132C201.723 228.435 202.485 230.737 203.228 233.058C202.148 233.076 201.103 233.076 200.058 233.076C199.473 231.039 198.889 229.002 198.322 226.947C195.08 215.522 192.057 204.037 189.253 192.494C193.38 203.636 197.282 214.848 200.961 226.132Z" fill="#020202"/>
<path d="M230.791 328.675C226.681 317.533 222.778 306.321 219.082 295.037C216.283 286.57 213.591 278.068 210.934 269.565C212.156 269.423 213.325 269.282 214.441 269.14C216.939 277.483 219.401 285.844 221.739 294.222C224.981 305.648 227.998 317.132 230.791 328.675Z" fill="#020202"/>
<path d="M105.112 198.836L98.5761 211.678H98.6292C100.066 212.236 101.575 212.587 103.111 212.723C105.449 212.953 108.195 213.148 111.206 213.272C109.169 208.454 107.114 203.654 105.112 198.836ZM118.575 199.792L112.446 213.325C116.502 213.485 121.019 213.573 125.642 213.573L118.575 199.792ZM139.14 213.414L133.383 200.217L127.201 213.591C131.187 213.591 135.243 213.556 139.175 213.502C139.175 213.467 139.158 213.449 139.14 213.414H139.14ZM146.048 199.881L140.663 213.396C140.65 213.428 140.632 213.458 140.61 213.485C143.551 213.432 146.402 213.378 149.077 213.308L153.081 213.432L146.048 199.881ZM159.369 198.924L154.161 213.396C154.143 213.414 154.143 213.449 154.126 213.467L157.633 213.573C157.633 213.573 157.65 213.396 157.686 213.06C163.461 212.882 167.198 212.723 167.198 212.723L159.369 198.924ZM172.3 182.114C167.198 155.969 168.473 145.766 168.473 145.766C168.763 142.794 168.852 139.805 168.739 136.821C167.924 134.483 168.881 124.882 169.111 126.228C169.412 124.612 169.8 122.776 170.196 121.002C170.706 118.709 170.476 116.314 169.538 114.16C168.601 112.007 167.004 110.207 164.978 109.018L127.662 87.0989C127.662 87.0989 87.4875 108.78 84.2991 145.128C81.1106 181.476 78.5599 228.665 78.5599 228.665L96.0609 231.499L98.5761 211.678L104.847 197.914C104.874 197.857 104.916 197.809 104.969 197.775C105.023 197.741 105.085 197.723 105.148 197.723C105.211 197.723 105.273 197.741 105.326 197.775C105.379 197.809 105.422 197.857 105.449 197.914V197.932C107.61 202.573 109.718 207.232 111.826 211.89L117.848 197.755C117.93 197.573 118.08 197.431 118.265 197.358C118.45 197.285 118.657 197.288 118.84 197.365C118.994 197.433 119.119 197.552 119.195 197.702L119.212 197.72L126.369 211.43L132.604 197.702C132.651 197.595 132.718 197.499 132.802 197.419C132.887 197.338 132.986 197.276 133.095 197.235C133.204 197.193 133.32 197.174 133.437 197.178C133.553 197.183 133.667 197.21 133.773 197.259C133.97 197.356 134.127 197.519 134.216 197.72L139.884 210.969L145.251 197.773H145.269C145.342 197.587 145.485 197.438 145.668 197.359C145.851 197.279 146.058 197.275 146.243 197.348C146.412 197.423 146.55 197.554 146.633 197.72L153.559 211.749L158.961 197.932H158.979C158.994 197.887 159.018 197.845 159.05 197.81C159.082 197.774 159.12 197.746 159.163 197.726C159.207 197.706 159.253 197.695 159.301 197.694C159.348 197.693 159.396 197.702 159.44 197.72C159.515 197.759 159.577 197.821 159.617 197.897L167.198 212.723C167.198 212.723 177.401 208.259 172.3 182.114H172.3ZM105.112 150.23C104.594 153.634 104.392 157.08 104.51 160.521C104.528 162.24 104.74 163.922 104.864 165.658C105.042 167.447 105.201 169.254 105.254 171.079C105.414 174.785 105.045 178.495 104.156 182.096C103.654 183.978 102.853 185.766 101.782 187.393C101.489 187.814 101.169 188.216 100.826 188.597L99.94 189.554C99.3692 190.169 98.8311 190.813 98.3281 191.485C97.309 192.809 96.4581 194.255 95.7951 195.789C95.1017 197.346 94.5561 198.965 94.1654 200.625C93.6199 202.249 93.5078 203.987 93.8402 205.668C94.1727 207.349 94.9381 208.913 96.0608 210.208C94.5216 209.18 93.3929 207.644 92.8723 205.868C92.3691 204.072 92.2246 202.194 92.4473 200.341C92.6644 198.519 93.056 196.722 93.6164 194.974C94.203 193.184 95.025 191.481 96.0609 189.908C96.5568 189.129 97.1059 188.367 97.6727 187.641L98.5407 186.596C98.771 186.312 98.9835 185.993 99.1961 185.675C100.001 184.299 100.581 182.804 100.914 181.246C101.625 177.942 101.898 174.56 101.729 171.185C101.694 169.467 101.57 167.731 101.428 166.013C101.339 164.224 101.091 162.381 101.162 160.557C101.175 156.909 101.591 153.273 102.402 149.716C103.901 142.638 107.099 136.03 111.72 130.462C108.353 136.603 106.115 143.298 105.112 150.23H105.112ZM137.439 114.041C135.456 114.697 133.525 115.441 131.629 116.238C127.786 117.796 124.119 119.656 120.009 121.534C121.134 119.553 122.639 117.813 124.438 116.415C126.208 114.995 128.17 113.832 130.265 112.961C132.362 112.069 134.586 111.513 136.855 111.313C139.126 111.068 141.423 111.291 143.604 111.969C141.443 112.784 139.406 113.297 137.439 114.041H137.439Z" fill="#020202"/>
<path d="M82.516 220.664C83.2124 227.95 83.3726 235.237 83.4012 242.523C83.3762 249.81 83.2167 257.096 82.516 264.383C81.8153 257.096 81.6557 249.81 81.631 242.523C81.6596 235.237 81.8195 227.95 82.516 220.664Z" fill="#020202"/>
<path d="M212.549 535.193C209.028 544.709 205.325 554.148 201.67 563.607L198.873 570.692C197.908 573.094 196.772 575.425 195.474 577.665C192.746 581.69 191.09 586.344 190.66 591.187C190.531 593.451 191.047 595.704 192.148 597.686C193.42 599.649 195.042 601.362 196.932 602.741C200.894 605.768 205.05 608.533 209.372 611.019C218.052 616.078 227.078 620.682 236.157 625.02L234.084 625.509C237.813 620.857 241.597 616.249 245.386 611.646L245.758 613.934C240.898 610.315 237.177 605.381 235.034 599.714C233.954 596.939 233.266 594.027 232.989 591.063C232.668 588.071 232.944 585.045 233.801 582.16C234.669 579.348 235.927 576.673 237.539 574.211L241.918 566.834C244.833 561.915 247.747 556.994 250.737 552.115C248.187 557.238 245.561 562.318 242.935 567.398L239.003 575.022C238.358 576.31 237.648 577.542 237.118 578.797C236.571 580.057 236.13 581.361 235.801 582.695C235.136 585.34 235.002 588.089 235.406 590.785C235.743 593.513 236.459 596.18 237.533 598.709C238.593 601.229 239.989 603.594 241.684 605.739C243.324 607.868 245.268 609.745 247.454 611.309L247.474 611.323C247.645 611.441 247.791 611.591 247.904 611.765C248.017 611.94 248.095 612.135 248.133 612.339C248.171 612.543 248.168 612.753 248.124 612.956C248.081 613.16 247.998 613.352 247.88 613.523L247.826 613.598C244.166 618.305 240.502 623.008 236.782 627.667C236.541 627.968 236.206 628.18 235.83 628.269C235.454 628.358 235.059 628.318 234.709 628.156C225.443 623.894 216.4 619.162 207.616 613.98C203.153 611.4 198.891 608.488 194.865 605.269C193.842 604.423 192.865 603.523 191.939 602.573C190.947 601.572 190.098 600.439 189.418 599.204C188.081 596.705 187.48 593.877 187.686 591.05C188.281 585.755 190.222 580.702 193.324 576.37C195.842 572.035 198.047 567.525 199.923 562.875C204.102 553.636 208.234 544.376 212.549 535.193Z" fill="#020202"/>
<path d="M175.49 609.37L183.78 595.341C183.78 595.341 233.52 618.936 235.433 626.588C235.433 626.588 245.282 609.486 240.357 602.685C240.357 602.685 294.738 629.139 300.477 649.545C300.477 649.545 300.477 676.327 175.49 609.37Z" fill="#EC602C"/>
<path d="M252.78 279.875L253.042 281.741C253.073 282.359 253.214 282.965 253.456 283.534C253.935 284.655 254.816 285.556 255.926 286.06C256.465 286.301 257.044 286.438 257.634 286.465C258.187 286.482 258.96 286.429 259.612 286.415L263.694 286.275C269.137 286.068 274.58 285.914 280.023 285.811C290.909 285.604 301.795 285.26 312.681 285.166C334.453 284.892 356.225 284.714 377.997 285.056L381.991 285.136C382.633 285.131 383.261 284.944 383.802 284.596C384.342 284.248 384.772 283.753 385.042 283.17C385.246 282.699 385.373 282.199 385.42 281.688L386.088 277.659L388.766 261.547L391.451 245.436L393.958 229.299C397.216 207.772 399.942 186.168 402.556 164.549C402.775 163.348 402.868 162.127 402.836 160.907C402.687 159.949 402.174 159.086 401.404 158.498C400.667 157.925 399.741 157.653 398.811 157.734C397.881 157.816 397.017 158.247 396.391 158.939C396.095 159.276 395.864 159.665 395.711 160.088C395.553 160.589 395.46 161.108 395.434 161.633L394.965 165.689L393.984 173.796C392.685 184.605 391.376 195.413 389.976 206.209C387.233 227.808 384.524 249.412 381.52 270.976L381.232 272.997C381.175 273.448 381.09 273.896 380.976 274.337C380.845 274.837 380.664 275.322 380.437 275.786C379.53 277.662 377.946 279.124 376.004 279.878C375.062 280.237 374.063 280.424 373.055 280.432L371.014 280.462L366.93 280.521C361.486 280.605 356.042 280.684 350.597 280.703L317.93 280.917C307.041 280.991 296.151 280.886 285.264 280.879C282.556 280.855 279.786 280.903 277.131 280.812L269.162 280.509L252.78 279.875ZM252.404 279.499L268.68 278.865L277.04 278.562L285.233 278.194C296.112 277.724 306.989 277.156 317.867 276.768L350.501 275.593C355.94 275.38 361.379 275.228 366.818 275.081L370.898 274.966L372.938 274.909C373.294 274.909 373.647 274.841 373.978 274.71C374.597 274.455 375.098 273.976 375.379 273.368C375.45 273.22 375.504 273.065 375.541 272.906C375.592 272.686 375.628 272.464 375.649 272.24L375.91 270.215C378.759 248.63 381.901 227.085 385.011 205.536C386.537 194.757 388.154 183.991 389.781 173.226L390.995 165.151L391.622 161.117C391.717 160.285 391.919 159.47 392.224 158.69C392.577 157.846 393.087 157.075 393.726 156.419C395.005 155.109 396.733 154.334 398.562 154.251C400.368 154.164 402.138 154.77 403.513 155.945C404.876 157.098 405.745 158.73 405.942 160.504C406.022 161.322 405.978 162.147 405.813 162.951L405.481 164.965C401.952 186.455 398.536 207.96 395.651 229.54L393.551 245.735L391.629 261.955L389.7 278.174L389.216 282.229C389.15 283.076 388.962 283.91 388.658 284.704C388.31 285.569 387.8 286.36 387.155 287.034C385.843 288.405 384.061 289.229 382.167 289.339L377.997 289.44C356.225 289.783 334.453 289.605 312.681 289.331C301.795 289.236 290.909 288.892 280.023 288.685C274.58 288.589 269.137 288.435 263.694 288.222L259.612 288.082C258.903 288.047 258.313 288.06 257.508 287.986C256.739 287.898 255.993 287.666 255.31 287.301C254.301 286.774 253.465 285.966 252.903 284.975C252.341 283.985 252.077 282.853 252.142 281.715C252.204 280.929 252.317 280.174 252.404 279.499V279.499Z" fill="#020202"/>
<path d="M222.36 53.6276C222.36 53.6276 191.433 54.5842 183.78 50.4392C183.78 50.4392 186.331 39.2796 178.041 40.2362C169.751 41.1928 172.886 57.4537 177.058 57.4537C177.058 57.4537 164.969 69.5698 154.447 66.0625C154.447 66.0625 137.854 20.7868 173.731 8.98965C209.607 -2.80751 217.578 21.4245 217.578 21.4245C217.578 21.4245 253.288 38.9608 222.36 53.6276" fill="#020202"/>
<path d="M154.285 65.992C155.17 63.9928 156.599 62.2821 158.409 61.0545C160.202 59.8319 162.177 58.8999 164.261 58.2929C166.338 57.6794 168.461 57.2396 170.61 56.9781C172.771 56.7077 174.949 56.6022 177.126 56.6625C177.335 56.6692 177.533 56.758 177.676 56.9097C177.82 57.0614 177.898 57.2637 177.894 57.4727C177.889 57.6816 177.802 57.8803 177.652 58.0257C177.502 58.171 177.3 58.2512 177.091 58.2488L177.058 58.2484C176.566 58.2201 176.086 58.0873 175.65 57.8588C175.213 57.6303 174.831 57.3114 174.527 56.9234C173.989 56.2943 173.542 55.5933 173.197 54.8407C172.529 53.4035 172.068 51.8791 171.827 50.3127C171.558 48.7274 171.528 47.1108 171.737 45.5167C171.926 43.7545 172.644 42.0908 173.798 40.7455C174.455 40.033 175.26 39.4725 176.156 39.1029C177.02 38.7738 177.932 38.5901 178.856 38.5593C179.815 38.5146 180.772 38.6619 181.673 38.9925C182.65 39.3596 183.509 39.986 184.158 40.8045C185.242 42.2949 185.851 44.0784 185.904 45.9208C186 47.5703 185.882 49.2252 185.554 50.8445L184.647 48.8403C185.804 49.3583 187.028 49.7134 188.283 49.8955C189.632 50.134 191.036 50.2872 192.448 50.4045C195.276 50.6509 198.155 50.7663 201.043 50.8213C206.833 50.9244 212.613 50.8567 218.553 51.0399C219.303 51.0733 220.054 51.1148 220.852 51.2024C221.292 51.2466 221.728 51.319 222.159 51.4191C222.528 51.5022 222.88 51.646 223.202 51.8448C223.406 51.9807 223.586 52.1499 223.734 52.3454C223.967 52.6589 224.098 53.0359 224.111 53.426C224.123 53.8161 224.016 54.2008 223.805 54.5287L223.725 54.6541C223.088 55.8137 222.559 57.0292 222.143 58.2852C221.181 60.8953 220.496 63.5991 220.098 66.3522C220.032 66.8342 220.036 67.3232 220.111 67.804L220.951 69.7999L221.802 71.814L222.233 72.8417C222.531 73.5667 222.639 74.3556 222.546 75.1339C222.454 75.9122 222.164 76.654 221.705 77.2891C221.103 78.1093 220.245 78.705 219.266 78.9818L215.08 80.2494L215.789 79.5954C214.207 82.9375 212.35 86.1421 210.237 89.1759C209.175 90.7047 207.989 92.1431 206.691 93.4764C205.378 94.8752 203.797 95.9962 202.043 96.773C200.218 97.3977 198.265 97.5535 196.364 97.226C194.529 96.9614 192.724 96.5207 190.974 95.9101C187.504 94.7125 184.144 93.2183 180.931 91.4442L181.696 91.298C176.503 98.1001 171.522 105.068 166.412 111.935C166.258 112.142 166.042 112.296 165.796 112.374C165.55 112.453 165.286 112.452 165.04 112.373L165.029 112.369C161.568 111.117 158.249 109.501 155.129 107.548C152.012 105.746 149.018 103.775 146.023 101.813C140.083 97.814 134.302 93.6027 128.682 89.1795L128.619 89.1304C128.511 89.0454 128.421 88.9399 128.354 88.82C128.286 88.7001 128.243 88.5681 128.227 88.4316C128.211 88.295 128.222 88.1566 128.259 88.0242C128.296 87.8919 128.359 87.7681 128.444 87.6601C128.513 87.5735 128.594 87.498 128.686 87.4363C133.341 84.332 137.934 81.0805 142.397 77.6803C144.637 75.9871 146.78 74.1731 148.868 72.302C151.001 70.5034 152.83 68.3727 154.285 65.992V65.992ZM154.609 66.1335C153.159 68.5764 151.331 70.7746 149.193 72.6465C147.192 74.6364 145.059 76.4806 142.963 78.3667C138.737 82.1073 134.386 85.6855 129.937 89.1822L129.941 87.4394L147.781 99.1609C150.733 101.136 153.728 103.039 156.712 104.933C158.206 105.875 159.721 106.778 161.233 107.656C162.684 108.535 164.205 109.294 165.78 109.925L164.398 110.358C169.838 103.749 175.406 97.2411 180.763 90.567C180.853 90.4556 180.979 90.3796 181.119 90.3528C181.26 90.326 181.405 90.3501 181.529 90.4208C184.629 92.2379 187.909 93.7258 191.318 94.8602C193.007 95.4168 194.745 95.8098 196.509 96.0338C198.206 96.302 199.942 96.1422 201.561 95.5689C203.117 94.8308 204.494 93.7619 205.595 92.4367C206.768 91.1097 207.828 89.6882 208.767 88.1867C210.661 85.1642 212.288 81.9817 213.628 78.6755C213.687 78.5294 213.777 78.3973 213.891 78.2877C214.005 78.1781 214.14 78.0933 214.288 78.0389L214.337 78.021L218.446 76.5238C218.868 76.4009 219.234 76.1358 219.482 75.7735C219.731 75.4113 219.846 74.9743 219.809 74.5367C219.789 74.3308 219.735 74.1298 219.648 73.942L219.198 72.9698L218.274 70.988L217.345 68.9867C217.14 68.4803 217.027 67.9416 217.01 67.3957C216.987 66.9692 216.99 66.5415 217.019 66.1153C217.331 63.0781 217.999 60.0883 219.01 57.2074C219.477 55.6841 220.097 54.2121 220.861 52.8138C220.878 52.7844 220.966 52.652 220.925 52.7073C220.783 52.9261 220.706 53.1805 220.702 53.4413C220.693 53.7796 220.796 54.1115 220.997 54.3839C221.085 54.5112 221.199 54.6192 221.33 54.7015C221.537 54.8262 221.433 54.7574 221.352 54.7496C221.07 54.6948 220.786 54.6562 220.5 54.634C219.848 54.5757 219.142 54.5492 218.436 54.5332C212.72 54.4427 206.84 54.7375 200.974 54.5962C198.034 54.5424 195.083 54.4492 192.105 54.1758C190.616 54.0257 189.121 53.8393 187.604 53.5451C185.976 53.2753 184.396 52.7678 182.914 52.0388C182.569 51.8585 182.293 51.5703 182.127 51.2182C181.961 50.8662 181.915 50.4695 181.995 50.0887L182.007 50.034C182.529 47.5801 182.574 44.4437 181.463 42.9054C181.161 42.5255 180.77 42.2264 180.324 42.0347C179.878 41.8431 179.391 41.7648 178.908 41.8071C178.372 41.7606 177.833 41.8252 177.324 41.997C176.815 42.1687 176.346 42.4439 175.949 42.8052C175.175 43.8265 174.614 44.9925 174.299 46.2343C173.984 47.4761 173.921 48.7685 174.113 50.0351C174.21 51.4133 174.5 52.771 174.975 54.0685C175.403 55.305 176.286 56.6046 177.058 56.6595L176.99 58.2454C174.902 58.0346 172.802 57.9818 170.706 58.0873C168.597 58.1651 166.501 58.4614 164.452 58.9713C162.398 59.4539 160.442 60.2875 158.672 61.4353C156.905 62.5902 155.497 64.2181 154.609 66.1335V66.1335Z" fill="#020202"/>
<path d="M178.041 62.2366L177.652 67.298C177.537 68.9429 177.508 70.5926 177.566 72.2405C177.615 73.8634 177.811 75.4786 178.152 77.0662C178.554 78.6764 179.16 80.2288 179.954 81.686C178.561 80.588 177.484 79.139 176.835 77.4876C176.206 75.8292 175.855 74.0781 175.797 72.3052C175.743 70.5588 175.908 68.8124 176.288 67.107C176.633 65.407 177.223 63.7662 178.041 62.2366V62.2366Z" fill="#020202"/>
<path d="M150.995 37.0554C150.995 37.0554 123.838 20.3685 147.432 5.7515C171.027 -8.8655 173.731 8.98969 173.731 8.98969" fill="#020202"/>
<path d="M85.7605 136.7C78.5499 135.936 71.2771 135.969 64.0737 136.799C56.9384 137.551 49.9405 139.282 43.2771 141.942L40.8192 142.969L38.4577 144.188C37.6813 144.611 36.8622 144.959 36.1222 145.441L33.8924 146.864C30.9503 148.702 28.2942 150.962 26.0091 153.572C21.4718 158.807 18.5212 165.227 17.5031 172.08C16.9847 175.481 16.9396 178.937 17.3693 182.351C17.8137 185.655 18.736 189.344 19.4039 192.896C20.8403 200.052 22.2736 207.209 23.6066 214.386C26.3166 228.749 28.6729 243.122 31.5229 257.419C37.078 286.066 43.8359 314.464 51.0674 342.737C58.3378 371.004 65.4263 399.312 72.3326 427.662L70.2207 425.682C77.8162 426.889 85.4667 428.004 93.1046 429.071C100.743 430.167 108.384 431.243 116.035 432.239C131.325 434.322 146.638 436.177 161.975 437.804C177.31 439.416 192.685 440.593 208.065 441.113C215.743 441.378 223.43 441.228 231.092 440.662C234.907 440.394 238.695 439.828 242.421 438.969C244.267 438.528 246.071 437.929 247.814 437.178C249.564 436.473 251.127 435.372 252.379 433.96C252.4 433.933 252.427 433.91 252.457 433.893C252.487 433.875 252.521 433.864 252.556 433.86C252.59 433.856 252.625 433.858 252.659 433.868C252.693 433.877 252.724 433.893 252.752 433.914C252.804 433.958 252.838 434.018 252.848 434.085C252.858 434.152 252.843 434.221 252.805 434.277C251.603 435.875 250.046 437.173 248.257 438.066C246.51 438.98 244.682 439.728 242.795 440.301C239.046 441.425 235.214 442.253 231.335 442.779C223.615 443.799 215.838 444.343 208.051 444.408C192.502 444.743 176.996 443.815 161.535 442.683C146.068 441.553 130.662 439.822 115.293 437.878C107.615 436.853 99.9422 435.792 92.2842 434.631C84.6273 433.435 76.9951 432.197 69.3406 430.854L69.3114 430.849C68.8087 430.76 68.3433 430.526 67.9729 430.174C67.6025 429.823 67.3436 429.371 67.2283 428.874C60.6608 400.434 54.3924 371.928 48.4231 343.353C42.4375 314.78 35.9564 286.321 28.9799 257.977C27.253 250.888 25.5677 243.761 23.9796 236.629C22.3941 229.508 20.7222 222.405 19.2082 215.272C17.6478 208.147 16.1877 201.003 14.7309 193.858C14.0238 190.248 13.2326 186.83 12.7185 182.901C12.2799 179.059 12.3754 175.175 13.0025 171.36C14.2553 163.696 17.7192 156.564 22.9688 150.841C25.5593 148.007 28.5856 145.604 31.9337 143.724L34.3818 142.309C35.194 141.831 36.0772 141.495 36.9205 141.082L39.4767 139.903L42.1114 138.93C49.1148 136.41 56.4604 134.968 63.8969 134.653C71.2519 134.25 78.6285 134.762 85.8572 136.178C85.9238 136.192 85.9826 136.231 86.0213 136.287C86.0601 136.343 86.0759 136.411 86.0654 136.479C86.0549 136.546 86.0189 136.607 85.9649 136.648C85.911 136.69 85.8431 136.709 85.7754 136.702L85.7605 136.7Z" fill="#020202"/>
<path d="M78.7096 384.693C74.8675 372.527 71.4359 360.263 68.258 347.938C65.0824 335.613 62.0418 323.256 59.4859 310.786L55.9325 292.018C54.7849 285.754 53.6287 279.492 52.3172 273.266C49.7388 260.802 46.632 248.462 43.7009 236.046C40.6799 223.678 37.7889 211.288 35.1174 198.855L33.0955 189.534C32.2943 186.302 31.7705 183.008 31.53 179.687C31.1769 172.841 32.5429 166.016 35.5034 159.834C38.523 153.668 43.1022 148.399 48.7868 144.549C54.3462 140.933 60.4629 138.257 66.8915 136.628C79.5017 133.522 92.6582 133.365 105.339 136.17C105.405 136.184 105.463 136.222 105.501 136.278C105.54 136.333 105.556 136.401 105.546 136.468C105.536 136.534 105.502 136.595 105.449 136.637C105.396 136.679 105.329 136.699 105.262 136.694L105.242 136.692C92.7124 135.568 80.0836 136.91 68.07 140.643C62.2469 142.516 56.7397 145.257 51.7343 148.773C46.9517 152.27 43.1275 156.916 40.615 162.282C38.1042 167.652 36.8878 173.535 37.0633 179.46C37.2014 182.491 37.6 185.505 38.2547 188.468L40.0142 197.852C42.3843 210.36 44.5348 222.911 46.5553 235.483C48.5682 248.028 51.0491 260.496 53.9982 272.888L56.3235 282.143L58.8168 291.36L63.7961 309.793C66.9535 322.119 69.666 334.547 72.2688 347.003C74.8697 359.459 77.2427 371.969 79.2268 384.571C79.2373 384.638 79.2222 384.706 79.1847 384.761C79.1473 384.817 79.0901 384.857 79.0246 384.872C78.9592 384.888 78.8904 384.878 78.8319 384.844C78.7735 384.811 78.7298 384.757 78.7096 384.693H78.7096Z" fill="#020202"/>
<path d="M51.7785 351.77C55.9553 356.556 60.0094 361.284 64.1339 365.913C68.2589 370.538 72.5074 374.991 76.9175 379.217C81.275 383.444 86.0055 387.268 91.0514 390.643C96.1496 394.068 101.874 396.452 107.896 397.659C101.408 398.502 94.8191 397.317 89.0323 394.265C83.2292 391.367 77.9085 387.591 73.2582 383.068C68.6496 378.634 64.5048 373.743 60.888 368.468C57.2114 363.276 54.1542 357.672 51.7785 351.77Z" fill="#020202"/>
<path d="M70.0285 428.363C64.3554 445.911 58.4736 463.374 52.3831 480.75L43.2504 506.815C40.2205 515.508 37.1116 524.171 33.9236 532.806C27.5279 550.067 20.9066 567.264 15.1347 584.747C12.3068 593.504 9.62917 602.313 7.32138 611.212C6.19484 615.665 5.06809 620.125 4.25056 624.627C3.25806 629.002 2.77299 633.477 2.80497 637.963L0.130064 637.468C7.64938 620.254 15.1859 603.046 22.8893 585.92L45.9173 534.511L69.3397 483.296C73.1947 474.743 77.1999 466.246 80.9184 457.638C84.7334 449.059 88.4623 440.465 91.75 431.674L91.7552 431.66C91.7791 431.596 91.827 431.543 91.8886 431.514C91.9502 431.484 92.021 431.479 92.0861 431.5C92.1511 431.522 92.2055 431.567 92.2378 431.627C92.2702 431.688 92.278 431.758 92.2597 431.824C90.9989 436.353 89.7206 440.912 88.1403 445.341L85.8734 452.034L83.4241 458.653C81.7998 463.071 80.1245 467.467 78.3983 471.841C76.6951 476.225 75.0125 480.62 73.2042 484.958C66.1847 502.41 58.6795 519.644 51.1012 536.844C43.4492 554.012 35.4122 571 27.4009 587.998C19.3959 604.999 11.1102 621.865 2.6749 638.665L2.61703 638.78C2.47776 639.057 2.2492 639.28 1.96814 639.411C1.68708 639.543 1.36991 639.576 1.06769 639.506C0.765465 639.435 0.495782 639.265 0.302105 639.022C0.108428 638.78 0.0020105 638.479 0 638.169C0.143363 633.436 0.849305 628.737 2.10292 624.17C3.17367 619.657 4.37208 615.198 5.62529 610.755C8.13016 601.871 10.7925 593.045 13.4695 584.224C18.765 566.564 23.9997 548.871 29.7174 531.338C35.5299 513.84 41.9146 496.543 48.5311 479.339C55.1553 462.138 62.0902 445.055 69.5324 428.173C69.5599 428.11 69.6104 428.061 69.6734 428.035C69.7364 428.008 69.8071 428.007 69.8709 428.032C69.9346 428.056 69.9866 428.104 70.0159 428.166C70.0453 428.227 70.0498 428.298 70.0286 428.363L70.0285 428.363Z" fill="#020202"/>
<path d="M113.881 434.807C114.036 445.985 113.682 457.119 113.256 468.248C113.032 473.811 112.761 479.37 112.443 484.926C112.165 490.484 111.784 496.036 111.302 501.58C110.361 512.67 108.899 523.735 108.22 534.845C107.882 540.399 107.686 545.961 107.668 551.518C107.694 554.296 107.689 557.074 107.857 559.835C107.937 561.214 108.032 562.59 108.178 563.941C108.252 564.614 108.338 565.285 108.457 565.913C108.51 566.206 108.579 566.496 108.665 566.781C108.691 566.872 108.727 566.96 108.772 567.043C108.788 567.076 108.782 567.043 108.736 566.984C108.655 566.883 108.554 566.8 108.44 566.739C108.325 566.678 108.2 566.64 108.071 566.629L109.167 567.48C109.21 567.547 109.381 567.791 109.459 567.816C109.562 567.871 109.53 567.847 109.514 567.815C109.777 567.633 110.017 567.421 110.229 567.183C111.009 566.164 111.662 565.054 112.174 563.878C113.281 561.308 114.231 558.672 115.019 555.987C116.659 550.563 118.086 545.024 119.406 539.456C122.012 528.304 124.216 517.028 126.453 505.753L133.338 471.92C135.674 460.637 138.035 449.349 140.688 438.096C140.703 438.03 140.742 437.973 140.798 437.935C140.854 437.898 140.922 437.882 140.988 437.893C141.055 437.903 141.115 437.938 141.157 437.991C141.198 438.044 141.219 438.11 141.213 438.177C140.295 449.701 139.058 461.185 137.502 472.628C135.983 484.077 134.163 495.484 132.04 506.848C129.84 518.196 127.282 529.487 124.213 540.683C122.666 546.279 121.031 551.865 118.918 557.342C117.887 560.129 116.656 562.838 115.236 565.448C114.474 566.859 113.531 568.165 112.43 569.332C111.661 570.166 110.593 570.661 109.459 570.71C108.752 570.688 108.078 570.401 107.572 569.907C107.155 569.512 106.831 569.029 106.625 568.493L107.721 569.344C107.289 569.277 106.9 569.048 106.631 568.704C106.51 568.549 106.409 568.378 106.332 568.197C106.231 567.964 106.152 567.722 106.096 567.474C106.009 567.085 105.943 566.691 105.901 566.295C105.816 565.546 105.779 564.829 105.753 564.114C105.704 562.687 105.711 561.28 105.733 559.876C105.799 557.07 105.833 554.279 105.949 551.49L106.434 534.771C106.687 523.629 106.447 512.455 106.83 501.313C107.007 495.741 107.319 490.178 107.766 484.624C108.164 479.066 108.634 473.515 109.175 467.968C110.275 456.877 111.512 445.797 113.351 434.766C113.362 434.7 113.397 434.641 113.45 434.6C113.502 434.559 113.568 434.539 113.635 434.544C113.701 434.549 113.763 434.579 113.809 434.628C113.855 434.676 113.88 434.74 113.881 434.807L113.881 434.807Z" fill="#020202"/>
<path d="M272.7 560.13C275.644 567.376 278.055 574.757 280.36 582.165C282.625 589.583 284.811 597.019 286.503 604.589C288.16 612.167 289.406 619.865 291.463 627.337C292.462 631.081 293.593 634.784 294.856 638.446C295.462 640.282 296.184 642.081 296.887 643.871C297.244 644.763 297.61 645.651 297.994 646.509C298.185 646.938 298.382 647.364 298.586 647.75C298.687 647.953 298.794 648.117 298.89 648.277C298.926 648.318 298.996 648.412 298.996 648.412C298.985 648.383 298.966 648.358 298.941 648.339C298.92 648.319 298.964 648.364 298.888 648.292C298.812 648.224 298.727 648.166 298.636 648.12C298.449 648.025 298.24 647.981 298.031 647.993C297.982 647.997 297.936 648.019 297.903 648.056C297.871 648.092 297.854 648.14 297.856 648.189C297.858 648.238 297.88 648.284 297.915 648.318C297.951 648.351 297.999 648.369 298.048 648.368L299.014 648.346C299.05 648.345 299.299 648.379 299.173 648.325C299.065 648.308 299.005 648.341 299.101 648.203C299.355 647.588 299.503 646.934 299.537 646.27C299.661 644.535 299.64 642.794 299.475 641.063C299.193 637.468 298.649 633.817 298.03 630.178C296.728 622.897 295.107 615.63 293.567 608.335C292.072 601.028 290.474 593.726 289.03 586.374C287.567 579.026 286.142 571.655 284.98 564.199C284.97 564.134 284.983 564.067 285.019 564.012C285.054 563.956 285.109 563.916 285.173 563.898C285.236 563.881 285.304 563.887 285.363 563.917C285.422 563.946 285.468 563.996 285.492 564.057C288.292 571.064 290.81 578.159 293.047 585.344C295.316 592.52 297.324 599.775 299.07 607.109C300.805 614.475 302.137 621.929 303.059 629.44C303.559 633.248 303.83 637.082 303.872 640.922C303.879 642.939 303.683 644.952 303.287 646.929C303.066 648.128 302.585 649.264 301.879 650.258C301.594 650.629 301.237 650.939 300.829 651.167C300.42 651.396 299.97 651.539 299.504 651.587C299.038 651.623 298.57 651.553 298.135 651.382C297.738 651.233 297.369 651.017 297.045 650.744L298.028 651.096C297.627 651.072 297.242 650.925 296.927 650.675C296.884 650.642 296.845 650.605 296.811 650.563C296.709 650.451 296.613 650.333 296.524 650.211C296.393 650.013 296.341 649.892 296.25 649.727C296.127 649.455 296.008 649.189 295.922 648.946C295.728 648.447 295.568 647.972 295.415 647.494C295.108 646.542 294.835 645.598 294.572 644.654L293.052 639.002C292.041 635.246 290.983 631.514 289.838 627.805C287.611 620.371 284.721 613.12 282.293 605.737C279.905 598.344 278.07 590.8 276.353 583.229C274.678 575.647 273.141 568.029 272.186 560.263C272.178 560.199 272.194 560.133 272.231 560.08C272.267 560.026 272.322 559.987 272.385 559.971C272.448 559.955 272.515 559.962 272.573 559.991C272.631 560.02 272.676 560.07 272.7 560.13L272.7 560.13Z" fill="#020202"/>
<path d="M421.689 313.69C422.67 341.349 423.104 369.008 423.482 396.667C423.776 424.327 423.944 451.986 423.635 479.645L422.902 521.134C422.628 534.964 422.372 548.794 422.285 562.623C422.179 576.453 422.273 590.283 422.357 604.112L422.415 614.484L422.489 619.671L422.508 620.967C422.511 621.462 422.475 621.957 422.399 622.446C422.239 623.438 421.898 624.391 421.392 625.259C420.365 627.021 418.726 628.343 416.787 628.975C415.841 629.264 414.855 629.401 413.865 629.382L411.272 629.42L400.9 629.576L390.528 629.755L385.342 629.845L384.687 629.856C384.42 629.859 384.152 629.85 383.884 629.829C383.34 629.786 382.801 629.691 382.275 629.545C381.238 629.249 380.259 628.777 379.382 628.149C377.592 626.851 376.351 624.933 375.9 622.769C375.791 622.237 375.727 621.697 375.709 621.154L375.663 619.858L375.572 617.266L375.261 606.898L374.09 565.425C373.385 537.774 372.641 510.123 372.191 482.468C371.415 427.154 370.988 371.834 371.631 316.493C371.631 316.424 371.659 316.358 371.708 316.309C371.756 316.26 371.822 316.232 371.891 316.23C371.961 316.229 372.027 316.255 372.078 316.302C372.129 316.349 372.159 316.414 372.162 316.483C374.891 371.76 376.548 427.057 377.858 482.361C378.452 510.014 378.75 537.673 379.088 565.331L379.476 606.82L379.551 617.193L379.557 619.787L379.559 621.084C379.558 621.405 379.583 621.727 379.636 622.044C379.854 623.311 380.536 624.452 381.55 625.243C382.07 625.64 382.653 625.947 383.274 626.152C383.578 626.249 383.891 626.315 384.209 626.352C384.371 626.37 384.535 626.382 384.7 626.386L385.342 626.398L390.528 626.488L400.9 626.667L411.273 626.822L413.865 626.861C414.607 626.908 415.351 626.834 416.068 626.641C417.113 626.332 418.054 625.743 418.786 624.936C419.519 624.13 420.016 623.138 420.223 622.068C420.29 621.705 420.329 621.337 420.338 620.967L420.358 619.671L420.432 614.484L420.489 604.112C420.574 590.283 420.667 576.453 420.562 562.623C420.474 548.794 420.218 534.964 419.944 521.134L419.212 479.645C418.902 451.986 419.07 424.327 419.364 396.668C419.742 369.008 420.176 341.349 421.157 313.69C421.16 313.621 421.189 313.556 421.239 313.508C421.288 313.46 421.354 313.433 421.423 313.433C421.492 313.433 421.558 313.46 421.608 313.508C421.657 313.556 421.686 313.621 421.689 313.69H421.689Z" fill="#020202"/>
<path d="M501.915 287.248H286.519C282.606 287.248 279.433 290.421 279.433 294.334V307.93C279.433 311.843 282.606 315.015 286.519 315.015H501.915C505.828 315.015 509 311.843 509 307.93V294.334C509 290.421 505.828 287.248 501.915 287.248Z" fill="#020202"/>
<path d="M207.005 84.0787C207.001 85.2423 206.567 86.3635 205.786 87.226C205.005 88.0884 203.932 88.6312 202.774 88.7496C202.139 88.8115 201.498 88.742 200.891 88.5455C200.284 88.349 199.724 88.0297 199.245 87.6074C198.747 87.1644 198.348 86.6209 198.074 86.0125C197.801 85.4042 197.659 84.7448 197.659 84.0779C197.659 83.4109 197.8 82.7514 198.073 82.1428C198.346 81.5343 198.745 80.9904 199.243 80.5471C199.721 80.1238 200.282 79.8037 200.889 79.6069C201.497 79.41 202.139 79.3407 202.774 79.4031C203.932 79.5226 205.005 80.0663 205.786 80.9295C206.567 81.7928 207.001 82.9145 207.005 84.0787V84.0787ZM207.005 84.0787C207.001 83.5284 206.881 82.9852 206.652 82.4847C206.424 81.9843 206.091 81.5379 205.678 81.1751C205.282 80.8344 204.819 80.58 204.319 80.4282C203.819 80.2764 203.293 80.2304 202.774 80.2933C201.851 80.4082 201.001 80.8566 200.385 81.5541C199.769 82.2517 199.429 83.1502 199.429 84.0809C199.429 85.0116 199.769 85.9102 200.385 86.6077C201.001 87.3052 201.851 87.7536 202.774 87.8685C203.293 87.9309 203.82 87.8845 204.32 87.732C204.82 87.5795 205.283 87.3245 205.679 86.983C206.092 86.6199 206.424 86.1733 206.653 85.6728C206.881 85.1722 207.001 84.6289 207.005 84.0787Z" fill="#020202"/>
<path d="M211.617 65.4208C212.133 65.403 212.623 65.1852 212.982 64.8134C213.341 64.4417 213.542 63.9449 213.542 63.428C213.542 62.9111 213.341 62.4145 212.982 62.0427C212.623 61.6709 212.133 61.4532 211.617 61.4353C211.1 61.4532 210.61 61.6709 210.251 62.0427C209.892 62.4145 209.691 62.9111 209.691 63.428C209.691 63.9449 209.892 64.4417 210.251 64.8134C210.61 65.1852 211.1 65.403 211.617 65.4208Z" fill="#020202"/>
<path d="M210.032 55.3154C210.982 55.2799 211.929 55.4208 212.827 55.7309C213.724 56.0178 214.578 56.4252 215.366 56.942C216.171 57.47 216.881 58.1301 217.466 58.8945C218.076 59.6651 218.439 60.6023 218.507 61.5831C217.238 60.3982 215.859 59.338 214.388 58.4171C212.877 57.4689 211.423 56.4332 210.032 55.3154V55.3154Z" fill="#020202"/>
<path d="M100.237 264.56L78.7397 264.823L79.1577 264.518C75.6313 276.714 72.9679 289.143 71.1873 301.713C69.2523 314.227 68.6063 326.907 69.2594 339.553C69.5838 345.837 70.5126 352.075 72.033 358.18C73.4913 364.244 75.8025 370.071 78.8976 375.486C81.9787 380.856 86.2168 385.473 91.3042 389.001C96.4351 392.447 102.171 394.894 108.21 396.211L108.341 396.247L108.386 396.261C114.661 398.159 121.05 399.658 127.514 400.751C134.001 401.911 140.537 402.823 147.096 403.554C160.226 405.051 173.424 405.878 186.638 406.034C189.941 406.14 193.247 406.129 196.553 406.087L206.472 406.007L216.389 405.701L221.348 405.54L226.302 405.246L236.211 404.657C239.515 404.457 242.815 404.101 246.117 403.831L256.024 402.97L265.981 402.425L265.997 402.424C266.124 402.417 266.251 402.435 266.372 402.477C266.492 402.519 266.603 402.585 266.697 402.67C266.792 402.755 266.87 402.858 266.925 402.973C266.98 403.088 267.012 403.212 267.019 403.339C267.026 403.492 266.999 403.644 266.938 403.784C262.152 414.645 257.307 425.477 252.403 436.278C247.553 447.106 242.639 457.906 237.663 468.677C232.664 479.438 227.582 490.161 222.415 500.847C219.806 506.178 217.148 511.487 214.346 516.728C212.941 519.347 211.504 521.951 209.965 524.507C209.189 525.783 208.392 527.047 207.522 528.28C207.082 528.906 206.61 529.509 206.108 530.086C205.844 530.391 205.557 530.676 205.249 530.936C204.868 531.293 204.384 531.52 203.866 531.583L204.159 530.357C213.517 535.023 223.054 539.365 232.638 543.559C242.233 547.734 251.92 551.697 261.728 555.309C271.484 559.002 281.463 562.075 291.607 564.51C296.622 565.717 301.741 566.441 306.895 566.67C309.387 566.784 311.882 566.537 314.303 565.935C315.408 565.712 316.454 565.263 317.376 564.615C318.298 563.968 319.076 563.136 319.66 562.173L319.544 562.472L323.907 545.229C323.987 544.91 324.172 544.627 324.432 544.425C324.692 544.223 325.012 544.114 325.341 544.114L325.368 544.115C333.258 544.139 341.19 543.919 349.056 543.427C352.986 543.163 356.915 542.827 360.764 542.243C362.665 541.973 364.548 541.593 366.404 541.106C367.273 540.876 368.12 540.576 368.939 540.207C369.484 540.014 369.968 539.681 370.343 539.241L370.264 540.227L358.969 490.199L347.768 440.15C347.695 439.825 347.711 439.485 347.815 439.169L347.826 439.137C351.658 427.647 354.694 415.908 356.914 404.001C358.025 398.067 358.813 392.077 359.274 386.058C359.786 380.095 359.692 374.097 358.995 368.153C358.624 365.239 357.991 362.364 357.104 359.564C356.215 356.841 354.91 354.272 353.236 351.948C351.496 349.71 349.297 347.87 346.789 346.551C345.521 345.794 344.205 345.122 342.849 344.539L340.829 343.586L338.731 342.759C327.377 338.483 315.762 334.933 303.958 332.129C280.321 326.283 256.4 321.454 232.423 316.997L223.424 315.357C221.924 315.085 220.428 314.836 218.906 314.476L216.634 313.972L214.409 313.289C205.547 310.473 197.694 305.143 191.805 297.947C185.916 290.751 182.244 281.998 181.237 272.754C181.593 272.734 181.343 272.789 181.426 272.802L181.438 272.873L181.463 273.013L181.513 273.293L181.614 273.854L181.814 274.976C181.927 275.727 182.078 276.471 182.266 277.207C182.613 278.684 183.035 280.142 183.531 281.576L184.287 283.72C184.563 284.425 184.895 285.108 185.197 285.802C185.802 287.19 186.487 288.541 187.247 289.851C190.237 295.117 194.222 299.753 198.98 303.499C203.686 307.269 209.091 310.073 214.883 311.749L217.042 312.377L219.245 312.828C220.697 313.15 222.216 313.379 223.721 313.627L232.754 315.126C256.823 319.219 280.862 323.604 304.651 329.311C316.624 332.032 328.411 335.514 339.941 339.734L342.106 340.565L344.236 341.543C345.687 342.153 347.097 342.857 348.457 343.65C351.367 345.168 353.924 347.283 355.962 349.857C357.892 352.467 359.404 355.361 360.442 358.437C361.425 361.447 362.121 364.543 362.521 367.684C363.264 373.867 363.378 380.109 362.861 386.314C362.403 392.465 361.612 398.586 360.49 404.651C358.262 416.748 355.202 428.678 351.331 440.355L351.39 439.343L362.508 489.41L373.532 539.498L373.557 539.614C373.622 539.908 373.585 540.215 373.452 540.485C372.801 541.755 371.696 542.733 370.355 543.224C369.363 543.669 368.335 544.03 367.282 544.304C365.296 544.816 363.281 545.212 361.248 545.491C357.242 546.076 353.249 546.392 349.257 546.639C341.271 547.117 333.315 547.192 325.325 547.089L326.787 545.975L322.222 563.166L322.216 563.186C322.19 563.284 322.153 563.378 322.105 563.466C321.335 564.753 320.306 565.866 319.084 566.735C317.862 567.604 316.472 568.21 315.004 568.515C312.328 569.156 309.572 569.404 306.825 569.25C301.507 568.956 296.23 568.15 291.067 566.844C280.857 564.269 270.821 561.05 261.018 557.207C241.402 549.679 222.332 540.913 203.573 531.513C203.45 531.452 203.35 531.353 203.288 531.231C203.226 531.109 203.204 530.97 203.225 530.835C203.247 530.699 203.312 530.575 203.409 530.479C203.507 530.382 203.633 530.32 203.769 530.3L203.866 530.287C204.367 530.032 204.806 529.67 205.151 529.227C205.624 528.687 206.069 528.123 206.485 527.537C207.33 526.351 208.122 525.11 208.893 523.855C210.425 521.337 211.867 518.753 213.277 516.152C216.092 510.945 218.769 505.657 221.399 500.347C226.673 489.73 231.67 478.973 236.583 468.18C241.501 457.389 246.346 446.565 251.117 435.707C255.855 424.835 260.531 413.937 265.146 403.013L266.103 404.371L256.204 405.067L246.305 406.08C243.003 406.4 239.712 406.805 236.4 407.056L226.459 407.796L221.488 408.166L216.508 408.404L206.545 408.86C203.223 408.983 199.897 408.98 196.572 409.031C193.247 409.088 189.921 409.115 186.595 409.024C173.279 408.931 159.976 408.16 146.738 406.715C140.117 405.97 133.524 404.992 126.958 403.78C120.347 402.623 113.816 401.045 107.406 399.057L107.582 399.106C101.172 397.67 95.0921 395.031 89.6646 391.331C84.275 387.544 79.7932 382.608 76.5425 376.88C73.3311 371.226 70.9645 365.133 69.5179 358.794C68.0509 352.521 67.1911 346.122 66.9502 339.684C66.4722 326.887 67.3089 314.074 69.4471 301.448C71.488 288.846 74.4541 276.413 78.3215 264.247C78.3497 264.158 78.4055 264.081 78.4809 264.026C78.5562 263.971 78.6471 263.942 78.7402 263.943L100.237 264.205C100.284 264.206 100.328 264.225 100.361 264.258C100.394 264.291 100.412 264.336 100.412 264.383C100.412 264.429 100.394 264.474 100.361 264.507C100.328 264.54 100.284 264.559 100.237 264.56L100.237 264.56Z" fill="#020202"/>
<path d="M180.634 231.814C181.419 226.34 182.105 220.934 182.6 215.495C183.115 210.061 183.439 204.62 183.889 199.169C184.387 193.722 184.955 188.239 185.017 182.745C185.027 177.248 184.688 171.757 184.003 166.304L182.005 149.956L179.915 133.642L178.959 125.471L178.485 121.383L178.256 119.336L177.983 117.394C177.655 114.87 176.628 112.488 175.017 110.517C174.157 109.598 173.084 108.905 171.893 108.498C170.624 108.107 169.29 107.97 167.967 108.093L167.895 107.746C169.294 107.263 170.793 107.141 172.252 107.392C173.71 107.644 175.082 108.26 176.238 109.183C178.457 111.204 180.02 113.843 180.724 116.76C182.041 122.325 182.841 127.653 183.671 133.153C184.422 138.624 184.9 144.128 185.313 149.634C185.766 155.136 185.928 160.664 185.922 166.188C185.944 171.712 185.952 177.221 186.169 182.728C186.39 188.234 186.84 193.758 186.84 199.303C186.767 204.851 186.259 210.385 185.319 215.854C184.452 221.346 182.996 226.728 180.975 231.908L180.634 231.814Z" fill="#020202"/>
<path d="M157.812 213.58L158.089 224.846H157.181L156.953 213.581L157.613 214.262C147.761 214.178 137.915 213.919 128.066 213.749C118.217 213.578 108.369 213.352 98.5239 213.072L99.9422 211.933C98.643 219.643 97.8761 227.433 97.647 235.248C97.5309 239.138 97.6176 243.031 97.9066 246.912C98.1522 250.752 98.746 254.561 99.6806 258.293C100.513 261.925 102.155 265.322 104.484 268.231C105.638 269.572 107.065 270.651 108.67 271.397C110.386 272.096 112.173 272.607 114 272.919C121.723 274.079 129.532 274.574 137.34 274.397C153.07 274.31 168.831 273.299 184.53 271.828C200.241 270.443 215.9 268.442 231.513 266.264C231.581 266.254 231.65 266.255 231.718 266.266L231.732 266.269C237.766 267.301 243.845 268.172 249.927 268.869C255.988 269.618 262.085 270.032 268.191 270.11C269.707 270.118 271.22 270.068 272.715 269.97C274.157 269.928 275.589 269.71 276.978 269.32C278.281 268.903 279.482 268.218 280.506 267.31C281.529 266.403 282.352 265.292 282.922 264.048C284.12 261.413 284.779 258.564 284.86 255.67C285.01 252.72 284.837 249.762 284.343 246.849L284.341 246.84C284.287 246.523 284.336 246.198 284.479 245.911C284.623 245.624 284.855 245.39 285.14 245.244L304.204 235.497L304.345 235.435L304.422 235.407C306.327 234.793 308.053 233.721 309.448 232.286C309.669 232.063 309.829 231.787 309.912 231.484C309.994 231.182 309.996 230.862 309.918 230.558C309.814 230.227 309.643 229.92 309.416 229.657C309.189 229.393 308.911 229.179 308.598 229.027C307.913 228.69 307.131 228.604 306.389 228.784L303.085 229.661L296.345 231.394C291.837 232.513 287.322 233.591 282.718 234.483C280.353 234.978 277.957 235.304 275.546 235.458C275.187 235.469 274.829 235.46 274.472 235.43C274.048 235.396 273.629 235.312 273.225 235.179C272.572 234.979 271.935 234.727 271.323 234.424C270.875 234.205 270.468 233.912 270.118 233.557C269.81 233.244 269.582 232.862 269.453 232.442C269.304 231.937 269.311 231.398 269.474 230.897C269.671 230.34 270.001 229.84 270.435 229.439C270.7 229.183 270.98 228.943 271.275 228.723C273.234 227.316 275.281 226.037 277.404 224.895C278.458 224.326 279.549 223.794 280.623 223.308C281.145 223.068 281.717 222.82 282.057 222.634C282.133 222.594 282.192 222.55 282.148 222.583C281.944 222.765 281.807 223.012 281.761 223.282C281.682 223.587 281.727 223.912 281.886 224.184C281.944 224.287 281.969 224.3 281.957 224.287C281.659 224.068 281.334 223.891 280.989 223.759C280.521 223.567 280.043 223.402 279.557 223.264C278.523 222.974 277.471 222.752 276.407 222.6C269.839 221.632 263.133 222.739 257.224 225.765C253.195 227.659 249.475 230.15 246.19 233.154L246.168 233.174C245.868 233.447 245.481 233.604 245.077 233.618C235.163 233.957 225.253 234.199 215.347 234.346C205.426 234.423 195.533 234.635 185.533 233.869C184.246 233.771 182.966 233.594 181.701 233.339C181.337 233.259 180.979 233.152 180.631 233.019C180.118 232.785 179.993 232.684 179.689 232.525L178.093 231.642C175.947 230.512 173.724 229.534 171.441 228.717C166.879 227.063 162.038 226.319 157.19 226.529C152.303 226.827 147.489 227.863 142.911 229.599C138.265 231.238 133.724 233.264 128.997 234.792C128.952 234.806 128.904 234.803 128.863 234.782C128.821 234.761 128.789 234.725 128.774 234.681C128.759 234.637 128.762 234.588 128.782 234.546C128.802 234.505 128.838 234.472 128.882 234.457C133.518 232.752 137.955 230.555 142.577 228.712C147.201 226.747 152.095 225.493 157.093 224.991C162.159 224.611 167.25 225.243 172.069 226.851C174.471 227.636 176.813 228.59 179.08 229.705L180.759 230.573C181.003 230.699 181.41 230.918 181.467 230.929C181.7 231.006 181.939 231.067 182.181 231.113C183.35 231.31 184.529 231.437 185.713 231.494C195.484 231.918 205.413 231.608 215.281 231.344C225.161 231.035 235.041 230.622 244.919 230.104L243.806 230.568C247.332 227.289 251.343 224.574 255.697 222.518C262.238 219.166 269.658 217.927 276.934 218.971C278.161 219.143 279.375 219.395 280.569 219.726C281.196 219.902 281.812 220.114 282.414 220.36C283.15 220.644 283.835 221.047 284.44 221.554C284.685 221.776 284.898 222.032 285.071 222.314C285.381 222.813 285.494 223.409 285.388 223.987C285.282 224.564 284.964 225.082 284.497 225.437C284.299 225.598 284.088 225.739 283.864 225.861C283.188 226.227 282.692 226.428 282.166 226.676C281.136 227.148 280.15 227.634 279.17 228.167C277.225 229.225 275.348 230.404 273.55 231.696C273.382 231.822 273.222 231.958 273.07 232.103C272.956 232.196 272.926 232.33 273.043 232.05C273.112 231.824 273.113 231.582 273.045 231.356C273.003 231.213 272.932 231.081 272.835 230.968C272.762 230.904 272.885 231.011 273.047 231.087C273.475 231.289 273.917 231.459 274.371 231.594L274.559 231.654L274.616 231.661C274.682 231.678 274.75 231.687 274.818 231.688C275.037 231.708 275.257 231.715 275.476 231.71C277.682 231.578 279.876 231.295 282.043 230.863C286.529 230.04 291.023 229.014 295.502 227.947L302.213 226.291L305.622 225.423C307.154 225.073 308.761 225.274 310.159 225.991C310.882 226.361 311.522 226.874 312.04 227.5C312.557 228.126 312.942 228.851 313.169 229.631C313.415 230.483 313.421 231.386 313.187 232.241C312.963 233.02 312.582 233.745 312.066 234.37C311.181 235.408 310.116 236.277 308.922 236.935C307.821 237.571 306.661 238.101 305.46 238.518L305.677 238.427L286.481 247.911L287.278 246.307C287.766 249.464 287.902 252.665 287.683 255.852C287.529 259.117 286.719 262.316 285.304 265.262C284.547 266.799 283.479 268.162 282.167 269.264C280.855 270.367 279.328 271.184 277.684 271.665C276.876 271.891 276.051 272.051 275.217 272.142L272.848 272.297C271.278 272.359 269.717 272.367 268.163 272.321C261.985 272.078 255.825 271.51 249.707 270.62C243.601 269.781 237.525 268.774 231.482 267.598L231.701 267.603C216.042 269.684 200.347 271.348 184.648 273.042C168.934 274.576 153.209 276.106 137.378 276.631C129.407 277.024 121.418 276.727 113.499 275.743C111.425 275.441 109.396 274.885 107.458 274.088C105.463 273.184 103.684 271.866 102.238 270.222C99.5686 266.985 97.6701 263.184 96.6862 259.105C94.8038 251.269 94.102 243.196 94.6038 235.152C94.9202 227.19 95.7861 219.259 97.1955 211.416C97.2563 211.088 97.433 210.792 97.6934 210.583C97.9538 210.374 98.2806 210.266 98.6143 210.278C108.458 210.621 118.299 211.03 128.138 211.506C137.978 211.972 147.82 212.347 157.657 212.899L157.687 212.9C157.86 212.91 158.022 212.987 158.139 213.114C158.257 213.24 158.321 213.408 158.317 213.581L158.09 224.846L158.089 224.866C158.087 224.987 158.037 225.101 157.95 225.185C157.863 225.268 157.746 225.314 157.626 225.311C157.506 225.309 157.391 225.259 157.308 225.172C157.224 225.085 157.179 224.969 157.181 224.848V224.846L157.458 213.58C157.459 213.534 157.479 213.49 157.512 213.458C157.545 213.425 157.589 213.407 157.635 213.407C157.682 213.407 157.726 213.425 157.759 213.458C157.792 213.49 157.811 213.534 157.812 213.58H157.812Z" fill="#020202"/>
<path d="M338.322 545.313L325.347 545.602L323.182 553.949C322.159 574.625 298.232 567.06 298.232 567.06L299.391 580.937C299.781 586.031 299.88 591.144 299.688 596.249C299.495 602.527 300.673 612.459 309.471 615.546C322.668 620.177 359.147 618.435 359.147 618.435L362.871 599.539C358.502 599.308 354.252 598.032 350.478 595.818C346.704 593.604 343.516 590.516 341.183 586.815C338.66 582.78 337.412 578.079 337.599 573.324L338.322 545.313Z" stroke="#020202" stroke-width="0.96777" stroke-linecap="round" stroke-linejoin="round"/>
<path d="M76.6291 354.402C77.3179 354.379 77.9706 354.088 78.4495 353.593C78.9283 353.097 79.196 352.435 79.196 351.745C79.196 351.056 78.9283 350.394 78.4495 349.898C77.9706 349.403 77.3179 349.112 76.6291 349.088C75.9403 349.112 75.2877 349.403 74.8088 349.898C74.3299 350.394 74.0623 351.056 74.0623 351.745C74.0623 352.435 74.3299 353.097 74.8088 353.593C75.2877 354.088 75.9403 354.379 76.6291 354.402V354.402Z" fill="#020202"/>
<path d="M87.4699 360.779C88.1587 360.756 88.8113 360.465 89.2901 359.969C89.7689 359.474 90.0366 358.812 90.0366 358.122C90.0366 357.433 89.7689 356.771 89.2901 356.275C88.8113 355.78 88.1587 355.489 87.4699 355.465C86.7811 355.489 86.1286 355.78 85.6497 356.275C85.1709 356.771 84.9033 357.433 84.9033 358.122C84.9033 358.812 85.1709 359.474 85.6497 359.969C86.1286 360.465 86.7811 360.756 87.4699 360.779V360.779Z" fill="#020202"/>
<path d="M100.223 365.881C100.912 365.857 101.565 365.567 102.044 365.071C102.523 364.575 102.79 363.913 102.79 363.224C102.79 362.535 102.523 361.872 102.044 361.377C101.565 360.881 100.912 360.591 100.223 360.567C99.5347 360.591 98.8821 360.881 98.4032 361.377C97.9243 361.872 97.6567 362.535 97.6567 363.224C97.6567 363.913 97.9243 364.575 98.4032 365.071C98.8821 365.567 99.5347 365.857 100.223 365.881V365.881Z" fill="#020202"/>
<path d="M114.89 363.968C115.579 363.944 116.232 363.654 116.71 363.158C117.189 362.662 117.457 362 117.457 361.311C117.457 360.622 117.189 359.96 116.71 359.464C116.232 358.968 115.579 358.678 114.89 358.654C114.202 358.678 113.549 358.968 113.07 359.464C112.591 359.96 112.324 360.622 112.324 361.311C112.324 362 112.591 362.662 113.07 363.158C113.549 363.654 114.202 363.944 114.89 363.968Z" fill="#020202"/>
<path d="M128.919 353.765C129.608 353.741 130.261 353.451 130.74 352.955C131.219 352.459 131.486 351.797 131.486 351.108C131.486 350.418 131.219 349.756 130.74 349.261C130.261 348.765 129.608 348.474 128.919 348.451C128.231 348.474 127.578 348.765 127.099 349.261C126.62 349.756 126.352 350.418 126.352 351.108C126.352 351.797 126.62 352.459 127.099 352.955C127.578 353.451 128.231 353.741 128.919 353.765V353.765Z" fill="#020202"/>
<path d="M139.76 341.649C140.449 341.625 141.101 341.335 141.58 340.839C142.059 340.343 142.327 339.681 142.327 338.992C142.327 338.303 142.059 337.641 141.58 337.145C141.101 336.649 140.449 336.359 139.76 336.335C139.071 336.359 138.419 336.649 137.94 337.145C137.461 337.641 137.193 338.303 137.193 338.992C137.193 339.681 137.461 340.343 137.94 340.839C138.419 341.335 139.071 341.625 139.76 341.649Z" fill="#020202"/>
<path d="M146.775 329.533C147.463 329.509 148.116 329.219 148.595 328.723C149.074 328.227 149.341 327.565 149.341 326.876C149.341 326.187 149.074 325.525 148.595 325.029C148.116 324.533 147.463 324.243 146.775 324.219C146.086 324.243 145.433 324.533 144.954 325.029C144.476 325.525 144.208 326.187 144.208 326.876C144.208 327.565 144.476 328.227 144.954 328.723C145.433 329.219 146.086 329.509 146.775 329.533V329.533Z" fill="#020202"/>
<path d="M152.514 315.504C153.202 315.48 153.855 315.19 154.334 314.694C154.813 314.198 155.08 313.536 155.08 312.847C155.08 312.158 154.813 311.495 154.334 311C153.855 310.504 153.202 310.214 152.514 310.19C151.825 310.214 151.172 310.504 150.694 311C150.215 311.495 149.947 312.158 149.947 312.847C149.947 313.536 150.215 314.198 150.694 314.694C151.172 315.19 151.825 315.48 152.514 315.504Z" fill="#020202"/>
<path d="M159.528 301.475C160.217 301.451 160.87 301.161 161.348 300.665C161.827 300.169 162.095 299.507 162.095 298.818C162.095 298.128 161.827 297.466 161.348 296.971C160.87 296.475 160.217 296.184 159.528 296.161C158.839 296.184 158.187 296.475 157.708 296.971C157.229 297.466 156.962 298.128 156.962 298.818C156.962 299.507 157.229 300.169 157.708 300.665C158.187 301.161 158.839 301.451 159.528 301.475V301.475Z" fill="#020202"/>
<path d="M163.354 288.083C164.043 288.06 164.696 287.769 165.175 287.274C165.654 286.778 165.921 286.116 165.921 285.426C165.921 284.737 165.654 284.075 165.175 283.579C164.696 283.083 164.043 282.793 163.354 282.769C162.666 282.793 162.013 283.083 161.534 283.579C161.055 284.075 160.787 284.737 160.787 285.426C160.787 286.116 161.055 286.778 161.534 287.274C162.013 287.769 162.666 288.06 163.354 288.083V288.083Z" fill="#020202"/>
<path d="M174.195 130.575C174.884 130.551 175.536 130.261 176.015 129.765C176.494 129.269 176.762 128.607 176.762 127.918C176.762 127.229 176.494 126.566 176.015 126.071C175.536 125.575 174.884 125.285 174.195 125.261C173.506 125.285 172.854 125.575 172.375 126.071C171.896 126.566 171.628 127.229 171.628 127.918C171.628 128.607 171.896 129.269 172.375 129.765C172.854 130.261 173.506 130.551 174.195 130.575Z" fill="#020202"/>
<path d="M176.108 143.967C176.797 143.943 177.45 143.652 177.928 143.157C178.407 142.661 178.675 141.999 178.675 141.309C178.675 140.62 178.407 139.958 177.928 139.462C177.45 138.967 176.797 138.676 176.108 138.652C175.419 138.676 174.767 138.967 174.288 139.462C173.809 139.958 173.541 140.62 173.541 141.309C173.541 141.999 173.809 142.661 174.288 143.157C174.767 143.652 175.419 143.943 176.108 143.967Z" fill="#020202"/>
<path d="M178.021 157.996C178.71 157.972 179.363 157.682 179.841 157.186C180.32 156.69 180.588 156.028 180.588 155.339C180.588 154.649 180.32 153.987 179.841 153.491C179.363 152.996 178.71 152.705 178.021 152.682C177.332 152.705 176.68 152.996 176.201 153.491C175.722 153.987 175.454 154.649 175.454 155.339C175.454 156.028 175.722 156.69 176.201 157.186C176.68 157.682 177.332 157.972 178.021 157.996Z" fill="#020202"/>
<path d="M179.296 172.662C179.985 172.639 180.638 172.348 181.117 171.852C181.596 171.357 181.863 170.695 181.863 170.005C181.863 169.316 181.596 168.654 181.117 168.158C180.638 167.662 179.985 167.372 179.296 167.348C178.608 167.372 177.955 167.662 177.476 168.158C176.997 168.654 176.73 169.316 176.73 170.005C176.73 170.695 176.997 171.357 177.476 171.852C177.955 172.348 178.608 172.639 179.296 172.662V172.662Z" fill="#020202"/>
<path d="M179.934 184.778C180.623 184.755 181.276 184.464 181.754 183.969C182.233 183.473 182.501 182.811 182.501 182.121C182.501 181.432 182.233 180.77 181.754 180.274C181.276 179.778 180.623 179.488 179.934 179.464C179.245 179.488 178.593 179.778 178.114 180.274C177.635 180.77 177.367 181.432 177.367 182.121C177.367 182.811 177.635 183.473 178.114 183.969C178.593 184.464 179.245 184.755 179.934 184.778V184.778Z" fill="#020202"/>
<path d="M179.934 200.72C180.623 200.697 181.276 200.406 181.755 199.911C182.233 199.415 182.501 198.753 182.501 198.063C182.501 197.374 182.233 196.712 181.755 196.216C181.276 195.721 180.623 195.43 179.934 195.406C179.246 195.43 178.593 195.721 178.114 196.216C177.635 196.712 177.368 197.374 177.368 198.063C177.368 198.753 177.635 199.415 178.114 199.911C178.593 200.406 179.246 200.697 179.934 200.72V200.72Z" fill="#020202"/>
<path d="M177.383 218.576C178.072 218.552 178.725 218.262 179.204 217.766C179.683 217.27 179.95 216.608 179.95 215.919C179.95 215.23 179.683 214.567 179.204 214.072C178.725 213.576 178.072 213.286 177.383 213.262C176.695 213.286 176.042 213.576 175.563 214.072C175.084 214.567 174.817 215.23 174.817 215.919C174.817 216.608 175.084 217.27 175.563 217.766C176.042 218.262 176.695 218.552 177.383 218.576V218.576Z" fill="#020202"/>
<path d="M78.7396 264.383H100.237C104.188 273.055 107.896 272.673 107.896 272.673C97.0553 287.339 78.7396 264.383 78.7396 264.383Z" fill="#020202"/>
<path d="M178.041 111.976C178.041 111.976 193.791 181.916 180.805 231.861L184.581 233.083C184.581 233.083 190.059 208.196 192.708 203.803C209.88 175.321 199.722 165.541 199.722 165.541C187.606 155.976 178.041 111.976 178.041 111.976" fill="#020202"/>
<path d="M103.113 212.73C113.835 212.618 124.469 211.975 135.131 211.523L167.089 210.096L166.144 210.315C166.025 210.369 166.348 210.169 166.486 210.058C166.679 209.896 166.864 209.723 167.039 209.541C167.424 209.142 167.777 208.712 168.094 208.258C168.771 207.245 169.315 206.151 169.715 205.001C170.544 202.496 171.018 199.887 171.123 197.251C171.159 195.889 171.269 194.53 171.188 193.143L171.135 191.07L170.952 188.985C170.86 187.594 170.675 186.203 170.456 184.811L169.852 180.564C168.955 174.817 168.296 169.026 167.934 163.211C167.477 157.396 167.658 151.549 168.476 145.773C168.794 151.524 169.505 157.246 170.603 162.9C171.592 168.557 172.774 174.176 174.022 179.778C175.478 185.567 176.215 191.514 176.215 197.484C176.131 200.626 175.603 203.741 174.645 206.735C174.115 208.322 173.384 209.834 172.468 211.235C171.977 211.977 171.414 212.667 170.785 213.296C170.453 213.628 170.102 213.94 169.734 214.231C169.275 214.587 168.78 214.893 168.258 215.145C167.983 215.278 167.683 215.352 167.377 215.363L167.312 215.364C161.943 215.518 156.602 215.72 151.242 215.716C145.886 215.738 140.529 215.734 135.17 215.558C129.813 215.445 124.452 215.146 119.099 214.755C113.735 214.394 108.397 213.718 103.113 212.73V212.73Z" fill="#020202"/>
</svg>
